<svg xmlns="http://www.w3.org/2000/svg" xmlns:xlink="http://www.w3.org/1999/xlink" viewBox="0 0 787.28 531.91" xmlns:v="https://vecta.io/nano"><style><![CDATA[.E{isolation:isolate}.j,.l,.m{mix-blend-mode:multiply}.AG{fill:none}.AH{stroke-miterlimit:10}.AI{stroke-width:.5}.AJ{fill:#8098af}.AK{stroke:#061537}.AL{fill:#ffd3c8}.AM{fill:#fff}.AN{fill:#2a3756}.AO{stroke-linecap:round}.AP{fill:#f1b2a2}.AQ{fill:#4c7fff}.AR{fill:#e6e6e6}.AS{fill:#824848}.AT{fill:#955454}.AU{stroke:#301913}.AV{fill:#659cff}.AW{fill:#4c2603}.AX{fill:#061537}.AY{fill:#00bcff}.AZ{fill:#f44259}.Aa{fill:#56d4b7}.Ab{stroke-width:7.13}]]></style><defs><clipPath id="A"><path d="M645.25 32.83a2.44 2.44 0 0 0-.4 1.38v27.07c2.71 19.24 11 28.29 21.71 27.32l-.37 7.81a28 28 0 0 0-.35 5.09c.34 2.94 1.64 5.58 2 8.91a16.55 16.55 0 0 0 8.73 12 11.85 11.85 0 0 0 5.52-.26c14.63-4.08 16-24.6 16-24.6s-2.4-1.38-2.81-9.93-.15-28.4-.15-28.4 3.2-1.22 3.87-7.79-1.79-7.67-4.35-7.55-5.26 5.87-5.73 10.42c-4.09 2.27-2.69-2.83-3-8.74s-6.89-5.72-8.16-9.4a29 29 0 0 1-1.05-9.59 39.16 39.16 0 0 1-27-.76z" class="AG"/></clipPath><clipPath id="B"><path d="M427.71,435.61l-8.49,20.87L431,473s7.91,6.06,12.38,4.1S453.91,462,453.91,462l6.71-14Z" class="AG"/></clipPath><clipPath id="C"><path d="M452.09 469.19l-9-1.53c-14.11-2.2-23.25-11.49-22.11-16.08 0 0-54.88-8.7-56.89 13.86l76.37 27.79a3.65 3.65 0 0 0 4.67-2.18s0-.09.05-.13z" class="AG"/></clipPath><clipPath id="D"><path d="M485.29,452.33l-.83,22.51,16.75,11.47s10.31.67,13.83-2.69,3.89-15.47,3.89-15.47l1.5-15.5Z" class="AG"/></clipPath><clipPath id="E"><path d="M520.49 475.43l-9.8 1.76c-14 2.76-25.78-2.85-26.28-7.55 0 0-54.55 10.6-48.71 32.48h81.38a3.64 3.64 0 0 0 3.64-3.64h0z" class="AG"/></clipPath><clipPath id="F"><path d="M495.32 271.74s-27.5-3.38-42.43 51.24L419.24 439.8l44.84 12.13 90.79-167s18.4 3.73 21.11 0-11.51-13.17-11.51-13.17z" class="AG"/></clipPath><clipPath id="G"><path d="M715.25,315s-14.34,49.1-177.67,30.92c0,0-6.05.56-5.76,14.57s-3.37,96.06-3.37,96.06H479s-6.35-140.1,7.57-158.15,155.8-18,155.8-18l66,30.73Z" class="AG"/></clipPath><clipPath id="H"><path d="M701.76,99.5s45.79,8.42,50.53,61.94S763.81,277.16,740.57,283s-91,2.27-91,2.27l-35.32-16.91-62-3.91V234.38s24.76,2,28.4-2,30.92-104.29,46.17-111.1c0,0,11-14.17,25.93-17.09,3.82-.75,14.25-2.07,14.25-2.07s3.55,4.46,6,4.28,6.64-5.25,6.64-5.25Z" class="AG"/></clipPath><clipPath id="I"><path d="M300.92,437.84s34.68,6.87,26.58,14.94-54.22,15.78-56.45,12.7-9.07-26-9.07-26l32-14.46Z" class="AN"/></clipPath><clipPath id="J"><path d="M254.82,457.93s29,20.19,18.37,24.34-56-7.28-56.81-11,2.1-27.41,2.1-27.41l35.13-.42Z" class="AN"/></clipPath><clipPath id="K"><path d="M71.05 235.71c3.2-47 5.35-58.72 10.85-65.6s25.56-9.81 39.73-10.36 34.83 3.44 40.71 7.48 9.42 21.18 8.51 42.49c-.79 18.47-4.67 38.1-4.51 46.64.28 15.87 3.4 22 5.66 33.79-17.7 12.32-86.21 18.93-100.91 16-1.45-16.07-1.58-47.67-.04-70.44z" class="AM"/></clipPath><clipPath id="L"><path d="M143.15,150.39l-20.86-3L120,164.57a4.49,4.49,0,0,0,1,3.47,17.87,17.87,0,0,0,11.8,6.42c6.4.75,7.21-2.19,7.12-4a21.74,21.74,0,0,1,.44-5.07Z" class="AL"/></clipPath><clipPath id="M"><path d="M639.95 258.24l-62.61 1.22-25.01-3.15-.05-4.34-43.84-9.24 35.42-1.92 50.86.71 45.23 16.72z" class="AG"/></clipPath><path id="N" d="M99.9 289.89s-10 47.56 18.93 48.32l107 3.77 37 107.83 44.26-16.07S275.28 314.8 263.31 305s-88.08-15.86-102.76-15.48-60.65.37-60.65.37z"/></defs><g class="E"><path d="M653.65 359.79v168.14m68.04-168.14l21.19 168.14M582.44 359.79L562 527.93" stroke="#8098af" class="AG AH AO Ab"/><path d="M787.28,166.71H661.41L644.53,327.9a19.43,19.43,0,0,1-19.33,17.41H537.36a7.24,7.24,0,0,0-7.24,7.24h0a7.24,7.24,0,0,0,7.24,7.24h208.1a25.16,25.16,0,0,0,25-22.69Z" fill="#ffe39b"/><path d="M786.71,171.31a5.22,5.22,0,0,0-4.7-5.72,4.36,4.36,0,0,0-.51,0h0a6.41,6.41,0,0,0-6.38,5.75L758.84,327.89a19.44,19.44,0,0,1-19.33,17.42H623.09a7.24,7.24,0,0,0-7.23,7.24h0a7.24,7.24,0,0,0,7.23,7.24H745.45a25.16,25.16,0,0,0,25-22.7Z" fill="#e6b147"/><path d="M646,58.1s-2.73-9.37-3.94-14.44a45.86,45.86,0,0,1,.16-13.74s-7.69-10-5.63-16.36c5.59-17.39,22-17.08,52.54-4.62a9.62,9.62,0,0,1,6.42,10.85,14.79,14.79,0,0,1,11.67,10.15c3.25,9.3-2.79,28.85-6.27,35.59a79.81,79.81,0,0,1-9,13.13Z" class="AW"/><path d="M645.25 32.83a2.44 2.44 0 0 0-.4 1.38v27.07c2.71 19.24 11 28.29 21.71 27.32l-.37 7.81a28 28 0 0 0-.35 5.09c.34 2.94 1.64 5.58 2 8.91a16.55 16.55 0 0 0 8.73 12 11.85 11.85 0 0 0 5.52-.26c14.63-4.08 16-24.6 16-24.6s-2.4-1.38-2.81-9.93-.15-28.4-.15-28.4 3.2-1.22 3.87-7.79-1.79-7.67-4.35-7.55-5.26 5.87-5.73 10.42c-4.09 2.27-2.69-2.83-3-8.74s-6.89-5.72-8.16-9.4a29 29 0 0 1-1.05-9.59 39.16 39.16 0 0 1-27-.76z" class="AL"/><g clip-path="url(#A)" class="AP"><path d="M664.92 88.81s15.88-2.08 19.86-13.75c0 0-4.43 21.17-17.59 25.48s-2.27-11.73-2.27-11.73z"/></g><path d="M668.66 42.66a9.48 9.48 0 0 0-8.9 0m-9.35 1.39a8.09 8.09 0 0 0-6.41-1.44" class="AG AH AK AO"/><circle cx="662.31" cy="50.29" r="1.27" class="AX"/><path d="M661,50.56a4.19,4.19,0,0,1,5,.15" class="AG AH AI AK"/><circle cx="647.05" cy="50.29" r="1.27" class="AX"/><g class="AG AH AI AK"><path d="M645.4,50.52a4.22,4.22,0,0,1,5,.23"/><path d="M655.23,47.75a23.84,23.84,0,0,1-1.54,8.35c-3.53,6.93-6.1,15.71,7.34,10.38" class="AO"/></g><path d="M656.35 77c3.51.33 7.23-5.07 7.23-5.07a31.75 31.75 0 0 1-7.23 1.79 14.43 14.43 0 0 1-5.49-1.79s1.98 4.76 5.49 5.07z" class="AH AI AK AM"/><g class="AG AI AK"><ellipse cx="644.51" cy="51.57" rx="7.63" ry="7.64"/><ellipse cx="663.58" cy="51.57" rx="7.63" ry="7.64"/><path d="M671.2 49l19.07-2.56m-38.14 3.03l5.09.37" class="AH AO"/></g><path d="M427.71,435.61l-8.49,20.87L431,473s7.91,6.06,12.38,4.1S453.91,462,453.91,462l6.71-14Z" class="AL"/><g clip-path="url(#B)" class="AP"><path d="M418.52,432.26l37.54,30.5,6.09-16.71Z"/></g><path d="M452.09 469.19l-9-1.53c-14.11-2.2-23.25-11.49-22.11-16.08 0 0-54.88-8.7-56.89 13.86l76.37 27.79a3.65 3.65 0 0 0 4.67-2.18s0-.09.05-.13z" class="AN"/><g clip-path="url(#C)" class="AM"><path d="M341.93 483.645l10.373-28.501 101.618 36.986-10.373 28.501z"/></g><path d="M485.29,452.33l-.83,22.51,16.75,11.47s10.31.67,13.83-2.69,3.89-15.47,3.89-15.47l1.5-15.5Z" class="AL"/><g clip-path="url(#D)" class="AP"><path d="M475.51,452.33l45.72,15.82V450.36Z"/></g><path d="M520.49 475.43l-9.8 1.76c-14 2.76-25.78-2.85-26.28-7.55 0 0-54.55 10.6-48.71 32.48h81.38a3.64 3.64 0 0 0 3.64-3.64h0z" class="AN"/><g clip-path="url(#E)" class="AM"><path d="M421.12 496.47h108.14v30.33H421.12z"/></g><path d="M495.32 271.74s-27.5-3.38-42.43 51.24L419.24 439.8l44.84 12.13 90.79-167s18.4 3.73 21.11 0-11.51-13.17-11.51-13.17z" class="AT"/><g clip-path="url(#F)" class="AS"><path d="M487.1,271.74s10.48,5.11,10.48,12.36-7.77,11.58-7.77,11.58L406.05,459.25l63.85,6.86,17.2-45.35,31.61-107.45,64.95-31.23-68-14.91Z"/></g><path d="M715.25,315s-14.34,49.1-177.67,30.92c0,0-6.05.56-5.76,14.57s-3.37,96.06-3.37,96.06H479s-6.35-140.1,7.57-158.15,155.8-18,155.8-18l66,30.73Z" class="AT"/><g clip-path="url(#G)" class="AS"><path d="M628.3 282.08s35.16 45.72-14.3 41.15-96.5-6.2-98.27 36.23L512 462.74l31.59-3.49 13.68-99.8s119.65 35.79 155.5-8.86 15.17-39.14 15.17-39.14l-91.23-40.55z"/></g><g class="AG AH AI AU"><path d="M424.26 428.87l45.09 13.26 8.38-15.31-.74-68.53c.59-36.8 3.75-57.62 12.53-62.77 19.75-11.58 84.72-13.44 84.72-13.44l67-1.72M479.85 448.09h48.65l3-84.34c0-15.56 5-18 5-18s-16.54 6-25.19-3.67m25.17 3.67A24.39 24.39 0 0 1 515.69 333"/><path d="M677.63,298.86S659.3,323,579.81,318.64s-79.71,7.23-77.18,129.45"/></g><path d="M725,286.62s.89,28.47-8.87,32l-67.87-35h78.23Z" class="AQ"/><path d="M701.76,99.5s45.79,8.42,50.53,61.94S763.81,277.16,740.57,283s-91,2.27-91,2.27l-35.32-16.91-62-3.91V234.38s24.76,2,28.4-2,30.92-104.29,46.17-111.1c0,0,11-14.17,25.93-17.09,3.82-.75,14.25-2.07,14.25-2.07s3.55,4.46,6,4.28,6.64-5.25,6.64-5.25Z" class="AV"/><g clip-path="url(#H)"><g class="AQ"><path d="M714 118.71a101.75 101.75 0 0 0-28.9 79.34c3.33 40.51-71.91 33.9-68.87 8.3l-2.72 60.83 35.82-2.12v-35.43s27-.77 39.46-2a263.32 263.32 0 0 0 27.32-4.68 172 172 0 0 1-10.22-40.22c-2.53-21.49.92-48.3.92-48.3a54.56 54.56 0 0 1 2.58-8.48 48.69 48.69 0 0 1 4.61-7.24z"/><path d="M735 87.06s8.66 19.93 10.42 32.18c11 76.24 5.49 123.85-5 128.12-18.19 7.42-91.71 5.2-91.71 5.2l-.5 14.44 113.65 3.13 14-113.07-34.01-66.92z"/></g><path d="M649.04 229.23h10.94v30.33h-10.94z" class="AM"/><path d="M626.56 121.32l-20.29 7.32-37 102.72-47.37-4.62 13.77 47.46 82.24-7-4-22.29 1.77-30.76s1.67-34.47 3.51-50.3 7.37-42.53 7.37-42.53z" class="AQ"/></g><path d="M626.56 121.32s-11 47.06-12.59 147.05M599 231.36c-11-5.65-18.31 1.06-18.31 1.06s17.08 2 15.43 17.66m131.8 9.26c-22.66 2.83-78.62 0-78.62 0v-29.71s58.71-1.77 66.78-6.71c0 0-22.4-88.41-1.29-103.78m13.13 118.59c5.42-11.67-11.84-14.82-11.84-14.82s.78-2.73 12.85-4.09" class="AG AH AI AU"/><g class="AM"><path d="M696.17 94.16a25.92 25.92 0 0 1-12.6 6 15.78 15.78 0 0 0-10.57 6.27s3.63.26 3.63 7.55a9 9 0 0 0 5.67 9.02 143 143 0 0 1 8.64-13 126.34 126.34 0 0 1 10.92-10.5 7.09 7.09 0 0 1-4-2.81 7.83 7.83 0 0 0-1.69-2.53z"/><path d="M666.19 96.36s-.12 8.31 6.83 10.08a30.82 30.82 0 0 0-8.24 3.47 68.67 68.67 0 0 0-8.14 9.23 37.29 37.29 0 0 1 2.24-15.38c3-7.76 7.31-7.4 7.31-7.4z"/><path d="M675.85 108.48s-2.7-1.23-4.12 2.41c0 0-.41-4-3.34-3.14l.6-2a28.76 28.76 0 0 0 5.14.7 10.67 10.67 0 0 0 2.46-.28c3.65-1.05-.74 2.31-.74 2.31z"/></g><path d="M149.37 359.79v168.14M81.34 359.79l-21.2 168.14m160.44-168.14l20.48 168.14" stroke="#8098af" class="AG AH AO Ab"/><path d="M15.75,166.71H141.62L158.49,327.9a19.43,19.43,0,0,0,19.33,17.41h87.85a7.24,7.24,0,0,1,7.23,7.24h0a7.24,7.24,0,0,1-7.23,7.24H57.57a25.15,25.15,0,0,1-25-22.69Z" fill="#ffe39b"/><path d="M16.31,171.31a5.23,5.23,0,0,1,4.7-5.72,4.36,4.36,0,0,1,.51,0h0a6.4,6.4,0,0,1,6.38,5.75L44.19,327.89a19.43,19.43,0,0,0,19.33,17.42H179.93a7.24,7.24,0,0,1,7.24,7.24h0a7.24,7.24,0,0,1-7.24,7.24H57.58a25.15,25.15,0,0,1-25-22.7Z" fill="#e6b147"/><path d="M300.92,437.84s34.68,6.87,26.58,14.94-54.22,15.78-56.45,12.7-9.07-26-9.07-26l32-14.46Z" class="AN"/><g clip-path="url(#I)"><path d="M280.44 459.53c-4-3-8.39-6-13.4-6.61-.92-.11-2 0-2.51.76a2.34 2.34 0 0 0-.19 1.39c.26 2.68 1.7 5.09 3.26 7.28a25.49 25.49 0 0 0 5.58 6 12.2 12.2 0 0 0 7.65 2.53c2.06-.11 6.88-1.77 6.74-4.49-.13-2.39-5.37-5.54-7.13-6.86z" class="AY"/><g class="AN"><path d="M313.31 456c-.17 2.48.05 5.33 2 6.89s5.14 1.1 7.53 0a16.5 16.5 0 0 0 7.76-7.43 12.59 12.59 0 0 0 .36-10.58 16.75 16.75 0 0 0-2.23-3.48 12.26 12.26 0 0 0-4.17-3.65c-1.49-.71-4-1.11-5.24.18s-2.11 3.78-2.82 5.37a38.2 38.2 0 0 0-3.19 12.7z"/><path d="M307.7 459.26a74.7 74.7 0 0 1-19.5 1.65c-3.38-.09-7.33-.76-8.3-4.12-.75-2.58.68-5.65 2.36-8.11a34.51 34.51 0 0 1 10.52-10.06 42.44 42.44 0 0 0 5.06-3.18 8.37 8.37 0 0 0 3.19-5.1 5.4 5.4 0 0 0-2.3-5 11.37 11.37 0 0 0-5.28-1.67c-8.29-1-17.58.71-25 6.57s-12.3 16.35-10.14 24.85a20.78 20.78 0 0 0 7.54 10.88c8.09 6.54 19.09 9.1 30.05 7a49 49 0 0 0 21.45-10.31c3-2.45 10.15-7.09 12.3-10.49 3.26-5.14-5 .85-6.65 1.86-4.34 2.64-10.62 4.11-15.3 5.23z"/></g></g><path d="M254.82,457.93s29,20.19,18.37,24.34-56-7.28-56.81-11,2.1-27.41,2.1-27.41l35.13-.42Z" class="AN"/><g clip-path="url(#J)"><path d="M227.37 469.58c-2.48-4.39-5.28-8.88-9.63-11.43-.8-.46-1.85-.84-2.6-.3a2.33 2.33 0 0 0-.73 1.19c-.84 2.56-.48 5.35.06 8a25.53 25.53 0 0 0 2.71 7.72 12.19 12.19 0 0 0 6 5.39c1.93.72 7 1.14 8-1.42.82-2.27-2.73-7.23-3.81-9.15z" class="AY"/><g class="AN"><path d="M258.92 479.49c-1.16 2.2-2.09 4.89-.94 7.1 1.22 2.36 4.26 3.07 6.91 3a16.46 16.46 0 0 0 10.11-3.71 12.56 12.56 0 0 0 4.57-9.55 16.61 16.61 0 0 0-.64-4.08 12.39 12.39 0 0 0-2.36-5c-1.08-1.25-3.19-2.62-4.88-1.94s-3.45 2.61-4.73 3.79a38.15 38.15 0 0 0-8.04 10.39z"/><path d="M252.45 480.26a74 74 0 0 1-18.52-6.26c-3.07-1.45-6.42-3.64-6-7.11.35-2.66 2.89-4.9 5.41-6.48a34.61 34.61 0 0 1 13.68-5 42.6 42.6 0 0 0 5.91-.89 8.35 8.35 0 0 0 5-3.39 5.39 5.39 0 0 0-.09-5.54 11.31 11.31 0 0 0-4.16-3.64c-7.19-4.25-16.39-6.39-25.53-4s-17.83 10.05-19.26 18.68a20.86 20.86 0 0 0 2.55 13c4.8 9.23 13.84 16 24.72 18.47a49.11 49.11 0 0 0 23.78-.85c3.75-1 12.15-2.43 15.48-4.68 5-3.4-4.91-1.23-6.84-1-5.05.72-11.39-.45-16.13-1.31z"/></g></g><use xlink:href="#N" class="AZ"/><use xlink:href="#N" class="AS"/><path d="M308.61 436.05l-45.04 15.9-7.58-13.72L305.56 420l3.05 16.05z" fill="#ff9700"/><g class="AS"><path d="M308.61 436.05l-45.04 15.9-7.58-13.72L305.56 420l3.05 16.05z"/><path d="M287.14 439.22a61.29 61.29 0 0 0 9.93-11.1 44.14 44.14 0 0 0 3.7-6.36l4.79-1.76 3.05 16.05-34.84 12.3a66.13 66.13 0 0 0 13.37-9.13z"/></g><path d="M74.37 291.77S64 342.28 94 343.08l111 4L213.58 456l45.48-1.6s-2.69-136.12-15.12-146.54-91.4-16.86-106.63-16.49-62.94.4-62.94.4z" class="AT"/><path class="j AZ" d="M225.55 454.47a49.88 49.88 0 0 0 3.36-10.19l2.48-10.93a210.53 210.53 0 0 0 3.53-26.23l1.84-23c.64-7.29 1.24-14.6 1.32-21.93.17-14.23-1.59-28.86-9.86-40.84A90.28 90.28 0 0 0 202.58 297c19.1 2.76 36.13 6.43 41.36 10.82 12.43 10.42 15.12 146.54 15.12 146.54l-34.12 1.2c.21-.37.43-.72.61-1.09zM74.37 291.77H85.1l.1 2.18a65.58 65.58 0 0 0 1.26 9.36 34.11 34.11 0 0 0 2.64 8.52c2.71 5.37 7.78 9.28 12.75 12.44a89 89 0 0 0 16.73 8.3c12.49 4.66 25.78 7 39 8.46 8.86 1 17.74 1.43 26.61 2.2 4.34.37 8.69.82 13 1.59A35.1 35.1 0 0 1 202 346a5.37 5.37 0 0 1 2.13 1.1l-110.11-4c-30.02-.82-19.65-51.33-19.65-51.33z" opacity=".1"/><path d="M225.06 437.85h0a.44.44 0 0 0 .41-.47l-.19-2.62a.41.41 0 0 0-.47-.41.44.44 0 0 0-.41.47l.2 2.62a.43.43 0 0 0 .46.41z" class="AS"/><path d="M105.21 313.33a27 27 0 0 1-3.44-4 .43.43 0 0 0-.6-.11.44.44 0 0 0-.11.62 28.56 28.56 0 0 0 3.54 4.16.44.44 0 0 0 .3.12.45.45 0 0 0 .32-.14.43.43 0 0 0-.01-.65zm9 4.78a13.89 13.89 0 0 1-3.78-.74l-1.1-.71a.43.43 0 0 0-.61.12.44.44 0 0 0 .11.61l1.15.74c.37.22 1.08.46 4.12.85h.06a.44.44 0 0 0 .43-.39.43.43 0 0 0-.4-.48zm10.71 1l-5.37-.45a.41.41 0 0 0-.47.4.44.44 0 0 0 .4.48l5.37.44h0a.45.45 0 0 0 .44-.41.44.44 0 0 0-.39-.45zm10.73.76l-5.37-.36a.42.42 0 0 0-.47.41.43.43 0 0 0 .41.46l5.37.37h0a.44.44 0 0 0 .44-.42.42.42 0 0 0-.4-.45zm10.74.66l-5.37-.32a.43.43 0 0 0-.47.41.45.45 0 0 0 .42.47l5.37.33h0a.45.45 0 0 0 0-.89zm10.74.64l-5.37-.31a.44.44 0 0 0-.47.41.46.46 0 0 0 .42.47l5.37.32h0a.45.45 0 0 0 0-.89zm10.73.62l-5.36-.31a.44.44 0 0 0 0 .88l5.37.31h0a.44.44 0 0 0 0-.88zm10.74.62l-5.36-.31a.45.45 0 0 0-.47.42.44.44 0 0 0 .41.46l5.38.31h0a.43.43 0 0 0 .44-.41.45.45 0 0 0-.42-.46zm10.75.67l-5.37-.34a.41.41 0 0 0-.46.41.44.44 0 0 0 .4.47l5.38.33h0a.44.44 0 0 0 0-.87zm10.74.73l-5.37-.38a.41.41 0 0 0-.46.4.43.43 0 0 0 .4.47l5.37.38h0a.43.43 0 0 0 .43-.4.44.44 0 0 0-.39-.46zm10.76 1l-5.38-.55a.42.42 0 0 0-.47.4.45.45 0 0 0 .4.48l5.34.54h.06a.45.45 0 0 0 .43-.39.44.44 0 0 0-.4-.49zm4.36 2.85a.42.42 0 0 0-.52-.32.43.43 0 0 0-.32.53c.27 1.18.59 3 .92 5.27a.44.44 0 0 0 .43.37h.07a.45.45 0 0 0 .37-.5l-.97-5.36zm2.06 14l-.4-3.31a.43.43 0 0 0-.48-.38.45.45 0 0 0-.39.49l.38 3.17.24 2.17a.45.45 0 0 0 .45.38h0a.44.44 0 0 0 .39-.48l-.21-2.05zm.81 7.38a.45.45 0 0 0-.49-.38.42.42 0 0 0-.38.48l.54 5.34a.44.44 0 0 0 .44.4h0a.45.45 0 0 0 .4-.48l-.53-5.4zm1.07 10.72a.44.44 0 1 0-.87.08l.49 5.35a.43.43 0 0 0 .45.39h0a.43.43 0 0 0 .4-.48l-.49-5.35zm1 10.7a.41.41 0 0 0-.47-.4.44.44 0 0 0-.41.48l.48 5.35a.44.44 0 0 0 .43.41h0a.45.45 0 0 0 .4-.48zm.94 10.71a.41.41 0 0 0-.47-.39.43.43 0 0 0-.41.47l.46 5.35a.45.45 0 0 0 .44.41h0a.46.46 0 0 0 .41-.48zm.9 10.72a.43.43 0 0 0-.47-.41.44.44 0 0 0-.4.48l.44 5.36a.43.43 0 0 0 .43.4h0a.45.45 0 0 0 .4-.48zm.88 10.72a.44.44 0 1 0-.88.06l.43 5.37a.43.43 0 0 0 .44.4h0a.44.44 0 0 0 .4-.47l-.42-5.37zm.85 10.71a.41.41 0 0 0-.48-.39.43.43 0 0 0-.4.47l.41 5.36a.45.45 0 0 0 .44.4h0a.44.44 0 0 0 .41-.47zm.82 10.73a.42.42 0 0 0-.47-.4.44.44 0 0 0-.41.47l.41 5.36a.44.44 0 0 0 .44.41h0a.44.44 0 0 0 .4-.47z" class="AG AH AI AU"/><path d="M99.12 305.79a.45.45 0 0 0 .16 0 .44.44 0 0 0 .25-.57 15.54 15.54 0 0 1-.74-2.45.44.44 0 0 0-.52-.34.43.43 0 0 0-.34.52 16 16 0 0 0 .78 2.59.44.44 0 0 0 .41.25z" fill="#ff9700"/><path d="M260 455.75l-47.74 1.43-3.04-15.38 52.76-2.27-1.98 16.22z" class="AT"/><path class="j AZ" d="M238.58 452.23a61.64 61.64 0 0 0 12.85-7.55 44.61 44.61 0 0 0 5.46-4.93l5.09-.22-2 16.22-36.93 1.1a65.68 65.68 0 0 0 15.53-4.62z" opacity=".1"/><path d="M175,191.23s31,35,35.52,36.48,52.61,9.63,52.61,9.63l2.56,15.38s-58.26,5.7-64.93,1.71-46.08-37.28-46.08-37.28Z" class="AP"/><path d="M196.5 209.2s-25.69-40.4-36.94-43.32-32.68 5.71-20.68 28.13a195.21 195.21 0 0 0 27.3 38.44s23.08-2.82 30.32-23.25z" class="AV"/><path d="M155.26 165.33a104.61 104.61 0 0 1 8.17 13c3 5.58 5.72 11.35 8.32 17.15a193.4 193.4 0 0 1 7.12 18 118.78 118.78 0 0 1 3.53 12.89 44.26 44.26 0 0 1-16.22 6 195.21 195.21 0 0 1-27.3-38.37c-10.59-19.79 4.87-28.83 16.38-28.67z" class="AQ"/><path d="M71.05 235.71c3.2-47 5.35-58.72 10.85-65.6s25.56-9.81 39.73-10.36 34.83 3.44 40.71 7.48 9.42 21.18 8.51 42.49c-.79 18.47-4.67 38.1-4.51 46.64.28 15.87 3.4 22 5.66 33.79-17.7 12.32-86.21 18.93-100.91 16-1.45-16.07-1.58-47.67-.04-70.44z" class="AM"/><g clip-path="url(#K)"><path d="M146.28 170.67a7.11 7.11 0 0 1-1.89 6 11.82 11.82 0 0 1-5.74 3c-4 1.11-13.14-.08-17.24-4.68-6.82 16.21-14.7 33.45-30.62 42.15a41.17 41.17 0 0 1-14.1 5.1c-5 .65-10.24-.21-14.09-3.17-4.55-3.5-6.6-9.47-6.6-15.33s1.82-11.62 3.9-17.17c3.57-9.51 8.13-18.93 15.55-25.83 11.18-10.38 27-13.42 41.63-13.92 12.3-.41 24.57.67 35.82 4.64s21.28 10.84 27.92 20.62c8.6 12.65 10.72 30 5.47 45.11a5.25 5.25 0 0 1-2.9-.17c-7.86-5-11.85-14.45-16.75-22.7a92.6 92.6 0 0 0-20.36-23.65z" class="AV"/><g class="AY"><path class="l" d="M97.47 276.56c2.06 6.4 4.4 13 9.23 17.7 8.08 7.85 20.87 8.29 30.26 14.51-2.43 6.84-10.53 9.53-17.61 11.13-14 3.18-28.89 5.63-42.41.87-4.57-1.6-9-4.16-11.66-8.22-2.08-3.19-2.87-7.05-3.47-10.82-3-18.9-2.12-38.19-1-57.3q1.71-30.1 4.24-60.17c.48-5.7 1.09-11.68 4.28-16.43a17 17 0 0 1 8.09-6.4c5.06-1.86 4.16 1.89 3.86 5.79a214.93 214.93 0 0 0-.27 27A284.86 284.86 0 0 0 89.06 247c2.42 10 5.26 19.81 8.41 29.56z" opacity=".24"/><path class="l" d="M132.8 302.81c7.46-2.7 14.63-5.18 21.59-8.88 3.28-1.73 6.63-3.76 8.16-6.84a50 50 0 0 0-11.72.37l-18.91 2.07c6.64-2.24 12.85-5.91 18.87-9.34 3-1.72 11.53-5.23 9.08-10.09-.84-1.65-2.72-2.4-4.17-3.4-1.85-1.27-2.11-3.07-1-5 1.43-2.58 4.23-4.23 6.63-5.79a46.32 46.32 0 0 0 7.36-5.88 43.53 43.53 0 0 0 3.65-4c.49 3.88-.38 7.94-.2 11.9s1.42 7.83 2.32 11.72a68.57 68.57 0 0 1 .88 26.69 10.18 10.18 0 0 1-1.62 4.61 12 12 0 0 1-5 3.35c-9.81 4.19-20.91 5.41-31.81 6.3-6.55.49-11.44-5.14-4.11-7.79z" opacity=".24"/></g></g><path d="M245.15 231.74c-1.81-4.51-5.51-8.42-9.84-11.39a15.82 15.82 0 0 0-4.3-2.22c-3.14-.95-6.81-.5-9.79.18a84 84 0 0 0-10.83 3.79l-9.91 3.83a12.37 12.37 0 0 1-2.51 1l-56.33 6.55c-7.74-8.19-19.47-30.06-19.47-30.06S101.24 206 95 218c-.07-.32 25.42 36.12 29.22 38.12s21-.85 41.78-6.24c15.74-4.08 29.34-8.32 35-10.14a14.91 14.91 0 0 0 2.8.45c11 .77 9.33-5.48 9.86-5.85l-.28-.37c2.12.75 4.26 1.46 6.42 2.09.88.26 2 .41 2.42-.28.29-.54-.14-1.22-.56-1.75a45.09 45.09 0 0 0-4.68-5l10.66 7.09c.71.47 1.68 1 2.33.53s.36-1.37 0-2.07a26.22 26.22 0 0 0-7.74-8.89l7.18 5.42c1.64 1.24 3.29 2.48 5 3.59 1.58 1 3.55 1.91 5.22 1.34a.75.75 0 0 0 .5-.39.81.81 0 0 0-.14-.59c-2.06-4-5.7-7.21-9.25-10.33l9.51 7.3c1.23.94 2.75 1.95 4.2 1.6a1.26 1.26 0 0 0 .77-.47 1.57 1.57 0 0 0-.07-1.42z" class="AL"/><path d="M128.83 232.59a28.23 28.23 0 0 0 5.24-9.16c-6.12-9.25-11.9-20-11.9-20S101.24 206 95 218c0-.21 10.64 15 19.2 26.31 5.86-1.98 11.21-7.76 14.63-11.72z" class="AP"/><path class="m" d="M213.81 232.33c-2.58.3-4.82 1.37-7.3 2s-4.88.79-7.31 1.22c-6.53 1.16-12.73 3.44-18.89 5.46a347.78 347.78 0 0 1-35.62 9.67c-7.36 1.58-15.15 3.68-23 3.2a12.18 12.18 0 0 0 2.43 2.31c3.79 2 21-.85 41.78-6.24 15.74-4.08 29.34-8.32 35-10.14a14.91 14.91 0 0 0 2.8.45c11 .77 9.33-5.48 9.86-5.85l-.28-.37c2.12.75 4.26 1.46 6.42 2.09a3.94 3.94 0 0 0 1.75.17 83.64 83.64 0 0 0-7.64-3.97z" fill="#ffc9af" opacity=".3"/><path d="M136.94 220.21c-1.95-2.71-17.6-27.19-23-36.3-2.83-4.8-6-9.66-10.71-13.26-3.35-2.57-12.77-8.38-19.56-.5-.36.42-.7.86-1 1.3a18 18 0 0 0-1 1.54c-4.51 7.81-3.18 18.51-.51 27.54a45.15 45.15 0 0 0 1.9 5.21 168.94 168.94 0 0 0 20.42 34.53c10.44-.77 28.25-10.17 33.46-20.06z" class="AV"/><path d="M82.43 201.13q3 4 6.24 7.87c3.64 4.31 7.59 8.36 11.58 12.35s7.93 7.72 12.14 11.32c1.47 1.26 3 2.49 4.52 3.69a41.89 41.89 0 0 1-13.41 3.91 168.94 168.94 0 0 1-20.42-34.53 45.15 45.15 0 0 1-1.9-5.21l-.52-1.83 1.77 2.43z" class="AQ"/><path d="M143.15,150.39l-20.86-3L120,164.57a4.49,4.49,0,0,0,1,3.47,17.87,17.87,0,0,0,11.8,6.42c6.4.75,7.21-2.19,7.12-4a21.74,21.74,0,0,1,.44-5.07Z" class="AL"/><g clip-path="url(#L)" class="AP"><path d="M146.9 162.19c-11.16 14.15-23.32-13-24.11-16.6-.23-1 2.26-.82 3.59-.59 9.41 1.6 22.53 5.87 24 9.38s-1.98 5.9-3.48 7.81z"/></g><path d="M174.22 93a10.35 10.35 0 0 1 1.27 3.71 31 31 0 0 1 .19 10 10.35 10.35 0 0 1-1.3 4.14 11.14 11.14 0 0 1-4.86 3.77 4.88 4.88 0 0 1-3.75.58 3.65 3.65 0 0 1-1.79-1.76c-1.4-2.59-1-5.7-.53-8.59a32.45 32.45 0 0 1 2.07-8.14 12.51 12.51 0 0 1 3.88-5c1.9-1.42 3.6-.6 4.82 1.29z" class="AW"/><path d="M168.46 118.21a79.2 79.2 0 0 1-1.15 14.79v.11l-.19 1c0 .11 0 .23-.06.34l-.4 1.74c-1 3.94-2.84 10.3-5.11 14.34a18.1 18.1 0 0 1-.71 1.17h0a4.91 4.91 0 0 1-.31.44c-.23.31-.45.62-.71.91-4.81 5.26-15.46 4.46-17.78 4a44.86 44.86 0 0 1-21.71-11.76 36.79 36.79 0 0 1-6.58-8.75 34 34 0 0 1-1.85-4.13 32.44 32.44 0 0 1-1.89-8.54c0-.37 0-.74-.07-1.12h0v-.83h0v-.62-.47c0-1.05.07-2.12.18-3.2 0-.39.07-.8.13-1.21a42.47 42.47 0 0 1 3.11-11.13c.25-.59.52-1.16.79-1.72a36.72 36.72 0 0 1 10.4-12.86h0a31.91 31.91 0 0 1 6.16-3.77 40.44 40.44 0 0 1 1.84-.78 29.42 29.42 0 0 1 4-1.28 25.43 25.43 0 0 1 6.62-.77c9.17.11 17.16 5.32 21.58 14.92a37.62 37.62 0 0 1 2.82 8.92 49.82 49.82 0 0 1 .85 7.72l.04 2.54z" class="AL"/><g opacity=".21" class="AP"><path d="M166.64 136.19c-1 3.94-2.84 10.3-5.11 14.34a4.63 4.63 0 0 1-.61-3.32 17.5 17.5 0 0 1 5.66-11 .15.15 0 0 0 .06-.02zM126.11 145l-.66-.53c-3.5-3-7.46-9.26-3.91-13.93a6.71 6.71 0 0 1 7.62-1.94 11.4 11.4 0 0 1 5.8 5.84 12.13 12.13 0 0 1 1.39 6.23 7.21 7.21 0 0 1-3 5.52c-2.35 1.47-5.19.32-7.24-1.19z"/></g><g class="AW"><path d="M102 111a67 67 0 0 0 1.41 6.55c.23.81 1.17 5.87 1.89 6.1a2.45 2.45 0 0 0 .92.14 2.83 2.83 0 0 0 1.76-.91c1-.94 1.91-2.16 3.51-1.92 2.3.29 4 5.49 6.35 5.56 2.85.1 4-2.63 4.8-5.31A75 75 0 0 0 122 111a5.06 5.06 0 0 1-.06-.53 5.35 5.35 0 0 1 .41-.63c1.76-2.46 4.72-1.53 7.32-2.84a20.09 20.09 0 0 0 4.53-2.56 15.1 15.1 0 0 0 4-5.1 36.6 36.6 0 0 0 1.94-5.2c3.45 4 8 6.77 12.94 9a62.47 62.47 0 0 0 10.92 4c2.89.71 7.38 1.46 9.86-.63 2.27-1.91 2.17-7.53 1.62-10.2-.84-4-3.65-6.75-6.79-9.33A53.32 53.32 0 0 0 138 74.81a42.61 42.61 0 0 0-7.4.27 38.17 38.17 0 0 0-9.43 2.38 31.86 31.86 0 0 0-3.05 1.36c-.78.42-1.56.83-2.32 1.3a31.86 31.86 0 0 0-7 5.79 26.25 26.25 0 0 0-6.47 11.61v.17A34.86 34.86 0 0 0 102 111z"/><path d="M108.73 85.91c1.89.7 4.92-1.32 6.5-1.62 4.41-.78-.35 5.49.1 7.07.49 1.73 2.75 1.81 4.29 1.63 2.54-.25 3.83-2 6-2.93a2.54 2.54 0 0 1 3.65 1.77c.33 1.22-1.21 4.35-.31 5.2 1.35 1.24 5-.77 5.92-1.64 1.81-1.61 3.2-4.7 2.2-7.06-.27-.75-2.28-1-3.1-1.42-1.68-.87-3.21-2-4.87-2.85-2.36-1.24-4.62-2.94-7.14-3.94a36 36 0 0 0-3.85-1.3l-2.32 1.3a31.86 31.86 0 0 0-7.07 5.79zm12.42-8.45l3.71 1.66a58.14 58.14 0 0 1 8.08 3.64 40.29 40.29 0 0 1 6.54 4.13c1.16 1 2.58 3.31 3.56 3.31 2.34 3.42 7.22 3.26 10.6 1.75 2-.89 2.5-2.32.24-3.48-2.45-1.26-5.49-1.23-8-2.39-2-.92-3.83-2.53-3.05-4.82.49-1.41 2.13-3.56-.35-4.09-1.89-.39-4.08 1.44-6 1.77a3 3 0 0 1-3.58-1.42 7.18 7.18 0 0 0-2.32-2.44 38.17 38.17 0 0 0-9.43 2.38z"/></g><path d="M162.91 127.24a1.54 1.54 0 0 0-1.62-1.78 2.21 2.21 0 0 0-2 2 1.53 1.53 0 0 0 1.61 1.78 2.22 2.22 0 0 0 2.01-2zm-19.45-3.1a1.6 1.6 0 0 0-1.68-1.79 2.12 2.12 0 0 0-1.93 2 1.6 1.6 0 0 0 1.68 1.79 2.13 2.13 0 0 0 1.93-2z" class="AX"/><path d="M154.7 144.46a22.68 22.68 0 0 1-7.83-2 26.85 26.85 0 0 1-6.49-4.49.21.21 0 0 0-.33.25c2.69 7.38 8.95 9 14.65 6.73.3-.09.36-.47 0-.49z" class="AH AI AK AM"/><path d="M115.43 123.88c-1.22-3.11-3.75-5.62-7.38-4.49a4 4 0 0 0-2.47 2.5 7.15 7.15 0 0 0-.21 3.53 10.79 10.79 0 0 0 4.65 7.52 4 4 0 0 0 3.35.69c1.52-.53 2.31-2.16 2.66-3.58a10.86 10.86 0 0 0-.6-6.17z" class="AL"/><path class="m" d="M111.37 121c.89.89 1.37 2.12 2.22 3 .6.61 1 1.51 2 .48h0l-.19-.55c-1.14-2.92-3.44-5.3-6.7-4.66a7.59 7.59 0 0 1 2.67 1.73z" fill="#ffc9af" opacity=".3"/><path d="M9.69 262.67v266.24m81.18-266.24v266.24m528.57-266.24v266.24m81.18-266.24v266.24" stroke="#607385" stroke-width="5.99" class="AG AH AO"/><path d="M0 255.3h93.17v18.24H0z" fill="#a1bedb"/><path d="M92.25 255.3H714.6v18.24H92.25z" fill="#d0e6f6"/><g class="AG AK"><g class="AH AO"><path d="M150.07,123.24a24.09,24.09,0,0,0,1.31,7.19c1.24,3.1,2.35,5.1-2.72,4.82" class="AI"/><path d="M135.74 114.66s5.56-3.6 10.77-.35m11.97 2.18s5.36-1.28 7.6 2.77" stroke-width=".83"/></g><g class="AI"><ellipse cx="160.85" cy="128.19" rx="7.39" ry="7.37" transform="matrix(.172961 -.984929 .984929 .172961 6.77 264.44)"/><ellipse cx="141.04" cy="125.15" rx="7.39" ry="7.37" transform="matrix(.172961 -.984929 .984929 .172961 -6.61 242.42)"/><path d="M134.77 121.26l-24.27-7.7m43.73 11.38l-5.81-.75" class="AH AO"/></g></g><path d="M265.09 228.09s-.46-8.9-9.69-10.74-25.36 6-25.36 6l-45.29 31.55 1.35 3.91 46-6.41 4.21 1.61 32.29-21.21 30.46-22-3.36-2.65s-8.54 5.88-14.19 8.42-13.88 6.93-16.42 11.52z" fill="#f5f5f5"/><path d="M184,260.09l38.32-23.81,40.52-6.5a5.59,5.59,0,0,0,5.47,2.22h0l33.32-23.06.63,1.39-64.61,45.38a5.54,5.54,0,0,1-5.63-1.09Z" class="AJ"/><path d="M262.87 229.78a1.86 1.86 0 0 1-.31.25l-.94.68-3.42 2.5c-2.88 2.14-6.77 5.19-11 8.64l-10.72 9-3.22 2.78-.88.74a1.71 1.71 0 0 1-.32.25 1.83 1.83 0 0 1 .28-.3l.83-.8 3.14-2.85c2.68-2.39 6.43-5.62 10.67-9.09s8.16-6.48 11.08-8.57l3.49-2.42 1-.62a1.29 1.29 0 0 1 .32-.19z" fill="#1a2e35"/><path d="M262.46 224.82c-3.68-3.94-9.46-5.35-14.83-4.93s-10.48 2.43-15.48 4.41l-46.89 32.09.42 1.21 47.14-31.9s10.52-3.41 15.18-4a25 25 0 0 1 14.46 3.12zm7.35 4.18l22.54-15.2s-18.47 9.64-22.54 15.2z" fill="#e1e1e1"/><g class="AJ"><path d="M185.26 256.39l.19-.15.58-.42 2.25-1.58 8.31-5.75 27.48-18.87 8-5.46h0a56.59 56.59 0 0 1 14.26-4.28 21.33 21.33 0 0 1 11.67 1.63 14.26 14.26 0 0 1 3.74 2.51 10.91 10.91 0 0 1 2.09 2.66 9 9 0 0 1 .82 1.95l.12.54v.18a11 11 0 0 0-1.07-2.61 11.36 11.36 0 0 0-2.1-2.59 14.53 14.53 0 0 0-3.72-2.44 21.31 21.31 0 0 0-11.56-1.55 57.05 57.05 0 0 0-14.16 4.3h0l-8 5.46-27.54 18.78-8.37 5.67-2.29 1.52-.6.39q-.08.13-.1.11z"/><path d="M226.3 232.13l.35-.21 1-.56 3.93-1.9a51.34 51.34 0 0 1 13.76-4.21 29.88 29.88 0 0 1 14.26 1.3 22.35 22.35 0 0 1 4 1.89c.45.26.76.51 1 .66a1.5 1.5 0 0 1 .32.26l-1.38-.8a23.65 23.65 0 0 0-4-1.77 30.57 30.57 0 0 0-14.13-1.19 54.32 54.32 0 0 0-13.71 4.09l-4 1.79-1.07.5c-.19.11-.32.17-.33.15zm71.5-22.31s-.09.09-.29.22l-.88.58-3.25 2.1-10.71 6.93-10.61 7.09-3.21 2.16-.88.58a1.21 1.21 0 0 1-.32.18s.09-.09.28-.24l.84-.63 3.15-2.25a406.91 406.91 0 0 1 10.56-7.18l10.77-6.86 3.31-2 .91-.53a1.33 1.33 0 0 1 .33-.15z"/></g><g class="AL"><path d="M277.3 234.22a16 16 0 0 1-1.75 3.13c-.87 1-3.7 2.47-3.93 4.44s.24 6.56-2.83 10.05a17.24 17.24 0 0 1-7.27 4.73l-12.09-1.18-19.33-7.61a1.69 1.69 0 0 1-1.23-2 2.43 2.43 0 0 1 2-1.82l.46-.07s-1.11-.91.48-2.5c1.38-1.38 4.26-.6 5.75-.1s10.25 4.16 11.82 4.72a57.2 57.2 0 0 1 2.46.93s-11.21-7.56-11.36-8.54a2.15 2.15 0 0 1 1.08-2.57c1.35-1 3.59.08 5.75 1 1.6.68 11.86 5.74 11.86 5.74s.46-.44 0-1.36-3.88-5.29-4.41-6.1-.67-1.27-.15-1.95c.75-1 2.74-1.44 4.53.22 1.15 1.06 5.23 3.8 5.23 3.8l18.82-13.73s2.34-.06 1.53 3.2-7.42 7.57-7.42 7.57z"/><path d="M263.27 245.66a4.79 4.79 0 0 1-3.38-2.84c.09-.06.64.78 1.57 1.56s1.85 1.18 1.81 1.28zm1.54-8.19s.25-.11.66-.06a3 3 0 0 1 1.45.65 2.9 2.9 0 0 1 .9 1.3c.13.39.11.65.07.65a5.57 5.57 0 0 0-1.2-1.68 5.76 5.76 0 0 0-1.88-.86zm.89 3.79c-.1 0-.16-1-.56-2.17s-1-2-.87-2.06a3.77 3.77 0 0 1 1.21 1.94 3.84 3.84 0 0 1 .22 2.29zm11.15-8.02s-.24-.1-.49-.43a3.12 3.12 0 0 1-.34-3c.17-.37.35-.55.38-.53a7 7 0 0 0-.25 2 6.62 6.62 0 0 0 .7 1.96zm-17.03 17.16a2.94 2.94 0 0 1-1.32 0 8.81 8.81 0 0 1-3-1.11 16.39 16.39 0 0 1-2.57-1.87 4.46 4.46 0 0 1-.93-.92 5.22 5.22 0 0 1 1.09.73 26.36 26.36 0 0 0 2.59 1.76 11.05 11.05 0 0 0 2.86 1.17 12.12 12.12 0 0 1 1.28.24zm3.18-1.94c.09 0 .1.69-.47 1.24s-1.26.54-1.25.44.54-.23 1-.69.59-1 .72-.99zm4.59-3.39s0 .18-.09.42a1.7 1.7 0 0 1-.76.71 1.74 1.74 0 0 1-1 .15c-.27-.06-.4-.16-.39-.2s.63 0 1.27-.27.88-.88.97-.81zm-16.3 7.7c0 .09-4.53-1.79-10-4.19l-9.91-4.52c.04-.09 4.54 1.79 10 4.19l9.91 4.52z"/></g><path d="M640,258.24l-62.61,1.22-25-3.14-.05-4.35-43.84-9.24,35.42-1.92,50.85.71Z" fill="#d2d2d2"/><g clip-path="url(#M)"><path d="M576.65 252.68h63.19v7.28h-63.19z" fill="#989797"/></g><path d="M478.6,248.77h0a6.72,6.72,0,0,0,6.43,6.72l92.39,4.05v-9.12Z" fill="#cfcccc"/><path d="M550.49,161.94,449.8,164l-2.43,2.42L479,249l100.85,3.37Z" fill="#d5d5d5"/><path d="M548.06,164.37l-100.69,2.08L476.53,249l100.85,3.37Z" fill="#e3e3e3"/><ellipse cx="506.78" cy="207.18" rx="6.68" ry="6.67" class="AM"/><path d="M650.58,252.93s-25.41,5.57-33.58-5.57c0,0-8.56-2.88-9.32-4s-10.33,8.44-13.33,7.62-3.59-4.91,2.81-9c0,0-9.55,6.58-11.33,6.31s-4-1.16-2.89-2.5c0,0-3.42.58-3-.8s23-17.06,26.88-17.06a9.07,9.07,0,0,1,8.78-2c5.22,1.6,34.79,12.34,34.79,12.34Z" class="AL"/><path d="M594.85 243.71s10.88-8.22 12.95-8.22a65.67 65.67 0 0 1 10.76 3.51m-36.06 6.32S604 229.1 609 229.75a71.08 71.08 0 0 1 11.48 2.94m-13.62-4.75s4.48-2.1 13.09 1" class="AG AH AI AU"/><path d="M343.89,158.45s3.72,6.43,0,15.52l89.86-1.06.9-.32V160.26l-2.23-1.81Z" class="AR"/><path d="M431 158.72s3.51 5.42 0 14.51c0 0 4.17-1.17 4.15-6.75s-1.83-7.6-4.15-7.76z" class="AJ"/><path d="M341.77 174.54h0a1.57 1.57 0 0 1 1.56-1.59l87.42-.79c1.77 0 3.26-2.2 3.26-4.77v-3.23c0-2.58-1.5-4.77-3.28-4.77h-87.39a1.57 1.57 0 0 1-1.57-1.57h0a1.57 1.57 0 0 1 1.57-1.58h87.39c3.55 0 6.43 3.55 6.43 7.92v3.23c0 4.41-2.8 7.89-6.38 7.92l-87.42.79a1.57 1.57 0 0 1-1.59-1.56z" class="AQ"/><path d="M359.48 162.1h60.86v.41h-60.86zm-3.99 3.67h68.6v.41h-68.6zm3.99 3.67h60.86v.41h-60.86z" class="AJ"/><path d="M425.74,197.32s-3.72,6.43,0,15.51l-89.86-1.06-.9-.32V199.13l2.23-1.81Z" class="AR"/><path d="M338.65 197.58s-3.51 5.42 0 14.51c0 0-4.18-1.17-4.15-6.75s1.81-7.6 4.15-7.76z" class="AJ"/><path d="M427.86 213.4h0a1.57 1.57 0 0 0-1.56-1.59l-87.42-.81c-1.77 0-3.26-2.2-3.26-4.77V203c0-2.58 1.5-4.76 3.28-4.76h87.39a1.57 1.57 0 0 0 1.57-1.58h0a1.57 1.57 0 0 0-1.57-1.57H338.9c-3.55 0-6.44 3.55-6.44 7.91v3.23c0 4.41 2.81 7.89 6.39 7.92l87.42.79a1.57 1.57 0 0 0 1.59-1.54z" fill="#dc5f58"/><path d="M410.15 201.38h-60.86v-.41h60.86zm3.99 3.66h-68.6v-.41h68.6zm-3.99 3.67h-60.86v-.41h60.86z" class="AJ"/><path d="M306,177.61s4.57,6.53,0,15.75l110.5-1.08,1.12-.33v-12.5l-2.75-1.84Z" class="AR"/><path d="M413.62 177.88s3.9 5.5 0 14.72c0 0 4.64-1.19 4.61-6.85s-2.01-7.75-4.61-7.87z" class="AJ"/><path d="M303.41 193.93h0a1.79 1.79 0 0 1 1.92-1.61l107.52-.81c2.17 0 4-2.23 4-4.83v-3.28c0-2.62-1.85-4.83-4-4.83h-107.5a1.8 1.8 0 0 1-1.94-1.6h0a1.79 1.79 0 0 1 1.94-1.6h107.47a8 8 0 0 1 7.92 8v3.28a7.9 7.9 0 0 1-7.86 8l-107.51.81a1.81 1.81 0 0 1-1.96-1.53z" class="Aa"/><path d="M325.2 181.31h74.85v.41H325.2zm-4.91 3.72h84.37v.41h-84.37zm4.91 3.73h74.85v.41H325.2z" class="AJ"/><path d="M422.16,216.38s-4.58,6.43,0,15.51l-110.51-1.06-1.11-.32V218.18l2.75-1.8Z" class="AR"/><path d="M314.76 216.84s-3.91 5.42 0 14.51a6.6 6.6 0 0 1-4.62-6.75c.03-5.6 2.02-7.6 4.62-7.76z" class="AJ"/><path d="M424.77 232.46h0a1.78 1.78 0 0 0-1.92-1.59l-107.51-.79c-2.18 0-4-2.2-4-4.77v-3.23c0-2.58 1.84-4.76 4-4.76h107.49a1.78 1.78 0 0 0 1.94-1.58h0a1.78 1.78 0 0 0-1.94-1.58H315.36a7.93 7.93 0 0 0-7.91 7.92v3.23a7.84 7.84 0 0 0 7.85 7.92l107.52.79a1.79 1.79 0 0 0 1.95-1.56z" class="Aa"/><path d="M402.99 220.43h-74.85v-.41h74.85zm4.91 3.67h-84.37v-.41h84.37zm-4.91 3.67h-74.85v-.41h74.85z" class="AJ"/><path d="M326.44,235.08s4.57,7.94,0,19.16L437,252.93l1.11-.39V237.31l-2.75-2.23Z" class="AR"/><path d="M433.84 235.55s3.9 7 0 18.69c0 0 4.64-1.5 4.61-8.7s-2.01-9.79-4.61-9.99z" class="AJ"/><path d="M323.83 255.3h0a1.94 1.94 0 0 1 1.92-2l107.51-1c2.18 0 4-2.69 4-5.84v-4c0-3.17-1.85-5.85-4-5.85h-107.5a1.92 1.92 0 0 1-1.93-1.93h0a1.92 1.92 0 0 1 1.93-1.93h107.48c4.36 0 7.91 4.35 7.91 9.71v4c0 5.4-3.45 9.67-7.85 9.71l-107.52 1a1.93 1.93 0 0 1-1.95-1.87z" class="AQ"/><path d="M345.61 240.79h74.85v.41h-74.85zm-4.91 3.67h84.37v.41H340.7zm4.91 3.67h74.85v.41h-74.85z" class="AJ"/><path d="M431.73,153.35a7.86,7.86,0,0,0-7.37-7.84c-8.62-.54-23-1.06-33.48.57,8-1.48,27.55-4.76,39.35-4h0a5.94,5.94,0,0,0-5.79-5.27c-8.87-.16-27,.24-38,5.5,0,0,15.77-10.46,41.12-9.36h0a8.85,8.85,0,0,0-9.5-8.47c-9.63.7-25,3.62-36.93,14.42,0,0,8.55-16.05,26.8-21.66h0a3.42,3.42,0,0,0-3.51-.68c-5.59,2.1-21.21,9-24.89,21.57-3.68-12.57-19.29-19.47-24.89-21.57a3.4,3.4,0,0,0-3.5.68h0c18.25,5.61,26.79,21.66,26.79,21.66-11.89-10.8-27.29-13.72-36.93-14.42a8.86,8.86,0,0,0-9.5,8.47h0c25.35-1.1,41.12,9.36,41.12,9.36-11-5.26-29.12-5.66-38-5.5a5.93,5.93,0,0,0-5.78,5.27h0c11.79-.72,31.32,2.56,39.34,4-10.44-1.63-24.85-1.11-33.47-.57a7.86,7.86,0,0,0-7.38,7.84h0l52.12,1.14h.15l52.11-1.14Z" class="AR"/><path d="M380.43 157.78a6.1 6.1 0 0 1-3.87-1.58 1 1 0 0 0-.65-.23h-50.56a1 1 0 0 1-1-1v-1.67a1 1 0 0 1 1-1h51.22a1 1 0 0 1 .77.34h0c.12.13 3.07 3.27 5.8 0h0a1 1 0 0 1 .79-.37h49.72a1 1 0 0 1 1 1v1.63a1 1 0 0 1-1 1h-49a1.09 1.09 0 0 0-.75.3 5 5 0 0 1-3.47 1.58z" class="Aa"/><path d="M382.74 141.12l2.14-1.3 5.88-3.12a93.43 93.43 0 0 1 8.8-3.76 81.37 81.37 0 0 1 10.83-3.16 60.83 60.83 0 0 1 12.18-1.42h1.55c.22 0 .22-.34 0-.34a59.81 59.81 0 0 0-12.31 1.12 79.48 79.48 0 0 0-11.12 3 97.59 97.59 0 0 0-9.12 3.75l-6.31 3.28-2.66 1.61h0c-.19.12 0 .42.17.29zm3.46 3.59l2.32-.62q3.09-.76 6.19-1.41l8.87-1.58c3.5-.52 7-.91 10.55-1.12a83.81 83.81 0 0 1 11 0l1.3.1c.22 0 .22-.32 0-.34a78.61 78.61 0 0 0-11-.16c-3.57.18-7.12.54-10.66 1q-4.62.64-9.19 1.57-3.32.66-6.59 1.47c-.95.23-1.92.45-2.86.75h0a.171.171 0 0 0 .09.33zm8.89 4.78l1.33-.14 3.49-.28 4.89-.22h5.54a46.64 46.64 0 0 1 5.42.49l.63.1a.17.17 0 0 0 .21-.12.18.18 0 0 0-.12-.21 44.82 44.82 0 0 0-5.43-.57l-5.58-.09-5 .2-3.7.29-1.64.16h0a.17.17 0 0 0 0 .34zm-44.46-20.26l.39.08 1.08.24 1.66.43 2.14.62 2.53.83 2.77 1c.92.32 1.95.83 2.91 1.29l3 1.54c1 .54 2 1.16 2.9 1.8a34.18 34.18 0 0 1 2.72 2.07l.63.56c.2.19.41-.1.25-.24a30.75 30.75 0 0 0-2.69-2.17l-2.88-1.88-3-1.61-3-1.36-2.86-1.12-2.6-.89-2.26-.68-1.8-.48-1.24-.29-.57-.12h0c-.21-.05-.3.28-.09.33zm-12.34 10.56h2.21q2.94.08 5.86.27l8.28.8 9.53 1.62a70.88 70.88 0 0 1 9.5 2.68l1.14.42c.21.08.3-.25.09-.33a68.72 68.72 0 0 0-9.53-2.86l-9.59-1.72-8.5-.88q-3.11-.24-6.22-.33c-.91 0-1.83-.08-2.73 0h0a.17.17 0 0 0 0 .34zm-2.87 9.76q.9-.08 1.8-.12l4.76-.21q3.42-.09 6.84-.05l7.93.34 8.19 1 1 .17c.21 0 .3-.29.09-.33a80.06 80.06 0 0 0-8.15-1.07l-8.06-.41h-7l-5.09.2c-.74 0-1.48.07-2.21.14h0c-.22 0-.22.36 0 .34z" class="AJ"/></g></svg>