<svg xmlns="http://www.w3.org/2000/svg" viewBox="0 0 50.84 119.36"><defs><style>.cls-1{fill:none;stroke:#3e6c98;stroke-linecap:round;stroke-linejoin:round;stroke-width:5px;}.cls-2{fill:#3e6c98;}</style></defs><g id="Layer_2" data-name="Layer 2"><g id="Layer_1-2" data-name="Layer 1"><path class="cls-1" d="M21.51,5.49a53.79,53.79,0,0,1,19,18.59c8.57,14.29,8,29.12,7.66,34.4,0,.36,0,.67-.06.9C46.89,77.23,37.9,90.43,34.92,94.48A68.18,68.18,0,0,1,16,111.91"></path><path class="cls-2" d="M19.11,10.63a5.64,5.64,0,1,1,7.62-2.35A5.66,5.66,0,0,1,19.11,10.63Z"></path><polygon class="cls-2" points="0 119.36 17.91 99.33 17.05 111.06 26.81 117.61 0 119.36"></polygon></g></g></svg>