<svg xmlns="http://www.w3.org/2000/svg" viewBox="0 0 50.84 119.36"><defs><style>.cls-1{fill:none;stroke:#3e6c98;stroke-linecap:round;stroke-linejoin:round;stroke-width:5px;}.cls-2{fill:#3e6c98;}</style></defs><g id="Layer_2" data-name="Layer 2"><g id="Layer_1-2" data-name="Layer 1"><path class="cls-1" d="M29.33,5.49a53.81,53.81,0,0,0-19,18.59C1.72,38.37,2.35,53.2,2.64,58.48c0,.36,0,.67.06.9,1.24,17.85,10.24,31.05,13.22,35.1a68,68,0,0,0,18.91,17.43"></path><path class="cls-2" d="M26.45.66A5.64,5.64,0,1,1,24.1,8.28,5.63,5.63,0,0,1,26.45.66Z"></path><polygon class="cls-2" points="50.84 119.36 24.02 117.61 33.78 111.06 32.93 99.33 50.84 119.36"></polygon></g></g></svg>