<svg xmlns="http://www.w3.org/2000/svg" xmlns:v="https://vecta.io/nano" viewBox="0 0 824.97 746.02"><style><![CDATA[.B{isolation:isolate}.F{mix-blend-mode:multiply}.j{fill:none}.k{stroke-miterlimit:10}.l{stroke-width:.52}.m{fill:#ffd3c8}.n{fill:#f1b2a2}.o{fill:#061537}.p{stroke:#061537}.q{stroke-linecap:round}]]></style><defs><clipPath id="A"><path d="M198.18,661.69H163v61.36h31.76s18.39-2.92,18.51-4.92l-22.61-8.28a5.68,5.68,0,0,1-3.53-6.8Z" class="j"></path></clipPath><clipPath id="B"><path d="M76.38,667.66l-15.07-15-16.3,41a28.49,28.49,0,0,1-7.91,11.08l-16,13.75s10.71,4.74,19.4,2.48,26.59-15.82,26.59-15.82Z" class="j"></path></clipPath><clipPath id="C"><path d="M223.7,354.74s11.87,25.09,5.94,87.4S201,679.52,201,679.52H159s3.12-189.9.19-240.83c0,0-17.85,109-76.95,241.22l-43.63.18,72-301.1,77.92-43.7Z" class="j"></path></clipPath><clipPath id="D"><path d="M242.49 263.21l-36.38 19.11s-5.74 20.3-2.51 34 28.82 29.7 23.63 46.4c0 0-31.36-10.67-54 0S126.5 396 104.71 390.85c0 0 9.25-87 1.7-111.73l-34.09-7s14-41.42 45.84-51.05a130.55 130.55 0 0 1 40.55-5.25c65-1.17 83.78 47.39 83.78 47.39z" class="j"></path></clipPath><clipPath id="E"><path d="M72.33,272.1s-26.4,66.42-26.6,88.19c0,3,10.65,1.86,10.94,4.55l37.68-8.46,13.43-81.51Z" class="j"></path></clipPath><clipPath id="F"><path d="M46 365.21c14.88 16.34 61.67-6.75 79.76-21.62 0 0 23.15-8.17 24.18-13.15s-1.5-5.56-1.5-5.56 2.15-4 .7-6.31c0 0 1.55-5.47-.2-6.64 0 0 1.43-6.75-8.66-7.49 0 0 1.14 4.21-1 5.64s-12.35 3.21-12.35.82 6.41-8.34 3.62-12.37-4.53 5.38-9.64 8.88-9.51 8.5-9.51 19c0 0-.06 6-25.3 7.29-13.35.7-27.27 1.1-34.35 7.2-6.3 5.41-12.75 16.62-5.75 24.31z" class="j"></path></clipPath><clipPath id="G"><path d="M191.39 161s16.9 41.29-8.25 45c0 0-13.26 6.53-12 7.5a150.26 150.26 0 0 0 15.24 4.77s-7.74 18.48-28.53 17.34-25.31-18.18-25.31-18.18l6.58-.87c5.56-.64 9.25-1.17 9.25-3.06a54.28 54.28 0 0 0-2.22-20.3 142.58 142.58 0 0 0-9.15-17.28s10.74-13.2 19.27-21.66 24.22-2.81 24.22-2.81a40 40 0 0 1 8.57 4.05 9.63 9.63 0 0 1 2.33 5.5z" class="j"></path></clipPath><clipPath id="H"><path d="M302.38 288.09s7.16-16.89 19.95-17.33 36.88-21.51 38.07-26.8c.77-3.43-1-3-2.19-2.7-.66.17-1.14.32-1-.18a2.65 2.65 0 0 0-1.79-3.27 2.59 2.59 0 0 0-.63-.1c-1.76.06-5.74 6-5.74 6l2-10.83c0-.67-4.68.16-5.11 5.6a8.45 8.45 0 0 1-4.34 7.19c-2.37-1.76-2.81.69-7.14 5.22s-12.68 5-12.7 4.24 9.24-9.29 11.65-11.82.71-9.33-4.08-4.71a138 138 0 0 1-17.66 12.3c-7.72 1.55-15.64 13-20 20.31l-.06-.09s-15.52 17.05-24.73 25.52-18.82 15.69-18.82 15.69l-7-48.78-35 18.75s5.47 56.52 25.87 68a10.54 10.54 0 0 0 7 1c22.99-3.65 63.45-63.21 63.45-63.21z" class="j"></path></clipPath></defs><g class="B"><rect x="181.01" y="5.22" width="638.75" height="429.62" rx="12.39" fill="#c4eaff"></rect><g fill="#7fc1ff"><path d="M268.61,120.63q4.84-9.76,10.33-19.19a.46.46,0,0,0-.79-.46q-5.49,9.42-10.32,19.19c-.26.52.52,1,.78.46Z"></path><path d="M268.43 120.91l5.62 7.15 2.93 3.39 1.5 1.67c.36.39 2.09 1.81 2 2.33l.52-.45.19.11-.16.62h.07c.46-.34 0-1.14-.46-.78h-.07a.47.47 0 0 0-.17.62l.08.12a.46.46 0 0 0 .4.23h.12a.48.48 0 0 0 .46-.46c.06-.8-.81-1.34-1.31-1.88q-1.92-2-3.75-4.16c-2.51-2.89-4.89-5.88-7.17-9-.34-.46-1.14 0-.79.46z"></path><path d="M281.15,136c5.6.51,11.22.08,16.82-.22.58,0,.59-.94,0-.91-5.6.3-11.22.73-16.82.22-.59,0-.58.86,0,.91Z"></path><path d="M298.42,135.67l13.5-19.3c.3-.41-.25-.78-.62-.62l-1,.42c-.54.24-.08,1,.46.79l1-.42-.62-.63q-6.75,9.65-13.51,19.3c-.33.48.46.94.79.46Z"></path><path d="M310.88,115.27q-6.63-6.63-12.62-13.83c-.37-.45-1,.19-.64.64q6,7.22,12.62,13.83a.45.45,0,0,0,.64-.64Z"></path><path d="M279.21,102.47a81.19,81.19,0,0,1,18-.31c.58.06.58-.86,0-.91a80.58,80.58,0,0,0-18,.31c-.57.07-.58,1,0,.91Z"></path><path d="M297.65 101.94q2.69-4.23 5.24-8.54 1.19-2 2.33-4l1.14-2c.26-.46 1.13-2.65 1.64-2.76l-.57-.32.07-.22h.64l-.06-.06c-.46-.36-1.11.28-.65.65h.07a.46.46 0 0 0 .64 0l.1-.1a.49.49 0 0 0 .12-.45l-.05-.11a.47.47 0 0 0-.56-.32c-1 .22-1.37 1.74-1.8 2.51q-1.41 2.52-2.87 5-3 5.16-6.22 10.2c-.31.5.48 1 .79.46zm-17.03 34.92h.13a.45.45 0 0 0 .32-.32.73.73 0 0 0-.18-.74.46.46 0 0 0-.45-.11c-.5.12-.66.41-1 .81l-2.68 3.56-5.34 7.12c-.36.47.43.93.78.46l4.14-5.5 1.94-2.59 1-1.29c.15-.2 1.61-2.34 1.11-2.26s-.33 1 .24.88zm18.7.69q5.64 6 10.85 12.29l.56-.72c-2.9-2.19-4.23 4.21-4.76 5.7q-1.26 3.54-2.53 7.07c-.92 2.51-1.94 5-4.15 6.67-.47.35 0 1.14.46.79 2.41-1.81 3.56-4.46 4.57-7.22l2.13-5.94 1.07-3c.27-.74 1.18-4.46 2.75-3.27.44.33.85-.35.55-.72q-5.2-6.33-10.85-12.29c-.41-.43-1.05.22-.65.65zm-22.87-36.01v.32a.46.46 0 0 0 .91 0v-.32a.46.46 0 0 0-.91 0zM268.41 120l-17-.62c-.58 0-.58.9 0 .92l17 .61c.59 0 .59-.89 0-.91zm-29.89-3.56a24.69 24.69 0 0 0-.42 9.42c.08.58 1 .33.88-.24a23.41 23.41 0 0 1 .42-8.94.46.46 0 0 0-.88-.24zm4.87-.19a14.27 14.27 0 0 1-.72 6.48c-.2.55.68.79.88.24a14.91 14.91 0 0 0 .75-6.72c-.06-.58-1-.59-.91 0z"></path><path d="M238.34 120h5.23a.46.46 0 0 0 0-.92h-5.23a.46.46 0 0 0 0 .92zm75.79-42.52c-2.25.18-4.92 2.37-4 4.88 1.05 2.75 4.5 1.74 6.46.87.53-.23.07-1-.47-.79-1.44.64-4 1.63-5-.18s1.3-3.74 3-3.87c.58 0 .58-1 0-.91zm5.15.97l1.65 4.25c.21.54 1.09.3.88-.25l-1.65-4.24c-.21-.54-1.09-.31-.88.24zm-4.96 66.87a36.22 36.22 0 0 0 .79 7c.12.57 1 .33.88-.24a35.4 35.4 0 0 1-.76-6.73.46.46 0 0 0-.91 0zm4.55-.83a16.61 16.61 0 0 1 .49 7.92c-.11.57.77.82.87.24a17.45 17.45 0 0 0-.48-8.4c-.17-.56-1.06-.32-.88.24z"></path><path d="M314.92 150l4.27-1.25c.56-.17.32-1.05-.24-.88l-4.27 1.25a.46.46 0 0 0 .24.88zm9.13 1.14c.45-.65 1.09.27 1 .75s-.63.82-1 1.2a1.13 1.13 0 0 0-.31 1.49 2.42 2.42 0 0 0 1.9.67 4.55 4.55 0 0 0 2.48-.73c.49-.32 0-1.11-.46-.79a3.6 3.6 0 0 1-1.76.6c-.49 0-1.64 0-1.12-.68.27-.35.68-.55.92-1a2.1 2.1 0 0 0 .29-1.15 1.51 1.51 0 0 0-2.71-.86c-.34.48.45.93.79.46zm7.56-7.06c-1.87-1.16-3.35 1.09-2.65 2.81.93 2.29 4.12 3.65 6.31 2.37a3.22 3.22 0 0 0 .58-5.31c-2.4-2-5.44-.5-7.72.83a.46.46 0 0 0 .46.79 10.68 10.68 0 0 1 3.77-1.61c1.52-.22 3.73.44 3.78 2.34s-2.16 2.87-3.77 2.4a4.3 4.3 0 0 1-1.92-1.2 2.74 2.74 0 0 1-.82-1.73c.17-.94.67-1.24 1.52-.91.5.31 1-.48.46-.78zm-40.28 29.02a91.07 91.07 0 0 0 .29 9.49c.05.58 1 .59.91 0a91.07 91.07 0 0 1-.29-9.49.46.46 0 0 0-.91 0zm6.53.81a51.49 51.49 0 0 1 1.06 8.66c0 .58.93.59.91 0a52.28 52.28 0 0 0-1.09-8.9c-.12-.58-1-.33-.88.24z"></path><path d="M291.93 179.08l7.52-1c.57-.07.58-1 0-.91l-7.52 1c-.57.08-.58 1 0 .92zm15.26-2.42c-2.65-1.8-5.22 2.09-5 4.47a2.57 2.57 0 0 0 2.21 2.35c1.75.31 3.31-.79 5-1.16.57-.13.33-1-.24-.88-1.51.34-4.61 2.32-5.79.39-1.07-1.73 1.32-5.8 3.41-4.38.48.33.94-.46.46-.79zM265 150.12c-2.38-.42-3.95 3.54-3.19 5.4 1 2.46 4.35 2.55 6.23 1.15a4.44 4.44 0 0 0 .62-6.36 4.5 4.5 0 0 0-6.65 0c-.41.42.23 1.07.64.64a3.69 3.69 0 0 1 4.67-.64 3.5 3.5 0 0 1-3.19 6.18 2.35 2.35 0 0 1-1.51-2.94c.2-.75 1.11-2.72 2.14-2.54.57.1.82-.78.24-.88zm342.3 21.05h167.11a.46.46 0 0 0 0-.91H607.3a.46.46 0 0 0 0 .91z"></path><path d="M653.33 97.78v82.95a.46.46 0 0 0 .91 0V97.78a.46.46 0 0 0-.91 0zm48.89-22.44v112.6a.46.46 0 0 0 .91 0V75.34a.46.46 0 0 0-.91 0z"></path><path d="M650.18,101.84h70.93a.46.46,0,0,0,0-.91H650.18a.46.46,0,0,0,0,.91Z"></path><path d="M633.9 60.71A155.56 155.56 0 0 0 670 115.3a154 154 0 0 0 58.24 35.55 155.44 155.44 0 0 0 38.47 7.71c.59 0 .58-.87 0-.91a154.28 154.28 0 0 1-114.65-64.92 153.59 153.59 0 0 1-17.28-32.26c-.21-.54-1.1-.31-.88.24zM765.34 179q4.89 2.22 9.8 4.41c.53.23 1-.55.46-.79q-4.9-2.19-9.8-4.41c-.53-.24-1 .55-.46.79z"></path><path d="M771.27 176.87a79.72 79.72 0 0 1-6 9.63c-.34.48.45.93.79.46a81.68 81.68 0 0 0 6-9.62c.28-.52-.51-1-.79-.47zm-80.74-98.01a22.17 22.17 0 0 0 4.32 3.34.46.46 0 0 0 .47-.79 21.06 21.06 0 0 1-4.14-3.19c-.42-.41-1.07.23-.65.64z"></path><path d="M696.26 76.89a42.86 42.86 0 0 1-3.13 10.26c-.24.53.54 1 .78.46a43.14 43.14 0 0 0 3.23-10.48c.1-.57-.78-.82-.88-.24zM658.4 184.05a3 3 0 1 0 .71 5.81c.57-.12.33-1-.24-.88a2.18 2.18 0 0 1-2.53-1.55 2.14 2.14 0 0 1 2.06-2.43c.58 0 .58-.93 0-.91zm48.47-6.19c-.41 1.38-.43 3.15.71 4.21a2.5 2.5 0 1 0-.69-2.59c-.21.55.67.78.88.24a1.63 1.63 0 0 1 2.5-.71 1.57 1.57 0 0 1-.21 2.57 1.61 1.61 0 0 1-2.28-.77 3.89 3.89 0 0 1 0-2.71.46.46 0 0 0-.88-.24zM691 145.82l7.29 2.48c.56.19.8-.69.24-.88l-7.28-2.48c-.56-.19-.8.69-.25.88z"></path><path d="M695.64 142.15q-.66 4.83-1.76 9.57c-.13.57.75.82.88.25q1.1-4.75 1.76-9.57c.08-.58-.8-.83-.88-.25zM657 90.24l2.52 5.09a.46.46 0 0 0 .79 0l4.31-5.66c.35-.47-.44-.92-.79-.46l-4.31 5.66h.79l-2.52-5.09c-.26-.52-1-.06-.79.46zm62.28 28.83l2.56 4.29a.453.453 0 0 0 .78-.46l-2.55-4.29a.46.46 0 0 0-.79.46zm6.05-2.16a72.1 72.1 0 0 1-5.54 13.93c-.28.52.51 1 .78.46a72.26 72.26 0 0 0 5.64-14.15.46.46 0 0 0-.88-.24zm6.3 6.79a9.11 9.11 0 0 0 5 0 .46.46 0 0 0-.24-.88 8.15 8.15 0 0 1-4.54 0c-.56-.17-.8.71-.24.88zm.37 3.96l4.8-.64c.57-.07.58-1 0-.91l-4.8.64c-.58.07-.59 1 0 .91zm14.76-8.23c-2.61.28-5.54 1.8-5.4 4.83a3.42 3.42 0 0 0 1.42 2.71c1.31.86 3 .44 4.34 0a.46.46 0 0 0-.24-.88c-2 .6-4.73.67-4.61-2.18.09-2.31 2.49-3.37 4.49-3.59.58-.06.59-1 0-.91zm5.41 3.76c.71-.07 2-.11 2.59.48.75.78-.62 1-1.18 1.29a.46.46 0 0 0 .11.83 4.59 4.59 0 0 1 2.34.77c.87.89-.5 1.54-1.21 1.91a16.4 16.4 0 0 1-4.88 1.62c-.58.1-.33 1 .24.88a17.19 17.19 0 0 0 3.91-1.14c1-.44 2.76-1.1 3.42-2.06 1.19-1.71-2.56-2.69-3.58-2.86l.11.83c.77-.38 2.68-.91 2-2.15s-2.74-1.42-3.89-1.31c-.58 0-.59 1 0 .91zm-215.94 93.66a25 25 0 0 1 6.14 8.28c.25.54 1 .07.79-.46a25.58 25.58 0 0 0-6.29-8.47c-.43-.39-1.08.25-.64.65z"></path><path d="M537.21 224.45a96 96 0 0 1 7-9.43c.37-.45-.27-1.1-.65-.65a99.85 99.85 0 0 0-7.15 9.62c-.32.49.47.95.79.46zm9.79-3.17l10.19-.4c.58 0 .58-.94 0-.91l-10.19.4c-.59 0-.59.94 0 .91zm2.78 3.83a23.33 23.33 0 0 1 5.41-1.11c.58-.05.59-1 0-.92a24.23 24.23 0 0 0-5.65 1.15c-.55.19-.32 1.07.24.88zm23.02-12.96l4.87 5.32c.4.43 1-.21.65-.65l-4.87-5.31c-.4-.44-1 .21-.65.64z"></path><path d="M572.51 218.3a36.56 36.56 0 0 1 7.1-5.79c.49-.31 0-1.1-.46-.78a36.71 36.71 0 0 0-7.28 5.92c-.41.43.24 1.07.64.65zm8.75-12.45h-.12l.32.32c-.07-.22 1.22-.07 1.39 0a1.87 1.87 0 0 1 1 1c.42 1.17-.57 2.34-1.26 3.17a.46.46 0 0 0 .32.78 9.81 9.81 0 0 0 3.13-.64c.55-.2.31-1.09-.24-.88a8.93 8.93 0 0 1-2.89.6l.32.78c1.33-1.58 2.64-4.12.29-5.5a2.6 2.6 0 0 0-2.57-.13c-.51.33-.7 1.19 0 1.38a.46.46 0 0 0 .25-.88zm10.47 2.87l.69 8.19c.05.59 1 .59.91 0l-.68-8.19c0-.58-1-.58-.92 0z"></path><path d="M589.86 214.27a51.19 51.19 0 0 1 6.3-.68c.58 0 .59-.94 0-.91a53.15 53.15 0 0 0-6.54.71c-.58.1-.33 1 .24.88zm11.03-5.33a57 57 0 0 0 6.08 7.85.46.46 0 0 0 .76-.2 39.56 39.56 0 0 1 2.64-7.7c.25-.53-.54-1-.79-.46a41 41 0 0 0-2.73 7.92l.76-.21a54.48 54.48 0 0 1-5.93-7.67c-.32-.49-1.11 0-.79.47zm15.96 2a2.63 2.63 0 0 0 1.55-4.08 3.2 3.2 0 0 0-5 .06c-1.67 2 .24 2.91 2 3.67l2.82 1.19a5 5 0 0 1 1.23.79c.56.28.69.76.4 1.44.34.78.18 1.21-.47 1.3a4.61 4.61 0 0 1-3.78.06 2.66 2.66 0 0 1-.94-3 4.7 4.7 0 0 1 1.65-1.24.46.46 0 0 0-.46-.79c-1.69 1-3.69 2.81-2.18 4.83 1.32 1.75 4.36 1.83 6.19 1 2-.93 1.79-2.89.25-4.23a12.57 12.57 0 0 0-3.57-1.83c-1-.41-3.45-.88-2.37-2.73 1.62-2.75 6.05 1.7 2.43 2.72a.46.46 0 0 0 .24.88zm5.51-7.67l1.42.57a6.79 6.79 0 0 1 1.43.58c.38.55-.54.75-.87 1.08s0 .83.44.76c1.32-.21 1.18 1.45.5 2.06a2.76 2.76 0 0 1-1.35.57c-.57.11-.33 1 .24.88 1.22-.24 2.6-1.06 2.61-2.46a1.92 1.92 0 0 0-2.24-1.93l.45.76c.51-.49 2.18-.73 1.6-1.88-.21-.42-.73-.56-1.14-.72l-2.85-1.15c-.55-.22-.78.66-.24.88zm-56.09 19.86h77.06a.46.46 0 0 0 0-.91h-77.06a.46.46 0 0 0 0 .91zm1.5 9.68l5.09 10.4c.62 1.25 1.7 5 3.77 3.92a.47.47 0 0 0 .21-.52 76.3 76.3 0 0 1-.93-16.19l-.46.45c10.65 1.16 21.53 1 32.23 1q16.55.09 33.07-.41c.59 0 .59-.93 0-.91q-16.53.48-33.07.41c-10.7-.05-21.58.15-32.23-1-.25 0-.45.23-.46.46a77.85 77.85 0 0 0 0 7.79c.07 1.3.18 2.6.31 3.89.09.81.74 2.83.48 3.6.17.5.05.53-.36.11a1.28 1.28 0 0 1-.75-1 18.47 18.47 0 0 1-.85-1.73l-1.7-3.47-3.57-7.28c-.25-.53-1-.07-.78.46zm32.3.89a8.51 8.51 0 0 0 .26 14c.49.33.94-.46.46-.79a7.58 7.58 0 0 1-.26-12.41c.47-.35 0-1.14-.46-.79zm25.77 1.63a9.13 9.13 0 0 1-3.3 11.81c-.49.32 0 1.11.46.79a10.05 10.05 0 0 0 3.63-13.06c-.25-.53-1-.07-.79.46zm-16.94 2.29c.74.84 2.31 2.77 3.6 2.7a1.92 1.92 0 0 0 1.32-.92l1.93-2.59c.36-.47-.44-.93-.78-.46-.58.77-1.56 2.71-2.51 2.82s-2.24-1.43-2.92-2.2c-.38-.44-1 .21-.64.65zm-2.6 4.16a4.88 4.88 0 0 0 3.63 1h7.29a.46.46 0 0 0 0-.91h-5c-1.56 0-4 .41-5.28-.75-.43-.4-1.08.24-.65.64zm2.62 3.62l1-.55c1-.38 1.5 0 1.45 1 .36 1.27.19 1.2-.87 1.68a7 7 0 0 0-1.78.75.89.89 0 0 0-.16 1.32c.61.78 2.35.73 3.2.76a16.69 16.69 0 0 0 5.35-.66.46.46 0 0 0 0-.88l-.7-.25c-.55-.21-.79.67-.24.88l.7.25v-.88c-.59.17-7.58 1.33-7.46.11l2.5-1.09a2.85 2.85 0 0 0 1-1.28 1.89 1.89 0 0 0-1.17-2.47 3.42 3.42 0 0 0-3.51.65c-.46.36.19 1 .65.64zm-28.59-8.63a22.82 22.82 0 0 1 .3 4.29 21.62 21.62 0 0 1-.22 2.4 7.57 7.57 0 0 1-.21 1.23l.55.08-.09-.11v.64l.08-.07c.44-.39-.21-1-.64-.64l-.08.07a.46.46 0 0 0 0 .64l.09.11a.44.44 0 0 0 .55.07c.83-.59.72-2.22.8-3.16a23 23 0 0 0-.25-5.8c-.1-.57-1-.33-.88.25zm5.3 3.61a22.54 22.54 0 0 0 6.1.93.46.46 0 0 0 0-.92 21.42 21.42 0 0 1-5.85-.89.46.46 0 0 0-.25.88zm-368.52 136.1a25.18 25.18 0 0 1 6.14 8.29c.24.53 1 .07.79-.46a25.58 25.58 0 0 0-6.29-8.47c-.43-.39-1.08.25-.64.64z"></path><path d="M218.08 384.09a99.27 99.27 0 0 1 7-9.43c.38-.45-.26-1.1-.64-.65a99.85 99.85 0 0 0-7.15 9.62c-.33.49.46.95.78.46zm9.8-3.17l10.19-.4c.58 0 .58-.94 0-.91l-10.19.4c-.59 0-.59.93 0 .91zm2.78 3.83a23.24 23.24 0 0 1 5.41-1.12c.58 0 .59-1 0-.91a24.23 24.23 0 0 0-5.65 1.15c-.56.19-.32 1.07.24.88zm23.02-12.96l4.87 5.32c.4.43 1-.21.65-.65l-4.87-5.31c-.4-.44-1 .21-.65.64z"></path><path d="M253.39 377.94a36.26 36.26 0 0 1 7.1-5.79c.49-.31 0-1.1-.46-.79a37.11 37.11 0 0 0-7.28 5.93c-.41.42.24 1.07.64.65zm8.75-12.45h-.12l.32.32c-.07-.23 1.22-.07 1.39 0a1.87 1.87 0 0 1 1 1c.42 1.16-.57 2.34-1.26 3.17a.46.46 0 0 0 .32.77 9.64 9.64 0 0 0 3.13-.63c.54-.2.31-1.09-.24-.88a8.93 8.93 0 0 1-2.89.6l.32.78c1.33-1.58 2.64-4.12.29-5.5a2.6 2.6 0 0 0-2.57-.13c-.51.33-.7 1.19 0 1.38a.46.46 0 0 0 .25-.88zm10.47 2.87l.69 8.19c.05.58 1 .59.91 0q-.34-4.1-.68-8.19c0-.58-1-.59-.92 0z"></path><path d="M270.74 373.91a51.19 51.19 0 0 1 6.3-.68c.58 0 .59-.94 0-.92a55.18 55.18 0 0 0-6.54.72c-.58.1-.33 1 .24.88zm11.03-5.34a56.46 56.46 0 0 0 6.08 7.86.46.46 0 0 0 .76-.2 39.56 39.56 0 0 1 2.64-7.7c.25-.53-.54-1-.79-.46a41.11 41.11 0 0 0-2.73 7.91l.76-.2a55.07 55.07 0 0 1-5.93-7.67c-.32-.49-1.11 0-.79.46zm15.96 2.01a2.63 2.63 0 0 0 1.55-4.08 3.19 3.19 0 0 0-5 .06c-1.67 2 .24 2.91 2.05 3.67l2.82 1.19a4.49 4.49 0 0 1 1.22.79c.56.28.7.76.4 1.44.35.78.19 1.21-.46 1.3a4.64 4.64 0 0 1-3.79.06 2.67 2.67 0 0 1-.93-3 4.61 4.61 0 0 1 1.65-1.24.46.46 0 0 0-.46-.79c-1.69.95-3.69 2.81-2.18 4.83 1.31 1.75 4.36 1.82 6.19 1 2-.93 1.78-2.9.25-4.23a12.53 12.53 0 0 0-3.58-1.84c-1-.4-3.44-.88-2.36-2.72 1.62-2.75 6 1.7 2.43 2.72a.46.46 0 0 0 .24.88zm5.51-7.67l1.42.57a6.49 6.49 0 0 1 1.43.58c.38.55-.54.75-.87 1.07s0 .83.44.77c1.32-.21 1.18 1.45.5 2.05a2.59 2.59 0 0 1-1.35.57c-.58.12-.33 1 .24.88 1.21-.23 2.6-1 2.61-2.45a1.92 1.92 0 0 0-2.24-1.93l.44.76c.52-.49 2.18-.73 1.61-1.88-.21-.42-.73-.56-1.14-.72l-2.85-1.18c-.55-.22-.78.66-.24.88zm-56.09 19.86h77a.46.46 0 0 0 0-.91h-77a.46.46 0 0 0 0 .91zm1.49 9.67l5.1 10.41c.61 1.25 1.69 5 3.77 3.92a.47.47 0 0 0 .21-.52 76.35 76.35 0 0 1-.94-16.19l-.45.45c10.65 1.16 21.53 1 32.23 1q16.53.08 33.07-.41a.46.46 0 0 0 0-.92q-16.53.49-33.07.42c-10.7-.06-21.58.14-32.23-1a.46.46 0 0 0-.46.46 77.85 77.85 0 0 0 0 7.79 71.94 71.94 0 0 0 .31 3.89c.09.81.74 2.83.47 3.6.18.5.06.53-.35.1a1.24 1.24 0 0 1-.75-1 18.47 18.47 0 0 1-.85-1.73l-1.7-3.47-3.57-7.24c-.26-.52-1-.06-.79.46zm32.36.9a8.5 8.5 0 0 0 .26 14c.49.34.94-.45.46-.78a7.58 7.58 0 0 1-.26-12.41c.47-.35 0-1.14-.46-.79zm25.72 1.66a9.15 9.15 0 0 1-3.3 11.82c-.49.32 0 1.11.46.79a10.07 10.07 0 0 0 3.63-13.07c-.26-.53-1-.06-.79.46zm-16.94 2.25c.74.84 2.31 2.78 3.6 2.7.61 0 1-.47 1.32-.92.68-.82 1.29-1.72 1.93-2.58.35-.47-.44-.93-.78-.46-.58.77-1.56 2.71-2.51 2.81s-2.24-1.42-2.92-2.19c-.39-.44-1 .2-.64.64zm-2.6 4.17a4.87 4.87 0 0 0 3.63 1h7.29a.46.46 0 0 0 0-.91h-5c-1.57 0-4 .4-5.28-.75-.43-.4-1.08.24-.65.64zm2.62 3.58l1-.55c1-.38 1.5-.05 1.45 1 .36 1.28.19 1.21-.87 1.69a6.66 6.66 0 0 0-1.78.75.88.88 0 0 0-.16 1.31c.61.79 2.34.73 3.2.77a16.69 16.69 0 0 0 5.35-.66.46.46 0 0 0 0-.88l-.7-.26c-.55-.2-.79.68-.24.88l.7.26v-.88c-.59.17-7.58 1.33-7.46.11l2.5-1.09a2.85 2.85 0 0 0 1-1.28 1.89 1.89 0 0 0-1.17-2.47 3.4 3.4 0 0 0-3.51.65c-.46.36.19 1 .65.64zm-28.59-8.59a22.76 22.76 0 0 1 .3 4.29 21.23 21.23 0 0 1-.22 2.39 7.71 7.71 0 0 1-.21 1.24l.55.07-.09-.1v.64l.08-.07c.44-.39-.21-1-.64-.64l-.08.07a.46.46 0 0 0 0 .64l.08.11a.47.47 0 0 0 .56.07c.83-.59.71-2.22.8-3.16a23 23 0 0 0-.25-5.8c-.1-.57-1-.33-.88.25zm5.3 3.59a22.94 22.94 0 0 0 6.1.93.46.46 0 0 0 0-.92 21.81 21.81 0 0 1-5.85-.89.46.46 0 0 0-.25.88zm414.71-135.46q.36 11.79.71 23.58c0 .59.94.59.92 0q-.36-11.79-.71-23.58a.46.46 0 0 0-.92 0z"></path><path d="M682.33 288.43a65.41 65.41 0 0 0 11.95-.43c.57-.07.58-1 0-.91a65.41 65.41 0 0 1-11.95.43c-.59 0-.59.87 0 .91zm-.7-12.33a2.75 2.75 0 0 0 1.53.1l4.4-.57a42.65 42.65 0 0 1 7.58.14c.59.06.58-.85 0-.91a43.15 43.15 0 0 0-6.82-.19l-3 .28c-1 .13-2.49.64-3.41.27-.55-.22-.78.66-.25.88zm.09-10.96c1.58 1.12 4 .45 5.79.34 2.6-.18 5.33-.61 7.91-.07.58.12.82-.76.25-.88a21.59 21.59 0 0 0-5.9-.12l-3.4.23c-1.28.08-3 .52-4.19-.29-.48-.34-.93.45-.46.79zm23.35 8.66a54.84 54.84 0 0 0 5.58.52h3.13c1.05-.05 2.33-.37 3.1.32.44.4 1.09-.25.65-.64-1.14-1-2.72-.61-4.14-.59a52 52 0 0 1-8.08-.52c-.57-.08-.82.8-.24.88zm-.98 7.2a41.63 41.63 0 0 1 12.8.21c.57.1.82-.78.24-.88a42.56 42.56 0 0 0-13.28-.2c-.58.08-.34 1 .24.87zm24.44-1.73l.81-4.39a7.14 7.14 0 0 1 .43-1.68c1.4-2.57 3.15 0 3.57 1.15s.37 3.3 1.8 3.67a.46.46 0 0 0 .56-.32c.94-2.68 4.57-7.53 7-3.33a20 20 0 0 1 2.07 8.26c0 .59 1 .59.92 0a25.76 25.76 0 0 0-1.47-7c-.53-1.41-1.2-2.94-2.65-3.61-3.22-1.5-5.88 3-6.74 5.48l.57-.32c-.69-.17-1-2.46-1.17-3a8 8 0 0 0-1.05-2.16 2.62 2.62 0 0 0-2.32-1.15 2.33 2.33 0 0 0-1.8 1.69 28.56 28.56 0 0 0-1.4 6.54c-.09.57.79.82.88.24zm29.77-5.21c-2.46-2.25-6.72-.72-6.43 2.88a4.48 4.48 0 0 0 2.85 3.59c2.1.88 4.4.19 6.33-.79.53-.27.06-1.06-.46-.79-2.25 1.14-5.55 1.85-7.24-.62a2.82 2.82 0 0 1 4.3-3.62c.44.39 1.08-.25.65-.65z"></path><path d="M761.52 266c3.59-1.42 2 4.13 3.05 5.61s2.93 0 3.78-.74c.44-.39-.21-1-.65-.65-.74.64-1.81 1.66-2.49.12a5.06 5.06 0 0 1-.13-1.37 7.53 7.53 0 0 0-.46-2.62 2.59 2.59 0 0 0-3.34-1.23c-.54.21-.31 1.09.24.88zM211.34 69.91q.32 10.22.62 20.43c0 .58.93.59.91 0l-.62-20.43c0-.58-.93-.58-.91 0z"></path><path d="M212.36 90.67a57.79 57.79 0 0 0 10.35-.37c.57-.08.58-1 0-.92a56.87 56.87 0 0 1-10.35.37c-.59 0-.59.88 0 .92zM211.74 80c1.64.47 3.66-.3 5.34-.42a36.77 36.77 0 0 1 6.38.14c.58.06.58-.86 0-.92a39.24 39.24 0 0 0-5.63-.18c-1.61.08-4.31.94-5.85.5-.56-.17-.8.71-.24.88zm.06-9.51c1.3.93 3.19.42 4.67.32 2.37-.15 4.87-.55 7.21-.08.58.12.82-.76.25-.88a20.05 20.05 0 0 0-5.25-.1c-1.65.11-5 1-6.42 0-.48-.34-.93.45-.46.79zM232 78a46.9 46.9 0 0 0 4.87.46c1.28 0 4.33-.61 5.33.29.44.39 1.09-.26.65-.65-1-.86-2.2-.56-3.41-.53a44.5 44.5 0 0 1-7.2-.45c-.57-.08-.82.8-.24.88zm-.78 6.24a35.92 35.92 0 0 1 11.05.18c.58.1.83-.78.25-.88a37.53 37.53 0 0 0-11.52-.18c-.58.08-.33 1 .24.88zm21.21-1.55l.66-3.62a5.1 5.1 0 0 1 .52-1.88c.08-.68.5-.75 1.25-.2a1.28 1.28 0 0 1 1.58 1.3c.45 1.18.31 2.87 1.64 3.36a.47.47 0 0 0 .57-.32 8.35 8.35 0 0 1 1.7-3 4.19 4.19 0 0 1 1.2-1.07l2.43.31a3.9 3.9 0 0 1 .82 1.33 18.81 18.81 0 0 1 1.57 6.65c.05.58 1 .58.91 0-.2-2.72-.69-8.19-3.76-9.36-2.8-1.07-5 2.75-5.75 4.86l.56-.32c-.61-.22-.81-2.18-1-2.72a6.39 6.39 0 0 0-.88-1.75 2.3 2.3 0 0 0-1.93-1c-2.6.16-2.7 5.41-3 7.17-.09.57.79.82.88.24zm25.77-4.57c-2.17-2-5.93-.63-5.68 2.54a3.93 3.93 0 0 0 2.48 3.16c1.84.77 3.84.17 5.53-.69.52-.27.06-1-.46-.79-1.92 1-4.75 1.6-6.19-.52a2.38 2.38 0 0 1 3.63-3c.44.39 1.08-.25.65-.65zm2.8-6.9c3-1.19 1.69 3.56 2.58 4.83s2.61 0 3.36-.63c.44-.38-.2-1-.65-.64-.6.52-1.48 1.38-2.05.15a4.67 4.67 0 0 1-.11-1.19 6.87 6.87 0 0 0-.4-2.3 2.31 2.31 0 0 0-3-1.1c-.54.21-.31 1.1.24.88zm44.3 39.16l.39 13a.46.46 0 0 0 .92 0q-.21-6.5-.4-13c0-.58-.93-.58-.91 0z"></path><path d="M326.11 123.74a37.08 37.08 0 0 0 6.58-.23c.58-.08.58-1 0-.92a36.16 36.16 0 0 1-6.58.24c-.58 0-.58.88 0 .91zm-.43-6.74c1 .3 2.26-.18 3.31-.25a24.31 24.31 0 0 1 4.18.07c.58.06.58-.85 0-.91a24.33 24.33 0 0 0-3.62-.11c-.94 0-2.74.58-3.63.32a.46.46 0 0 0-.24.88zm0-6.11c.91.57 2 .3 3 .23a18.4 18.4 0 0 1 4.57-.06c.57.12.82-.76.24-.87a12.32 12.32 0 0 0-3.21-.09c-1.13.08-3.18.62-4.16 0-.5-.32-1 .47-.46.78zm12.9 4.79a30.43 30.43 0 0 0 3.16.3h1.53c.53 0 1.34-.23 1.72.12s1.09-.25.65-.65c-.62-.55-1.32-.41-2.12-.39a27.4 27.4 0 0 1-4.7-.27c-.57-.08-.82.8-.24.88zm-.43 3.97a22.68 22.68 0 0 1 6.93.11c.58.1.83-.78.25-.88a24.67 24.67 0 0 0-7.43-.11c-.57.08-.33 1 .25.88zm13.59-1.1l.34-1.94.31-1.27c1-.15 1.58.14 1.72.84.42.79.14 1.31.91 1.78a.46.46 0 0 0 .67-.27 4.16 4.16 0 0 1 .93-1.65 1 1 0 0 1 1.24-.5c.74-.41 1.22-.22 1.42.58a11.64 11.64 0 0 1 1 4.23c.05.58 1 .58.91 0-.15-1.8-.46-5.39-2.55-6.11-1.89-.65-3.3 1.76-3.83 3.2l.67-.27c-.64-.4-.62-2-1.14-2.71a1.6 1.6 0 0 0-1.7-.78c-1.54.39-1.6 3.47-1.78 4.63-.08.57.79.82.88.24zm16.34-3.07a2.29 2.29 0 0 0-3.89 1.76 2.67 2.67 0 0 0 1.72 2.15 4.42 4.42 0 0 0 3.64-.46c.53-.27.07-1.06-.46-.79-1.14.58-2.86 1-3.72-.29a1.35 1.35 0 0 1 2.06-1.72c.44.39 1.08-.25.65-.65zm1.68-4.11c1.66-.65.95 2.25 1.45 3s1.84.12 2.4-.37-.2-1-.65-.64c-.27.24-.74.74-1 .21a2.34 2.34 0 0 1-.08-.76 4.47 4.47 0 0 0-.28-1.54 1.63 1.63 0 0 0-2.07-.78c-.54.22-.31 1.1.24.88zM523 339.21q.42 7.92.85 15.85c0 .58.95.58.91 0q-.42-7.94-.85-15.85c0-.58-.95-.59-.91 0z"></path><path d="M524.26 355.41a44.4 44.4 0 0 0 8.15-.49c.58-.09.34-1-.24-.88a43.55 43.55 0 0 1-7.91.46c-.58 0-.58.9 0 .91zm-.7-8.28c1.26.33 2.75-.28 4-.4a29 29 0 0 1 5.1 0c.58 0 .58-.87 0-.91a29.1 29.1 0 0 0-4.76 0c-1.23.11-3 .77-4.12.47a.46.46 0 0 0-.24.88zm-.15-7.39c1.11.66 2.41.3 3.64.19a22 22 0 0 1 5.61-.21c.58.1.82-.78.24-.88a14.9 14.9 0 0 0-3.89 0c-1.4.12-3.91.84-5.14.11a.46.46 0 0 0-.46.79zm15.99 5.48a36.52 36.52 0 0 0 4 .26c.82 0 3.07-.49 3.74.08.44.38 1.09-.26.64-.64-.82-.7-1.82-.42-2.83-.38a36.06 36.06 0 0 1-5.59-.23c-.58-.07-.57.85 0 .91zm-.58 4.86a27.73 27.73 0 0 1 8.53-.07c.57.08.82-.8.24-.88a29.34 29.34 0 0 0-9 .07c-.57.09-.33 1 .25.88zm16.53-1.79a11.44 11.44 0 0 1 .53-3.17c0-1.07.72-1.28 2.11-.61a8.09 8.09 0 0 1 .57 1.63c.22.7.28 1.17 1 1.43a.47.47 0 0 0 .56-.32 5 5 0 0 1 1.1-2.08c.37-.73 1-.8 1.88-.22 1.22-.26 1.89.18 2 1.34a16.75 16.75 0 0 1 .9 4.07c.06.58 1 .59.91 0-.22-2.13-.66-6.11-2.93-7.19s-4.13 2.06-4.74 3.84l.56-.32c-.51-.18-1-2.76-1.43-3.31a1.87 1.87 0 0 0-1.9-.85c-1.9.46-1.86 4.3-2.05 5.76-.07.59.84.58.92 0zm19.89-4a2.69 2.69 0 0 0-4.54 2.15 3.15 3.15 0 0 0 2.07 2.5 5.29 5.29 0 0 0 4.37-.64c.51-.28.05-1.07-.46-.79-1.42.76-3.56 1.31-4.69-.26a1.75 1.75 0 0 1 2.6-2.31c.44.38 1.09-.26.65-.65zm1.95-5.24c2.18-.92 1.32 2.7 2 3.65s2.13.05 2.76-.52c.44-.4-.21-1-.64-.65s-1 1-1.43.24a3.42 3.42 0 0 1-.1-.92 5.74 5.74 0 0 0-.37-1.83 1.89 1.89 0 0 0-2.44-.85c-.53.22-.3 1.11.24.88zm122.25 10.12a3.42 3.42 0 0 1 1.39-2.87c1.54-.79 1.85.78 2 2 0 .41.61.66.85.23a7.61 7.61 0 0 1 .92-1.62c.25-.71.84-.87 1.75-.5a2.25 2.25 0 0 0 .14.44 14.45 14.45 0 0 0 1.41 1.33.46.46 0 0 0 .88-.25c-.27-1-.95-.93-1.55-1.77-.38-.52-.28-1-1-1.23-1.74-.54-2.7 2.07-3.31 3.14l.85.23c-.16-1.3-.6-3.66-2.4-3.37s-2.74 2.64-2.82 4.2c0 .58.88.58.91 0zm13.85-3.54v-.37c0-.27-.28-.56-.58-.44a2.6 2.6 0 0 0-1.41 3 1.57 1.57 0 0 0 1 1.14 2.47 2.47 0 0 0 2-.52c.5-.31 0-1.1-.46-.79s-1.62.81-1.74-.26a1.68 1.68 0 0 1 .8-1.72l-.57-.44v.37c0 .58 1 .59.92 0zm.59-3.27c.41 0 1.08-.15 1.42.16s.2 1.08.39 1.52a1 1 0 0 0 1.77.26c.34-.48-.45-.94-.78-.46-.08.11-.24-.72-.25-.79a2.43 2.43 0 0 0-.08-.47 1.44 1.44 0 0 0-.52-.8 2.75 2.75 0 0 0-2-.33c-.58.06-.58 1 0 .91zm8.82 2.22a18.66 18.66 0 0 1 .83 4c.06.58 1 .59.91 0a19.05 19.05 0 0 0-.86-4.22c-.18-.56-1.06-.32-.88.24z"></path><path d="M722.79 347.14A19.73 19.73 0 0 0 726 347c.58-.07.58-1 0-.91a19.73 19.73 0 0 1-3.17.11c-.58 0-.58.89 0 .91zm7.75-2.75a52.71 52.71 0 0 0 5.54 3.11c.53.25 1-.54.46-.79a52.71 52.71 0 0 1-5.54-3.11c-.5-.32-1 .47-.46.79z"></path><path d="M734.42 343.86a17.3 17.3 0 0 1-3.26 5.22c-.39.43.26 1.08.65.64a18.6 18.6 0 0 0 3.49-5.62c.21-.54-.67-.78-.88-.24zm3.42.45l1.95 2.2c.37.42.79 1.17 1.41 1.21.42 0 .64-.23.85-.56.54-.85.92-1.84 1.37-2.73.27-.52-.52-1-.78-.46l-.86 1.71c-.28.57-.32 1.29-.86.74-.85-.87-1.63-1.84-2.43-2.76-.39-.44-1 .21-.65.65zm20.03-7.57c-3.7 1.42-7.7.29-11.53.87-.5.08-.36.74 0 .88a64.61 64.61 0 0 1 11.56 6.06l.23-.85c-4.08.06-7.57 2-11 4.05a.47.47 0 0 0 .11.84c4.54 1.05 9.1 2 13.79 1.58.58-.05.58-1 0-.91-4.61.45-9.08-.51-13.55-1.55l.11.83c3.27-2 6.61-3.87 10.53-3.93a.46.46 0 0 0 .23-.85 66.3 66.3 0 0 0-11.78-6.15v.88c3.85-.58 7.8.56 11.53-.87.54-.21.3-1.09-.24-.88zm-2.29-2.24l.18.28a.46.46 0 0 0 .83-.35l1.11-.27v.11c.06 0 .1.22.16.29a.75.75 0 0 0 .57.26 2 2 0 0 0 .81-.27 7.34 7.34 0 0 1 .74-.27c.2-.06.94-.09 1-.13-.5.31 0 1.1.46.79a.9.9 0 0 0 .14-1.47 1.32 1.32 0 0 0-1-.25c-.53 0-1.43.63-1.9.5-.31-.08-.47-.58-.81-.79a1.45 1.45 0 0 0-1.13-.2 1.52 1.52 0 0 0-1 1.94l.83-.35-.18-.28c-.32-.5-1.11 0-.79.46zm8.42-2.73a1.33 1.33 0 0 0 .15 2 1.3 1.3 0 1 0 1.12-2.3 2.25 2.25 0 0 0-2.24.86.46.46 0 0 0 .65.64c.27-.27 1.4-1.19 1.58-.34s-1.19.41-.61-.21c.39-.43-.25-1.08-.65-.65zm8.13 9.87a27 27 0 0 1-3 4.39c-.35.42-1.3 1.86-1.85 2-1.37-.26-1.86-.95-1.46-2.07 0-.86.42-1.25 1.25-1.19 1.3-.3 1.87.46 2.74 1.35a21.35 21.35 0 0 1 2 2.37c1.06 1.45 2 3 2.9 4.52l.62-.63-.46-.32c-.48-.33-.94.46-.46.79l.46.32c.39.27.85-.25.63-.62-1.18-2-8.44-14-10.44-7.11-.37 1.26-.36 4.37 1.7 4 1.31-.25 2.48-2 3.26-3a28.45 28.45 0 0 0 2.89-4.31c.28-.51-.5-1-.79-.46zm8.06 6.92a28.55 28.55 0 0 1-1.28 4.35c-.21.54.67.78.88.24a28.55 28.55 0 0 0 1.28-4.35c.12-.57-.76-.81-.88-.24zm2.32 5.16a14 14 0 0 1 1.6-9 9.92 9.92 0 0 1 1.16-1.64c.67-.76 3.21-3.33 3.77.31.23 1.49-3.58 5-4.91 3.33-.37-.46-1 .19-.65.64 1.4 1.71 4.6-.32 5.62-1.65 1.15-1.49 1.23-4-.79-4.83s-3.89 1.59-4.84 3.11a14.81 14.81 0 0 0-1.87 9.72c.08.58 1 .59.91 0zm6.19-20.2a12.29 12.29 0 0 1 4.77 11.15c-.4 4.71-3.05 8.88-6.13 12.3-.39.44.25 1.09.64.65 3.38-3.75 6.22-8.35 6.44-13.52a13.09 13.09 0 0 0-5.26-11.36c-.48-.34-.93.45-.46.78zm-91.7.58a15.9 15.9 0 0 0-3 11.49c.59 4.33 3.06 8.07 5.44 11.63.32.49 1.11 0 .79-.46-2.19-3.28-4.49-6.69-5.23-10.64a15 15 0 0 1 2.77-11.55c.34-.48-.45-.94-.79-.47zm-241.17 53.47a3.42 3.42 0 0 1 1.39-2.87c1.54-.79 1.85.78 2 2a.46.46 0 0 0 .85.23 7.57 7.57 0 0 1 .91-1.62c.26-.71.84-.87 1.76-.5a2.25 2.25 0 0 0 .14.44c.09.07 1.45 1.51 1.41 1.33a.46.46 0 0 0 .88-.25c-.27-1-.95-.93-1.56-1.77-.37-.52-.27-1-1-1.23-1.74-.54-2.71 2.07-3.31 3.14l.85.23c-.17-1.3-.6-3.66-2.4-3.37s-2.74 2.64-2.83 4.2c0 .58.88.58.92 0zm13.84-3.57v-.37c0-.27-.28-.56-.58-.44a2.59 2.59 0 0 0-1.41 3 1.57 1.57 0 0 0 1 1.14 2.49 2.49 0 0 0 2-.52c.49-.31 0-1.1-.46-.79s-1.62.81-1.74-.26a1.68 1.68 0 0 1 .8-1.72l-.58-.44v.37c0 .58.95.59.91 0zm.6-3.24c.41 0 1.08-.15 1.42.16s.2 1.08.39 1.52a1 1 0 0 0 1.77.26c.34-.48-.45-.94-.79-.46-.08.11-.24-.72-.24-.79a3.55 3.55 0 0 0-.08-.47 1.41 1.41 0 0 0-.53-.8 2.72 2.72 0 0 0-1.94-.33c-.58.06-.59 1 0 .91zm8.82 2.24a18.66 18.66 0 0 1 .83 4c.05.58 1 .59.91 0a20.27 20.27 0 0 0-.86-4.22c-.18-.56-1.06-.32-.88.24z"></path><path d="M479.18 385.54a19.77 19.77 0 0 0 3.17-.11c.57-.07.58-1 0-.91a19.77 19.77 0 0 1-3.17.11c-.59 0-.59.89 0 .91zm7.74-2.75a53.89 53.89 0 0 0 5.55 3.11c.52.25 1-.54.46-.79a53.89 53.89 0 0 1-5.55-3.11c-.49-.32-.95.47-.46.79z"></path><path d="M490.8 382.26a17.27 17.27 0 0 1-3.25 5.22c-.39.43.25 1.08.65.64a18.57 18.57 0 0 0 3.48-5.62c.22-.54-.66-.78-.88-.24zm3.43.45l1.94 2.2c.37.42.79 1.17 1.41 1.21.43 0 .65-.23.86-.56.53-.85.92-1.84 1.37-2.73.26-.52-.52-1-.79-.46l-.85 1.71c-.27.53-.33 1.29-.87.74-.85-.87-1.62-1.84-2.42-2.76-.39-.44-1 .21-.65.65zm20.02-7.57c-3.69 1.42-7.69.29-11.53.87-.49.08-.36.74 0 .88a64.69 64.69 0 0 1 11.57 6.11c.07-.29.15-.57.23-.85-4.08.06-7.58 2-11 4a.47.47 0 0 0 .11.84c4.54 1.05 9.1 2 13.79 1.58.58-.05.58-1 0-.91-4.61.45-9.09-.51-13.55-1.55l.11.83c3.27-2 6.61-3.87 10.53-3.93a.46.46 0 0 0 .23-.85A66.3 66.3 0 0 0 503 376v.88c3.85-.58 7.8.56 11.52-.87.55-.21.31-1.09-.24-.88zM512 372.9l.18.28a.46.46 0 0 0 .83-.35l1.11-.27v.11c.05 0 .1.22.15.29a.75.75 0 0 0 .58.26 2 2 0 0 0 .81-.27 7.34 7.34 0 0 1 .74-.27c.2-.06.94-.09 1-.13-.5.31 0 1.1.46.79a.91.91 0 0 0 .14-1.47 1.32 1.32 0 0 0-1-.25c-.53 0-1.43.63-1.9.5s-.47-.58-.81-.79a1.46 1.46 0 0 0-1.13-.2 1.52 1.52 0 0 0-1 1.94l.84-.35-.18-.28c-.32-.5-1.11 0-.79.46zm8.34-2.73a1.33 1.33 0 0 0 .15 2 1.3 1.3 0 1 0 1.12-2.3 2.25 2.25 0 0 0-2.24.86.46.46 0 0 0 .65.64c.27-.27 1.4-1.19 1.58-.34s-1.19.41-.62-.21c.4-.43-.24-1.08-.64-.65zm8.18 9.83a27.68 27.68 0 0 1-3 4.39c-.35.42-1.31 1.86-1.85 2-1.38-.26-1.86-1-1.46-2.07 0-.86.42-1.25 1.24-1.19 1.3-.3 1.88.46 2.74 1.35a20.65 20.65 0 0 1 2 2.38l2.9 4.51.62-.63-.46-.32c-.49-.33-.94.46-.46.79l.46.32c.38.27.85-.25.62-.62-1.17-2-8.43-14-10.44-7.11-.36 1.26-.35 4.37 1.71 4 1.31-.25 2.48-2 3.26-3a28.45 28.45 0 0 0 2.89-4.31c.28-.51-.51-1-.79-.46zm8.06 7a28.55 28.55 0 0 1-1.28 4.35c-.22.54.67.78.87.24a27.5 27.5 0 0 0 1.29-4.35c.12-.57-.76-.81-.88-.24zm2.32 5.12a14.05 14.05 0 0 1 1.59-9 10.6 10.6 0 0 1 1.17-1.64c.67-.76 3.2-3.33 3.77.31.23 1.49-3.59 4.95-4.91 3.33-.38-.46-1 .19-.65.64 1.4 1.71 4.6-.32 5.62-1.65 1.15-1.49 1.22-4-.79-4.83s-3.9 1.59-4.84 3.11a14.75 14.75 0 0 0-1.87 9.72c.08.58 1 .59.91 0zm6.19-20.2a12.29 12.29 0 0 1 4.77 11.15c-.4 4.71-3.05 8.88-6.13 12.3-.4.44.25 1.09.64.65 3.37-3.75 6.22-8.35 6.44-13.52a13.09 13.09 0 0 0-5.26-11.36c-.48-.34-.94.45-.46.78zm-91.73.58a15.9 15.9 0 0 0-3 11.49c.59 4.33 3.06 8.07 5.43 11.63.33.49 1.12 0 .79-.46-2.18-3.28-4.48-6.69-5.22-10.64a15 15 0 0 1 2.79-11.52c.34-.48-.45-.94-.79-.47zm157.37-39.28c-5 12.36-4.76 28 5.65 37.62 9.9 9.1 25.24 7.08 35.89.36a33.18 33.18 0 0 0 12.29-13.29 34.27 34.27 0 0 0 2.92-16 21.63 21.63 0 0 0-5.57-13 33 33 0 0 0-15.32-9.19c-7.23-2-14.54-.75-21.6 1.35-7.58 2.25-11.93 7.71-15.2 14.63-.25.53.53 1 .78.46 2.83-6 6.51-11.3 12.95-13.65 5.51-2 12-3.42 17.87-2.84 11.13 1.08 22.46 8.59 24.9 20 .94 4.4.17 9.73-1.08 14a29.35 29.35 0 0 1-9.59 14c-9.22 7.74-24.49 11.92-35.31 5.09-13.21-8.35-14-26-8.7-39.26.22-.54-.66-.78-.88-.24z"></path><path d="M602.06,397.08c3.35-31.09,8.93-62,17.8-92a.46.46,0,0,0-.88-.25c-8.89,30.09-14.47,61.12-17.84,92.29-.06.59.85.58.92,0Z"></path><path d="M602 397.35a513.36 513.36 0 0 1 83.66-38.74c.55-.19.32-1.08-.24-.88a514.78 514.78 0 0 0-83.88 38.83.46.46 0 0 0 .46.79zm-7.88 3.98l8.25 1.8c.57.13.81-.75.24-.88l-8.25-1.8c-.57-.13-.81.75-.24.88z"></path><path d="M596.58 399.15q1.81 2.69 3.36 5.53c.28.51 1.07.05.79-.46a63.73 63.73 0 0 0-3.37-5.53c-.32-.48-1.11 0-.78.46zm17.24-59.37l4 2.81c.48.34.93-.45.46-.78l-4-2.82c-.48-.34-.94.45-.46.79zm9.4 7.22l5.54 3.87c.5.31 1-.48.47-.79q-2.87-1.8-5.55-3.87c-.47-.36-.92.43-.46.79zm10.33 6.69a45.62 45.62 0 0 0 5.87 4.37c.49.31 1-.48.46-.79a44.4 44.4 0 0 1-5.69-4.23c-.44-.39-1.08.26-.64.65zm9.26 6.57a39.58 39.58 0 0 1 5.4 4.16c.44.39 1.08-.25.65-.65a41.72 41.72 0 0 0-5.59-4.3c-.49-.31-.95.48-.46.79zm8.64 4.94a10 10 0 0 1 3.17 2.13c.42.42 1.07-.23.65-.64a11 11 0 0 0-3.58-2.37c-.54-.23-.77.66-.24.88zm12.89 5.8c-.51-.93-1.54-.61-2.05.14a4.83 4.83 0 0 0-.42 4.41 3.86 3.86 0 0 0 6.69.47c.35-.47-.44-.93-.78-.46a3 3 0 0 1-4.49.45 3.06 3.06 0 0 1-.86-2.19 4.37 4.37 0 0 1 .23-1.28c0-.05.62-1.58.9-1.08s1.07 0 .78-.46zm-65.15-38.49l5.73 1.31c.57.13.82-.75.24-.88l-5.73-1.31c-.57-.14-.82.74-.24.88zm-1.27-2.27c-.1-1.14.55-1.5 2-1.09a3.87 3.87 0 0 0 .26.88 2.13 2.13 0 0 0 .38.59 1.37 1.37 0 0 0 1.24.41c1-.16 3.07-2.88 4.12-1.31.74 1.11-.13 3.74-.55 4.77-.21.55.67.79.88.25.65-1.63 1.2-4.08.4-5.76s-2.56-.48-3.68.28c-.7.47-1.28 1.23-2.07.09-.17-.24-.14-.71-.28-1a1.6 1.6 0 0 0-1.34-1.07c-1.63-.11-2.08 1.71-2.23 2.95-.07.58.85.57.91 0zm57.59-25.19a49 49 0 0 1 2.7 9 22 22 0 0 1 .62 5.59c-.12 1.53-.86 1.88-2.05 1.16a7.42 7.42 0 0 1-1.78-2.1c-.87-1.26-2.06-3.43.57-4.41a5.54 5.54 0 0 1 3 .25l4.56 1.37a71.65 71.65 0 0 1 9.67 4.12c.52.27 1-.52.46-.79a63 63 0 0 0-15.12-5.75c-3.62-.78-6.41 1.56-4.31 5.14.76 1.3 2.36 3.64 3.9 4s1.73-1.22 1.89-2.32a21.69 21.69 0 0 0-.73-7.25 49.63 49.63 0 0 0-2.55-8.26c-.22-.53-1.1-.3-.88.25zm-271.89 86.4l28.48-60.55c.25-.53-.53-1-.78-.46q-14.25 30.27-28.49 60.56c-.25.53.54 1 .79.46z"></path><path d="M411.82 331.81c4.38 10.58 6 21.95 8.76 33 2.87 11.31 7.91 21.91 10.9 33.18a.46.46 0 0 0 .88-.24c-3-11.28-8-21.88-10.9-33.19-2.81-11-4.38-22.39-8.76-33-.22-.53-1.1-.3-.88.24zm-28.67 59.8c3.5 5.31 9.46 7.78 15.51 8.92 7.09 1.34 14.71 2.12 21.9 1.23 2.45-.3 6.14-.59 8.14-2.21 1.56-1.26 1.1-3.5-.17-4.79-2.09-2.14-5.78-3.25-8.48-4.38a53.19 53.19 0 0 0-10.6-3.31c-8.33-1.58-16.08.52-24.09 2.66a.46.46 0 0 0 .24.88c8-2.13 15.68-4.24 24-2.59a56.11 56.11 0 0 1 11.15 3.63q2.4 1 4.73 2.2c2.1 1.06 5.52 4.1 1.44 5.57-7.15 2.59-15.23 1.9-22.63 1s-15.84-2.51-20.32-9.29c-.32-.49-1.11 0-.79.46zM407 394.1l.64-2.67c.13-.57-.75-.81-.88-.24l-.64 2.66c-.14.57.74.82.88.25zm1.83-9.76l.28-3.12c.06-.59-.86-.59-.91 0l-.28 3.12c-.05.58.86.58.91 0zm.75-9.01l.27-1.92c.08-.58-.8-.83-.88-.25l-.27 1.92c-.08.58.8.83.88.25zm.76-7.58a6 6 0 0 1 .39-3.14c.23-.53-.56-1-.79-.46a6.82 6.82 0 0 0-.51 3.6c.08.57 1 .58.91 0zm.66-7.81l.71-3.13c.13-.57-.75-.82-.88-.24l-.71 3.13c-.13.57.75.81.88.24zm.93-8.65a3.76 3.76 0 0 1 .28-2.29c.25-.53-.54-1-.79-.46a4.81 4.81 0 0 0-.37 3c.12.58 1 .34.88-.24zm.07-6.86V343a.46.46 0 0 0-.91 0v1.45a.46.46 0 0 0 .91 0zm0-5.64l-.23-.72c-.18-.56-1.07-.32-.88.24l.23.72c.18.56 1.06.32.88-.24zm-1.32 54.48a1.5 1.5 0 0 0 .46 2 1.66 1.66 0 0 0 2.3-.22c1.19-1.27.63-4.52-1.56-3.95a.46.46 0 0 0 .24.88c1.15-.3 1.2 1.6.82 2.23a.88.88 0 0 1-1.07.46.68.68 0 0 1-.4-.94c.32-.5-.47-1-.79-.46zM414.3 365a13.31 13.31 0 0 0 4.94 3.92c.52.25 1-.54.46-.79a12.87 12.87 0 0 1-4.76-3.77c-.36-.47-1 .18-.64.64z"></path><path d="M416.51 367.74l1-1.44c.32-.49-.47-.95-.79-.46l-1 1.44c-.33.49.46 1 .78.46zm26.13-26.07a26.64 26.64 0 0 1-1.64 8 24.68 24.68 0 0 1-1.72 3.64c-.51.89-1.2 2.47-2.77 1.61-.47-.26-.74-1.37-.89-1.81a6.11 6.11 0 0 1-.18-4c1.49-3.14 3.79-.05 4.75 1.09a39.93 39.93 0 0 1 4.75 7.07c.28.52 1.06.06.79-.46a43.25 43.25 0 0 0-4-6.14c-1-1.31-2.29-3.22-3.88-3.9-3.47-1.49-3.82 3.86-3.3 6 .29 1.19 1.07 3.42 2.42 3.81s2-1 2.54-1.91a27 27 0 0 0 4-13c0-.58-.88-.58-.91 0zm5.5 7.12a10.43 10.43 0 0 0 6.16.11.46.46 0 0 0-.25-.88 9.54 9.54 0 0 1-5.67-.11c-.56-.18-.8.7-.24.88zm2.69 2.82l1-.16a.45.45 0 0 0 .32-.56.47.47 0 0 0-.56-.32l-1 .16a.45.45 0 0 0-.32.56.47.47 0 0 0 .56.32zm6.27-5.54a10.36 10.36 0 0 1 3.16.66 5.38 5.38 0 0 1 .85.38l-.11 2.31a2.71 2.71 0 0 1-.84.4c-.68.32-1.91.77-1.85 1.73s1.29 1.22 2 1.43a19 19 0 0 0 5.15.69.46.46 0 0 0 0-.91 18.92 18.92 0 0 1-3.45-.31 5.47 5.47 0 0 1-1.46-.35c-.5-.07-.76-.43-.77-1.09l.41-.21c.92-.84 2.33-.78 2.63-2.27.54-2.64-4-3.27-5.72-3.37-.59 0-.59.88 0 .91zm16.33-7.22c-1.83 1.12-3.73 2.32-4.69 4.32a13.35 13.35 0 0 0-.76 7.32c.37 2.9 2 8.72 6.15 6.71.53-.26.06-1.05-.46-.79-4.24 2.07-5-6.6-4.92-8.77.12-3.92 1.91-6 5.14-8a.46.46 0 0 0-.46-.79zm4.62 7.61c-2.33-1-4.41 3.19-2.49 4.72 2.38 1.89 4.72-1.6 4.18-3.76a.45.45 0 0 0-.56-.31c-1.06.33-.51 1.54-.13 2.24a7.38 7.38 0 0 0 3.19 3.09c.52.27 1-.52.46-.79a6.66 6.66 0 0 1-1.87-1.36 11 11 0 0 1-1.41-2.3l-.56-.32a2.31 2.31 0 0 1-1.11 2.74c-.4.37-.8.3-1.21-.2-.83-.11-1.08-.56-.75-1.33s1.06-1.94 2-1.54c.54.22.78-.66.25-.88zm5.29 1.42l5.1 2.07c.55.22.79-.66.25-.88l-5.11-2.07c-.54-.22-.78.66-.24.88z"></path><path d="M487.6 347l-1 3.94c-.13.57.75.81.88.24l1-3.94a.46.46 0 0 0-.88-.24zm2.57-5.31c1.95 2.36 4.24 4.95 5.09 8l.17.7c.53 1.32 0 1.92-1.56 1.81-.34-.38 1-2.71 1.4-2.84l2.52 1.16a2.7 2.7 0 0 1-.34 1.48c-.46 1-2.2 3-3.58 1.56-.41-.43-1.05.22-.64.64 2.27 2.37 5.59-1.22 5.47-3.68a2.59 2.59 0 0 0-1.87-2.58c-1.6-.36-2.87 1.3-3.44 2.57-.46 1-.8 2.7.33 3.43a1.79 1.79 0 0 0 2.49-1c1.72-3.94-3.17-9.11-5.39-11.82-.37-.45-1 .2-.65.65zm6.6-2.17c2.44 2.64 5.32 5.21 6.44 8.73 1.32 4.14-.61 7.59-4.4 9.4-.53.25-.07 1 .46.79 3.5-1.67 5.79-4.82 5.2-8.81-.65-4.45-4.16-7.63-7.06-10.76-.4-.43-1 .22-.64.65zM233 243.63c1.12-10.18.6-20.42.4-30.64a203.48 203.48 0 0 1 1.69-31.3c.08-.57-.8-.82-.88-.24a201.49 201.49 0 0 0-1.73 30.76c.18 10.48.76 21-.39 31.42-.06.59.85.58.91 0z"></path><path d="M224.38,236.26H346.91a.46.46,0,0,0,0-.92H224.38a.46.46,0,0,0,0,.92Z"></path><path d="M223.28,219a75.43,75.43,0,0,0,10,13.49,71.51,71.51,0,0,0,6,5.77c1.68,1.43,3.47,2.92,5.74,3.22,5.14.67,10.34-3.94,14.11-6.86,4.22-3.27,8.22-6.83,12.65-9.82a37.17,37.17,0,0,1,7.51-4.15c1.8-.67,3.83-1.09,5.64-.2a8.31,8.31,0,0,1,3.31,3.7c2.86,5.16,4.8,10.85,7.94,15.86,2.06,3.29,5.09,6.38,9.24,6.36,5,0,8.69-4,11.27-7.87,3.56-5.35,6.21-11.64,11-16,2.38-2.15,4.41-.93,6.2,1.11a44.68,44.68,0,0,1,3.37,4.47,53.09,53.09,0,0,1,4.74,8.78c.23.54,1,.07.79-.46-2.17-5-5.1-10.51-9.11-14.36-1.32-1.26-3-2.21-4.83-1.47-2.05.83-3.72,3.21-5,4.9-3.43,4.48-5.73,9.71-9.12,14.23-3.79,5-10.33,8.2-15.45,2.95-3.94-4-6-10.16-8.41-15.15-1.87-3.88-3.9-9-9.11-8.39-5,.54-9.83,4.32-13.71,7.26-4.44,3.36-8.59,7.09-13.17,10.26-2.93,2-6.7,4.79-10.46,3.85-3.12-.79-5.9-3.94-8.13-6.12a74.75,74.75,0,0,1-12.3-15.79.45.45,0,0,0-.78.46Z"></path><path d="M223.64 241.88c8.16-8.11 15.53-20.89 28.34-21.6 13.24-.74 20.37 12.49 26.92 21.72 2.48 3.49 6 6 10.13 3.41s6.85-7.32 9.35-11.24c2.81-4.41 5.49-9 9.26-12.71 2.07-2 5.16-4.82 8.33-4.28 2.9.49 4.9 4.25 6.32 6.57 2.93 4.77 5.08 10 8.1 14.67.78 1.21 6.93 10.06 8.47 7.37a.46.46 0 0 0-.79-.46c-.38.65-5.45-5.26-5.74-5.67a57 57 0 0 1-4-6.59c-2.34-4.4-4.44-9-7.44-13-1.25-1.67-2.64-3.5-4.83-3.85s-4.31.75-6 2c-4 2.81-6.89 6.81-9.51 10.83-2.88 4.42-5.49 9.1-9.07 13-2.35 2.57-5.73 4.94-9.06 2.49-2.38-1.75-3.89-4.68-5.5-7.1-5.61-8.39-13.06-18.29-24.3-18.1-13.45.23-21.18 13.48-29.64 21.9a.453.453 0 0 0 .64.64zM343.69 243a25.94 25.94 0 0 0 8 4c.56.17.8-.71.24-.88a25.13 25.13 0 0 1-7.79-4c-.47-.35-.92.44-.46.79z"></path><path d="M350.68 240.77a41.12 41.12 0 0 1-3.55 8.73c-.28.52.51 1 .79.46a43 43 0 0 0 3.64-9 .46.46 0 0 0-.88-.24zm-129.29-53.95a46.33 46.33 0 0 0 6.7 2.82c.55.19.79-.69.24-.88a44.89 44.89 0 0 1-6.48-2.73c-.52-.27-1 .52-.46.79z"></path><path d="M228 183.26a70.55 70.55 0 0 1-1.23 7.52c-.52 2.33-1 5-2.35 7-.33.49.46.95.79.47 1.43-2.07 1.9-4.77 2.44-7.18a75.76 75.76 0 0 0 1.27-7.77c.06-.58-.85-.58-.92 0zm229.11-54.82h99.09a.46.46 0 0 0 0-.91h-99.09a.46.46 0 0 0 0 .91z"></path><path d="M491,102.2V165a.46.46,0,0,0,.91,0V102.2a.46.46,0,0,0-.91,0Z"></path><path d="M471.13 110.66c-2.14 7-1.29 14.53 1.31 21.33a60.51 60.51 0 0 0 4.86 9.73 40.52 40.52 0 0 0 5.76 7.92c10 10 23.2-3.4 27.9-12.5a35.13 35.13 0 0 0 3.76-19.93c-.06-.57-1-.58-.91 0a34.69 34.69 0 0 1-12.07 30.07 23.55 23.55 0 0 1-7.94 4.72 9.55 9.55 0 0 1-9.44-2.33 32.18 32.18 0 0 1-5.52-7.13 66.19 66.19 0 0 1-4.61-8.53c-3.18-7.26-4.57-15.34-2.22-23.05a.46.46 0 0 0-.88-.25zm10.58-8.9c.86.87 3.42 3.67 4.86 3.15s.84-3.63.8-4.58l-.45.46c.49 0-1.46 9.19-1.71 10.17a.451.451 0 0 0 .87.24c.38-1.44 3.32-11.16.84-11.32a.46.46 0 0 0-.46.45c0 .9.48 3.36-1 3.28-.95 0-2.41-1.83-3.07-2.49a.46.46 0 0 0-.65.64zm63.44 30.56l5.64 4.57c.45.36 1.1-.28.64-.65l-5.64-4.56c-.45-.37-1.1.27-.64.64z"></path><path d="M549.71 133l-3.21 3.23c-.41.42.23 1.07.65.65l3.2-3.24a.453.453 0 0 0-.64-.64zm-66.4 27.66c-2.89.74-2.35 4.39-.28 5.78a2.18 2.18 0 0 0 2.82-.11c1.2-1.11 1-2.77.71-4.22l-.83.35a4.14 4.14 0 0 0 2.93 2.29c.58.12.82-.76.25-.88a3.27 3.27 0 0 1-2.39-1.87c-.25-.49-.93-.12-.84.35a5.13 5.13 0 0 1 .1 2.4 1.48 1.48 0 0 1-2.61.62c-1.15-1.06-1.57-3.33.39-3.83a.46.46 0 0 0-.25-.88zm-25.63-22.34l6.14 4.2.46-.79-2-1.18c-1.06-.61-1.58-.38-.82-1.75.19-1.11.67-1.28 1.43-.51l.81.65 1.31 1.14a8 8 0 0 0 1.74.79c.58.26 1.42-.6 1.07 1.13-.15.75-1.54 1.49-2.11 1.8s-.05 1.07.46.78c1.06-.57 3.57-2.39 2.95-3.93-.35-.86-1-.55-1.69-.66-2-.32-2.74-1.71-4.32-2.64-1.27-.74-3.34-.71-3.84 1-.61 2.17 3.26 3.38 4.58 4.15a.46.46 0 0 0 .46-.79l-6.14-4.19c-.49-.34-.95.45-.46.78zm43.32-3.07c0 1.17.53 3.07 2.12 2.64 1.42-.39 2.12-2.43 2.11-3.74a2.8 2.8 0 0 0-2.43-2.92c-2.11-.25-3.57 1.5-4.7 3-.35.47.44.93.79.46a7.16 7.16 0 0 1 2.29-2.26 2 2 0 0 1 3.06 1.07 3.5 3.5 0 0 1-.39 2.47 2.83 2.83 0 0 1-.34.51c-.33.39-.4.49-.91.29s-.67-.87-.69-1.53a.46.46 0 0 0-.91 0zM205.86 305.91a3 3 0 0 0 1.59 4.65 3.94 3.94 0 0 0 4.73-2.9c.51-1.88-.56-4.17-2.7-4.26s-3.58 2.36-3.63 4.31a.46.46 0 0 0 .92 0 3.58 3.58 0 0 1 1.78-3.21c1.88-.88 3.19 1.28 2.75 2.92a3.11 3.11 0 0 1-3 2.37 2.11 2.11 0 0 1-1.63-3.42c.36-.47-.43-.92-.79-.46zm18.03-16.39a3 3 0 0 0 1.59 4.65 3.94 3.94 0 0 0 4.73-2.89c.51-1.89-.56-4.18-2.71-4.27s-3.57 2.36-3.62 4.32a.46.46 0 0 0 .91 0 3.62 3.62 0 0 1 1.79-3.22c1.88-.87 3.19 1.28 2.75 2.93a3.12 3.12 0 0 1-3 2.36 2.11 2.11 0 0 1-1.63-3.42c.36-.46-.43-.92-.79-.46zM241 274a3 3 0 0 0 1.59 4.65 3.94 3.94 0 0 0 4.73-2.9c.51-1.88-.56-4.17-2.71-4.26s-3.57 2.36-3.62 4.32a.46.46 0 0 0 .91 0 3.62 3.62 0 0 1 1.79-3.22c1.88-.88 3.19 1.28 2.75 2.92a3.12 3.12 0 0 1-3 2.37 2.11 2.11 0 0 1-1.63-3.42c.36-.46-.43-.92-.79-.46zm13.05 14.33a3 3 0 0 0 1.59 4.65 3.94 3.94 0 0 0 4.73-2.89c.51-1.89-.56-4.18-2.7-4.27s-3.57 2.36-3.62 4.32c0 .58.89.58.91 0a3.59 3.59 0 0 1 1.78-3.22c1.88-.88 3.19 1.28 2.75 2.92a3.11 3.11 0 0 1-3 2.37 2.11 2.11 0 0 1-1.63-3.42c.36-.46-.43-.92-.79-.46zm14.72 16.19a3 3 0 0 0 1.59 4.65 3.93 3.93 0 0 0 4.73-2.89c.51-1.89-.56-4.17-2.7-4.27s-3.58 2.37-3.62 4.32c0 .59.89.59.91 0a3.6 3.6 0 0 1 1.78-3.22c1.88-.87 3.19 1.29 2.75 2.93a3.1 3.1 0 0 1-3 2.36 2.1 2.1 0 0 1-1.63-3.42c.36-.46-.43-.91-.79-.46zm-17.11 15.56a3 3 0 0 0 1.59 4.65 4 4 0 0 0 4.73-2.9c.51-1.89-.56-4.17-2.7-4.26s-3.58 2.36-3.63 4.31a.46.46 0 0 0 .92 0 3.57 3.57 0 0 1 1.78-3.21c1.88-.88 3.19 1.28 2.75 2.92a3.09 3.09 0 0 1-3 2.36 2.1 2.1 0 0 1-1.63-3.41c.36-.47-.43-.92-.79-.46zm-18.02 16.38a3 3 0 0 0 1.58 4.65 3.93 3.93 0 0 0 4.73-2.89c.51-1.89-.56-4.17-2.7-4.27s-3.57 2.36-3.62 4.32c0 .59.89.59.91 0a3.61 3.61 0 0 1 1.78-3.22c1.89-.87 3.19 1.29 2.75 2.93a3.1 3.1 0 0 1-3 2.36 2.11 2.11 0 0 1-1.63-3.42c.36-.46-.43-.92-.78-.46zm3.3-32.58a3 3 0 0 0 1.59 4.65 3.93 3.93 0 0 0 4.73-2.89c.51-1.89-.56-4.17-2.7-4.27s-3.58 2.36-3.62 4.32c0 .59.89.59.91 0a3.59 3.59 0 0 1 1.78-3.22c1.88-.87 3.19 1.29 2.75 2.93a3.1 3.1 0 0 1-3 2.36 2.11 2.11 0 0 1-1.63-3.42c.36-.46-.43-.92-.79-.46zm-18.02 16.39a3 3 0 0 0 1.59 4.65 3.93 3.93 0 0 0 4.72-2.9c.51-1.88-.56-4.17-2.7-4.26s-3.57 2.36-3.62 4.31a.46.46 0 0 0 .91 0 3.6 3.6 0 0 1 1.78-3.21c1.89-.88 3.19 1.28 2.75 2.92a3.11 3.11 0 0 1-3 2.37 2.11 2.11 0 0 1-1.63-3.42c.36-.46-.43-.92-.78-.46zm8.43-3.03q3.51-3.19 7-6.38c.43-.4-.21-1-.65-.65l-7 6.39c-.43.39.22 1 .65.64zM246 300.3l6.41-5.83c.44-.4-.21-1-.64-.65l-6.42 5.84c-.43.39.21 1 .65.64zm-32.2.81l6.41-5.84c.44-.39-.21-1-.64-.64l-6.42 5.83c-.43.4.21 1 .65.65zm19.75-15.72l6.41-5.84c.44-.39-.21-1-.64-.64l-6.42 5.83c-.44.4.21 1 .65.65zm8.52 48.05l7-6.39c.43-.4-.22-1-.65-.65l-7 6.39c-.43.4.21 1 .65.65zm17.11-15.56l7.94-7.22c.44-.39-.21-1-.64-.64l-8 7.22c-.43.4.22 1 .65.64zm-46.84-6l4.17 4.58c.4.44 1-.21.65-.64l-4.16-4.58c-.4-.44-1 .21-.65.64zm13.89 15.28l4.72 5.19c.4.44 1-.21.65-.64q-2.37-2.59-4.72-5.2c-.4-.43-1 .22-.65.65zm21.25-47.22q1.67 1.85 3.34 3.67c.39.44 1-.21.64-.65l-3.33-3.66c-.4-.44-1 .21-.65.64zm14.44 15.89l4.17 4.58c.4.44 1-.21.65-.64l-4.17-4.58c-.4-.44-1 .21-.65.64zM525.23 267a19.25 19.25 0 0 1 .38 8.27c-.39 2.14-1.14 5.34-2.74 6.92-.84.83-2.06 1.05-2.7-.06a3.41 3.41 0 0 1-.39-2.95 2.42 2.42 0 0 1 1.91-2.17 11.44 11.44 0 0 1 1.92-.56c3.15-.63 6.44.34 8.08 3.24a.46.46 0 0 0 .79-.46c-2-3.49-6-4.47-9.76-3.51-1.4.36-3.1 1-3.85 2.31s-.19 3.46.66 4.81c2.39 3.77 4.92-1.23 5.81-3.41a20 20 0 0 0 .77-12.67.46.46 0 0 0-.88.24zm11.86 6.89a35 35 0 0 0 5.49.85c.58.05.58-.87 0-.91a33.15 33.15 0 0 1-5.25-.82c-.57-.14-.82.74-.24.88zm3.42 4.76l1.86-.21c.58-.06.58-1 0-.91l-1.86.2c-.57.07-.58 1 0 .92zm13.1-13.46l9.51 3.47c.56.2.79-.68.25-.88l-9.52-3.47c-.55-.2-.79.68-.24.88z"></path><path d="M559.84 263.66a28 28 0 0 1-4.54 6.61c-.4.43.25 1.07.65.64a28.93 28.93 0 0 0 4.67-6.78c.26-.53-.52-1-.78-.47zm-3.04 14.77c-2.22 1.06-3.43 4.33-1.71 6.37 2.67 3.15 4.1-2.8 4.27-4.54h-.92a3.1 3.1 0 0 0 3.9 3 .46.46 0 0 0-.24-.88 2.16 2.16 0 0 1-2.74-2.11c0-.6-.86-.57-.92 0a10.51 10.51 0 0 1-.57 2.67c-.21.62-.62 2-1.67 1.64-.44-.15-.78-.95-.88-1.32a3.54 3.54 0 0 1 1.95-4c.53-.25.06-1-.47-.79zm-6.58-2.01a77.62 77.62 0 0 1 14 .49c.58.07.57-.84 0-.92a78.54 78.54 0 0 0-14-.49c-.58 0-.59.95 0 .92zm20.93-3.36a26.56 26.56 0 0 0 5.7.42c.58 0 .59-.93 0-.91a24.84 24.84 0 0 1-5.45-.39c-.58-.11-.82.77-.25.88zm2.31 5.94l1.86-.41c.57-.13.33-1-.24-.88l-1.86.41c-.58.13-.33 1 .24.88zm8.82-6.8a83.83 83.83 0 0 0 5.31 7.9c.78 1 2.43 4.11 4.18 3.4s1.23-4.22 1.23-5.5a55 55 0 0 0-.81-9.67l-.67.51c4.47 1.95 9.26 1.49 14 1.18q8.63-.57 17.27-.77 17.28-.41 34.55.65c.58 0 .58-.87 0-.91q-16.46-1-32.94-.69-8 .17-16.07.63c-5.38.32-11.24 1.35-16.35-.87a.46.46 0 0 0-.67.51 55.07 55.07 0 0 1 .75 7.13v3.07c0 .77.24 4.21-1.59 3.51-.71-.27-1.7-2.07-2.12-2.62-.6-.78-1.17-1.57-1.74-2.36q-1.89-2.7-3.58-5.54a.453.453 0 0 0-.78.46zm18.36 5.45a8.85 8.85 0 0 1 1.68-2.3l.39-.44 1.22.29c.26.33.18 1.48.23 1.88l.63 5.46c.06.58 1 .58.91 0l-.63-5.46c-.1-.93 0-2.46-.79-3.19-1.66-1.59-3.74 2.24-4.42 3.3-.32.49.47.95.78.46zm8.78-.65a41 41 0 0 0 6.32 2.91c.56.19.8-.69.25-.88a39.3 39.3 0 0 1-6.11-2.82.46.46 0 0 0-.46.79z"></path><path d="M614.87 276.52a24.73 24.73 0 0 0-2.71 4.74c-.23.53.55 1 .78.46a25.83 25.83 0 0 1 2.71-4.74c.35-.47-.44-.93-.78-.46zm10.48-3.97a7.89 7.89 0 0 0-4.78 5.22c-.47 1.78-.19 4 1.77 4.68.56.19.8-.69.24-.88-2-.68-1.31-3.52-.62-4.87a7 7 0 0 1 3.63-3.27c.54-.22.3-1.11-.24-.88zm6.23 3.35c-1.76-2.54-7 1.52-4.73 3.64 1.22 1.15 3.34.56 4.49-.36.7-.56 2.14-2.47.43-2.75a.46.46 0 0 0-.51.67 1.87 1.87 0 0 0 2.74.59c.47-.33 0-1.12-.47-.78a1 1 0 0 1-1.49-.27l-.51.67c.43.07-1.18 1.45-1.36 1.55a2.74 2.74 0 0 1-2.23.25c-1.91-1 1.79-4.29 2.85-2.75.33.48 1.12 0 .79-.46zm6.99-.69a35.86 35.86 0 0 1 1 4.34c.09.58 1 .34.88-.24a35.43 35.43 0 0 0-1-4.34.46.46 0 0 0-.88.24z"></path><path d="M637.13 278.23a40.13 40.13 0 0 0 5.37-.22c.58-.07.58-1 0-.92a38.54 38.54 0 0 1-5.37.23.46.46 0 0 0 0 .91zm8.01-3.84a17.89 17.89 0 0 0 2.58 5.46l.4-.69c-.79.09-.41-1.34-.15-1.59a1.18 1.18 0 0 1 1.78.27c.71 1.19-1.59 3.36-2.35 2.18-.31-.49-1.1 0-.78.46 1.59 2.49 6-1.66 3.41-3.66a2 2 0 0 0-3.07.64c-.45.92-.17 2.77 1.16 2.61.3 0 .61-.37.39-.68a17.07 17.07 0 0 1-2.49-5.24.46.46 0 0 0-.88.24zm4.68-.22a6.74 6.74 0 0 1 3.87 4 4 4 0 0 1-2.27 4.92c-.54.21-.31 1.09.24.88a4.9 4.9 0 0 0 3.11-4.9c-.14-2.66-2.23-4.63-4.49-5.73-.52-.26-1 .53-.46.79zM354.28 48.11a19 19 0 0 1 .38 8.28c-.38 2.13-1.13 5.33-2.73 6.91-.84.83-2.06 1.06-2.7 0a3.47 3.47 0 0 1-.4-3 2.44 2.44 0 0 1 1.92-2.17 11.44 11.44 0 0 1 1.92-.56c3.15-.62 6.43.34 8.08 3.24a.453.453 0 0 0 .78-.46c-2-3.49-6-4.47-9.75-3.51-1.4.36-3.11 1-3.85 2.31s-.19 3.46.66 4.81c2.39 3.78 4.92-1.23 5.81-3.41a19.94 19.94 0 0 0 .76-12.67.46.46 0 0 0-.88.24zm11.86 6.94a34.06 34.06 0 0 0 5.49.85c.59.05.59-.87 0-.91a33.21 33.21 0 0 1-5.24-.82c-.57-.14-.82.74-.25.88zm3.43 4.76l1.86-.21c.58-.06.58-1 0-.91l-1.86.2c-.58.07-.58 1 0 .92zm13.1-13.46l9.51 3.47c.55.2.79-.68.24-.88l-9.51-3.47c-.55-.2-.79.68-.24.88z"></path><path d="M388.89 44.83a27.85 27.85 0 0 1-4.53 6.6c-.4.43.24 1.07.64.64a28.47 28.47 0 0 0 4.68-6.78c.26-.53-.53-1-.79-.46zm-3.03 14.76c-2.22 1.06-3.43 4.33-1.71 6.37 2.67 3.16 4.1-2.8 4.26-4.54h-.91a3.1 3.1 0 0 0 3.9 3 .46.46 0 0 0-.24-.88 2.18 2.18 0 0 1-2.75-2.12c0-.6-.85-.57-.91 0a10.51 10.51 0 0 1-.57 2.67c-.22.62-.62 2-1.67 1.64-.44-.15-.78-1-.88-1.32a3.54 3.54 0 0 1 1.94-4c.53-.25.07-1-.46-.79zm-6.58-2.01a77.51 77.51 0 0 1 14 .49c.59.07.58-.84 0-.91a76.61 76.61 0 0 0-14-.49c-.59 0-.59.94 0 .91zm20.93-3.36a26.57 26.57 0 0 0 5.7.43c.58 0 .58-.94 0-.92a25 25 0 0 1-5.46-.39c-.57-.11-.82.77-.24.88zm2.31 5.98l1.86-.41c.57-.13.33-1-.25-.88l-1.85.41c-.58.13-.33 1 .24.88zm8.81-6.84a83.93 83.93 0 0 0 5.32 7.9c.78 1 2.43 4.11 4.18 3.4s1.23-4.22 1.24-5.52a53.2 53.2 0 0 0-.81-9.67l-.67.52c4.48 1.94 9.27 1.48 14 1.17q8.63-.57 17.27-.77 17.28-.41 34.55.65c.58 0 .58-.87 0-.91q-16.46-1-32.95-.69-8 .16-16.06.63c-5.39.32-11.24 1.35-16.36-.87a.46.46 0 0 0-.67.51 51.77 51.77 0 0 1 .75 7.13v3.07c0 .78.24 4.21-1.59 3.51-.71-.27-1.71-2.07-2.13-2.62-.59-.78-1.16-1.56-1.73-2.36a87.17 87.17 0 0 1-3.58-5.54.46.46 0 0 0-.79.46zm18.37 5.45a8.85 8.85 0 0 1 1.68-2.3l.39-.44 1.22.29c.26.33.18 1.48.23 1.88q.31 2.73.62 5.46c.07.58 1 .58.92 0l-.63-5.46c-.1-.93 0-2.46-.79-3.19-1.66-1.59-3.74 2.24-4.43 3.3-.31.49.48.95.79.46zm8.78-.68A40.61 40.61 0 0 0 444.8 61c.56.2.79-.69.24-.88a38.7 38.7 0 0 1-6.1-2.82.46.46 0 0 0-.46.79z"></path><path d="M443.92 57.68a25.22 25.22 0 0 0-2.7 4.74c-.24.53.55 1 .78.46a24.88 24.88 0 0 1 2.71-4.73c.35-.48-.44-.94-.79-.47zm10.49-3.97a7.88 7.88 0 0 0-4.78 5.22c-.48 1.78-.19 4 1.77 4.68.56.19.79-.69.24-.88-2-.68-1.31-3.52-.62-4.87a6.91 6.91 0 0 1 3.63-3.27c.54-.22.3-1.1-.24-.88zm6.23 3.35c-1.76-2.54-7 1.52-4.73 3.64 1.21 1.15 3.33.56 4.48-.36.71-.56 2.15-2.47.44-2.75a.47.47 0 0 0-.52.67 1.87 1.87 0 0 0 2.74.59c.48-.33 0-1.12-.46-.78a1 1 0 0 1-1.49-.27l-.51.67c.43.07-1.18 1.46-1.36 1.55a2.74 2.74 0 0 1-2.23.25c-1.91-1 1.78-4.29 2.85-2.75.33.48 1.12 0 .79-.46zm6.98-.69a34.1 34.1 0 0 1 1 4.34c.09.58 1 .34.88-.24a34.1 34.1 0 0 0-1-4.34.46.46 0 0 0-.88.24z"></path><path d="M466.19 59.39a40.13 40.13 0 0 0 5.37-.22c.57-.07.58-1 0-.91a40.13 40.13 0 0 1-5.37.22.46.46 0 0 0 0 .91zm8-3.84a18.15 18.15 0 0 0 2.59 5.45l.39-.69c-.78.09-.4-1.34-.14-1.59a1.18 1.18 0 0 1 1.78.27c.71 1.19-1.59 3.36-2.35 2.18-.31-.49-1.1 0-.79.46 1.6 2.49 6-1.66 3.42-3.66a2 2 0 0 0-3.07.64c-.45.92-.17 2.77 1.15 2.61.31 0 .62-.37.4-.68a17.33 17.33 0 0 1-2.5-5.24.46.46 0 0 0-.88.24zm4.69-.22a6.77 6.77 0 0 1 3.87 4 4 4 0 0 1-2.27 4.92c-.54.21-.31 1.09.24.88a4.88 4.88 0 0 0 3.1-4.9c-.13-2.66-2.23-4.63-4.48-5.73-.52-.25-1 .53-.46.79zM659 213.27a19.13 19.13 0 0 1 .38 8.28c-.39 2.14-1.14 5.33-2.74 6.91-.84.83-2.06 1.06-2.7-.05a3.43 3.43 0 0 1-.39-3 2.42 2.42 0 0 1 1.91-2.17 11.72 11.72 0 0 1 1.92-.56c3.15-.62 6.44.34 8.08 3.24a.46.46 0 0 0 .79-.46c-2-3.49-6-4.46-9.76-3.51-1.4.36-3.1 1-3.85 2.31s-.19 3.47.66 4.81c2.39 3.78 4.92-1.23 5.81-3.41a20 20 0 0 0 .77-12.67.46.46 0 0 0-.88.24zm11.87 6.94a33.88 33.88 0 0 0 5.49.85c.58.05.58-.86 0-.91a32 32 0 0 1-5.25-.82c-.57-.13-.81.75-.24.88zm3.42 4.79l1.86-.21c.58-.06.59-1 0-.91l-1.86.21c-.57.06-.58 1 0 .91zm13.1-13.49l9.51 3.49c.56.2.79-.68.25-.88l-9.51-3.47c-.56-.2-.8.68-.25.88z"></path><path d="M693.62 210a28.19 28.19 0 0 1-4.54 6.6c-.4.43.25 1.08.65.64a28.73 28.73 0 0 0 4.67-6.78c.26-.53-.52-1-.78-.46zm-3.03 14.75c-2.23 1.06-3.44 4.33-1.72 6.37 2.67 3.16 4.1-2.8 4.27-4.54h-.91a3.09 3.09 0 0 0 3.89 3 .46.46 0 0 0-.24-.88 2.17 2.17 0 0 1-2.74-2.12.46.46 0 0 0-.91 0 11.15 11.15 0 0 1-.58 2.68c-.21.61-.61 2-1.67 1.63-.44-.15-.78-.95-.88-1.32a3.55 3.55 0 0 1 1.95-4c.53-.25.06-1-.46-.79zm-6.59-2.01a77.62 77.62 0 0 1 14 .49c.58.07.57-.84 0-.91a77.62 77.62 0 0 0-14-.49c-.58 0-.59.94 0 .91zm20.93-3.36a26 26 0 0 0 5.7.43c.58 0 .59-.94 0-.92a24.84 24.84 0 0 1-5.45-.39c-.58-.11-.82.77-.25.88zm2.31 5.99l1.86-.42c.57-.13.33-1-.24-.88l-1.86.42c-.57.12-.33 1 .24.88zm8.82-6.85a85.81 85.81 0 0 0 5.31 7.9c.78 1 2.43 4.12 4.18 3.4s1.23-4.21 1.25-5.52a55 55 0 0 0-.81-9.67l-.67.52c4.47 1.94 9.26 1.48 14 1.17q8.63-.57 17.27-.77 17.28-.41 34.55.66c.58 0 .58-.88 0-.92q-16.46-1-32.94-.68-8 .15-16.07.62c-5.38.32-11.24 1.35-16.35-.87a.46.46 0 0 0-.67.51 55.07 55.07 0 0 1 .75 7.13v3.07c0 .78.24 4.21-1.59 3.51-.71-.27-1.7-2.06-2.12-2.62a84.54 84.54 0 0 1-1.74-2.36q-1.89-2.7-3.57-5.54a.46.46 0 0 0-.79.46zm18.37 5.48a8.6 8.6 0 0 1 1.67-2.3l.39-.44 1.22.3c.26.32.19 1.47.23 1.88l.63 5.45c.06.58 1 .59.91 0l-.63-5.45c-.1-.94 0-2.46-.79-3.19-1.66-1.6-3.74 2.23-4.42 3.29-.32.49.47 1 .79.46zm8.77-.71a40.12 40.12 0 0 0 6.32 2.91c.56.2.8-.68.25-.88a38.39 38.39 0 0 1-6.11-2.82.46.46 0 0 0-.46.79z"></path><path d="M748.65 222.85a24.65 24.65 0 0 0-2.71 4.73c-.23.53.55 1 .79.46a24.65 24.65 0 0 1 2.71-4.73c.34-.48-.45-.93-.79-.46zm10.48-3.98a7.91 7.91 0 0 0-4.78 5.22c-.47 1.78-.19 4 1.77 4.68.56.19.8-.69.24-.88-2-.68-1.31-3.52-.62-4.87a7 7 0 0 1 3.63-3.27c.54-.22.3-1.1-.24-.88zm6.23 3.35c-1.76-2.54-7 1.52-4.73 3.64 1.22 1.15 3.34.56 4.49-.36.71-.56 2.14-2.47.43-2.75a.46.46 0 0 0-.51.67 1.88 1.88 0 0 0 2.74.6c.47-.34 0-1.13-.46-.79a1 1 0 0 1-1.5-.27l-.51.67c.43.07-1.18 1.46-1.36 1.55a2.66 2.66 0 0 1-2.23.25c-1.91-1 1.79-4.29 2.85-2.75.33.48 1.12 0 .79-.46zm6.99-.69a32.23 32.23 0 0 1 1 4.35c.09.57 1 .33.88-.25a34.06 34.06 0 0 0-1-4.34c-.17-.56-1.05-.32-.88.24z"></path><path d="M770.91 224.56a40.14 40.14 0 0 0 5.37-.23c.58-.06.58-1 0-.91a40.13 40.13 0 0 1-5.37.22.46.46 0 0 0 0 .92zm8.01-3.84a18 18 0 0 0 2.58 5.45l.4-.69c-.79.09-.41-1.33-.15-1.59a1.19 1.19 0 0 1 1.79.28c.7 1.18-1.6 3.36-2.35 2.17-.32-.49-1.11 0-.79.47 1.59 2.48 6-1.67 3.41-3.67a2 2 0 0 0-3.07.64c-.44.92-.17 2.77 1.16 2.61.3 0 .61-.37.39-.68a17 17 0 0 1-2.49-5.24.46.46 0 0 0-.88.25zm4.68-.23a6.78 6.78 0 0 1 3.88 4 4 4 0 0 1-2.28 4.91c-.54.21-.31 1.09.24.88a4.89 4.89 0 0 0 3.11-4.9c-.14-2.66-2.23-4.63-4.49-5.73-.52-.25-1 .53-.46.79zM357.68 310.6H495.9a.46.46 0 0 0 0-.91H357.68a.46.46 0 0 0 0 .91z"></path><path d="M484.46 191.48v124.6a.46.46 0 0 0 .91 0v-124.6a.46.46 0 0 0-.91 0zM364.88 304.31a79.33 79.33 0 0 1 10.07-38 65.88 65.88 0 0 1 12.05-16c5.13-4.81 12.68-8.21 19.47-4.7 5.89 3 9.38 9.52 12.3 15.19s5.42 11.45 9.33 16.43c3.43 4.37 8.32 8.22 14 9 5.47.74 10.26-2 14-5.74 5-5 9.09-11.27 12.65-17.38a115.29 115.29 0 0 0 9.25-20.47c.19-.56-.69-.8-.88-.25-4.44 13-11.2 25.81-20.41 36-4.61 5.12-10.75 8.66-17.71 6.09-6.47-2.39-10.85-8-14.15-13.81s-5.74-12-9.43-17.49c-3-4.56-7.19-9-12.87-9.82-12.27-1.83-21.53 11-27.06 20.1A80.14 80.14 0 0 0 364 304.31a.46.46 0 0 0 .91 0zm-2.37-32.39h7a.46.46 0 0 0 0-.91h-7a.46.46 0 0 0 0 .91zm12.75.66h7a.46.46 0 0 0 0-.91h-7a.46.46 0 0 0 0 .91zm14.74 0h4.18a.46.46 0 0 0 0-.91H390a.46.46 0 0 0 0 .91zm12.07.42h8.79a.46.46 0 0 0 0-.91h-8.79a.46.46 0 0 0 0 .91z"></path><path d="M418.11 272.58h6.59a.46.46 0 0 0 0-.91h-6.59a.46.46 0 0 0 0 .91zm19.12 0h5.71a.46.46 0 0 0 0-.91h-5.71a.46.46 0 0 0 0 .91zm20.87-.22h8.13a.46.46 0 0 0 0-.91h-8.13a.46.46 0 0 0 0 .91zm16.9-.44h8.57a.46.46 0 0 0 0-.91H475a.46.46 0 0 0 0 .91zM441.39 215v9.89a.46.46 0 0 0 .91 0V215a.46.46 0 0 0-.91 0zm-.22 18.23v5.94a.46.46 0 0 0 .91 0v-5.94a.46.46 0 0 0-.91 0zm.88 13.63v6.59a.46.46 0 0 0 .91 0v-6.59a.46.46 0 0 0-.91 0zm.22 12.96v6.81a.46.46 0 0 0 .91 0v-6.81a.46.46 0 0 0-.91 0zm.22 20.18v5a.46.46 0 0 0 .91 0v-5a.46.46 0 0 0-.91 0zm-.22 14.76v8.13a.46.46 0 0 0 .91 0v-8.13a.46.46 0 0 0-.91 0zm-.44 12.53v6.15a.46.46 0 0 0 .91 0v-6.15a.46.46 0 0 0-.91 0zm-85.25 9.61l9.21 4.64c.53.26 1-.53.46-.79l-9.25-4.64c-.53-.26-1 .52-.46.79z"></path><path d="M360.29 321.37a38.86 38.86 0 0 1 6.25-7.87c.42-.41-.23-1.05-.65-.64a39.72 39.72 0 0 0-6.39 8.05.46.46 0 0 0 .79.46zm127.5-125.94q2 2.37 4.13 4.64c.4.43 1.05-.22.64-.65q-2.12-2.26-4.12-4.63c-.38-.45-1 .2-.65.64z"></path><path d="M493.78 195.66l-4.17 8.57c-.26.53.53 1 .79.46l4.17-8.57c.25-.53-.53-1-.79-.46zm-125.47 67.26a1.27 1.27 0 0 0-1.83.84 2.59 2.59 0 0 0 .94 2.81 2 2 0 0 0 2.52-.15c1.09-.95 1-2.43.65-3.71l-.84.36a2.89 2.89 0 0 0 3.61 1.49c.55-.2.31-1.08-.24-.88a2 2 0 0 1-2.58-1.08c-.22-.47-1-.13-.83.36.28 1 .5 2.48-.72 2.9a1.06 1.06 0 0 1-1.36-.39 1 1 0 0 1-.25-.58c-.22-.46-.07-.86.47-1.19.52.29 1-.5.46-.78zm78.55-.25a18.82 18.82 0 0 1 2.92 2.26 6.14 6.14 0 0 1 1.3 1.4c.3.81 0 3.08-1.41 2.38-.59.09-.63-.18-.12-.8 0-.72.32-1 1-.8a5.71 5.71 0 0 1 1.75 0 22.84 22.84 0 0 1 4.35.72.46.46 0 0 0 .24-.88 23.53 23.53 0 0 0-4.94-.77c-1.07 0-3.15-.33-4.06.47-1.31 1.16.12 2.69 1.38 2.91s3.55-.22 3.55-1.92c0-1.11-1.23-2.22-1.92-2.93a19.12 19.12 0 0 0-3.56-2.85c-.5-.32-1 .47-.46.78zm-11.2-39.35a30.19 30.19 0 0 1-3.66-6.54 10.59 10.59 0 0 1-.46-1.34c-.57-1.15-.33-1.56.73-1.24.53-.25.88-.16 1 .25 1 .88.61 3.13.2 4.16-.22.55.66.78.88.25a5.49 5.49 0 0 0-.43-5.1c-.56-.84-1.78-2.08-2.86-1.3-1.31.93-.4 3.45 0 4.56a31.24 31.24 0 0 0 3.75 6.76c.34.47 1.14 0 .79-.46zm95.83-124.95a85.81 85.81 0 0 0 5.31 7.9c.79 1 2.43 4.11 4.18 3.4s1.23-4.22 1.25-5.52a54 54 0 0 0-.81-9.67l-.67.51c4.47 1.94 9.26 1.49 14 1.18q8.63-.57 17.26-.77 17.28-.41 34.55.65c.59 0 .58-.88 0-.91q-16.46-1-32.94-.69-8 .15-16.07.63c-5.38.32-11.24 1.34-16.35-.88a.47.47 0 0 0-.67.52 53.2 53.2 0 0 1 .75 7.13v3.07c0 .77.24 4.2-1.59 3.51-.71-.27-1.7-2.07-2.12-2.62-.59-.78-1.17-1.57-1.73-2.37-1.27-1.79-2.46-3.64-3.58-5.53a.46.46 0 0 0-.79.46zm18.37 5.44a8.71 8.71 0 0 1 1.67-2.29l.39-.45 1.22.3c.26.33.19 1.47.23 1.88l.63 5.46c.06.57 1 .58.91 0q-.31-2.73-.62-5.46c-.11-.93 0-2.46-.8-3.19-1.66-1.59-3.74 2.23-4.42 3.29-.32.5.47 1 .79.46zm8.78-.67A39.66 39.66 0 0 0 565 106c.55.2.79-.68.24-.88a38.72 38.72 0 0 1-6.1-2.81.46.46 0 0 0-.46.79z"></path><path d="M564.08 102.69a25 25 0 0 0-2.71 4.73c-.23.54.55 1 .79.47a24.73 24.73 0 0 1 2.71-4.74c.34-.47-.45-.93-.79-.46zm10.48-3.98a7.92 7.92 0 0 0-4.78 5.23c-.47 1.78-.19 4 1.77 4.68.56.19.8-.7.25-.88-2-.69-1.32-3.53-.63-4.87a7 7 0 0 1 3.63-3.28c.54-.21.31-1.1-.24-.88zm6.23 3.36c-1.75-2.54-7 1.52-4.73 3.63 1.22 1.15 3.34.56 4.49-.35.71-.56 2.14-2.47.43-2.75a.46.46 0 0 0-.51.67 1.87 1.87 0 0 0 2.74.59c.47-.33 0-1.13-.46-.79s-1 .33-1.49-.26l-.52.67c.43.07-1.17 1.45-1.36 1.55a2.7 2.7 0 0 1-2.23.24c-1.9-1 1.79-4.28 2.85-2.74.33.48 1.13 0 .79-.46zm6.99-.69a32.09 32.09 0 0 1 1 4.34c.09.58 1 .33.88-.24a32.58 32.58 0 0 0-1-4.35.46.46 0 0 0-.88.25z"></path><path d="M586.35 104.4a38.39 38.39 0 0 0 5.36-.23c.58-.06.58-1 0-.91a40 40 0 0 1-5.36.23.46.46 0 0 0 0 .91zm8-3.84a18 18 0 0 0 2.58 5.45l.4-.68c-.79.09-.4-1.34-.15-1.6a1.2 1.2 0 0 1 1.82.27c.71 1.19-1.59 3.36-2.35 2.18-.32-.49-1.11 0-.79.46 1.6 2.49 6-1.67 3.41-3.66a2 2 0 0 0-3.07.64c-.44.92-.17 2.76 1.16 2.61.31 0 .61-.37.39-.69a17.25 17.25 0 0 1-2.49-5.23.46.46 0 0 0-.88.24zm4.65-.22a6.77 6.77 0 0 1 3.87 4 4.05 4.05 0 0 1-2.28 4.92c-.54.21-.3 1.09.25.88a4.9 4.9 0 0 0 3.1-4.91c-.13-2.65-2.23-4.63-4.48-5.72-.53-.26-1 .53-.46.79zm113.13 212.4a8.94 8.94 0 0 1 1.67-2.29l.39-.45 1.22.3c.26.33.19 1.47.24 1.88q.3 2.73.62 5.46c.07.57 1 .58.91 0l-.62-5.46c-.11-.93 0-2.46-.8-3.19-1.66-1.59-3.74 2.23-4.42 3.29-.32.5.47 1 .79.46zm8.78-.67a39.66 39.66 0 0 0 6.32 2.9c.55.2.79-.68.24-.88a38.72 38.72 0 0 1-6.1-2.81.46.46 0 0 0-.46.79z"></path><path d="M726.35 311.62a25 25 0 0 0-2.71 4.73c-.23.54.55 1 .79.46a25 25 0 0 1 2.71-4.73c.34-.47-.45-.93-.79-.46zm10.48-3.98a7.89 7.89 0 0 0-4.77 5.23c-.48 1.78-.2 4 1.76 4.68.56.18.8-.7.25-.88-2-.69-1.32-3.53-.63-4.87a7 7 0 0 1 3.63-3.28c.54-.22.31-1.1-.24-.88zm6.23 3.36c-1.75-2.53-7 1.53-4.72 3.64 1.21 1.15 3.33.56 4.48-.35.71-.57 2.14-2.47.43-2.76a.47.47 0 0 0-.51.68 1.87 1.87 0 0 0 2.74.59c.48-.34 0-1.13-.46-.79s-1 .33-1.49-.27l-.52.67c.43.08-1.17 1.46-1.36 1.56a2.7 2.7 0 0 1-2.23.24c-1.9-.95 1.79-4.28 2.85-2.75.34.48 1.13 0 .79-.46zm6.99-.69a32.09 32.09 0 0 1 1 4.34c.1.58 1 .33.88-.24a32.58 32.58 0 0 0-1-4.35.46.46 0 0 0-.88.25z"></path><path d="M748.62 313.33a38.39 38.39 0 0 0 5.36-.23c.58-.06.59-1 0-.91a40 40 0 0 1-5.36.23.46.46 0 0 0 0 .91zm8-3.84a17.75 17.75 0 0 0 2.59 5.45l.39-.68c-.78.09-.4-1.34-.15-1.6a1.2 1.2 0 0 1 1.79.28c.71 1.19-1.59 3.36-2.35 2.18-.32-.49-1.11 0-.79.46 1.6 2.48 6-1.67 3.41-3.66a2 2 0 0 0-3.07.64c-.44.92-.17 2.76 1.16 2.61.31 0 .61-.37.39-.69a17.49 17.49 0 0 1-2.49-5.23.46.46 0 0 0-.88.24zm4.69-.23a6.81 6.81 0 0 1 3.87 4.05 4.06 4.06 0 0 1-2.28 4.92c-.54.21-.3 1.09.25.88a4.9 4.9 0 0 0 3.1-4.91c-.13-2.65-2.23-4.63-4.48-5.72-.53-.26-1 .53-.46.78zm-484.99-30.87a82 82 0 0 0 5.31 7.9c.78 1 2.43 4.12 4.18 3.4s1.23-4.21 1.24-5.51a53.23 53.23 0 0 0-.81-9.68l-.67.52c4.48 1.94 9.27 1.48 14 1.17q8.63-.57 17.27-.77 17.28-.41 34.55.66c.58 0 .58-.88 0-.92q-16.45-1-32.95-.68-8 .15-16.06.62c-5.38.32-11.24 1.35-16.36-.87a.47.47 0 0 0-.67.52 51.63 51.63 0 0 1 .75 7.12v3.07c0 .78.24 4.21-1.59 3.52-.71-.27-1.7-2.07-2.13-2.63-.59-.77-1.16-1.56-1.73-2.36a87.17 87.17 0 0 1-3.58-5.54c-.3-.5-1.09 0-.78.46zm18.36 5.45a9.2 9.2 0 0 1 1.68-2.3l.39-.44 1.22.3c.26.33.18 1.47.23 1.88l.62 5.45c.07.58 1 .59.92 0l-.63-5.45c-.1-.94 0-2.46-.79-3.19-1.66-1.59-3.74 2.23-4.42 3.29-.32.49.47.95.78.46zm8.78-.68a39.71 39.71 0 0 0 6.32 2.91c.56.2.79-.68.25-.88a39.25 39.25 0 0 1-6.11-2.81.453.453 0 0 0-.46.78z"></path><path d="M308.91 282.72a24.65 24.65 0 0 0-2.71 4.73c-.24.53.55 1 .78.46a25.19 25.19 0 0 1 2.71-4.73c.35-.48-.44-.93-.78-.46zm10.48-3.98a7.88 7.88 0 0 0-4.78 5.22c-.48 1.78-.19 4 1.77 4.68.56.19.8-.69.24-.88-2-.68-1.31-3.52-.62-4.87a7 7 0 0 1 3.63-3.27c.54-.22.3-1.1-.24-.88zm6.23 3.35c-1.76-2.54-7 1.52-4.73 3.64 1.22 1.15 3.33.56 4.48-.35.71-.57 2.15-2.47.44-2.76a.47.47 0 0 0-.52.67 1.88 1.88 0 0 0 2.74.6c.48-.34 0-1.13-.46-.79s-1 .33-1.49-.27l-.51.67c.43.07-1.18 1.46-1.36 1.55a2.67 2.67 0 0 1-2.23.25c-1.91-1 1.78-4.29 2.85-2.75.33.48 1.12 0 .79-.46zm6.99-.69a36 36 0 0 1 1 4.35c.09.58 1 .33.88-.25a34.1 34.1 0 0 0-1-4.34.451.451 0 0 0-.87.24z"></path><path d="M331.17 284.43a40.14 40.14 0 0 0 5.37-.23c.57-.06.58-1 0-.91a40.13 40.13 0 0 1-5.37.22.46.46 0 0 0 0 .92zm8.01-3.84a17.84 17.84 0 0 0 2.58 5.45l.39-.69c-.78.09-.4-1.33-.14-1.59a1.18 1.18 0 0 1 1.78.28c.71 1.18-1.59 3.36-2.35 2.18-.31-.5-1.1 0-.78.46 1.59 2.48 6-1.67 3.41-3.67a2 2 0 0 0-3.07.64c-.45.92-.17 2.77 1.15 2.62.31 0 .62-.38.4-.69a17 17 0 0 1-2.49-5.24.46.46 0 0 0-.88.25zm4.68-.23a6.76 6.76 0 0 1 3.87 4.05 4 4 0 0 1-2.27 4.91c-.54.21-.31 1.1.24.88a4.88 4.88 0 0 0 3.11-4.9c-.14-2.66-2.24-4.63-4.49-5.73-.52-.25-1 .53-.46.79zm235.87-140.17a19.09 19.09 0 0 1 .38 8.27c-.39 2.14-1.14 5.33-2.74 6.92-.84.82-2.06 1.05-2.7-.06a3.49 3.49 0 0 1-.39-2.95 2.43 2.43 0 0 1 1.91-2.17 11.06 11.06 0 0 1 1.92-.56c3.15-.63 6.44.34 8.08 3.24a.46.46 0 0 0 .79-.46c-2-3.49-6-4.47-9.76-3.51-1.4.36-3.1 1-3.85 2.3-.83 1.5-.18 3.47.67 4.82 2.39 3.77 4.91-1.23 5.8-3.41a19.94 19.94 0 0 0 .77-12.67.46.46 0 0 0-.88.24zm11.86 6.94a35.2 35.2 0 0 0 5.49.85c.59 0 .58-.87 0-.91a33.33 33.33 0 0 1-5.25-.82.46.46 0 0 0-.24.88zm3.41 4.75l1.85-.2c.58-.07.59-1 0-.91L595 151c-.58.07-.59 1 0 .91zm13.11-13.45l9.52 3.47c.55.2.79-.68.24-.88l-9.51-3.47c-.55-.2-.79.68-.25.88z"></path><path d="M614.34 136.9a27.69 27.69 0 0 1-4.54 6.6c-.39.44.25 1.08.65.65a28.82 28.82 0 0 0 4.68-6.79c.26-.52-.53-1-.79-.46zm-3.03 14.77c-2.22 1.06-3.44 4.33-1.71 6.37 2.66 3.15 4.1-2.81 4.26-4.54H613a3.09 3.09 0 0 0 3.9 3 .46.46 0 0 0-.25-.88 2.17 2.17 0 0 1-2.74-2.11.46.46 0 0 0-.91 0 11.06 11.06 0 0 1-.57 2.67c-.22.61-.62 2-1.68 1.63-.43-.14-.78-.94-.88-1.32a3.53 3.53 0 0 1 1.95-4c.53-.25.07-1-.46-.79zm-6.59-2.01a76.72 76.72 0 0 1 14 .49c.58.07.58-.84 0-.92a78.54 78.54 0 0 0-14-.49c-.58 0-.59.95 0 .92zM710.21 378a19.13 19.13 0 0 1 .38 8.28c-.39 2.13-1.14 5.33-2.74 6.91-.84.83-2.06 1.05-2.7 0a3.43 3.43 0 0 1-.39-3 2.42 2.42 0 0 1 1.91-2.17 11.72 11.72 0 0 1 1.92-.56c3.15-.62 6.44.34 8.08 3.24a.46.46 0 0 0 .79-.46c-2-3.49-6-4.47-9.76-3.51-1.4.36-3.1 1-3.85 2.31s-.19 3.46.67 4.81c2.38 3.77 4.91-1.23 5.8-3.41a20 20 0 0 0 .77-12.67.46.46 0 0 0-.88.24zm11.86 7a33.88 33.88 0 0 0 5.49.85c.58.05.58-.87 0-.91a33.15 33.15 0 0 1-5.25-.82.46.46 0 0 0-.24.88zm3.42 4.72l1.86-.21c.58-.06.59-1 0-.91l-1.86.2c-.57.07-.58 1 0 .92zm13.1-13.46l9.51 3.47c.56.2.79-.68.25-.88l-9.52-3.47c-.55-.2-.79.68-.24.88z"></path><path d="M744.82 374.74a28.19 28.19 0 0 1-4.54 6.6c-.4.43.25 1.07.65.64a28.73 28.73 0 0 0 4.67-6.78c.26-.53-.52-1-.78-.46zm-3.03 14.76c-2.23 1.06-3.44 4.33-1.72 6.37 2.67 3.16 4.1-2.8 4.27-4.54h-.91a3.1 3.1 0 0 0 3.89 3 .46.46 0 0 0-.24-.88 2.17 2.17 0 0 1-2.74-2.12.46.46 0 0 0-.91 0 11 11 0 0 1-.58 2.67c-.21.62-.61 2-1.67 1.64-.44-.15-.78-.95-.88-1.32a3.55 3.55 0 0 1 2-4c.53-.25.06-1-.46-.79zm-6.59-2.01a77.62 77.62 0 0 1 14 .49c.58.07.57-.84 0-.92a77.61 77.61 0 0 0-14-.48c-.58 0-.59.94 0 .91zM346.16 167.85a28.68 28.68 0 0 1-.41 7.79 28.36 28.36 0 0 1-.81 3.14l-.61 1.7-.46 1c-1.54.75-2.48.55-2.8-.59-.85-1.46-1.05-3.84.32-5.09 1-.92 3.33 0 4.4.42a16 16 0 0 1 5.88 4.17c.4.44 1-.21.65-.64-2.26-2.48-5.87-5.13-9.39-5.2-3.8-.07-4 4-2.75 6.65s3.48 2.87 4.73.21a27.55 27.55 0 0 0 2.16-13.6c-.05-.58-1-.58-.91 0zm9.49-1.48a21.43 21.43 0 0 0-.2 9.85c.49 2.23 1.26 5.8 4.09 5.83a.46.46 0 0 0 0-.91c-1.05 0-2.11-1.64-2.43-2.51l-.53-1.64a20.48 20.48 0 0 1-.65-3.63 20.73 20.73 0 0 1 .6-6.75.46.46 0 0 0-.88-.24zm3.07 6.51a42.66 42.66 0 0 0 6.61 5.84c.48.34.94-.45.46-.79a40.92 40.92 0 0 1-6.42-5.7c-.4-.43-1 .21-.65.65z"></path><path d="M361.2 177.59a76.78 76.78 0 0 1 5.39-5.88c.41-.41-.23-1.06-.65-.65a75 75 0 0 0-5.38 5.89c-.38.45.27 1.09.64.64zm6.45-7.02a3.92 3.92 0 0 1 1.6 0c.41.13 1 .71.59 1.17-.2.24-.75.25-1 .45a.91.91 0 0 0-.38.59c-.12.68.51 1.14 1.07 1.36a2.79 2.79 0 0 0 2.36-.18c.53-.27.07-1.05-.46-.78a1.76 1.76 0 0 1-1.71 0c-.6-.4 0-.4.38-.58a1.34 1.34 0 0 0 .76-1.3c-.08-1.67-1.9-1.85-3.2-1.72-.57.06-.58 1 0 .91zm2.75-3.31c2.43 1.66 5.17 3.66 5.58 6.8.38 2.92-1.67 5.27-3.89 6.86-.47.34 0 1.14.46.79 2.4-1.72 4.62-4.25 4.39-7.4-.26-3.61-3.33-6-6.08-7.84-.49-.33-.95.46-.46.79zm9.87 8.42a8.73 8.73 0 0 0 2.93 0c.58-.1.33-1-.24-.88a7.46 7.46 0 0 1-2.45 0c-.57-.1-.82.78-.24.88zm.96 3.56h.5a.46.46 0 0 0 0-.91h-.5a.46.46 0 0 0 0 .91zm11.16-20.59c-6.39 6-6.35 15.22-4.73 23.2a58.59 58.59 0 0 0 4.07 12.59 41.06 41.06 0 0 0 3.26 6.15 3.85 3.85 0 0 0 3 2c.59 0 .59-.88 0-.91-2.18-.13-3.43-3.51-4.27-5.14a55 55 0 0 1-2.3-5.07 57.76 57.76 0 0 1-3.06-10.56c-1.42-7.48-1.32-16 4.63-21.62.43-.4-.22-1-.64-.64zm42.37-3.78a29.5 29.5 0 0 1 1.63 42.24c-.41.43.23 1.07.64.65a30.43 30.43 0 0 0-1.63-43.54c-.43-.39-1.08.25-.64.65zm-37.89 25.75q19.42.15 38.84-.63c.58 0 .58-.94 0-.91q-19.41.78-38.84.63a.46.46 0 0 0 0 .91zm5.66-8.83a1.27 1.27 0 0 0-1.85-1.06c-1.14.57-1.22 2.42-.82 3.45a2.09 2.09 0 0 0 2.78 1.28c1.47-.6 1.85-2.19 2.08-3.59.08-.47-.58-.84-.83-.35a1.58 1.58 0 0 0 .47 2.07c1 .8 2.31.21 3.3-.32.52-.27.06-1.06-.46-.79a3.59 3.59 0 0 1-.82.38c-.67.39-1.23.1-1.7-.88l-.84-.35c-.12.71-.26 2.15-.93 2.57h-2.05l-.23-.6a2.11 2.11 0 0 1 0-1c0-.52.31-.78 1-.77.07.58 1 .58.91 0zm6.8-.9a14.54 14.54 0 0 0 .78 3.62c.19.55 1.07.32.88-.24a14 14 0 0 1-.75-3.38c-.05-.58-1-.59-.91 0z"></path><path d="M408.81 173.34a7.66 7.66 0 0 0 3.82-.5c.54-.21.3-1.1-.24-.88a7.18 7.18 0 0 1-3.58.47c-.58-.07-.58.84 0 .91zm2.11-6.76q2.68 5 4.9 10.26a.46.46 0 0 0 .88-.24l-.24-1.85c-.19-1.21.65-1.25 2.52-.15.63 1.2-1.87 4.47-2.74 2.94a.46.46 0 0 0-.79.46c1.64 2.87 5.45-1.75 4.18-4.21a2.42 2.42 0 0 0-3.11-1.3c-1.54.81-.89 3-.7 4.35l.88-.24c-1.51-3.57-3.16-7.06-5-10.48-.28-.52-1.06-.06-.79.46zm11.46-1.01c-.94.47-1.11 2-1.25 2.87a13.16 13.16 0 0 0 .53 5.71c.75 2.44 2.55 4.93 5.41 4 .56-.17.32-1.05-.24-.88-2.87.89-4.08-2.28-4.56-4.43-.29-1.26-1-5.74.57-6.52.53-.26.07-1-.46-.79zm2.78 6.78l5.39 1.31a.46.46 0 0 0 .24-.88l-5.39-1.31a.46.46 0 0 0-.24.88z"></path><path d="M428.94 170.83a9.34 9.34 0 0 0-1.68 3.61c-.13.57.75.81.88.24a8.59 8.59 0 0 1 1.59-3.39c.36-.46-.43-.92-.79-.46zm1.84-4.93c2.13 3.2 6 7.94 1 10.77a.46.46 0 0 0 .46.79 5.46 5.46 0 0 0 2.92-5.23c-.23-2.61-2.19-4.71-3.57-6.79-.32-.49-1.11 0-.79.46zm-21.15 20.47a19.69 19.69 0 0 1 2.56 3.83c.3.65.93 2.27.59 3-1.93 1.29-2.78 1-2.56-.91-.69-1.35-.28-2 1.24-1.87 2.28-.23 7.82 1.25 8.71 3.76.19.55 1.07.32.88-.24-1-2.72-5.51-4-8.07-4.35-1.92-.24-5.79.61-4.57 3.46.75 1.74 4 3 5 .95 1.43-2.74-1.65-6.36-3.19-8.31-.36-.46-1 .19-.64.65zm6.37-.05c1.3-.38 2.53-.64 3.22.81a4.11 4.11 0 0 0 .71 1.38c1 1 2.19.14 3-.66.41-.42-.23-1.06-.64-.64a4 4 0 0 1-.83.7l-1-.28a4.51 4.51 0 0 1-.4-1 2.51 2.51 0 0 0-.75-1c-1-.76-2.4-.44-3.49-.12a.46.46 0 0 0 .25.88zM311.07 328c-3.69 1.42-7.69.29-11.52.88-.5.07-.37.73 0 .88a64.56 64.56 0 0 1 11.56 6.05l.23-.85c-4.08.06-7.58 2-11 4.06a.46.46 0 0 0 .11.83c4.54 1.06 9.1 2 13.79 1.59.58-.06.58-1 0-.91-4.61.44-9.08-.52-13.55-1.56l.11.84c3.27-2 6.61-3.88 10.53-3.93a.46.46 0 0 0 .23-.85 65 65 0 0 0-11.78-6.15v.88c3.85-.59 7.8.56 11.53-.88.54-.2.3-1.09-.25-.88z"></path><path d="M308.79 325.75l.18.28a.46.46 0 0 0 .83-.35l1.11-.26v.11c.06 0 .1.22.15.28a.75.75 0 0 0 .58.26 2 2 0 0 0 .81-.26 7.44 7.44 0 0 1 .74-.28c.2-.06.94-.08 1-.13-.5.31 0 1.1.46.79a.9.9 0 0 0 .14-1.47 1.37 1.37 0 0 0-1-.25c-.53 0-1.43.64-1.9.51-.31-.09-.47-.58-.81-.8A1.5 1.5 0 0 0 310 324a1.53 1.53 0 0 0-1.05 1.94l.84-.35-.18-.28c-.32-.49-1.11 0-.79.46zm8.37-2.75a1.33 1.33 0 0 0 .15 2 1.3 1.3 0 1 0 1.12-2.31 2.29 2.29 0 0 0-2.24.86.46.46 0 0 0 .65.65c.27-.27 1.4-1.19 1.58-.35s-1.19.41-.61-.21c.39-.43-.25-1.08-.65-.64zm8.18 9.9a27.59 27.59 0 0 1-3 4.38c-.35.42-1.31 1.86-1.85 2-1.38-.26-1.86-.94-1.46-2.06 0-.86.42-1.26 1.25-1.19 1.29-.3 1.87.46 2.74 1.34a22.41 22.41 0 0 1 2 2.38c1.06 1.44 2 3 2.9 4.51l.62-.62-.46-.32c-.49-.34-.94.45-.46.79l.46.32c.38.26.85-.25.63-.63-1.18-1.95-8.44-14-10.44-7.1-.37 1.25-.36 4.36 1.7 4 1.31-.25 2.48-2 3.26-3a29 29 0 0 0 2.89-4.31c.28-.52-.51-1-.79-.46zM537 159.36l-17.53 10.12a7.79 7.79 0 0 0-2.08 1.2c-.38.47-.23 1.16-.23 1.75v21.29a.45.45 0 0 0 .23.39l17.75 10.25c.49.29 1.37 1.07 2 1.12s1.33-.61 1.8-.88l10.44-6 5.17-3a10.5 10.5 0 0 0 2.52-1.46c.37-.43.26-.89.26-1.47v-17.59c0-1.42.6-3.77-.67-4.66-3.31-2.3-7.1-4.1-10.59-6.11l-8.58-4.95a.453.453 0 0 0-.46.78l12.23 7.07 6.46 3.72.72.42c.37.2 0 0 0-.24a11.67 11.67 0 0 1 0 1.87v17.2a26.53 26.53 0 0 0 0 2.82 3.42 3.42 0 0 1 0 .64c0 .1.46-.43 0-.2-1.76.94-3.47 2-5.2 3l-8.24 4.72c-1.77 1-4.23 1.94-5.75 3.32-.36.33.24.33-.12 0a14.11 14.11 0 0 0-2.27-1.31l-7.6-4.38-7.59-4.39c-.55-.32-1.1-.66-1.66-1-.37-.2 0 0 0 .24a3.09 3.09 0 0 1 0-.68 65.75 65.75 0 0 0 0-7v-13.43a5.34 5.34 0 0 0 0-1.13c-.09-.44.21-.3-.19 0 1.49-1.27 3.68-2.13 5.37-3.1l14.21-8.21a.45.45 0 0 0-.4-.73z"></path><path d="M537 167l-13 7.52a.45.45 0 0 0-.23.39v13.27c0 .52-.21 1.53.07 2s1.24.79 1.7 1l4.63 2.67 6.86 4a.47.47 0 0 0 .46 0l13-7.53a.45.45 0 0 0 .23-.39v-13.28c0-.51.21-1.53-.07-2s-1.24-.78-1.7-1l-4.63-2.67-6.86-4a.453.453 0 0 0-.46.78l8.07 4.66 4.32 2.5c.58.28.53.56.41 0a6.2 6.2 0 0 1 0 1.14v11.54a11.88 11.88 0 0 0 0 1.79 1.48 1.48 0 0 1 0 .47c0 .23.39-.43.12-.24-1 .74-2.27 1.31-3.37 1.95l-5.43 3.13a25.25 25.25 0 0 0-3.88 2.24c-.37.32.34.23 0 0-.47-.31-1-.57-1.47-.85l-5.2-3-4.86-2.81-1.16-.67s-.07.5.08-.17a24.18 24.18 0 0 0 0-4.66v-8.87-.82c0-.27 0 0-.22.17a24.65 24.65 0 0 1 3.63-2.1l9.39-5.42a.45.45 0 0 0-.43-.74zm-.25-13.09v11.35a.46.46 0 0 0 .92 0v-11.35a.46.46 0 0 0-.92 0zm-.2 45.83v9.91a.46.46 0 0 0 .91 0v-9.91a.46.46 0 0 0-.91 0zm-21.55-2.4q3.54-3.28 7.3-6.31c.45-.37-.2-1-.65-.65q-3.75 3-7.3 6.32c-.43.4.22 1 .65.64zm38.67-23.14a58.19 58.19 0 0 0 7.61-5.72c.44-.4-.21-1-.65-.65a56.07 56.07 0 0 1-7.42 5.59c-.49.31 0 1.1.46.78zM513 168.13q4.9 3.45 9.69 7c.47.35.93-.44.46-.79q-4.78-3.6-9.69-7c-.48-.34-.93.45-.46.79zm39.66 23.76l8.87 5.79c.49.32 1-.47.46-.79l-8.87-5.79c-.49-.32-1 .47-.46.79zm9.49-27.45c1 .59 4.8 2.57 4 4l.62-.16c-2.09-1.49 1-4.16 2.34-1.94 1 1.62-.57 3.11-2.2 3.07a.46.46 0 0 0 0 .92 3.24 3.24 0 0 0 3.31-2.17 2.87 2.87 0 0 0-1.41-3.36 2.48 2.48 0 0 0-2.5 4.26.45.45 0 0 0 .62-.16c1.23-2.33-2.84-4.35-4.36-5.28a.46.46 0 0 0-.46.79zm-53.08 35.48a1.59 1.59 0 0 0-1.87 1.55 2.69 2.69 0 0 0 1.58 2.68c2.26.94 4.23-2 2.2-3.5a.46.46 0 0 0-.69.39 1.44 1.44 0 0 0 2.59.83c.36-.45-.28-1.1-.64-.64s-.69.44-1-.19l-.68.39c1.2.91-.23 2.34-1.38 1.87a1.72 1.72 0 0 1-.95-1.06c-.12-.36-.17-1.64.64-1.44.57.13.81-.75.24-.88zm-4.23-36.15a23.2 23.2 0 0 1 2.51 2.91c.23.3 2.36 3 1.2 3.3a4.17 4.17 0 0 1-1.75-1.21c-.64-1.56 1.56-1.59 2.26-1.68l4-.33c.58 0 .59-.94 0-.91l-4.57.4a3.78 3.78 0 0 0-2.55.93c-1.2 1.44.75 3 2 3.52s2.43-.1 2-1.57c-.66-2.19-2.85-4.43-4.42-6a.46.46 0 0 0-.65.65zm57.24 37a13.4 13.4 0 0 0 4.46.37c.58 0 .58-1 0-.91a12.75 12.75 0 0 1-4.22-.34.46.46 0 0 0-.24.88z"></path><path d="M566.77 198a32.27 32.27 0 0 0-.78 7.33.46.46 0 0 0 .91 0 31.29 31.29 0 0 1 .75-7.09c.13-.57-.75-.81-.88-.24zm-30.01-52.3a1.64 1.64 0 0 0-1.43 2.44c.73 1.33 2.43 1.3 3.63.72s2-1.76 1.12-3c-1-1.41-2.83-1-4.22-.48-.55.2-.31 1.08.24.88a4.75 4.75 0 0 1 2.15-.45c.76.09 1.75.84 1.08 1.68a2.73 2.73 0 0 1-2 .84 1.4 1.4 0 0 1-1-.4c-.43-.47-.36-1.35.44-1.34a.46.46 0 0 0 0-.91zm-36.04 93.12a60.2 60.2 0 0 0 1.33 11.81c.13.57 1 .33.88-.24a60 60 0 0 1-1.3-11.57.46.46 0 0 0-.91 0zm7.76-1.51a28.16 28.16 0 0 1 .83 13.7c-.11.57.77.82.88.24a29.17 29.17 0 0 0-.83-14.19c-.18-.56-1.06-.32-.88.25z"></path><path d="M501.34 246.47l7.29-2.13a.46.46 0 0 0-.25-.88l-7.28 2.13a.46.46 0 0 0 .24.88zm15.4 2.11c1-1.45 2.52.39 2.26 1.54s-1.11 1.5-1.79 2.19-1 1.33-.52 2.09 2.06 1 3 1a7.3 7.3 0 0 0 4.07-1.21c.49-.31 0-1.1-.46-.78a6.49 6.49 0 0 1-3.16 1.07 4.64 4.64 0 0 1-1.67-.15 1 1 0 0 1-.48-1.57c.46-.58 1.14-.9 1.52-1.58a3.3 3.3 0 0 0 .46-1.79c-.13-2-2.8-3.07-4-1.32-.34.48.45.94.79.46zM529.77 237a2.78 2.78 0 0 0-3.79.69 3.85 3.85 0 0 0-.05 4.21c1.86 3.51 7 5.56 10.42 3.19a5.15 5.15 0 0 0 .37-8.54c-4-3-8.85-.52-12.57 1.66a.453.453 0 0 0 .46.78c2.39-1.39 5-3 7.92-2.92s6 2.09 5.36 5.24c-.66 3.41-4.44 4.56-7.37 3.38a7.41 7.41 0 0 1-3.49-2.73 3.79 3.79 0 0 1-.72-3 2 2 0 0 1 3-1.18c.48.34.94-.45.46-.79zM385.52 119.9a60 60 0 0 0 1.33 11.81c.13.58 1 .33.88-.24a60 60 0 0 1-1.3-11.57.46.46 0 0 0-.91 0zm7.76-1.51a28.16 28.16 0 0 1 .83 13.7c-.11.57.77.82.88.24a29.13 29.13 0 0 0-.83-14.18c-.18-.56-1.06-.32-.88.24z"></path><path d="M386.14 127.56l7.29-2.14a.46.46 0 0 0-.25-.88l-7.28 2.14a.46.46 0 0 0 .24.88zm15.4 2.11c1-1.46 2.52.39 2.26 1.53s-1.11 1.51-1.79 2.19-1 1.33-.52 2.09 2.06 1 3 1.05a7.29 7.29 0 0 0 4.07-1.2c.49-.32 0-1.11-.46-.79a6.38 6.38 0 0 1-3.16 1.07 4.43 4.43 0 0 1-1.67-.14 1 1 0 0 1-.48-1.58c.46-.57 1.14-.9 1.52-1.57a3.33 3.33 0 0 0 .46-1.79c-.13-2-2.8-3.08-4-1.33-.34.49.45.94.79.47zm13.03-11.62a2.77 2.77 0 0 0-3.79.68 3.87 3.87 0 0 0 0 4.22c1.86 3.5 7 5.55 10.42 3.18a5.15 5.15 0 0 0 .37-8.54c-4-3-8.85-.51-12.57 1.66a.46.46 0 0 0 .46.79c2.39-1.4 5-3 7.92-2.92s6 2.09 5.36 5.23c-.66 3.41-4.44 4.56-7.37 3.39a7.43 7.43 0 0 1-3.49-2.74 3.77 3.77 0 0 1-.72-3 2 2 0 0 1 3-1.19c.48.34.94-.45.46-.78zm105.55 192.33l6.15 6.71c.4.44 1-.21.64-.64q-3.06-3.36-6.14-6.71c-.4-.44-1 .21-.65.64z"></path><path d="M519.59 318.14a46.09 46.09 0 0 1 9-7.32c.49-.31 0-1.1-.46-.79a46.65 46.65 0 0 0-9.16 7.46c-.41.43.24 1.07.64.65zm11.09-15.51c.69.19 1.38-.15 2.09.15a2.4 2.4 0 0 1 1.38 1.36c.55 1.53-.69 3-1.61 4.12a.46.46 0 0 0 .32.78 12.49 12.49 0 0 0 3.92-.79c.54-.21.31-1.09-.24-.88a11.9 11.9 0 0 1-3.68.76l.32.78c1.63-1.93 3.28-5.06.39-6.75a3.13 3.13 0 0 0-3.13-.17c-.55.37-.8 1.31 0 1.52a.46.46 0 0 0 .24-.88zm13.37 3.51l.86 10.34c.05.58 1 .58.92 0l-.83-10.34c0-.58-1-.59-.91 0z"></path><path d="M541.54 313a64.68 64.68 0 0 1 8-.87c.58 0 .58-.94 0-.91a66.81 66.81 0 0 0-8.23.9c-.57.09-.33 1 .25.88zm14.05-6.65a71.72 71.72 0 0 0 7.65 9.89.46.46 0 0 0 .76-.24 50.28 50.28 0 0 1 3.35-9.74c.24-.53-.54-1-.79-.46a51 51 0 0 0-3.44 10l.76-.2a70.5 70.5 0 0 1-7.5-9.7c-.32-.49-1.11 0-.79.46zm20 2.47a3.2 3.2 0 0 0 1.16-5.7 4.1 4.1 0 0 0-6.12 1.89c-1 2.82 4.63 3.84 6.34 4.66.91.43 2.85 1.33 3.09 2.41l-.59 2.25-1.09.44a7.37 7.37 0 0 1-2.56.29c-1.61-.09-3.09-.65-3.52-2.27-.51-1.89 1.11-2.93 2.6-3.75a.46.46 0 0 0-.46-.79c-2.07 1.14-4.63 3.52-2.69 5.95s6.52 2.45 8.68.56c2.31-2-.63-4.65-2.44-5.6s-4.2-1.28-5.75-2.55 0-2.77 1.5-3.17c2.93-.81 5 3.61 1.61 4.5a.46.46 0 0 0 .24.88zm7.02-9.67l1.8.72a8.37 8.37 0 0 1 1.79.72c.63.85-.57 1.12-1 1.56s0 .83.45.77c1.78-.29 1.68 1.95.73 2.8a3.42 3.42 0 0 1-1.75.74c-.57.11-.33 1 .25.88 1.47-.28 3.19-1.27 3.2-3a2.31 2.31 0 0 0-2.68-2.32l.45.76c.62-.6 2.66-.87 2-2.26-.23-.47-.91-.65-1.35-.83l-3.6-1.44c-.55-.22-.78.66-.24.88zM507 74.2h100.62a.46.46 0 0 0 0-.91H507a.46.46 0 0 0 0 .91z"></path><path d="M507.23 74a376 376 0 0 1 43.35-36.3c.47-.34 0-1.13-.46-.79a379.17 379.17 0 0 0-43.54 36.47c-.42.41.23 1.06.65.65z"></path><path d="M550.64 38.37c9.34 5.47 17.53 12.57 26.27 18.91 9.15 6.63 19.22 11.5 29.31 16.52.52.26 1-.53.46-.79-10.09-5-20.16-9.89-29.31-16.52-8.74-6.33-16.93-13.44-26.27-18.91a.46.46 0 0 0-.46.79zm-6.38 4.38c1.43 1.26 3.57 3.48 5.47 3.94.76.19.83 0 1.42-.28s1.2-1 1.87-1.37a8.74 8.74 0 0 1 2.44-.8c.57-.11.33-1-.25-.88-1.7.33-2.64 1.2-4.12 1.9-2.13 1-4.65-1.8-6.18-3.15-.44-.39-1.09.25-.65.64z"></path><path d="M549.14 46.85q-.72 13.44-.93 26.9a.46.46 0 0 0 .91 0q.21-13.45.93-26.9c0-.59-.88-.58-.91 0zm-24.5-1.19a1.73 1.73 0 0 0-1.24 1.92 2.54 2.54 0 0 0 4.48.9 1.82 1.82 0 0 0-.38-2.31l-.2.76 1.26-.25c.58-.12.33-1-.24-.88l-1.26.25a.46.46 0 0 0-.2.77c1 .78-.1 1.79-1 1.75a1.79 1.79 0 0 1-1.25-.56.87.87 0 0 1 .31-1.47.46.46 0 0 0-.24-.88zm26.1 32.79a2.73 2.73 0 0 0-3.3 3.78c1.39 2.85 5 2.15 6.68.06.36-.46-.28-1.11-.65-.65-1.12 1.39-3.2 2.34-4.7.88s-.27-3.93 1.72-3.19c.55.21.79-.68.25-.88zm23.56-35.32q2.22 3 4.46 6a.46.46 0 0 0 .83-.35 4 4 0 0 1-.12-2c0-.49.23-.67.77-.55.61-.33.92-.13.93.59a2.53 2.53 0 0 1-2.11 3c-.57.12-.33 1 .24.88 2.34-.51 3.9-3.49 2.08-5.47a1.37 1.37 0 0 0-2.22 0c-.86 1-.74 2.67-.45 3.87l.83-.35-4.45-6c-.35-.46-1.14 0-.79.46zM415.6 97.77a53.61 53.61 0 0 1-2.32-9.89 22.51 22.51 0 0 1 0-4.42c.13-1.34.76-6.54 3-4.43 1.15 1.07 1.67 3.72 1.59 5.19a5.45 5.45 0 0 1-.7 2.45c-.19.34-1.65 1.61-1.66 1.72.05-.47 2.2 1.86 2.13 1.77.42.57.79 1.16 1.16 1.76a30.82 30.82 0 0 1 2.39 4.94c.2.54 1.09.31.88-.24-.72-1.88-5.67-13.13-8.89-8a.47.47 0 0 0 .07.56c1.83 2 4.66-1.55 5.2-3.15.8-2.32.13-7.4-2.48-8.52-3-1.3-3.55 4.58-3.68 6.32-.36 4.85 1 9.59 2.43 14.18.17.56 1 .32.88-.24zm7.59-8.52a37.22 37.22 0 0 1 6.19 1.21.46.46 0 0 0 .24-.88 38 38 0 0 0-6.43-1.24c-.59-.06-.58.85 0 .91zm2.93 4.5l4.12-.67c.58-.09.34-1-.24-.88l-4.12.67c-.58.09-.33 1 .24.88zm17.55-16.67c-2.81.72-7.47 1.1-7.82 4.88s4.42 4.24 7 3.43c.56-.18.32-1.06-.24-.88a6.13 6.13 0 0 1-4.12 0 2.46 2.46 0 0 1-1-4.1c1.55-1.77 4.29-1.87 6.41-2.41a.46.46 0 0 0-.24-.88zm-8.76 14.16A46.59 46.59 0 0 1 449.57 93a.46.46 0 0 0 .24-.88 47.49 47.49 0 0 0-14.9-1.81c-.59 0-.59.93 0 .91zm2.45 5.83a2.75 2.75 0 0 1 1.57-.42c.67-.26 1 0 .95.85.36 1 .23 1-.28 1.85a10.32 10.32 0 0 0-1.2 2 3.07 3.07 0 0 0 .51 3.23c1.9 2.22 5.42 2 7.73.68a.46.46 0 0 0-.46-.79c-2 1.14-6.46 1.51-6.94-1.59-.32-2.07 1.84-3.07 2.11-5 .36-2.69-2.92-2.26-4.45-1.6-.54.23-.07 1 .46.79zm245.86-46.56a51.21 51.21 0 0 1-2.22-9.59c-.13-1.34-.26-10.49 2.59-9 1.35.71 1.91 4 1.85 5.36a5.39 5.39 0 0 1-.79 2.62l-.63.81c-1 .4-1.06.74-.15 1a25.44 25.44 0 0 1 4.78 7.91c.21.54 1.09.31.88-.24-.7-1.83-5.5-12.77-8.65-7.77a.48.48 0 0 0 .07.56c1.76 1.88 4.5-1.43 5-3 .81-2.27.18-7.63-2.62-8.48S680.1 35.34 680 37c-.35 4.72 1 9.32 2.36 13.78a.46.46 0 0 0 .88-.25zm7.35-8.25a37.11 37.11 0 0 1 6 1.17.46.46 0 0 0 .24-.88 37.89 37.89 0 0 0-6.25-1.2c-.58-.06-.58.85 0 .91zm2.85 4.37l4-.65c.58-.09.34-1-.24-.88l-4 .65c-.58.09-.33 1 .24.88zm17.03-16.21c-2.73.7-7.26 1.07-7.6 4.75s4.3 4.13 6.83 3.34c.56-.17.32-1.06-.24-.88a5.88 5.88 0 0 1-4 0 2.38 2.38 0 0 1-1-4c1.51-1.72 4.16-1.81 6.22-2.34a.46.46 0 0 0-.24-.88zM702 44.19a45.33 45.33 0 0 1 14.23 1.73c.56.17.8-.71.24-.88A46.26 46.26 0 0 0 702 43.28c-.59 0-.59.93 0 .91zm2.34 5.66a2.62 2.62 0 0 1 1.51-.4c.65-.26 1 0 .92.81.34 1 .22 1-.28 1.78a10.59 10.59 0 0 0-1.16 1.96 3 3 0 0 0 .49 3.15c1.85 2.16 5.27 1.92 7.52.66.52-.28.06-1.07-.46-.79-2 1.11-6.25 1.47-6.71-1.53-.32-2 1.79-3 2-4.84.36-2.63-2.84-2.21-4.33-1.57-.54.23-.08 1 .46.79zM341.37 371.67a52 52 0 0 1-2.25-9.59c-.13-1.34-.26-10.49 2.59-9 1.35.71 1.91 4 1.85 5.36a5.39 5.39 0 0 1-.79 2.62l-.63.81c-1 .4-1.06.74-.15 1a25.44 25.44 0 0 1 4.78 7.91c.21.54 1.09.31.88-.24-.7-1.83-5.51-12.77-8.65-7.77a.48.48 0 0 0 .07.56c1.76 1.88 4.5-1.43 5-3 .81-2.27.18-7.63-2.62-8.48s-3.23 4.59-3.35 6.23c-.35 4.72 1 9.32 2.36 13.78a.453.453 0 0 0 .87-.25zm7.36-8.25a37.32 37.32 0 0 1 6 1.17.46.46 0 0 0 .24-.88 37.89 37.89 0 0 0-6.25-1.2c-.58-.06-.58.85 0 .91zm2.85 4.37l4-.65c.58-.09.34-1-.24-.88l-4 .65c-.58.09-.33 1 .24.88zm17.03-16.21c-2.73.7-7.26 1.07-7.6 4.75s4.3 4.13 6.83 3.34c.56-.17.32-1.06-.24-.88a5.88 5.88 0 0 1-4 0 2.38 2.38 0 0 1-1-4c1.51-1.72 4.16-1.81 6.22-2.34a.46.46 0 0 0-.24-.88zm-8.51 13.77a45.35 45.35 0 0 1 14.24 1.73c.56.17.8-.71.24-.88a46.29 46.29 0 0 0-14.48-1.76c-.58 0-.58.93 0 .91zm2.4 5.65a2.62 2.62 0 0 1 1.51-.4c.65-.26.95 0 .92.81.34 1 .22 1-.28 1.78a10.59 10.59 0 0 0-1.16 1.94 3 3 0 0 0 .49 3.15c1.85 2.16 5.27 1.92 7.52.66.52-.28.06-1.07-.46-.79-2 1.11-6.25 1.47-6.71-1.53-.32-2 1.79-3 2-4.84.36-2.63-2.84-2.21-4.33-1.57-.54.23-.08 1 .46.79zM210.88 156.21a51.18 51.18 0 0 1-2.22-9.44c-.14-1.36-.23-10.33 2.54-8.83 1.32.71 1.87 3.95 1.81 5.26a5.35 5.35 0 0 1-.77 2.58l-.62.79c-1 .4-1 .73-.15 1a25.1 25.1 0 0 1 4.7 7.78c.21.54 1.09.31.88-.24-.69-1.81-5.42-12.57-8.52-7.64a.45.45 0 0 0 .07.55c1.73 1.87 4.42-1.4 5-2.91.81-2.24.19-7.17-2.35-8.26-2.91-1.24-3.41 4.35-3.54 6.05-.35 4.64 1 9.16 2.32 13.55.17.56 1.05.32.88-.24zm7.22-8.11a36.09 36.09 0 0 1 5.91 1.15.46.46 0 0 0 .24-.88 36.69 36.69 0 0 0-6.15-1.18c-.58-.06-.58.85 0 .91zm2.81 4.29l3.93-.63c.58-.1.34-1-.24-.88l-3.93.63c-.58.1-.34 1 .24.88zm16.74-15.95c-2.69.69-7.15 1.06-7.48 4.68s4.23 4.07 6.72 3.29c.56-.17.32-1.06-.24-.88a5.77 5.77 0 0 1-3.91 0 2.33 2.33 0 0 1-1-3.88c1.47-1.69 4.09-1.78 6.11-2.3a.46.46 0 0 0-.24-.88zM229.29 150a44.39 44.39 0 0 1 14 1.7.46.46 0 0 0 .24-.88 45.33 45.33 0 0 0-14.23-1.73c-.59 0-.59.93 0 .91zm2.35 5.56a2.72 2.72 0 0 1 1.49-.4c.63-.24.93 0 .89.8.34 1 .21 1-.27 1.75a9.46 9.46 0 0 0-1.14 1.91 3 3 0 0 0 .48 3.1c1.82 2.12 5.19 1.89 7.41.65.51-.29.05-1.07-.46-.79-1.94 1.09-6.14 1.44-6.6-1.5-.3-2 1.76-2.93 2-4.75.35-2.6-2.81-2.19-4.28-1.56-.54.23-.07 1 .46.79zm548.52-71.64c-.13 1.81-3.54 2.65-4.86 3a49 49 0 0 1-9.93 1.63c-7.32.57-15.08.45-22.24-1.37-1.56-.39-4.92-1.06-5.68-2.78s2.68-2.89 3.83-3.27c6.68-2.22 14.25-2.37 21.22-2.07a58.64 58.64 0 0 1 11.58 1.47c1.53.38 5.93 1.24 6.08 3.36 0 .58 1 .59.91 0-.12-1.74-2-2.63-3.44-3.2a38.4 38.4 0 0 0-10.55-2.22 84.33 84.33 0 0 0-15-.15 44.68 44.68 0 0 0-11.47 2.07c-1.44.52-3.81 1.36-4.18 3.1s1.37 2.66 2.59 3.24a31.23 31.23 0 0 0 9.71 2.39 81.61 81.61 0 0 0 14.49.48 50.78 50.78 0 0 0 13.2-2.07c1.69-.56 4.49-1.5 4.64-3.64.05-.56-.86-.55-.9.03z"></path><path d="M780.16 34.78c-.13 1.81-3.54 2.65-4.86 3a49.71 49.71 0 0 1-9.93 1.62c-7.32.57-15.08.46-22.24-1.36-1.56-.4-4.92-1.07-5.68-2.78s2.68-2.9 3.83-3.28c6.72-2.17 14.25-2.33 21.22-1.98a59.41 59.41 0 0 1 11.58 1.48c1.53.37 5.93 1.23 6.08 3.35 0 .59 1 .59.91 0-.12-1.73-2-2.62-3.44-3.2a38.4 38.4 0 0 0-10.55-2.22 84.33 84.33 0 0 0-15-.15 44.69 44.69 0 0 0-11.47 2.08c-1.44.51-3.81 1.36-4.18 3.09s1.38 2.57 2.57 3.2a31.51 31.51 0 0 0 9.74 2.37 82.56 82.56 0 0 0 14.49.47 50 50 0 0 0 13.2-2.07c1.69-.56 4.49-1.5 4.64-3.64.04-.56-.87-.56-.91.02z"></path><path d="M736.39 35v47.47a.46.46 0 0 0 .91 0V35a.46.46 0 0 0-.91 0zm43.77 0v47.47a.46.46 0 0 0 .91 0V35a.46.46 0 0 0-.91 0zm-20.99-4.83v3.58a.46.46 0 0 0 .91 0v-3.58a.46.46 0 0 0-.91 0zm.55 9.36v4.41a.46.46 0 0 0 .91 0v-4.41a.46.46 0 0 0-.91 0zm-.82 10.74v3.3a.46.46 0 0 0 .91 0v-3.3a.46.46 0 0 0-.91 0zm-.55 12.11v3.85a.46.46 0 0 0 .91 0v-3.85a.46.46 0 0 0-.91 0zm.82 11.56v5a.46.46 0 0 0 .91 0v-5a.46.46 0 0 0-.91 0zm0 10.74v4.68a.46.46 0 0 0 .91 0v-4.68a.46.46 0 0 0-.91 0zm.83 9.91v1.92a.46.46 0 0 0 .91 0v-1.92a.46.46 0 0 0-.91 0zM275.29 35.77a44.8 44.8 0 0 1-.82 13.23 43 43 0 0 1-1.86 6.27 12 12 0 0 1-1.38 3c-1.34 1.77-3.43.59-4.29-1-1.12-2.08-2.18-5.68-.85-7.89 1.51-2.51 4.94-1.74 7.18-1A25.4 25.4 0 0 1 284 55.59c.4.44 1-.21.65-.64-3.53-3.92-9-7.8-14.42-8.17-6.11-.41-6.38 6.08-4.39 10.33.74 1.59 2.09 3.6 4.13 3.2s2.89-3.05 3.53-4.76a45.17 45.17 0 0 0 2.71-19.78c0-.58-1-.59-.91 0zm15.1-2.29a33.66 33.66 0 0 0-.39 15.27c.67 3.16 2 9.64 6.3 9.35.59 0 .59-1 0-.91-4.3.28-5.49-8.3-5.87-11.41a32.67 32.67 0 0 1 .83-12.06.46.46 0 0 0-.88-.24zm4.82 10.09a65.67 65.67 0 0 0 10.46 9.25c.48.35.94-.45.46-.78a66 66 0 0 1-10.28-9.11c-.39-.44-1 .21-.64.64z"></path><path d="M298.77 51.07a126.37 126.37 0 0 1 8.57-9.36c.42-.41-.23-1.05-.65-.64a122.35 122.35 0 0 0-8.56 9.36c-.37.45.27 1.1.64.64zm10.46-11.24a6.37 6.37 0 0 1 2.61.06c.81.26 1.84 1.46 1.06 2.32-.63.68-1.92.35-2.14 1.5-.18.93.77 1.57 1.51 1.87a4.23 4.23 0 0 0 3.56-.26c.52-.26.06-1-.46-.78a3.1 3.1 0 0 1-3 .09c-1.29-.89-.08-1.07.58-1.41a1.82 1.82 0 0 0 1.05-1.83c-.13-2.5-2.91-2.67-4.81-2.48-.58.06-.58 1 0 .92zm4.5-5.24c3.76 2.55 8 5.65 9 10.42.94 5-2.46 9.11-6.26 11.79-.48.34 0 1.13.46.79 3.81-2.69 7.33-6.79 6.84-11.77-.54-5.53-5.29-9.14-9.54-12-.48-.33-.94.46-.46.79z"></path><rect x="260.37" y="418.63" width="85.92" height="16.21" rx="3.6"></rect><rect x="359.66" y="418.63" width="45.49" height="16.21" rx="3.6"></rect></g><rect x="181.01" y="5.22" width="638.75" height="429.62" rx="12.39" stroke="#3e6c98" stroke-width="10.44" class="j k"></rect><image class="F" width="376" height="623" transform="translate(0 123.02)" opacity=".4"></image><path d="M198.18,661.69H163v61.36h31.76s18.39-2.92,18.51-4.92l-22.61-8.28a5.68,5.68,0,0,1-3.53-6.8Z" class="m"></path><g clip-path="url(#A)" class="n"><path d="M196.55,678.81l-35.66,13.56V670.92Z"></path></g><path d="M162,711.66a99.94,99.94,0,0,0,12.56,5.24c10.1,2.65,17.17,2.3,21.1,1.19,8.27-2.32,5.58-5.9,11.25-3.79,17.6,6.56,24.42,8.16,22.84,16l-65.3-1.08a3.4,3.4,0,0,1-3.35-3.46v-.17Z" class="o"></path><path d="M76.38,667.66l-15.07-15-16.3,41a28.49,28.49,0,0,1-7.91,11.08l-16,13.75s10.71,4.74,19.4,2.48,26.59-15.82,26.59-15.82Z" class="m"></path><g clip-path="url(#B)" class="n"><path d="M78.55,678.81,42.89,692.37V670.92Z"></path></g><path d="M71.11 692.37s-14.87 15.5-21.77 19c-.27.13-6.94 3.83-11.24 3.66a12 12 0 0 1-7.62-4.15c-9.56 5-18.11 3.75-20.67 19.44H32a28.44 28.44 0 0 0 20.24-8.46l4-4s11.14.29 11.14-4.06a203.19 203.19 0 0 1 3.73-21.43z" class="o"></path><path d="M223.7,354.74s11.87,25.09,5.94,87.4S201,679.52,201,679.52H159s3.12-189.9.19-240.83c0,0-17.85,109-76.95,241.22l-43.63.18,72-301.1,77.92-43.7Z" fill="#955454"></path><g clip-path="url(#C)"><g fill="#7d4545"><path d="M177.5 359.92s30.25 6.36 30.25 48.35-19.61 279.61-19.61 279.61l35.7-6.23 33.26-316.81-52-22.71zm-18.83 76.92a300.7 300.7 0 0 1-2.67 46.85c-3.49 26.07-72.44 208.68-72.44 208.68l-22.87-4.48z"></path></g><path d="M156.25,392.4s-5.44,28.9-4.26,36.67a8.63,8.63,0,0,0,8.31,7.77" stroke="#7d4545" stroke-width="1.05" class="j k"></path></g><path d="M242.49 263.21l-36.38 19.11s-5.74 20.3-2.51 34 28.82 29.7 23.63 46.4c0 0-31.36-10.67-54 0S126.5 396 104.71 390.85c0 0 9.25-87 1.7-111.73l-34.09-7s14-41.42 45.84-51.05a130.55 130.55 0 0 1 40.55-5.25c65-1.17 83.78 47.39 83.78 47.39z" fill="#56d4b7"></path><g clip-path="url(#D)"><path d="M206.11 282.32s-7.28 32.57-27.26 35.3-26.85-8.91-26.85-8.91-9.59 16.11-24.56 14.37c0 0 1.72 21.43 15.74 13.6s28.27-3.22 23.57 4.68-6.42 24.75-40.66 35.75-49.38-7.48-49.38-7.48l24 32.29L235 377.11l6-41.82z" fill="#45aa92"></path><g stroke="#301913" class="j k l"><path d="M107.78 264.78L104 282m102.11.32l-1-11.45"></path></g></g><path d="M72.33,272.1s-26.4,66.42-26.6,88.19c0,3,10.65,1.86,10.94,4.55l37.68-8.46,13.43-81.51Z" class="m"></path><g clip-path="url(#E)" class="n"><path d="M84.72,273.38s1.69,33.63-6.51,49.56c-2.56,5-12.36,6.53-17.49,9.39a37.21,37.21,0,0,0-15,16.74l48.1-16.74Z"></path></g><path d="M84.72 273.05h55.59v96.59H84.72z" fill="#230d99"></path><path d="M87.51 277.59h49.92v87.5H87.51z" stroke="#fff" class="j k l"></path><path d="M46 365.21c14.88 16.34 61.67-6.75 79.76-21.62 0 0 23.15-8.17 24.18-13.15s-1.5-5.56-1.5-5.56 2.15-4 .7-6.31c0 0 1.55-5.47-.2-6.64 0 0 1.43-6.75-8.66-7.49 0 0 1.14 4.21-1 5.64s-12.35 3.21-12.35.82 6.41-8.34 3.62-12.37-4.53 5.38-9.64 8.88-9.51 8.5-9.51 19c0 0-.06 6-25.3 7.29-13.35.7-27.27 1.1-34.35 7.2-6.3 5.41-12.75 16.62-5.75 24.31z" class="m"></path><g clip-path="url(#F)" class="n"><path d="M125.79,343.59s-62.8,30.73-83.54,16,6.3,22.76,6.3,22.76l83.73-22.76Z"></path></g><path d="M111.23 327.46s-8.23 6.39-24.18 6.39-34.83 2.29-41.89 15.21M149 311.93s-.77 2.43-5.3 3.1m5.47 3.54a10.13 10.13 0 0 1-5.49 2.77m4.79 3.54a11.31 11.31 0 0 1-5.73 2.81" stroke="#99776c" class="j k l"></path><path d="M191.39 161s16.9 41.29-8.25 45c0 0-13.26 6.53-12 7.5a150.26 150.26 0 0 0 15.24 4.77s-7.74 18.48-28.53 17.34-25.31-18.18-25.31-18.18l6.58-.87c5.56-.64 9.25-1.17 9.25-3.06a54.28 54.28 0 0 0-2.22-20.3 142.58 142.58 0 0 0-9.15-17.28s10.74-13.2 19.27-21.66 24.22-2.81 24.22-2.81a40 40 0 0 1 8.57 4.05 9.63 9.63 0 0 1 2.33 5.5z" class="m"></path><g clip-path="url(#G)" class="n"><path d="M168.88 205.54a25.65 25.65 0 0 1-11-6.89s2.88 15.32 12.88 14.64-1.88-7.75-1.88-7.75z"></path></g><path d="M167.55 173.14a8.42 8.42 0 0 1 8.2 0m8.25-.34a7 7 0 0 1 5.66.93" class="j k l p q"></path><path d="M185.94 156.76s-11.59 20.45-35.79 18.55c0 0-5.08-2.83-6.16.9s1 5.42 4.87 6.9l-.5 30.32s-3.56 0-9.43-.13a37.6 37.6 0 0 1-9.84-1.4l1.52-7.51-6.06 5.6s-18-8.55-20.54-10.84c0 0 14.75-11.25 20.55-25.39s13.82-39.32 35.24-41.38 34.67 9.34 37.49 27 5.66 52 14.51 53.46l-23 .51c-1.79.1-3.2-6.58-3.2-6.58l-3.24 6.91-11.36-.24-2.08-7.92s23 .5 22.22-38.11a18.53 18.53 0 0 1-4.27-5.25 12.77 12.77 0 0 1-.93-5.4z" class="o"></path><path d="M181.13,176.27a5.61,5.61,0,0,0,.75,5.64c2.13,2.81,2.13,6.31-3.73,5.05" stroke="#9d3f28" class="j k l q"></path><circle cx="173.22" cy="177.59" r="1.13" class="o"></circle><path d="M174.87,177.31a3.66,3.66,0,0,0-4.39.12" class="j k l p"></path><path d="M178.7 175.46a8.32 8.32 0 0 1-6 7.14 8.35 8.35 0 0 1-6.05-7.14h12.1m1.33-1.27h-14.8v.36a9.65 9.65 0 0 0 7.37 9.37 9.65 9.65 0 0 0 7.38-9.37zm15.64 1.27a8.33 8.33 0 0 1-6.05 7.14 8.35 8.35 0 0 1-6-7.14h12.1m1.33-1.27h-14.8v.36a9.65 9.65 0 0 0 7.37 9.37 9.65 9.65 0 0 0 7.38-9.37z" fill="#fff"></path><circle cx="186.83" cy="177.59" r="1.13" class="o"></circle><g class="j k l"><path d="M188.48,177.27a3.68,3.68,0,0,0-4.39.2" class="p"></path><g stroke="#fff"><path d="M165.55,174.73l-15.66-.54" class="q"></path><path d="M179.77,176h3"></path></g></g><path d="M178.89 196.87c-3 .26-6.24-4-6.24-4a29.8 29.8 0 0 0 6.24 1.4 13.32 13.32 0 0 0 4.74-1.4s-1.7 3.75-4.74 4z" stroke="#9d3f28" fill="#fff" class="k l"></path><path d="M302.38 288.09s7.16-16.89 19.95-17.33 36.88-21.51 38.07-26.8c.77-3.43-1-3-2.19-2.7-.66.17-1.14.32-1-.18a2.65 2.65 0 0 0-1.79-3.27 2.59 2.59 0 0 0-.63-.1c-1.76.06-5.74 6-5.74 6l2-10.83c0-.67-4.68.16-5.11 5.6a8.45 8.45 0 0 1-4.34 7.19c-2.37-1.76-2.81.69-7.14 5.22s-12.68 5-12.7 4.24 9.24-9.29 11.65-11.82.71-9.33-4.08-4.71a138 138 0 0 1-17.66 12.3c-7.72 1.55-15.64 13-20 20.31l-.06-.09s-15.52 17.05-24.73 25.52-18.82 15.69-18.82 15.69l-7-48.78-35 18.75s5.47 56.52 25.87 68a10.54 10.54 0 0 0 7 1c22.99-3.65 63.45-63.21 63.45-63.21z" class="m"></path><g clip-path="url(#H)" class="n"><path d="M316.55 272.17s-9 0-21 16.4-39.74 69.06-72.59 55.36 12.7 19.7 12.7 19.7l65.6-29.63zM241 321.34l-9.4-59 14.46-9.34 4.4 56.88z"></path></g><g stroke="#99776c" class="j k l"><path d="M307.05 262.66c8.09-6.21 10.53-2.69 19.76-4.2s9.72-9.77 11.76-12.06 2.68-1.08 2.68-1.08 2.79 6.8-9.43 19m25.56-22.93L338.29 257"></path><path d="M349.84 242.36l-4 4.32a44.9 44.9 0 0 1-4 3.15m-50.29 22.34S257 306.76 248.1 312.33c0 0-10.75 10.65-10.39 18.25"></path></g></g></svg>