<svg xmlns="http://www.w3.org/2000/svg" xmlns:xlink="http://www.w3.org/1999/xlink" viewBox="0 0 605.09 607.73" xmlns:v="https://vecta.io/nano"><style><![CDATA[.E{isolation:isolate}.h,.j,.l,.n,.o{mix-blend-mode:multiply}.AB{fill:none}.AC{stroke-miterlimit:10}.AD{fill:#ffd3c8}.AE{stroke-width:.5}.AF{fill:#2a3756}.AG{stroke-linecap:round}.AH{fill:#f1b2a2}.AI{stroke:#061537}.AJ{fill:#00bcff}.AK{fill:#061537}.AL{fill:#ff9700}.AM{fill:#824848}.AN{fill:#659cff}.AO{stroke-width:7.13}]]></style><defs><clipPath id="A"><path d="M403.67 83.7a34 34 0 0 1 2.92-15c11.67-.2 11.67-11.52 7.72-13s-7.29 4.1-7.29 4.1c1.55-11-9.61-2.39-14.7-20.34s-20.7-10.46-23.11-5.81-22.15 53.23 8.6 59a60.09 60.09 0 0 1-2.7 15.69 79.07 79.07 0 0 1-2.9 8.34c-5.1 8.49-21.27 28.78-6.28 39.28s43.5-12.05 41.46-29.51-3.39-34.04-3.72-42.75z" class="AB"/></clipPath><clipPath id="B"><path d="M391.74,475.66s-10.58,33-10.58,44.57,3.13,51.38-7.91,54.9-25.72-1.82-20.42-36.22,18.9-77.73,18.9-77.73Z" class="AB"/></clipPath><clipPath id="C"><path d="M485.17,419.15s12.11,16,12.11,21.12-2.93,8,16.79,22.46,48,39.74,54.14,24.87-33.56-33.19-50-60.49S493.13,392,493.13,392Z" class="AB"/></clipPath><clipPath id="D"><path d="M280.89 323.33s-12.82 51.78 37.7 54.4 88.57-62.07 104-36.4 30.54 67.3 57.43 82l28.39-17.87s-46.68-123.73-72.32-126.84c-11.81-1.43-59-.84-103.91 13.95-20.09 6.61-51.29 30.76-51.29 30.76z" class="AB"/></clipPath><clipPath id="E"><path d="M293 286.2c11.52-20.8 22.11-29.57 24.34-35.44 4.86-12.74-2.2-49.43-2.2-49.43s-32.9 33.48-54.23 39.67-130-48.42-130-48.42l24.74-11.06 99.76 19.63s37.7-56.86 54.43-78.53c10.73-13.88 39.73-17.38 63.5-14.93 1.4.14-2 1-2 2 .2 4.5-5 15.23-.44 16 2.73.48 10.8 9.51 16.43 7.52 10.46-3.7 19.62-19.9 20.58-19.58 37.56 12.39 50.7 25.33 55.3 32.87l.5-.66s43.34 98.79 25.58 115.16-108.07 29.58-108.07 29.58l-.75-4.13c-24.13 2.08-55.51 15.27-93.16 34.77-3.16 1.64-9 4.19-9 4.19s9.49-29.86 14.69-39.21zm129.29-32.65c17.72-7.29 34-14.29 34-15.5 0-2.3-15.08-36.87-19.13-46.09a165.52 165.52 0 0 0-14.88 61.59z" class="AB"/></clipPath><clipPath id="F"><path d="M377.83 274.05a31.56 31.56 0 0 1-12.25 0c-4.37-1.48-8.91-7-22.71-3.49s-28.16 8.5-23.32 9.91 19.14-2.47 19.14-2.47-18.78 9.8-17.92 17.79a2.85 2.85 0 0 0 3.86 1.16 3.14 3.14 0 0 0 .59-.42s.41 5.11 3.74 3.88 11-11.18 17.28-12.11c0 0-13.2 11.22-11.25 14.46s11.23-10.71 18.41-12.17 2.81 5.81 26.64-2.05z" class="AB"/></clipPath><clipPath id="G"><path d="M330 477.08s37.62 7.45 28.83 16.2-58.83 17.12-61.22 13.78-9.84-28.15-9.84-28.15l34.74-15.69z" class="AF"/></clipPath><clipPath id="H"><path d="M280,498.86s31.48,21.91,19.93,26.4-60.75-7.89-61.62-11.92,2.27-29.73,2.27-29.73l38.11-.45Z" class="AF"/></clipPath><clipPath id="I"><path d="M80.68 257.84c3.47-51 5.8-63.7 11.77-71.16s27.72-10.64 43.08-11.24 37.78 3.74 44.16 8.11 10.23 23 9.24 46.1c-.86 20-5.07 41.31-4.9 50.58.31 17.21 3.69 23.85 6.15 36.65-19.18 13.37-93.52 20.53-109.46 17.33-1.57-17.4-1.72-51.68-.04-76.37z" fill="#fff"/></clipPath><clipPath id="J"><path d="M158.88 165.3l-22.62-3.3-2.48 18.65a4.86 4.86 0 0 0 1.09 3.76 19.39 19.39 0 0 0 12.81 7c6.94.81 7.82-2.38 7.72-4.36a23.75 23.75 0 0 1 .48-5.5z" class="AD"/></clipPath><path id="K" d="M112 316.6s-10.92 51.59 20.5 52.4l116.06 4.09 40.09 117 48-17.43S302.2 343.62 289.21 333s-95.53-17.19-111.46-16.78-65.75.38-65.75.38z"/></defs><g class="E"><path d="M163.63 392.41v182.38M89.84 392.41l-23 182.38m174.03-182.38l22.21 182.38" stroke="#8098af" class="AB AC AG AO"/><path d="M18.69,183H155.22l18.3,174.84a21.07,21.07,0,0,0,21,18.88h95.28a7.86,7.86,0,0,1,7.85,7.85h0a7.85,7.85,0,0,1-7.85,7.85H64.05a27.27,27.27,0,0,1-27.14-24.6Z" fill="#ffe39b"/><path d="M19.3,188a5.68,5.68,0,0,1,5.1-6.21,5.25,5.25,0,0,1,.56,0h0A7,7,0,0,1,31.88,188L49.54,357.81a21.08,21.08,0,0,0,21,18.9H196.77a7.85,7.85,0,0,1,7.85,7.85h0a7.84,7.84,0,0,1-7.85,7.85H64.06a27.28,27.28,0,0,1-27.14-24.62Z" fill="#e6b147"/><path d="M385.8 392.41v182.38m73.8-182.38l23 182.38M308.56 392.41l-22.21 182.38" stroke="#8098af" class="AB AC AG AO"/><path d="M530.74,183H394.21l-18.3,174.84a21.07,21.07,0,0,1-21,18.88H259.67a7.86,7.86,0,0,0-7.86,7.85h0a7.85,7.85,0,0,0,7.86,7.85H485.38a27.28,27.28,0,0,0,27.15-24.6Z" fill="#ffe39b"/><path d="M530.13,188a5.68,5.68,0,0,0-5.1-6.21,5.25,5.25,0,0,0-.56,0h0a7,7,0,0,0-6.92,6.23L499.89,357.81a21.08,21.08,0,0,1-21,18.9H352.66a7.85,7.85,0,0,0-7.85,7.85h0a7.84,7.84,0,0,0,7.85,7.85H485.37a27.27,27.27,0,0,0,27.14-24.62Z" fill="#e6b147"/><path d="M369,113.82s-32.68,2.29-37.12-24.34,25.27-40.14,25.27-40.14S347.61,20.56,372,12.91c0,0,15.15-21.68,44.32-8.85S432,44.41,445.73,51.16s31.48,11,25.63,32.36c0,0,22.41,18.69,11.31,52.59s-68,17.91-61.21-11.52c0,0-19.29,5.33-23.07-6.69S369,113.82,369,113.82Z" class="AK"/><path d="M403.67 83.7a34 34 0 0 1 2.92-15c11.67-.2 11.67-11.52 7.72-13s-7.29 4.1-7.29 4.1c1.55-11-9.61-2.39-14.7-20.34s-20.7-10.46-23.11-5.81-22.15 53.23 8.6 59a60.09 60.09 0 0 1-2.7 15.69 79.07 79.07 0 0 1-2.9 8.34c-5.1 8.49-21.27 28.78-6.28 39.28s43.5-12.05 41.46-29.51-3.39-34.04-3.72-42.75z" class="AD"/><g clip-path="url(#A)" class="AH"><path d="M376.24 92.34S389.31 96 399 79.18c0 0-4.11 31.86-23.28 32.55s.52-19.39.52-19.39z"/></g><path d="M376.19,49.13a39.46,39.46,0,0,1-3.5,11.53c-2.62,4.86-4.82,7.91,3.54,8.41" stroke="#9d3f28" class="AB AC AE AG"/><ellipse cx="368.93" cy="49.35" rx="1.75" ry="1.74" transform="matrix(.139173 -.990268 .990268 .139173 268.71 407.82)" class="AK"/><g stroke="#324a83" class="AB AE"><ellipse cx="367" cy="49.33" rx="7.18" ry="7.13" transform="matrix(.139173 -.990268 .990268 .139173 267.07 405.9)"/><ellipse cx="384.41" cy="54.2" rx="7.18" ry="7.13" transform="matrix(.139173 -.990268 .990268 .139173 277.23 427.33)"/></g><ellipse cx="384.67" cy="54.04" rx="1.75" ry="1.74" transform="matrix(.139173 -.990268 .990268 .139173 277.62 427.44)" class="AK"/><path d="M381.3 45.2s8.86-1.09 12 5.37m-26.16-10a5.5 5.5 0 0 1 5.47 1.65" stroke-width=".83" class="AB AC AG AI"/><g class="AE AC"><path d="M367,72.26a12.67,12.67,0,0,0,15.29,3.53s-5.53,6-9.6,4.8S367,72.26,367,72.26Z" fill="#fff" stroke="#9d3f28"/><g stroke="#324a83" class="AB"><path d="M391.67,53.81l17.69.72" class="AG"/><path d="M374.1,49.57,377.85,51"/></g></g><path d="M362.21 496.67s-10.43 9.18-12.85 20.71-2.92 31.69-5.64 47.6.92 40 22.22 42.65 23.52-48.7 15.9-62.88-19.63-48.08-19.63-48.08z" class="AF"/><path d="M391.74,475.66s-10.58,33-10.58,44.57,3.13,51.38-7.91,54.9-25.72-1.82-20.42-36.22,18.9-77.73,18.9-77.73Z" class="AD"/><g clip-path="url(#B)" class="AH"><path d="M393.36,478.08a40.77,40.77,0,0,1-29,8.78c-16.53-2,4.3-18.69,4.3-18.69Z"/><path d="M372.32 482.43s-18.32 46.75-15.25 94.71-22.84-45.4-22.84-45.4l24.61-63.57z"/></g><path d="M497.28 440.27s-8.45 10.85-3.33 16.92 34.44 37.79 42.22 44.69 26.22 16.78 40 13.27 20.55-17.94-12.75-42.17a218.8 218.8 0 0 0-66.14-32.71z" class="AF"/><path d="M485.17,419.15s12.11,16,12.11,21.12-2.93,8,16.79,22.46,48,39.74,54.14,24.87-33.56-33.19-50-60.49S493.13,392,493.13,392Z" class="AD"/><g clip-path="url(#C)" class="AH"><path d="M508,405.8l-22.79,26.74-5-15.2Z"/><path d="M492.77,420.6s10.86,15.76,10.86,19.67,36,42.77,64,51.86-20,9.44-20,9.44l-66.18-57.4Z"/></g><path d="M395.25 334s-33 35.59-33 134.12c0 0 17.2 13.84 33 9.79 0 0 12.66-41.74 18.93-58.52a248.62 248.62 0 0 1 19.57-43.15c17.55-28.76-11.61-50.83-23.21-50.83-11.81.02-15.29 8.59-15.29 8.59z" fill="#df775d"/><path d="M280.89 323.33s-12.82 51.78 37.7 54.4 88.57-62.07 104-36.4 30.54 67.3 57.43 82l28.39-17.87s-46.68-123.73-72.32-126.84c-11.81-1.43-59-.84-103.91 13.95-20.09 6.61-51.29 30.76-51.29 30.76z" fill="#ff9378"/><g clip-path="url(#D)"><path d="M312,305.83s-14,44.9,21.34,42.21,71-42,91.28-5.21-118.09,80.52-118.09,80.52L258,379.63l11.26-62.47Z" fill="#df775d"/></g><path d="M280.62 325.43c-12.22 61.49 46.08 53.83 57.79 50.6s19.37-6.88 46.33-25.3 32.23-18.85 39.82-5.8 34.34 71.31 55.44 78.41l28-17.55" stroke="#301913" class="AB AC AE"/><path d="M293 286.2c11.52-20.8 22.11-29.57 24.34-35.44 4.86-12.74-2.2-49.43-2.2-49.43s-32.9 33.48-54.23 39.67-130-48.42-130-48.42l24.74-11.06 99.76 19.63s37.7-56.86 54.43-78.53c10.73-13.88 39.73-17.38 63.5-14.93 1.4.14-2 1-2 2 .2 4.5-5 15.23-.44 16 2.73.48 10.8 9.51 16.43 7.52 10.46-3.7 19.62-19.9 20.58-19.58 37.56 12.39 50.7 25.33 55.3 32.87l.5-.66s43.34 98.79 25.58 115.16-108.07 29.58-108.07 29.58l-.75-4.13c-24.13 2.08-55.51 15.27-93.16 34.77-3.16 1.64-9 4.19-9 4.19s9.49-29.86 14.69-39.21zm129.29-32.65c17.72-7.29 34-14.29 34-15.5 0-2.3-15.08-36.87-19.13-46.09a165.52 165.52 0 0 0-14.88 61.59z" fill="#56d4b7"/><g clip-path="url(#E)" fill="#4bc5a9"><path d="M311.49 163.91c0-26.67 0 57.87 25.37 61.9a33.55 33.55 0 0 0 29.8-9.26s21.5 24.2 44.23 10.07c0 0 8.85-5.33 15.51-28.85 0 0 11.17 39.5-4.88 43.93s-45.38-3.18-53.2 7.16-25.24 4.14-25.24 12.34 34.64 8.22 34.64 8.22l2.65 21.19-111.17 45.25 20.37-87.75L315.13 210v-8.72l-2.7-26.93-.94-10.44z"/><path d="M311.49 163.91c7.66-21.11-38.2 87.61-63.69 69.14-34.52-25-33.53-23.49 8.4 28.3l42.29-66.15 16.63 6.13s-3-16.08-3.63-24.55a65.5 65.5 0 0 1 0-12.87zm-165.3 17.65l109.9 21.66 13-28.93-109.17-12.18zm278.96-10.32s4.75 30.5-8.47 52.56-10.91 14.25-10.91 14.25 22.62-2.92 26.47-16.76a198.78 198.78 0 0 0 5.38-28z"/></g><path d="M377 102.69l-1.44 4.88c-3.75 13.13-2.6 20.49 4.82 22.43 12.49 3.27 25-24 25-24s12.16 39.93-.77 42.51-24.2-14.14-24.2-14.14-29.34 6.81-30.7-2.06S377 102.69 377 102.69z" fill="#fff"/><g stroke="#301913" class="AB AC AE"><path d="M130.89 192.62l24.74-11.06 99.76 19.63s9.09 14.47 4.54 27.7m-4.54-27.71s2.71 15.74-5.07 18.63m130.57 70.81l-3.16-21.2s61-21.4 78.51-31.37a26 26 0 0 1 16.34 1.74"/><path d="M456.23 238.05a11.1 11.1 0 0 1 9.45-8M298 212.35l17.15-11c-2.28-15.71-3.5-21.55-3.64-37.42m113.64 6.14s16.55 29.75 21.69 43.52 9.39 23.68 9.39 23.68"/><path d="M315.13,199.81c2.06,8.59,3.36,27.35,3.91,36.17.52,12.44-1.11,16-11.09,28s-27.52,46.08-29,60.59l19.53-9.05"/></g><path d="M377.83 274.05a31.56 31.56 0 0 1-12.25 0c-4.37-1.48-8.91-7-22.71-3.49s-28.16 8.5-23.32 9.91 19.14-2.47 19.14-2.47-18.78 9.8-17.92 17.79a2.85 2.85 0 0 0 3.86 1.16 3.14 3.14 0 0 0 .59-.42s.41 5.11 3.74 3.88 11-11.18 17.28-12.11c0 0-13.2 11.22-11.25 14.46s11.23-10.71 18.41-12.17 2.81 5.81 26.64-2.05z" class="AD"/><g clip-path="url(#F)" class="AH"><path d="M377.73,273.44l-1.45,17.83,7.11-2.49Z"/></g><path d="M364.08 273.4s-10.43-5.69-20.58-2.84-26 6.25-24.91 9.16 17.69-.89 19.41-1.61c0 0-16.11 9.68-17 15.12s4.23 3.33 4.23 3.33m-.01 0s4-8 16.27-13.92" stroke="#99776c" class="AB AC AE"/><path d="M330 477.08s37.62 7.45 28.83 16.2-58.83 17.12-61.22 13.78-9.84-28.15-9.84-28.15l34.74-15.69z" class="AF"/><g clip-path="url(#G)"><path d="M307.79 500.6c-4.37-3.29-9.1-6.53-14.54-7.17-1-.12-2.2 0-2.71.82a2.51 2.51 0 0 0-.21 1.51c.28 2.9 1.84 5.52 3.53 7.9a27.74 27.74 0 0 0 6.05 6.5 13.18 13.18 0 0 0 8.31 2.74c2.23-.11 7.46-1.91 7.3-4.87-.14-2.62-5.82-6.03-7.73-7.43z" class="AJ"/><g class="AF"><path d="M343.45 496.72c-.2 2.69.05 5.77 2.15 7.47s5.57 1.19 8.17-.05a17.92 17.92 0 0 0 8.42-8.05 13.68 13.68 0 0 0 .39-11.48 18.2 18.2 0 0 0-2.42-3.77 13.5 13.5 0 0 0-4.52-4c-1.62-.77-4.31-1.21-5.69.2s-2.29 4.09-3.06 5.82a41.3 41.3 0 0 0-3.44 13.86z"/><path d="M337.35 500.3a80.81 80.81 0 0 1-21.14 1.8c-3.67-.1-7.95-.83-9-4.47-.81-2.8.74-6.13 2.56-8.8a37.65 37.65 0 0 1 11.42-10.91 46.18 46.18 0 0 0 5.48-3.45 9.07 9.07 0 0 0 3.46-5.53 5.84 5.84 0 0 0-2.49-5.46 12.36 12.36 0 0 0-5.73-1.81c-9-1.1-19.06.77-27.1 7.12s-13.35 17.75-11 27c1.26 5 4.48 8.82 8.18 11.8 8.78 7.09 20.71 9.88 32.59 7.61a53.22 53.22 0 0 0 23.25-11.2c3.28-2.67 11-7.7 13.35-11.39 3.53-5.57-5.42.93-7.22 2-4.71 2.88-11.53 4.48-16.61 5.69z"/></g></g><path d="M280,498.86s31.48,21.91,19.93,26.4-60.75-7.89-61.62-11.92,2.27-29.73,2.27-29.73l38.11-.45Z" class="AF"/><g clip-path="url(#H)"><path d="M250.23 511.5c-2.69-4.76-5.73-9.63-10.45-12.39-.86-.51-2-.92-2.81-.34a2.52 2.52 0 0 0-.8 1.3c-.9 2.78-.52 5.8.07 8.66a27.78 27.78 0 0 0 2.94 8.38 13.13 13.13 0 0 0 6.51 5.84c2.09.79 7.6 1.24 8.64-1.53.92-2.42-2.93-7.84-4.1-9.92z" class="AJ"/><g class="AF"><path d="M284.45 522.25c-1.26 2.38-2.27 5.31-1 7.7 1.32 2.55 4.62 3.33 7.5 3.23a17.87 17.87 0 0 0 10.94-4 13.67 13.67 0 0 0 5-10.36 18.36 18.36 0 0 0-.7-4.42 13.45 13.45 0 0 0-2.56-5.44c-1.17-1.35-3.46-2.84-5.29-2.1s-3.74 2.83-5.13 4.1a41.6 41.6 0 0 0-8.76 11.29z"/><path d="M277.43 523.09a81 81 0 0 1-20.09-6.83c-3.32-1.57-7-4-6.46-7.71.38-2.89 3.14-5.32 5.87-7a37.68 37.68 0 0 1 14.84-5.43 43.76 43.76 0 0 0 6.4-1 9.06 9.06 0 0 0 5.39-3.67 5.87 5.87 0 0 0-.1-6 12.3 12.3 0 0 0-4.52-3.95c-7.8-4.61-17.77-6.94-27.69-4.34s-19.33 10.9-20.88 20.29c-.83 5 .57 9.87 2.76 14.09 5.2 10 15 17.34 26.81 20a53.2 53.2 0 0 0 25.8-.92c4.07-1.12 13.17-2.63 16.79-5.07 5.47-3.69-5.33-1.33-7.43-1.05-5.47.78-12.35-.5-17.49-1.41z"/></g></g><use xlink:href="#K" fill="#f44259"/><use xlink:href="#K" class="AM"/><path d="M338.34 475.13l-48.85 17.25-8.22-14.88 53.77-19.77 3.3 17.4z" class="AL"/><path d="M338.34 475.13l-48.85 17.25-8.22-14.88 53.77-19.77 3.3 17.4z" class="AM"/><path class="h AL" d="M315.05 478.57a66.34 66.34 0 0 0 10.78-12 47.74 47.74 0 0 0 4-6.9l5.2-1.91 3.3 17.41-37.79 13.35a71 71 0 0 0 14.51-9.95z" opacity=".27"/><path d="M84.28 318.64S73 373.43 105.59 374.3L226 378.64l9.24 118.08L284.6 495s-2.92-147.64-16.39-159-99.14-18.26-115.66-17.82-68.27.46-68.27.46z" fill="#955454"/><path class="j" d="M248.26 495.11a54.2 54.2 0 0 0 3.64-11.05l2.69-11.85a229.16 229.16 0 0 0 3.83-28.46l2-24.95c.7-7.92 1.34-15.84 1.44-23.79.19-15.43-1.73-31.31-10.7-44.3a97.75 97.75 0 0 0-27.81-26.41c20.71 3 39.19 7 44.87 11.73 13.47 11.31 16.39 159 16.39 159l-37 1.3c.21-.44.45-.82.65-1.22zM84.28 318.64h11.64l.1 2.36a72.18 72.18 0 0 0 1.37 10.15 37.18 37.18 0 0 0 2.86 9.25c3 5.82 8.45 10.06 13.84 13.49a96.68 96.68 0 0 0 18.14 9c13.55 5.05 28 7.55 42.29 9.18 9.61 1.09 19.24 1.55 28.87 2.38 4.7.41 9.42.89 14.07 1.73a37.81 37.81 0 0 1 5.25 1.25 5.71 5.71 0 0 1 2.29 1.17l-119.43-4.3c-32.57-.87-21.29-55.66-21.29-55.66z" opacity=".1" fill="#f44259"/><path d="M247.73 477.09h0a.46.46 0 0 0 .44-.5l-.21-2.85a.44.44 0 0 0-.51-.44.48.48 0 0 0-.44.51l.21 2.84a.49.49 0 0 0 .51.44zM117.73 342a29.25 29.25 0 0 1-3.73-4.34.48.48 0 1 0-.78.55 31.62 31.62 0 0 0 3.84 4.48.481.481 0 0 0 .67-.69zm9.74 5.19c-3.06-.39-3.88-.67-4.1-.8l-1.2-.77a.47.47 0 0 0-.66.13.48.48 0 0 0 .12.66l1.25.8c.4.24 1.17.5 4.47.92h.06a.48.48 0 0 0 .47-.42.47.47 0 0 0-.41-.5zm11.61 1.1l-5.82-.49a.45.45 0 0 0-.51.43.48.48 0 0 0 .43.52l5.83.48h0a.48.48 0 0 0 .48-.44.47.47 0 0 0-.41-.48zm11.64.82l-5.82-.39a.45.45 0 0 0-.51.44.46.46 0 0 0 .44.5l5.83.4h0a.48.48 0 0 0 .48-.45.47.47 0 0 0-.42-.48zm11.65.72l-5.82-.35a.46.46 0 0 0-.51.44.49.49 0 0 0 .45.51l5.83.36h0a.5.5 0 0 0 0-1zm11.65.69l-5.83-.34a.47.47 0 0 0-.5.45.49.49 0 0 0 .45.51l5.82.34h0a.5.5 0 0 0 0-1zm11.64.67l-5.82-.33a.47.47 0 0 0-.5.45.48.48 0 0 0 .45.5l5.82.34h0a.5.5 0 0 0 0-1zm11.65.68l-5.82-.34a.48.48 0 1 0-.06.95l5.83.34h0a.47.47 0 0 0 .47-.45.47.47 0 0 0-.42-.48zm11.66.72l-5.83-.37a.46.46 0 0 0-.5.45.48.48 0 0 0 .44.51l5.83.35h0a.47.47 0 0 0 .47-.45.46.46 0 0 0-.38-.47zm11.65.79l-5.83-.41a.45.45 0 0 0-.5.44.48.48 0 0 0 .44.51l5.82.41h0a.5.5 0 0 0 0-1zm11.67 1.07l-5.84-.6a.46.46 0 0 0-.51.43.49.49 0 0 0 .43.52l5.8.59h.06a.48.48 0 0 0 .47-.42.47.47 0 0 0-.41-.5zm4.73 3.09a.47.47 0 0 0-.57-.35.48.48 0 0 0-.35.57c.3 1.29.64 3.22 1 5.72a.48.48 0 0 0 .47.4h.07a.49.49 0 0 0 .41-.54l-1.05-5.78zm2.23 15.18l-.43-3.59a.48.48 0 0 0-.95.12l.41 3.44.27 2.35a.49.49 0 0 0 .48.42h.05a.48.48 0 0 0 .42-.53l-.25-2.19zm.88 8a.49.49 0 0 0-.53-.42.48.48 0 0 0-.42.53l.59 5.79a.47.47 0 0 0 .48.43h0a.47.47 0 0 0 .43-.52l-.55-5.78zm1.16 11.62a.45.45 0 0 0-.52-.43.46.46 0 0 0-.43.52l.54 5.8a.47.47 0 0 0 .48.43h0a.47.47 0 0 0 .43-.52l-.5-5.77zm1.07 11.66a.44.44 0 0 0-.51-.43.48.48 0 0 0-.44.52l.52 5.8a.48.48 0 0 0 .47.44h0a.48.48 0 0 0 .43-.52zm1 11.62a.45.45 0 0 0-.51-.43.47.47 0 0 0-.44.51l.5 5.81a.47.47 0 0 0 .47.44h0a.49.49 0 0 0 .44-.52zm1 11.62a.47.47 0 0 0-.51-.44.48.48 0 0 0-.44.52l.48 5.81a.48.48 0 0 0 .47.44h0a.49.49 0 0 0 .44-.52zm.95 11.63a.48.48 0 1 0-.95.07q.24 3 .46 5.82a.48.48 0 0 0 .48.44h0a.47.47 0 0 0 .44-.51q-.19-2.87-.43-5.84zm.92 11.62a.45.45 0 0 0-.52-.43.47.47 0 0 0-.43.51l.45 5.82a.48.48 0 0 0 .47.43h0a.48.48 0 0 0 .44-.51zm.89 11.64a.45.45 0 0 0-.51-.44.48.48 0 0 0-.44.51l.44 5.82a.48.48 0 0 0 .48.44h0a.48.48 0 0 0 .44-.51z" class="AM"/><path d="M111.12 333.85a.47.47 0 0 0 .17 0 .46.46 0 0 0 .27-.61 17.19 17.19 0 0 1-.79-2.67.51.51 0 0 0-.57-.37.49.49 0 0 0-.37.57 17.68 17.68 0 0 0 .85 2.81.47.47 0 0 0 .44.27z" class="AL"/><path d="M285.62 496.5l-51.78 1.55-3.3-16.68 57.23-2.46-2.15 17.59z" fill="#955454"/><path class="h AL" d="M262.39 492.68a66.07 66.07 0 0 0 13.93-8.19 48.24 48.24 0 0 0 5.93-5.34l5.52-.24-2.15 17.58-40.06 1.2a71.58 71.58 0 0 0 16.83-5.01z" opacity=".27"/><path d="M193.43,209.59s33.58,38,38.53,39.57,57,10.44,57,10.44l2.78,16.68s-63.19,6.18-70.42,1.86-50-40.44-50-40.44Z" class="AH"/><path d="M216.75 229.08s-27.87-43.82-40.07-47-35.44 6.19-22.43 30.51a211.18 211.18 0 0 0 29.61 41.7s25.03-3.05 32.89-25.21z" class="AN"/><path class="l AJ" d="M172 181.5a112.3 112.3 0 0 1 8.86 14.13c3.29 6.06 6.21 12.31 9 18.6s5.51 12.88 7.73 19.52a129.23 129.23 0 0 1 3.82 14 48.18 48.18 0 0 1-17.59 6.56 211.18 211.18 0 0 1-29.61-41.7c-11.45-21.48 5.32-31.29 17.79-31.11z" opacity=".38"/><path d="M80.68 257.84c3.47-51 5.8-63.7 11.77-71.16s27.72-10.64 43.08-11.24 37.78 3.74 44.16 8.11 10.23 23 9.24 46.1c-.86 20-5.07 41.31-4.9 50.58.31 17.21 3.69 23.85 6.15 36.65-19.18 13.37-93.52 20.53-109.46 17.33-1.57-17.4-1.72-51.68-.04-76.37z" fill="#fff"/><g clip-path="url(#I)"><path d="M162.27 187.29a7.66 7.66 0 0 1-2.05 6.53c-1.6 1.75-4 2.6-6.22 3.22-4.37 1.2-14.26-.09-18.7-5.07-7.4 17.57-15.94 36.27-33.21 45.71a44.63 44.63 0 0 1-15.3 5.53c-5.4.71-11.1-.23-15.28-3.43-4.94-3.79-7.17-10.26-7.17-16.62s2-12.61 4.23-18.63c3.87-10.31 8.82-20.53 16.87-28 12.12-11.26 29.3-14.56 45.15-15.1 13.34-.45 26.65.73 38.85 5s23.08 11.75 30.29 22.36c9.32 13.72 11.63 32.57 5.93 48.92-.9.11-2.38.3-3.15-.18-8.52-5.36-12.85-15.67-18.17-24.62a100.06 100.06 0 0 0-22.07-25.62z" class="AN"/><g class="AJ"><path class="n" d="M109.33 302.14c2.24 6.95 4.78 14.12 10 19.2 8.77 8.51 22.64 9 32.83 15.74-2.64 7.42-11.42 10.33-19.11 12.07-15.16 3.45-31.33 6.1-46 1-5-1.75-9.78-4.52-12.64-8.92-2.26-3.47-3.12-7.65-3.76-11.74-3.23-20.5-2.3-41.42-1.12-62.14q1.87-32.72 4.6-65.35c.53-6.19 1.19-12.67 4.65-17.82a18.42 18.42 0 0 1 8.77-7c5.49-2 4.51 2.06 4.19 6.29a232.25 232.25 0 0 0-.29 29.26 309.84 309.84 0 0 0 8.76 57.27c2.62 10.88 5.71 21.57 9.12 32.14z" opacity=".24"/><path class="n" d="M147.65 330.61c8.09-2.93 15.87-5.61 23.43-9.62 3.55-1.89 7.18-4.09 8.84-7.43a55.21 55.21 0 0 0-12.71.4l-20.52 2.25c7.21-2.43 13.94-6.41 20.48-10.13 3.29-1.87 12.5-5.67 9.84-10.94-.9-1.8-2.94-2.61-4.51-3.69-2-1.38-2.3-3.33-1.1-5.47 1.55-2.8 4.59-4.59 7.19-6.28a51.07 51.07 0 0 0 8-6.38 49.64 49.64 0 0 0 3.95-4.34c.53 4.22-.41 8.62-.22 12.91s1.54 8.49 2.52 12.72a74.45 74.45 0 0 1 1 28.94 11 11 0 0 1-1.77 5 12.76 12.76 0 0 1-5.4 3.63C176 336.73 164 338.06 152.13 339c-7.13.59-12.43-5.52-4.48-8.39z" opacity=".24"/></g></g><path d="M269.52 253.53c-2-4.89-6-9.14-10.68-12.36a17.33 17.33 0 0 0-4.66-2.41c-3.41-1-7.39-.54-10.62.21-4.11.94-7.9 2.64-11.75 4.11q-5.38 2-10.75 4.14a13.07 13.07 0 0 1-2.72 1.08l-61.1 7.1c-8.39-8.88-21.11-32.6-21.11-32.6s-22.71 2.77-29.53 15.87c-.08-.35 27.57 39.18 31.69 41.35s22.77-.93 45.32-6.78c17.07-4.42 31.83-9 38-11a16.27 16.27 0 0 0 3 .49c11.93.83 10.12-5.95 10.7-6.35L235 256c2.3.82 4.62 1.59 7 2.27.95.27 2.21.44 2.62-.31.31-.58-.15-1.32-.61-1.89a48.16 48.16 0 0 0-5.08-5.44l11.57 7.69c.77.51 1.82 1 2.52.58s.4-1.49 0-2.25a28.33 28.33 0 0 0-8.39-9.64l7.79 5.88c1.78 1.34 3.57 2.69 5.47 3.89 1.71 1.08 3.85 2.08 5.65 1.46a.79.79 0 0 0 .55-.43.87.87 0 0 0-.15-.63c-2.23-4.33-6.18-7.83-10-11.21l10.32 7.91c1.33 1 3 2.12 4.56 1.74a1.33 1.33 0 0 0 .83-.51 1.72 1.72 0 0 0-.13-1.58z" class="AD"/><path d="M143.35 254.45a30.58 30.58 0 0 0 5.68-9.94c-6.64-10-12.9-21.71-12.9-21.71s-22.71 2.77-29.53 15.87c0-.23 11.54 16.29 20.83 28.54 6.41-2.21 12.21-8.47 15.92-12.76z" class="AH"/><path class="o" d="M235.52 254.16c-2.8.34-5.23 1.5-7.92 2.14s-5.29.86-7.92 1.32c-7.09 1.26-13.81 3.73-20.5 5.93A375.54 375.54 0 0 1 160.55 274c-8 1.71-16.43 4-24.89 3.47a13.67 13.67 0 0 0 2.63 2.51c4.12 2.16 22.77-.93 45.32-6.78 17.07-4.42 31.83-9 38-11a16.27 16.27 0 0 0 3 .49c11.93.83 10.12-5.95 10.7-6.35L235 256c2.3.82 4.62 1.59 7 2.27a4.27 4.27 0 0 0 1.89.18 92.82 92.82 0 0 0-8.37-4.29z" fill="#ffc9af" opacity=".3"/><path d="M152.14 241c-2.12-2.93-19.09-29.48-24.92-39.37-3.07-5.21-6.51-10.48-11.62-14.39-3.63-2.78-13.85-9.08-21.22-.53-.39.45-.75.92-1.11 1.4s-.74 1.11-1.06 1.68c-4.88 8.47-3.45 20.08-.55 29.86a47.72 47.72 0 0 0 2.06 5.65 182.9 182.9 0 0 0 22.16 37.46c11.3-.76 30.61-11.01 36.26-21.76z" class="AN"/><path class="l AJ" d="M93 220.32c2.17 2.91 4.42 5.77 6.77 8.54 3.95 4.67 8.23 9.08 12.56 13.4s8.6 8.37 13.16 12.27c1.61 1.37 3.25 2.7 4.91 4-5.21 2.37-10.41 3.94-14.54 4.24a182.9 182.9 0 0 1-22.16-37.46 47.72 47.72 0 0 1-2.06-5.65l-.56-2 1.92 2.66z" opacity=".38"/><path d="M158.88 165.3l-22.62-3.3-2.48 18.65a4.86 4.86 0 0 0 1.09 3.76 19.39 19.39 0 0 0 12.81 7c6.94.81 7.82-2.38 7.72-4.36a23.75 23.75 0 0 1 .48-5.5z" class="AD"/><g clip-path="url(#J)" class="AH"><path d="M162.94 178.09c-12.1 15.35-25.28-14.13-26.15-18-.25-1.13 2.45-.89 3.9-.64 10.21 1.73 24.44 6.37 26.05 10.17s-2.16 6.38-3.8 8.47z"/></g><path d="M192.58 103.08a11.29 11.29 0 0 1 1.38 4 34 34 0 0 1 .21 10.79 11.3 11.3 0 0 1-1.42 4.5 12.06 12.06 0 0 1-5.27 4.08c-1.27.61-2.75 1.15-4.06.63a3.92 3.92 0 0 1-1.94-1.91c-1.52-2.81-1.08-6.18-.58-9.31a34.71 34.71 0 0 1 2.24-8.83 13.57 13.57 0 0 1 4.21-5.44c2.07-1.49 3.91-.59 5.23 1.49z" fill="#4c2603"/><path d="M186.33 130.39a86.29 86.29 0 0 1-1.25 16.07.23.23 0 0 0 0 .12l-.2 1.06c0 .12-.05.24-.07.36l-.43 1.89c-1 4.28-3.08 11.17-5.55 15.55-.25.45-.51.88-.77 1.27h0c-.11.17-.22.32-.33.47a10.6 10.6 0 0 1-.78 1c-5.21 5.71-16.76 4.84-19.28 4.29a48.62 48.62 0 0 1-23.55-12.75 39.82 39.82 0 0 1-7.13-9.49 36 36 0 0 1-2-4.48 35.33 35.33 0 0 1-2-9.26c0-.4-.06-.81-.08-1.22h0v-.9h0v-.67-.51c0-1.14.07-2.3.19-3.47 0-.43.08-.87.14-1.31a46.07 46.07 0 0 1 3.38-12.08c.27-.64.56-1.26.86-1.86a39.64 39.64 0 0 1 11.28-14h0a34.22 34.22 0 0 1 6.68-4.09c.67-.31 1.33-.59 2-.85a33.05 33.05 0 0 1 4.38-1.39 28.05 28.05 0 0 1 7.18-.83c9.94.12 18.61 5.77 23.41 16.18a40.84 40.84 0 0 1 3 9.68 54.1 54.1 0 0 1 .93 8.37c-.03.98-.01 1.92-.01 2.85z" class="AD"/><g opacity=".21" class="AH"><path d="M184.36 149.89c-1 4.28-3.08 11.17-5.55 15.55a5 5 0 0 1-.66-3.6 19 19 0 0 1 6.14-11.84zm-43.97 9.5a8.13 8.13 0 0 1-.71-.58c-3.8-3.28-8.09-10-4.24-15.1a7.28 7.28 0 0 1 8.27-2.11 12.34 12.34 0 0 1 6.28 6.34 13.2 13.2 0 0 1 1.52 6.76 7.85 7.85 0 0 1-3.26 6c-2.56 1.63-5.62.38-7.86-1.31z"/></g><g fill="#4c2603"><path d="M114.26 122.57a71.77 71.77 0 0 0 1.53 7.1c.25.88 1.27 6.36 2 6.62a2.65 2.65 0 0 0 1 .15 3.11 3.11 0 0 0 1.91-1c1.07-1 2.07-2.35 3.8-2.09 2.49.32 4.36 5.95 6.89 6 3.09.1 4.31-2.86 5.2-5.77a80.05 80.05 0 0 0-.71-11 5.7 5.7 0 0 1-.06-.58 5.05 5.05 0 0 1 .44-.68c1.91-2.67 5.11-1.65 7.94-3.08a21.49 21.49 0 0 0 4.91-2.78 16.28 16.28 0 0 0 4.36-5.53 41.2 41.2 0 0 0 2.11-5.64c3.73 4.4 8.65 7.35 14 9.8a66.9 66.9 0 0 0 11.85 4.38c3.13.77 8 1.58 10.69-.68 2.47-2.07 2.35-8.17 1.75-11.07-.91-4.38-3.95-7.32-7.35-10.12-9.27-7.62-21.15-12.72-33.33-13.32a45.76 45.76 0 0 0-8 .3A41.29 41.29 0 0 0 135 86.19a32.48 32.48 0 0 0-3.31 1.48c-.85.44-1.69.89-2.51 1.4a34.71 34.71 0 0 0-7.65 6.28 28.6 28.6 0 0 0-7 12.59v.2a37.87 37.87 0 0 0-.27 14.43z"/><path d="M121.55 95.35c2 .77 5.33-1.43 7-1.75 4.78-.85-.38 6 .11 7.66.53 1.88 3 2 4.64 1.77 2.76-.27 4.16-2.13 6.5-3.18a2.76 2.76 0 0 1 4 1.93c.36 1.32-1.31 4.71-.33 5.63 1.47 1.35 5.38-.83 6.42-1.77 2-1.75 3.47-5.1 2.38-7.66-.29-.82-2.47-1-3.35-1.54-1.83-.94-3.49-2.14-5.3-3.1-2.55-1.34-5-3.18-7.73-4.27a36.47 36.47 0 0 0-4.18-1.4l-2.51 1.4a34.71 34.71 0 0 0-7.65 6.28zM135 86.19a43.22 43.22 0 0 0 4 1.8 64.94 64.94 0 0 1 8.75 3.94 43.18 43.18 0 0 1 7.1 4.49c1.26 1.06 2.8 3.58 3.86 3.58 2.54 3.72 7.83 3.55 11.5 1.9 2.15-1 2.71-2.52.26-3.77-2.66-1.37-6-1.33-8.73-2.59-2.18-1-4.16-2.75-3.32-5.23.54-1.53 2.32-3.86-.37-4.44-2-.42-4.43 1.56-6.45 1.92a3.28 3.28 0 0 1-3.89-1.53 7.82 7.82 0 0 0-2.51-2.65 41.29 41.29 0 0 0-10.2 2.58z"/></g><path d="M180.31 140.18a1.67 1.67 0 0 0-1.76-1.93 2.39 2.39 0 0 0-2.12 2.16 1.67 1.67 0 0 0 1.75 1.93 2.41 2.41 0 0 0 2.13-2.16zm-21.09-3.36a1.74 1.74 0 0 0-1.82-1.94 2.3 2.3 0 0 0-2.1 2.12 1.73 1.73 0 0 0 1.82 1.94 2.3 2.3 0 0 0 2.1-2.12z" class="AK"/><path d="M171.41 158.86a24.63 24.63 0 0 1-8.5-2.13 29.36 29.36 0 0 1-7-4.86.23.23 0 0 0-.36.26c2.92 8 9.72 9.73 15.9 7.3.32-.14.34-.54-.04-.57z" fill="#fff" class="AC AE AI"/><path d="M128.81 136.54c-1.32-3.38-4.06-6.09-8-4.87a4.32 4.32 0 0 0-2.68 2.71 7.76 7.76 0 0 0-.23 3.83 11.72 11.72 0 0 0 5 8.16 4.37 4.37 0 0 0 3.64.75c1.65-.58 2.5-2.35 2.88-3.89a11.73 11.73 0 0 0-.61-6.69z" class="AD"/><path class="o" d="M124.41 133.42c1 1 1.49 2.3 2.41 3.24.65.66 1.06 1.64 2.17.52h0l-.21-.6c-1.23-3.17-3.72-5.75-7.27-5.06a8.34 8.34 0 0 1 2.9 1.9z" fill="#ffc9af" opacity=".3"/><path d="M10.51 287.08v288.77m88.05-288.77v288.77m403.32-288.77v288.77m88.05-288.77v288.77" stroke="#607385" stroke-width="5.99" class="AB AC AG"/><path d="M0 279.08h101.06v19.78H0z" fill="#a1bedb"/><path d="M100.06 279.08h505.03v19.78H100.06z" fill="#d0e6f6"/><g class="AB AI"><g class="AC AG"><path d="M167.77,135.85a26.2,26.2,0,0,0,1.42,7.79c1.34,3.37,2.55,5.53-2.94,5.23" class="AE"/><path d="M152.23 126.54s6-3.91 11.68-.39m12.98 2.38s5.82-1.39 8.24 3" stroke-width=".83"/></g><g class="AE"><ellipse cx="179.47" cy="141.21" rx="8.01" ry="8" transform="matrix(.172961 -.984929 .984929 .172961 9.34 293.55)"/><ellipse cx="157.98" cy="137.91" rx="8.01" ry="8" transform="matrix(.172961 -.984929 .984929 .172961 -5.18 269.66)"/><path d="M151.18 133.7l-26.33-8.35m47.43 12.34l-6.3-.81" class="AC AG"/></g></g><path d="M291.14 249.57s-.5-9.65-10.5-11.66-27.52 6.51-27.52 6.51L204 278.65l1.46 4.23 49.85-6.94 4.56 1.75 35-23 33.05-23.88-3.65-2.88S315 234.29 308.9 237s-15.01 7.59-17.76 12.57z" fill="#f5f5f5"/><path d="M203.22,284.28l41.57-25.83,43.94-7a6.08,6.08,0,0,0,5.94,2.41h0l36.14-25,.68,1.51-70.08,49.22a6,6,0,0,1-6.1-1.19Z" fill="#8098af"/><path d="M288.73 251.4a2 2 0 0 1-.34.27l-1 .74-3.71 2.72c-3.12 2.31-7.35 5.62-11.94 9.37l-11.64 9.76-3.48 3-1 .81a1.78 1.78 0 0 1-.35.26 1.7 1.7 0 0 1 .29-.32l.91-.87c.79-.74 1.95-1.8 3.41-3.09 2.9-2.59 7-6.1 11.56-9.86s8.86-7 12-9.29c1.57-1.14 2.87-2 3.78-2.62l1.06-.68a1.69 1.69 0 0 1 .45-.2z" fill="#1a2e35"/><path d="M288.28 246c-4-4.27-10.25-5.8-16.08-5.34s-11.36 2.63-16.79 4.78l-50.85 34.81.45 1.3L256.14 247s11.41-3.69 16.47-4.31c8.47-1.07 15.67 3.31 15.67 3.31zm7.98 4.6l24.45-16.49s-20.03 10.41-24.45 16.49z" fill="#e1e1e1"/><g fill="#1a2e35"><path d="M204.56 280.27s.06-.07.2-.17l.63-.45 2.44-1.72 9-6.24 29.81-20.46 8.65-5.92h0a61.46 61.46 0 0 1 15.47-4.65 23.12 23.12 0 0 1 12.67 1.79 15.55 15.55 0 0 1 4.06 2.73 12 12 0 0 1 2.31 2.82 9.71 9.71 0 0 1 .88 2.13l.13.58c.03.15 0 .2 0 .2a11.34 11.34 0 0 0-3.44-5.64 15.63 15.63 0 0 0-4-2.65 23 23 0 0 0-12.53-1.62 62 62 0 0 0-15.36 4.66h0l-8.65 5.92L217 271.92l-9.07 6.14-2.48 1.65-.65.42z"/><path d="M249.07 254s.13-.1.38-.24l1.14-.61 4.26-2.06a56 56 0 0 1 14.92-4.56 32.45 32.45 0 0 1 15.48 1.41 23.54 23.54 0 0 1 4.27 2c.49.28.83.55 1.08.72a1.88 1.88 0 0 1 .35.27l-1.5-.86a26 26 0 0 0-4.3-1.92 33 33 0 0 0-15.33-1.29A58.84 58.84 0 0 0 255 251.3l-4.31 1.95-1.16.54a2.3 2.3 0 0 1-.46.21zm77.55-24.25a1.2 1.2 0 0 1-.32.24l-.95.63-3.52 2.27-11.62 7.53-11.51 7.69-3.48 2.34-1 .62a1.61 1.61 0 0 1-.35.2 1.67 1.67 0 0 1 .3-.26l.92-.68 3.41-2.44 11.45-7.79 11.68-7.44 3.6-2.16 1-.57a1.82 1.82 0 0 1 .39-.18z"/></g><g class="AD"><path d="M304.38 256.22a17.09 17.09 0 0 1-1.9 3.4c-.93 1.11-4 2.68-4.26 4.8s.26 7.12-3.06 10.91a18.65 18.65 0 0 1-7.89 5.13l-13.12-1.28-21-8.25a1.84 1.84 0 0 1-1.34-2.2 2.65 2.65 0 0 1 2.19-2l.5-.08s-1.21-1 .52-2.71c1.49-1.49 4.62-.65 6.23-.11s11.12 4.51 12.82 5.12l2.67 1s-12.15-8.19-12.32-9.27a2.33 2.33 0 0 1 1.18-2.78c1.45-1.06 3.88.08 6.22 1.07 1.74.73 12.87 6.22 12.87 6.22s.5-.48 0-1.47-4.2-5.74-4.78-6.62-.73-1.38-.16-2.12c.82-1 3-1.55 4.91.24 1.25 1.15 5.67 4.12 5.67 4.12l20.42-14.89s2.54-.07 1.65 3.47-8.02 8.3-8.02 8.3z"/><path d="M289.17 268.63a4.05 4.05 0 0 1-2.21-1.1 4 4 0 0 1-1.46-2c.1-.06.69.86 1.71 1.7s2 1.29 1.96 1.4zm1.67-8.88c0-.05.27-.12.71-.07a3.11 3.11 0 0 1 1.57.7 3.16 3.16 0 0 1 1 1.41c.13.43.11.71.06.71a5.68 5.68 0 0 0-1.29-1.82 5.87 5.87 0 0 0-2.05-.93zm.96 4.1c-.11 0-.17-1.1-.6-2.35s-1-2.17-.95-2.24a5.47 5.47 0 0 1 1.55 4.59zm12.1-8.69s-.27-.11-.53-.47a3.25 3.25 0 0 1-.61-1.59 3.38 3.38 0 0 1 .24-1.68c.18-.4.38-.6.41-.57a7.3 7.3 0 0 0-.27 2.21 6.75 6.75 0 0 0 .76 2.1zm-18.47 18.61a3.3 3.3 0 0 1-1.44 0 9.62 9.62 0 0 1-3.24-1.21 18.51 18.51 0 0 1-2.78-2 5 5 0 0 1-1-1 5.32 5.32 0 0 1 1.18.8 32.61 32.61 0 0 0 2.81 1.9 11.72 11.72 0 0 0 3.1 1.27l1.37.24zm3.41-2.1c.1 0 .11.74-.51 1.34s-1.36.58-1.35.48.58-.25 1.08-.76.67-1.08.78-1.06zm5.01-3.67s0 .21-.09.47a1.78 1.78 0 0 1-.83.76 1.8 1.8 0 0 1-1.12.16c-.29-.06-.43-.17-.42-.22a5.51 5.51 0 0 0 1.38-.28c.7-.34.98-.89 1.08-.89zm-17.67 8.34c0 .1-4.92-1.94-10.9-4.55s-10.78-4.8-10.74-4.9 4.92 1.94 10.9 4.55 10.78 4.8 10.74 4.9z"/></g></g></svg>