<svg xmlns="http://www.w3.org/2000/svg" xmlns:xlink="http://www.w3.org/1999/xlink" viewBox="0 0 710.21 705.4" xmlns:v="https://vecta.io/nano"><style><![CDATA[.B{isolation:isolate}.m{mix-blend-mode:multiply}.AK{fill:none}.AL{stroke-miterlimit:10}.AM{fill:#f1b2a2}.AN{fill:#ffd3c8}.AO{stroke-width:1.42}.AP{stroke-width:.84}.AQ{stroke:#301913}.AR{stroke-linecap:round}.AS{fill:#a1bedb}.AT{stroke:#061537}.AU{fill:#061537}]]></style><defs><clipPath id="A" transform="translate(0 63.66)"><path d="M430.93,577.35,430,598l19.56,13.41s11.52,5.19,17.45-.5,4.66-20.74,4.66-20.74l.32-15.28Z" class="AK"/></clipPath><clipPath id="B" transform="translate(0 63.66)"><path d="M472.16,596.34s-6.09,1.51-10.91,3c-17.07,5.29-31.21,1.25-31.21-6.94,0,0-60.8,11.27-54.05,33.72h92.17a4.25,4.25,0,0,0,4.26-4.25v0Z" class="AK"/></clipPath><clipPath id="C" transform="translate(0 63.66)"><path d="M306.07,581.61l-1,16.39,19.56,13.41s14.09.82,18.56-3.47,3.56-17.76,3.56-17.76l.32-15.29Z" class="AK"/></clipPath><clipPath id="D" transform="translate(0 63.66)"><path d="M347.31,597.76a38.7,38.7,0,0,0-11.55,1.11c-16.29,4.86-30.58,1.54-30.58-6.46,0,0-60.64,12.41-54.05,33.72H343.3a4.25,4.25,0,0,0,4.26-4.25v0Z" class="AK"/></clipPath><clipPath id="E" transform="translate(0 63.66)"><path d="M606.71 142.06l1.61-20.55a9.24 9.24 0 0 1-8.37-6.22 243.43 243.43 0 0 1-5.35-24.2c9.79-5.59 4.64-19 0-17.93s-5.28 11.2-6.92 11.09 0-11.09 0-11.09c-9.41-1-6-13.22-6-13.22-15.88-1.45-22.9-8.42-22.9-8.42s-2.81 13.37-4.66 25.9c-.66 4.4-6.34 13-6.73 14.6s4.47 3.5 4.47 3.5-.78 31.28 23.14 31.28l-1.7 22z" class="AK"/></clipPath><clipPath id="F" transform="translate(0 63.66)"><path d="M479.82,272.44s-3.91,1.6-13.58-3.08-20.7-3.16-21.45-3.7,2.82-11,20.71-5.5c0,0-12-19.88-23.83-24s-2.74-5.14-2.74-5.14-1.31-2.92,3.59-2.69a19.28,19.28,0,0,1,8,2s-1.51-3.78,2.69-2.91a40,40,0,0,1,10.47,5.09s-8.19-6.46-8.19-8.23,2.15-1.24,3.22,0,26.75,16.71,30,22.85,12.06,9.29,12.06,9.29Z" class="AK"/></clipPath><clipPath id="G" transform="translate(0 63.66)"><path d="M420.71,408.93s-2.66,53.84-2.66,82.94,2.66,87.31,2.66,87.31h54.91l4.7-172-56.79-.93Z" class="AK"/></clipPath><clipPath id="H" transform="translate(0 63.66)"><path d="M612 353.22s-272-22.4-308.59 8.4-5.22 220-5.22 220h54.5s-2.3-158.78 6.53-161.62c3.72-1.21 21.7.75 54.51 1.06C432.82 421.24 591 420 591 420s21-3.36 25.4-24.52-4.4-42.26-4.4-42.26z" class="AK"/></clipPath><clipPath id="I" transform="translate(0 63.66)"><path d="M672 197s-3.82-38.24-30.86-48.32-51.48-13.48-92 4.19S472.34 296.3 465.58 300L397 262l-19.6 26.1s86.6 83.14 112.65 64.6l17.12.89L615 359.4s23.52-7.08 35-39.91S672 197 672 197z" class="AK"/></clipPath><clipPath id="J" transform="translate(0 63.66)"><path d="M393 267.14s-10.35-18.69-17-22.14-38.21-21.71-40.68-18.67 6.9 9.45 16.89 15-22.32-8.73-24.76-7.9-4.13 3.16 0 6.14a3.83 3.83 0 0 0-1.14 5.3 3.76 3.76 0 0 0 1.2 1.18l15.23 11.44s-13-5.35-14.11-4.15c-.55.59 4.6 6.45 23.58 17.37 6.68 3.93 27.79 13.49 27.79 13.49z" class="AK"/></clipPath><linearGradient id="K" x1="6027.06" y1="7182.33" x2="6027.3" y2="7178.04" gradientTransform="matrix(93.47, 0, 0, -51.5, -563069.26, 369932.12)" gradientUnits="userSpaceOnUse"><stop offset="0" stop-color="#d3f7ff"/><stop offset="1" stop-color="#dff4ff"/></linearGradient><linearGradient id="L" gradientTransform="matrix(93.47, 0, 0, -51.5, -563070.1, 369932.12)" xlink:href="#K"/><clipPath id="M" transform="translate(0 63.66)"><path d="M408.06 168.34c.58 3.67-3.66 6.9-9.48 7.22h-.89l-203.8.07c-5.57 0-10.27-2.74-10.68-6.26L180.64 147 166.78 26.9c-.41-3.67 4-6.84 9.78-7.06l203.7-.07c5.45 0 10.1 2.63 10.64 6.07l16.29 136.72z" class="AK"/></clipPath><clipPath id="N" transform="translate(0 63.66)"><path d="M245.68 82a20.38 20.38 0 0 0-1.75-9c-7-.12-7-6.89-4.62-7.75s4.36 2.46 4.36 2.46c-.92-6.57 5.75-1.44 8.8-12.17s12.38-6.27 13.82-3.5 13.25 31.85-5.14 35.28a35.61 35.61 0 0 0 1.61 9.38 48.27 48.27 0 0 0 1.74 5c3.05 5.08 12.72 17.21 3.75 23.5s-26-7.21-24.8-17.65 2.06-20.34 2.23-25.55z" class="AK"/></clipPath><clipPath id="O" transform="translate(0 63.66)"><path d="M252.81,316.46s6.33,19.74,6.33,26.66-1.87,30.73,4.73,32.84,15.39-1.09,12.22-21.66-11.31-46.5-11.31-46.5Z" class="AK"/></clipPath><clipPath id="P" transform="translate(0 63.66)"><path d="M196.93,282.65s-7.25,9.57-7.25,12.64,1.76,4.8-10,13.44-28.73,23.77-32.38,14.87,20.07-19.85,29.91-36.18,15-21,15-21Z" class="AK"/></clipPath><clipPath id="Q" transform="translate(0 63.66)"><path d="M319.12 225.34s7.67 31-22.55 32.54-53-37.13-62.21-21.77-18.27 40.25-34.36 49.05l-17-10.69s27.93-74 43.26-75.87c7.07-.85 35.31-.5 62.16 8.34 12.04 3.96 30.7 18.4 30.7 18.4z" class="AK"/></clipPath><clipPath id="R" transform="translate(0 63.66)"><path d="M344.6,119s7.84-15.84,15.39-17.35a91.41,91.41,0,0,0,11.63-8.08c3.15-3,4.27,1.44,2.69,3.09s-7.7,7.26-7.68,7.77,5.51.18,8.36-2.79,3.15-4.58,4.7-3.43a5.53,5.53,0,0,0,2.85-4.73c.29-3.57,3.35-4.11,3.37-3.68s-1.32,7.12-1.32,7.12,2.62-3.91,3.78-4a1.72,1.72,0,0,1,1.65,1.8,1.41,1.41,0,0,1-.07.41c-.3.94,2.88-1.59,2.09,1.89S375.4,114.35,367,114.65,353.84,126,353.84,126Z" class="AK"/></clipPath><clipPath id="S" transform="translate(0 63.66)"><path d="M311.88 203.13c-6.89-12.44-13.22-17.69-14.56-21.2-2.9-7.62 1.32-23.59 1.32-23.59s11.89 29 24.66 32.73 35.3-67.84 35.3-67.84l-14.8-6.62-19 39.26s-13-39.4-23-52.36c-6.41-8.3-23.76-8.6-38-7.13-.83.08 1.22.57 1.19 1.2-.12 2.69 3 9.11.26 9.6-1.63.29-6.46 5.69-9.83 4.5-6.26-2.21-11.74-11.9-12.31-11.71-22.46 7.41-30.33 15.15-33.08 19.66l-.29-.39s-25.93 59-15.31 68.84 64.65 17.69 64.65 17.69l.44-2.46c14.44 1.24 33.21 9.13 55.73 20.79 1.89 1 5.39 2.51 5.39 2.51s-5.64-17.88-8.76-23.48zm-77.33-19.53c-10.6-4.36-20.32-8.55-20.32-9.27 0-1.38 9-22.06 11.45-27.57a99 99 0 0 1 8.87 36.84z" class="AK"/></clipPath><clipPath id="T" transform="translate(0 63.66)"><path d="M261.13 195.86a18.84 18.84 0 0 0 7.33 0c2.61-.89 5.33-4.18 13.58-2.08s16.85 5.08 13.95 5.93-11.44-1.47-11.44-1.47 11.23 5.87 10.72 10.64a1.71 1.71 0 0 1-2.31.7 1.78 1.78 0 0 1-.36-.25s-.24 3-2.23 2.32-6.56-6.65-10.37-7.24c0 0 7.89 6.71 6.73 8.65s-6.72-6.41-11-7.29-1.68 3.48-15.94-1.22z" class="AK"/></clipPath></defs><g class="B"><path d="M11.93 401.31v281m99.95-281v281" stroke="#607385" stroke-width="5.68" class="AK AL AR"/><path d="M0 326.4h114.72v19.3H0z" class="AS"/><path d="M113.59 344.56h170.38v66.97H113.59z" fill="#d0e6f6"/><path d="M7.95 344.56h106.77v66.97H7.95z" class="AS"/><path d="M7.95 345.69h106.77v14.76H7.95z" fill="#91adc8"/><path d="M113.59 345.69h170.38v14.76H113.59z" class="AS"/><g stroke="#7c95ac" class="AK AL AO"><path d="M125.65 339.59h146.24v61.01H125.65z"/><rect x="180.18" y="372.51" width="41.74" height="9.93" rx="1.56"/></g><path d="M113.59 326.4H604.5v19.3H113.59z" fill="#d0e6f6"/><path d="M430.93 641.01l-.93 20.65 19.56 13.41s11.52 5.19 17.45-.5 4.66-20.74 4.66-20.74l.32-15.28z" class="AN"/><g clip-path="url(#A)" class="AM"><path d="M428.48 641.27l50.08 12.57v-20.8z"/></g><path d="M472.16 660s-6.09 1.51-10.91 3c-17.07 5.29-31.21 1.25-31.21-6.94 0 0-60.8 11.27-54.05 33.72h92.17a4.25 4.25 0 0 0 4.26-4.25h0z" fill="#2a3756"/><g clip-path="url(#B)"><path d="M370.31 685.53h110.67v19.86H370.31z" fill="#fff9f9"/></g><path d="M306.07 645.27l-1 16.39 19.56 13.41s14.09.82 18.56-3.47 3.56-17.76 3.56-17.76l.32-15.29z" class="AN"/><g clip-path="url(#C)" class="AM"><path d="M298 641.27l50 12.57v-20.8z"/></g><path d="M347.31 661.42a38.7 38.7 0 0 0-11.55 1.11c-16.29 4.86-30.58 1.54-30.58-6.46 0 0-60.64 12.41-54.05 33.72h92.17a4.25 4.25 0 0 0 4.26-4.25h0z" fill="#2a3756"/><g clip-path="url(#D)"><path d="M242.62 685.53h110.67v19.86H242.62z" fill="#fff9f9"/></g><path d="M559.33 114.48s-12.69-17.82 1.49-29.93 76.66 10.11 73.12 33.27c0 0 26 17.16-26.05 67.77 0 0-6.24.62-7.66-1.19-.06-.08-36.08-55.6-36.08-55.6z" fill="#4c2603"/><circle cx="551.91" cy="135.04" r="8.51" class="AK AO AT"/><path d="M606.71 205.72l1.61-20.55a9.24 9.24 0 0 1-8.37-6.22 243.43 243.43 0 0 1-5.35-24.2c9.79-5.59 4.64-19 0-17.93s-5.28 11.2-6.92 11.09 0-11.09 0-11.09c-9.41-1-6-13.22-6-13.22-15.88-1.45-22.9-8.42-22.9-8.42s-2.81 13.37-4.66 25.9c-.66 4.4-6.34 13-6.73 14.6s4.47 3.5 4.47 3.5-.78 31.28 23.14 31.28l-1.7 22z" class="AN"/><g clip-path="url(#E)" class="AM"><path d="M575 190.46s8.09-2.39 10.06-6.06c0 0-1.95 13.51-13.59 16.88s3.53-10.82 3.53-10.82z"/></g><path d="M543.4 133.66l49.66 1.42" class="AK AL AO AT"/><path d="M479.82 336.1s-3.91 1.6-13.58-3.08-20.7-3.16-21.45-3.7 2.82-11 20.71-5.5c0 0-12-19.88-23.83-24s-2.74-5.14-2.74-5.14-1.31-2.92 3.59-2.69a19.28 19.28 0 0 1 8 2s-1.51-3.78 2.69-2.91a40 40 0 0 1 10.47 5.09c0 0-8.19-6.46-8.19-8.23s2.15-1.24 3.22 0 26.75 16.71 30 22.85 12.06 9.29 12.06 9.29z" class="AN"/><g clip-path="url(#F)" class="AM"><path d="M488.76 308.19l-19.62 30.47 24.67 3.14z"/></g><path d="M438.41 295.37s12.62 2.14 19.86 8.51m-8.51-9.93a41.48 41.48 0 0 1 12.77 7.09" class="AK AL AO AQ"/><path d="M420.71 472.59s-2.66 53.84-2.66 82.94 2.66 87.31 2.66 87.31h54.91l4.7-172-56.79-.93z" fill="#955454"/><g clip-path="url(#G)"><path d="M484 474.83l-65.94 170.2-3.76-175.16z" fill="#834e4e"/></g><path d="M612 416.88s-272-22.4-308.59 8.4-5.22 220-5.22 220h54.5s-2.3-158.78 6.53-161.62c3.72-1.21 21.7.75 54.51 1.06 19.09.18 177.27-1.06 177.27-1.06s21-3.36 25.4-24.52-4.4-42.26-4.4-42.26z" fill="#955454"/><g clip-path="url(#H)"><path d="M454.63 410.38S448 437 448 449.44c0 6.31-46-6.28-98.75 3.47-15.15 2.79-26.85 15.11-26.85 15.11s-2.82 5.5-1.78 49.58 6.08 133.82 6.08 133.82l49.76-3.35 6.32-155.22 241.86-1.7 22.1-80.77z" fill="#834e4e"/></g><path d="M325.29 630.2l-4.64-153.34c0-42.54 115.35-25.11 145.72-25.11s23.81-36.15 23.81-36.15 14-9.6 43.14-69.15 49.64-100.06 19-120.61M342.28 503.93a14.08 14.08 0 0 0 12.42-13.35s-10.26 2.54-19.86-7.93m-38.31 148.26h55.33m68.14 0h55.3" class="AK AL AO AQ"/><path d="M610 204.66s2.36-11.5-38.71 0a32.59 32.59 0 0 0-4.5 4.82 27.12 27.12 0 0 0-2.07 6.45z" fill="#fff"/><path d="M672 260.66s-3.82-38.24-30.86-48.32-51.48-13.48-92 4.19-76.8 143.43-83.56 147.13l-68.58-38-19.6 26.1s86.6 83.14 112.65 64.6l17.12.89L615 423.06s23.52-7.08 35-39.91 22-122.49 22-122.49z" fill="#659cff"/><g clip-path="url(#I)"><g fill="#4c7fff"><path d="M657.56 220.16s6.33 16.19 7.19 22.73a187.76 187.76 0 0 1-.9 26.19c-.64 8.86 3 108.4 3 108.4l15.4-107.74L672 229.9zm-87.77 72.11s-17.52 38.3-25.71 53.85c-6.62 12.58-11 23.48-18.26 33-24.21 31.79-36.58 38.4-36.58 38.4l23.43 4.74s21.37 2.28 31.41-24.7 25.71-105.29 25.71-105.29z"/></g><path d="M406.55 330.05L377.4 368.5l-7.22-11.84 31.74-41.56z" fill="#fff"/><path d="M564.69 247.13s13.41 14.09 4.45 43.29c-1.9 6.14-56 150.33-50.61 151.54 3.69.83 115.49 38.42 146.89 11.45 19.14-16.43-1.1-179.93 4.49-181.68 14.37-4.5-67 .28-87.18-16.87-5.46-4.65-18.04-7.73-18.04-7.73z" fill="#4c7fff"/></g><g class="AK AL AO AQ"><path d="M656.9 224.43a64.4 64.4 0 0 1 6.69 45.4m-159.27 5.18l-23.89 53.1c-9.13 23.25-13.26 35.88-15.12 35.34-4.38-1.26-68.31-37.89-68.31-37.89l-19.58 26m87.72 11.91a19.09 19.09 0 0 0 1.65 15.6"/><path d="M465.37 363.47s-12.07 3.81-11.31 12.77m69.48 7.09l24.15-45.12c20.65-41.07 35.55-73.13 17.21-92.5"/></g><path d="M360.38 300.4s-.07-4.82 3.44-3.22 16.88 10.07 17.8 17.56-21.24-14.34-21.24-14.34z" class="AM"/><path d="M393 330.8s-10.35-18.69-17-22.14-38.21-21.71-40.68-18.67 6.9 9.45 16.89 15-22.32-8.73-24.76-7.9-4.13 3.16 0 6.14a3.83 3.83 0 0 0-1.14 5.3 3.76 3.76 0 0 0 1.2 1.18l15.23 11.44s-13-5.35-14.11-4.15c-.55.59 4.6 6.45 23.58 17.37 6.68 3.93 27.79 13.49 27.79 13.49z" class="AN"/><g clip-path="url(#J)" class="AM"><path d="M394.53 329.1l-28.18 18.76 15.31 3.65z"/></g><path d="M327.74 303.88l24.12 12.78m8.52-17s19.51 9.22 21.28 14.19" class="AK AL AO AQ"/><path d="M531.81 506.49l7.86 155.29a4.26 4.26 0 0 0 8.5.1L560.27 503z"/><path d="M495.16 685.54a66.47 66.47 0 0 1 98.84-2.08l1.95 2.08zm0-159.27a66.45 66.45 0 0 0 93.73 6.93 68.17 68.17 0 0 0 5.06-4.85l1.95-2.08z"/><path d="M615.56 268.77c-36.19-8.46-56.28 14.11-60.72 49.25s-3.6 132.64-129.2 159.64a80.12 80.12 0 0 1-20.64 3.12c-16.54 0-22-.33-23.08 4.63-2.36 10.69 20.66 8.82 20.66 8.82s67.51 48.49 172.47 41.43 102.79-78.63 102.79-92.26-4.58-59.7 18.31-96.64 15.59-71.87-5.83-75.76-38.57 6.22-74.76-2.23z" fill="#ff6f66"/><path d="M693.41 294.85s-5-13.94-23.07-8.51-41.11.49-60.08-2.84-38.91-3.23-40 38.14-20.46 128.35-80.55 146.63m-104.5 24.5s27.55 6.15 62.94-7.94" stroke="#701f1a" class="AK AL AO"/><path d="M299.33 319.58h-64l17.74-38.31h63.13l-16.88 38.31zm-20.45-27.22a7.1 7.1 0 0 0-5.017 12.124 7.1 7.1 0 0 0 12.117-5.034 7.09 7.09 0 0 0-7.1-7.09z" fill="#7fc1ff"/><path d="M243.38 281.27l-12.13 24a14.76 14.76 0 0 0 13.17 21.39h15.2v-7.68l-14.73-.15a5.68 5.68 0 0 1-5.6-5.75 5.62 5.62 0 0 1 .51-2.28l13.45-29.54z" fill="#3e6c98"/><path d="M258.22 319l64.94.56a1.58 1.58 0 0 1 1.56 1.58v3.95a1.58 1.58 0 0 1-1.58 1.58H258.2a1.58 1.58 0 0 1-1.58-1.58v-4.51a1.58 1.58 0 0 1 1.6-1.58z" fill="#5185b7"/><g fill="#3e6c98"><path d="M139.77 107.57a7.09 7.09 0 0 1 6.23-7.86 7.34 7.34 0 0 1 .81 0h251.82a7.11 7.11 0 0 1 7.05 6.32l18.92 173.1a7.1 7.1 0 0 1-6.28 7.82 6.74 6.74 0 0 1-.77 0H166.79a7.09 7.09 0 0 1-7-6.28z"/><path d="M431.69 273.49a14.89 14.89 0 0 1-14.47 13.45c-13.51.79 14.47-13.45 14.47-13.45zM159 98.24s-19.27-.4-19.27 8.11S159 98.24 159 98.24z"/></g><path d="M146.89 106.17a7.1 7.1 0 0 1 6.21-7.88 7.89 7.89 0 0 1 .84-.05h251.8a7.1 7.1 0 0 1 7.05 6.31l18.88 168.84a7.1 7.1 0 0 1-6.26 7.84h-.8-250.74a7.09 7.09 0 0 1-7.05-6.26z" fill="#7fc1ff"/><g opacity=".77" transform="translate(0 63.66)"><path d="M155.39,48a5.67,5.67,0,0,1,4.94-6.32,5.32,5.32,0,0,1,.69,0H400.76a5.67,5.67,0,0,1,5.64,5.08l14.14,134.79a5.66,5.66,0,0,1-5.64,6.26H177.54a5.67,5.67,0,0,1-5.63-5Z" fill="url(#K)"/><path d="M161,43.1a4.25,4.25,0,0,0-4.23,4.77l16.52,134.79a4.27,4.27,0,0,0,4.23,3.74H414.9a4.26,4.26,0,0,0,4.23-4.71L405,46.91a4.25,4.25,0,0,0-4.23-3.81H161m0-1.42H400.76a5.67,5.67,0,0,1,5.64,5.08l14.14,134.79a5.66,5.66,0,0,1-5.64,6.26H177.54a5.66,5.66,0,0,1-5.63-5L155.39,48A5.67,5.67,0,0,1,161,41.68Z" fill="url(#L)"/></g><image class="m" width="289" height="204" transform="translate(139.68 63.66)" opacity=".3"/><g clip-path="url(#M)"><path d="M458.18 310.66a13.51 13.51 0 0 1-12.4 15.09c-.4 0-.79.06-1.18.06l-278.09.15c-7.457-.009-13.696-5.661-14.44-13.08l-4.16-46.83-22.44-251.13A13.55 13.55 0 0 1 138.27.15L409.72 0a14.51 14.51 0 0 1 14.37 12.66l32.73 285.86z" fill="#fff"/><g opacity=".8"><path d="M266.41 163.66s19.55 1.37 22.2-14.56-15.11-24-15.11-24 5.71-17.22-8.9-21.79c0 0-9.07-13-26.51-5.3s-9.35 24.14-17.57 28.17-18.83 6.58-15.33 19.37c0 0-13.41 11.17-6.77 31.45s40.66 10.72 36.61-6.89c0 0 11.54 3.19 13.81-4s17.57-2.45 17.57-2.45z" class="AU"/><path d="M245.68 145.66a20.38 20.38 0 0 0-1.75-9c-7-.12-7-6.89-4.62-7.75s4.36 2.46 4.36 2.46c-.92-6.57 5.75-1.44 8.8-12.17s12.38-6.27 13.82-3.5 13.25 31.85-5.14 35.28a35.61 35.61 0 0 0 1.61 9.38 48.27 48.27 0 0 0 1.74 5c3.05 5.08 12.72 17.21 3.75 23.5s-26-7.21-24.8-17.65 2.06-20.34 2.23-25.55z" class="AN"/><g clip-path="url(#N)" class="AM"><path d="M262.08 150.83s-7.81 2.16-13.6-7.87c0 0 2.46 19 13.92 19.47s-.32-11.6-.32-11.6z"/></g><path d="M262.11 124.98a23.47 23.47 0 0 0 2.1 6.9c1.56 2.9 2.88 4.73-2.12 5" stroke="#9d3f28" class="AK AL AP AR"/><ellipse cx="266.46" cy="61.46" rx="1.04" ry="1.05" transform="matrix(.990268 -.139173 .139173 .990268 -5.96 101.34)" class="AU"/><g class="AK AP"><g stroke="#324a83"><ellipse cx="267.61" cy="61.44" rx="4.27" ry="4.3" transform="matrix(.990268 -.139173 .139173 .990268 -5.95 101.5)"/><ellipse cx="257.2" cy="64.36" rx="4.27" ry="4.3" transform="matrix(.990268 -.139173 .139173 .990268 -6.45 100.08)"/></g></g><ellipse cx="257.04" cy="64.26" rx="1.04" ry="1.05" transform="matrix(.99 -.14 .14 .99 -6.44 100.06)" class="AU"/><g stroke-width="1.39" class="AK AL AR AT"><path d="M259.06 122.66s-5.3-.65-7.16 3.21m15.63-6.01a3.27 3.27 0 0 0-3.27 1"/></g><g class="AP AL"><path d="M267.63 138.82a7.6 7.6 0 0 1-9.15 2.11s3.31 3.59 5.75 2.87 3.4-4.98 3.4-4.98z" fill="#fff" stroke="#9d3f28"/><g stroke="#324a83" class="AK"><path d="M252.86 127.78l-10.59.43" class="AR"/><path d="M263.37 125.25l-2.25.84"/></g></g><path d="M270.48 392.66s6.24 5.49 7.68 12.38 1.75 19 3.38 28.48-.55 23.91-13.3 25.51-14.06-29.13-9.51-37.61 11.75-28.76 11.75-28.76z" fill="#230d99"/><path d="M252.81 380.12s6.33 19.74 6.33 26.66-1.87 30.73 4.73 32.84 15.39-1.09 12.22-21.66-11.31-46.5-11.31-46.5z" class="AN"/><g clip-path="url(#O)" class="AM"><path d="M251.85 381.57a24.35 24.35 0 0 0 17.32 5.25c9.89-1.16-2.57-11.16-2.57-11.16z"/><path d="M264.43 384.17s10.93 28 9.12 56.65 13.66-27.16 13.66-27.16l-14.72-38z"/></g><path d="M189.68 358.95s5.06 6.49 2 10.12-20.6 22.61-25.25 26.73-15.69 10-23.94 7.94-12.29-10.73 7.63-25.22a130.74 130.74 0 0 1 39.56-19.57z" fill="#230d99"/><path d="M196.93 346.31s-7.25 9.57-7.25 12.64 1.76 4.8-10 13.44-28.73 23.77-32.38 14.87 20.07-19.85 29.91-36.18 15-21 15-21z" class="AN"/><g clip-path="url(#P)" class="AM"><path d="M183.29 338.33l13.63 16 3-9.1z"/><path d="M192.38 347.18s-6.5 9.43-6.5 11.77-21.53 25.59-38.25 31 12 5.65 12 5.65l39.58-34.34z"/></g><path d="M250.71 295.39s19.77 21.27 19.77 80.27c0 0-10.29 8.28-19.77 5.86 0 0-7.57-25-11.32-35a149.46 149.46 0 0 0-11.7-25.86c-10.5-17.2 6.94-30.4 13.88-30.4s9.14 5.13 9.14 5.13z" fill="#dc5f58"/><path d="M319.12 289s7.67 31-22.55 32.54-53-37.13-62.21-21.77-18.27 40.25-34.36 49.05l-17-10.69s27.93-74 43.26-75.87c7.07-.85 35.31-.5 62.16 8.34 12.04 3.96 30.7 18.4 30.7 18.4z" fill="#ff6f66"/><g clip-path="url(#Q)"><path d="M300.5 278.53s8.4 26.86-12.76 25.25-42.45-25.12-54.61-3.12 70.64 48.16 70.64 48.16l29.07-26.16-6.73-37.37z" fill="#dc5f58"/></g><path d="M319.28 290.26c7.31 36.78-27.56 32.2-34.56 30.26s-11.6-4.11-27.72-15.13-19.28-11.28-23.82-3.47-20.54 42.66-33.18 46.91l-16.71-10.5" class="AK AL AP AQ"/><path d="M344.6 182.66s7.84-15.84 15.39-17.35a91.41 91.41 0 0 0 11.63-8.08c3.15-3 4.27 1.44 2.69 3.09s-7.7 7.26-7.68 7.77 5.51.18 8.36-2.79 3.15-4.58 4.7-3.43a5.53 5.53 0 0 0 2.85-4.73c.29-3.57 3.35-4.11 3.37-3.68s-1.32 7.12-1.32 7.12 2.62-3.91 3.78-4a1.72 1.72 0 0 1 1.65 1.8 1.41 1.41 0 0 1-.07.41c-.3.94 2.88-1.59 2.09 1.89S375.4 178.01 367 178.31s-13.16 11.35-13.16 11.35z" class="AN"/><g clip-path="url(#R)" class="AM"><path d="M363.18 179.23s-6 0-13.86 10.77-26.17 45.35-47.79 36.36 8.36 12.92 8.36 12.92l43.2-19.45zm-49.73 32.3l-6.17-38.74 9.51-6.14 2.88 37.34z"/></g><g stroke="#99776c" class="AK AL AP"><path d="M356.93 172.99c5.33-4.07 6.93-1.77 13-2.76s6.4-6.41 7.75-7.92 1.76-.71 1.76-.71 1.84 4.47-6.21 12.45"/><path d="M390.06 159.02l-12.57 10.22"/><path d="M385.09 159.66l-2.62 2.83a29.32 29.32 0 0 1-2.64 2.07"/></g><path d="M311.88 266.79c-6.89-12.44-13.22-17.69-14.56-21.2-2.9-7.62 1.32-23.59 1.32-23.59s11.89 29 24.66 32.73 35.3-67.84 35.3-67.84l-14.8-6.62-19 39.26s-13-39.4-23-52.36c-6.41-8.3-23.76-8.6-38-7.13-.83.08 1.22.57 1.19 1.2-.12 2.69 3 9.11.26 9.6-1.63.29-6.46 5.69-9.83 4.5-6.26-2.21-11.74-11.9-12.31-11.71-22.46 7.41-30.33 15.15-33.08 19.66l-.29-.39s-25.93 59-15.31 68.84 64.65 17.69 64.65 17.69l.44-2.46c14.44 1.24 33.21 9.13 55.73 20.79 1.89 1 5.39 2.51 5.39 2.51s-5.64-17.88-8.76-23.48zm-77.33-19.53c-10.6-4.36-20.32-8.55-20.32-9.27 0-1.38 9-22.06 11.45-27.57a99 99 0 0 1 8.87 36.84z" fill="#56d4b7"/><g clip-path="url(#S)" fill="#4bc5a9"><path d="M300.82 193.66s0 34.61-15.18 37a20.06 20.06 0 0 1-17.82-5.54s-12.87 14.47-26.46 6c0 0-5.3-3.19-9.28-17.26 0 0-6.68 23.63 2.92 26.28s27.14-1.9 31.82 4.29 15.1 2.46 15.1 7.38-20.72 4.91-20.72 4.91l-1.59 12.68 66.5 27.06-12.18-34.54-15.29-28.76V222l1.61-16.12c.42-5.44.57-12.22.57-12.22z"/><path d="M300.82 193.66s10.49 70.68 30.32 56.31-5 16.93-5 16.93l-25.29-27.61-2.17-17.27s1.79-9.61 2.17-14.68-.03-13.68-.03-13.68zm48.62-13.39l-25.05 40.47v-31.66l19.24-14.42zm-116.61 17.76s-2.84 18.24 5.07 31.44 6.52 8.52 6.52 8.52-13.53-1.75-15.84-10a120.31 120.31 0 0 1-3.21-16.74z"/></g><path d="M261.66 157.02l.86 2.92c2.24 7.85 1.56 12.25-2.88 13.41-7.47 2-14.94-14.38-14.94-14.38s-7.27 23.89.46 25.43 14.48-8.46 14.48-8.46 17.55 4.08 18.36-1.23-16.34-17.69-16.34-17.69z" fill="#fff"/><g class="AK AL AP AQ"><path d="M358.6 186.89l-14.8-6.62-19 39.26s-5.43 8.66-2.71 16.57m2.71-16.57s-1.62 9.41 3 11.14m-68.5 38.76l1.9-12.68s-36.53-12.8-47-18.76a15.5 15.5 0 0 0-9.77 1"/><path d="M214.23 237.99a6.63 6.63 0 0 0-5.65-4.8m100.32 8.56L298.64 222a210.29 210.29 0 0 0 2.18-28.34m-67.99 3.67s-9.9 17.79-13 26-5.63 14.16-5.63 14.16"/><path d="M298.64 221.09a92.07 92.07 0 0 0-2.34 15.66c-.31 7.44.67 9.54 6.64 16.73s16.45 27.56 17.35 36.24l-11.69-5.41"/></g><path d="M261.13 259.52a18.84 18.84 0 0 0 7.33 0c2.61-.89 5.33-4.18 13.58-2.08s16.85 5.08 13.95 5.93-11.44-1.47-11.44-1.47 11.23 5.87 10.72 10.64a1.71 1.71 0 0 1-2.31.7 1.78 1.78 0 0 1-.36-.25s-.24 3-2.23 2.32-6.56-6.65-10.37-7.24c0 0 7.89 6.71 6.73 8.65s-6.72-6.41-11-7.29-1.68 3.48-15.94-1.22z" class="AN"/><g clip-path="url(#T)" class="AM"><path d="M261.2 259.16l.86 10.66-4.25-1.48z"/></g><g stroke="#99776c" class="AK AL AP"><path d="M269.36 259.14s6.24-3.41 12.31-1.71 15.56 3.74 14.9 5.49-10.58-.54-11.61-1c0 0 9.63 5.79 10.17 9.05s-2.53 2-2.53 2m0 .02s-2.38-4.8-9.73-8.33"/></g></g></g><path d="M302.38 105.51l72.1.05m-70.64 12.9l72.1.05m-70.63 12.89l72.09.05m-70.63 12.9l25.23.02" opacity=".8" stroke="#659cff" stroke-linejoin="round" stroke-width="5.17" class="AK AR"/></g></svg>