<svg xmlns="http://www.w3.org/2000/svg" viewBox="0 0 1192.55 1003.64"><defs><style>.cls-1{fill:#2c2d33;}.cls-2{fill:#4fc3b1;}.cls-3{fill:none;stroke:#fff;stroke-linecap:round;stroke-linejoin:round;stroke-width:2px;}</style></defs><g id="Layer_2" data-name="Layer 2"><g id="Layer_1-2" data-name="Layer 1"><path class="cls-1" d="M890.31,18.2c7.29,3.71,17,3.38,24.15,7.16,9.28,4.78,6.76,10,12.6,17.65,4.5-.12,8.25-.29,11.47-.29,10.78,0,15.59,1.84,22,13.23,13.8,24.68.33,24.41-2.92,36.29,7,11.81,9.09,1.46,14.2,20.57l24-5.24c6.71,5.7,4.19,10.81,14.53,16.06l49.7,15.58c2.78.23,5.4.28,7.93.28s4.7,0,7,0a57.13,57.13,0,0,1,16.73,2c0,6.64-1.73,10.69-1.66,14.8,0,6.86-.24,7.82,0,7.82s.24-.15.51-.15c.6,0,1.78.77,4,5.8,8.36,18.78.67,41.4,28.8,45a68.56,68.56,0,0,1,29.26,10.22c-10.15,23.09-20.57-7.23-16.19,56.2,1.72,25.08,17.45,9.89,27.34,48.9,3.31,13.07,3.91,20,10.68,29.86v2.32c-20.35,2.64-10.31,15.52-17.71,15.52a19.51,19.51,0,0,1-6-1.39c-9-3.18-8.89-14.92-14.33-23.62-13.33,1.2-18.18,7.1-28.53,11.42l2.92-21.77c-11.08,4.45-11.68,10.75-23.16,12.35-7.63-7.31-7.76-15.67-15.52-20.11-3.15-1.82-5.44-2.52-7.25-2.52-5.88,0-6.62,7.37-14.69,7.37a16.16,16.16,0,0,1-2.48-.21c-9.22-1.46-32.45-26.4-39.21-32.44l-10,7.43a10.3,10.3,0,0,0,1,1.79l2.12,4.91a10,10,0,0,1,.13,1.33c-.53,3.58.6,2.06-4,3.84L960,329.77c-8.56.8-10.75,1.46-15.13,5.78,8.23,4.64,11,5.17,17.05,12,2.19,42.79-52.75,30.12-77.36,49.63-10.36,8.22-11.75,33-12.94,50.36-2.59,40.6,14.66,22.89-16.39,39.94-.13,14.53,9.75,9.95-3.72,16.59a213.75,213.75,0,0,0-19.83,11l2.38,25.68c-10.55,9.09-27.4,7.63-33.57,14.73-7.16,8.22-9.22,24.88-9.29,36.69-36,20.63,4.65,8.82-48.37,43.59-18.9,12.48-11.08,9.36-17.65,28.2-3.18,9.09-6.1,8.89-9.35,13.67L710.76,693s0-.05,0-.05-.33,1.51-.69,2.05c-11.28,6-21.5,5.5-35.7,7.43-14.59,2-17.71,8.29-28.33,12.54-8-3.12-12.4-7.63-18.64-9.36-7.63-2.12-19.11-1.65-27.27-1.86-9.36,11.88-8.76,16.59-20.84,26.08-10.74,8.43-18.31,9.16-22.56,23.55-3.91,13.28-1,25.88,7.7,33,13.8,11.28,22.49,2.72,33.84,9.56,9.56,11.14-22.49,37.42,7.1,61.57L625,853.28c4,11.28,1.26,17.45,4.64,25.87,2.19,5.51,7.43,9.36,10.62,17.66,3.58,9.22,2.25,12.53,7.36,21.1,8.1,13.73,5.18,1,.2,16.51a39.29,39.29,0,0,0,2.39,4.48c.08,0,0-.51.23-.51s.83.44,2.22,2.14c1.08,1.31,1.47,1.55,1.63,1.55s.13-.09.19-.09.33.38,1.57,2.65c-6.77,7.57-15.06,16.19-27.27,17.06l-7.17-11c-.2-.92-.73-1.12-1.12-1.65-32.25,3.45-22.3,1.33-30.66,13.07h-1.25c-15,0-21.41-6.57-33.81-6.57-.66,0-1.33,0-2,.06-13.87.79-30.06.46-42,1.32-10.08,16.92,8.23,14.87-18.91,20.24l-30.12,8.23H448.54c-18.18-9.23-21.16,3.71-24.48-25.55-6.3-55.93-36.16-39.74-46.78-52.81-11.74-14.4-1.85-18.84-1.79-37.62-12.11-8.25-18-11.57-22.06-11.57-5.73,0-7.78,6.66-18.55,15.48-5.41,4.47-6.55,4.49-7.45,4.49h0c-1.14,0-2,0-11.16,9.65-9.75-.38-15.08-4-22.93-4a27.48,27.48,0,0,0-6.13.72c-10,2.29-11.32,4.53-12.93,4.53-1.46,0-3.17-1.85-11.89-7.19a16.07,16.07,0,0,0-8.53-2.8c-7.24,0-12.07,6.5-20.89,6.5-5.15,0-11.66-2.21-20.8-9.2-10.25,2.14-5.06,4-11.54,4-2.54,0-6.89-.29-14.67-1-3-.26-4.92-.58-6.46-.58-2.35,0-3.8.73-6.81,3.5l-6.43,9.55c-7.51-.72-23.59-2.06-39.6-2.06-16.4,0-32.75,1.41-39.76,6.31l-5.64,5c-10.22-5-13-3.72-21.5-10.42-5.7-29,3.65-31.58,9-51,6.15-22.68,8.72-28.29,13-28.29,3.09,0,7.07,2.86,13.9,4.41-.37-22.15,11.33-26.86,26.82-26.86,9.48,0,20.37,1.77,30.77,2.37,2.59-10.15,0-15.59,3-24.81,3-9,6.24-8,8.23-18.12-1.09-.06-2.14-.09-3.18-.09-9,0-16.3,2.08-22.6,2.08a18.86,18.86,0,0,1-6.8-1.12c-3-14.2,7.77-22,2.26-40.28-6-20-7.83-12.41-3.65-37.09a30.45,30.45,0,0,1-9.75,2c-7,0-10.52-4.16-19.64-8.46C90.78,660.27,82.69,659.27,73.2,655c-9.15-4.18-12.08-10.42-17.65-20.77-5.64-10.62-11.54-12.08-19.9-18.78,2.72-12.07,3.58-3.85,5.5-16.25L18.2,573v-9.16a20.62,20.62,0,0,1,8-1.45c20.69,0,51.49,23,66,27.59a72.59,72.59,0,0,0,22.12,3.23c21.09,0,41.56-7.32,62.57-7.32a75.91,75.91,0,0,1,14.77,1.37c13,2.59,16.87,3.8,18.84,3.8,2.83,0,1.8-2.51,18.71-7a58.25,58.25,0,0,1,15.17-2c9.51,0,17.4,2.13,25.42,2.13a36.81,36.81,0,0,0,7.25-.68c16.65-3.25,72.85-15.79,81-26.74-4.45-10.68-10.88-9.16-5.71-25.47,5.44-17,1.79-16.6,3.32-33,1.26-13,19.84-34.57,32.24-41.74.07,0,1.53-3.4,8.93-3.4l1,0,12.4,5.17L428,461.81c11.95-1.86,12.35-1.86,14.14-13.53l-9.49-3c20-17.05,14.33-4.71,37.29-30.32,5.37,6.17.33,4.31,10.22,7.63,7.52-5.05,11.74-7.33,14.92-7.33,4.58,0,6.95,4.76,13.81,12.84a27.9,27.9,0,0,0,5.42.7c2.76,0,4.35-.88,8-2.3,1.66-2.19,5.57-7.63,8.56-10.41,4.67-4.44,5.66-5.25,6.55-5.25a19,19,0,0,0,2.16.27,21.35,21.35,0,0,0,6.81-1.59c-1.46-9.95-5.37-16.26-7-27-3.19-21.49.06-14,9.35-24.88l-3.85-12.94c4-6.7,3.92-2.78,6.57-7.23,2.92-4.91.47-.86,2.19-5.31,9.22-23.88,25.94-3.65,48.5-25.54-.06-4.64-3.71-24.95-10-30.06-10.16-8.29-4.25.2-8.5-9.69-1.79-4-3.51-13.46-3.71-18,18.07,4.07,28.67,5.36,46.41,5.36q3.28,0,6.93-.06c5.11-7.29-4-4.57,4.45-9.42,6.83-3.91,10.08,0,16.85-3.91,12.14-7-2.46-17.32-5.84-26.08-.13-14.86,28-27,40-53.61L681,151c13.86-21.3,5.7-10.68,4.7-31.52-.72-15.86-12.47-13.14-22-24.75,3.11-8.69,11.15-13.07,16.85-19.17,6.07-6.51,7.34-9.46,10.49-9.46,1.7,0,4,.86,7.82,2.49-1.32-18.18,2.53-11.74,15.66-15.39,15.13-4.18,3.38-10.75,8-18.32a93.44,93.44,0,0,0,12.65.72c29.87,0,77.15-8.7,86.81-8.7.27,0,.51,0,.73,0,4.5.28,7.38,4.27,15.48,4.27,6.8,0,17.29-2.82,35.54-13h16.53m0-18.2H873.78a18.16,18.16,0,0,0-8.88,2.32C847.62,12,840.5,13,838.24,13c-.68,0-.72,0-2.56-.86a31.14,31.14,0,0,0-11.76-3.38c-.57,0-1.2,0-1.89,0-4.52,0-11.73.95-25.15,2.76C778.37,14,753,17.44,735.22,17.44a77.64,77.64,0,0,1-10.15-.55,17.74,17.74,0,0,0-2.51-.17,18.16,18.16,0,0,0-15.49,8.67,25.51,25.51,0,0,0-3.76,11.23c-4.63.44-13.59,1.8-19.08,10.66a23.52,23.52,0,0,0-1.14,2.08c-5.76,2.2-9.45,6.51-12.16,9.67-1,1.2-2.19,2.56-3.66,4.14-1.09,1.16-2.64,2.51-4.28,4-5.33,4.63-12.63,11-16.4,21.5a18.15,18.15,0,0,0,3.08,17.7,55.87,55.87,0,0,0,16.06,13c.57.34,1.26.74,1.84,1.1a62.53,62.53,0,0,0,2.2,14.41c-1.37,2.23-3.12,4.92-4,6.24a18.19,18.19,0,0,0,.79,21l.35.47c-4.42,6.12-10,11.48-15.39,16.71-10.4,10-21.14,20.39-21,35.65a18.17,18.17,0,0,0,1.22,6.39,35.26,35.26,0,0,0,2.46,5.09,34.44,34.44,0,0,0-5.55,2.55,29.34,29.34,0,0,0-8.78,7c-12.44-.29-21.25-1.54-36-4.85a18.19,18.19,0,0,0-22.18,18.54c.26,5.89,2.2,17.65,5.2,24.51.59,1.36.81,2,.86,2.16a18.45,18.45,0,0,0,10.78,12.78c.23.17.56.41,1,.75a46.53,46.53,0,0,1,2.85,8.74c-3.08,1.32-6.13,1.56-10.1,1.87-9.36.75-26.76,2.14-35.65,25.18-.14.35-.3.75-.46,1.2a32.52,32.52,0,0,0-6.9,8.49,18.18,18.18,0,0,0-1.87,14.59l.56,1.87c-9.43,8.77-8.79,18.78-6.62,33.43a84.36,84.36,0,0,0,2.84,12.4c-1.94,1.53-3.84,3.33-5.88,5.26-1.22,1.15-2.43,2.43-3.61,3.79-4.51-4.91-10.55-9.57-19.68-9.57a30.7,30.7,0,0,0-13.86,3.62A18.22,18.22,0,0,0,470,396.77h-.13a18.2,18.2,0,0,0-13.55,6.05c-11.38,12.69-13.8,14-16.86,15.59-4.73,2.5-9.72,5.38-18.7,13A18.21,18.21,0,0,0,415,440.6l-10.25-4.27a17.85,17.85,0,0,0-6.28-1.39c-.6,0-1.19,0-1.75,0-8.48,0-15.8,2.72-20.83,7.59-15.39,10.25-36.57,34.57-38.46,54a106.05,106.05,0,0,0-.35,15.63c.17,4.36.24,6-2.18,13.55-3.32,10.47-3.42,17.86-1.47,24.08-13.86,5.08-37.62,11.48-59.93,15.83a19.18,19.18,0,0,1-3.76.34,76.85,76.85,0,0,1-9.32-.85,123.57,123.57,0,0,0-16.1-1.27,76.35,76.35,0,0,0-19.84,2.58,95.53,95.53,0,0,0-16.44,5.71c-2.8-.62-7-1.54-12.9-2.72a93.65,93.65,0,0,0-18.31-1.72c-12.09,0-23.42,2-34.39,3.93-9.88,1.75-19.22,3.4-28.18,3.4a55,55,0,0,1-16.66-2.39c-3.38-1.07-10.58-5-16.92-8.49-17.09-9.35-36.46-20-54.53-20a38.85,38.85,0,0,0-15,2.85A18.2,18.2,0,0,0,0,563.79V573a18.19,18.19,0,0,0,4.51,12L20.37,603a54.36,54.36,0,0,0-2.48,8.38,18.2,18.2,0,0,0,6.38,18.19c2.84,2.28,5.44,4.06,7.52,5.48,4.5,3.08,5.71,3.91,7.7,7.64l0,.08.92,1.71c5.65,10.54,11,20.5,25.19,27A121.74,121.74,0,0,0,80.82,677a90.6,90.6,0,0,1,12.49,4.55c2.34,1.1,4.22,2.21,6.22,3.38a53.7,53.7,0,0,0,10.49,5.1c.15,4.55,1.18,8.5,3.3,14.07.89,2.33,2,5.23,3.35,9.78,1.54,5.11.76,7.91-.79,13.48-1.72,6.18-4.08,14.64-1.83,25.34A18.18,18.18,0,0,0,125.35,766a35.91,35.91,0,0,0,11.71,2.3c-.17,1-.29,2-.38,3-4.74-.44-9.54-.79-14.23-.79h-.07c-5.53,0-22.06,0-33.61,11.78a36.22,36.22,0,0,0-7.22,10.66c-6.78.05-16.07,2.93-22.18,16.23-2.32,5-4.63,12.18-8.24,25.5A71.49,71.49,0,0,1,46.75,846c-5.66,12.41-9.61,23.81-4.87,47.89a18.25,18.25,0,0,0,6.58,10.78,53.81,53.81,0,0,0,17.59,9.54,61.52,61.52,0,0,1,7.21,2.94,18.2,18.2,0,0,0,20-2.71l4.27-3.77c1.81-.73,9-3,29.09-3,15.05,0,30.17,1.24,37.86,2a16.9,16.9,0,0,0,1.74.09,18.17,18.17,0,0,0,15.08-8l3-4.51c8.58.74,13.13,1,16.25,1a26.31,26.31,0,0,0,9.68-1.54c7.9,4.57,15.26,6.74,22.66,6.74,9,0,15.45-3.29,19.74-5.46l.92-.46c2.94,1.81,4.91,3.14,6.39,4.12,3.69,2.48,7.88,5.29,14.26,5.29a21.72,21.72,0,0,0,10.36-2.78,24.75,24.75,0,0,1,6.64-2.22,9.43,9.43,0,0,1,2.06-.26,24.82,24.82,0,0,1,5.8,1.2,69.39,69.39,0,0,0,16.43,2.83h.7a18.2,18.2,0,0,0,13.14-5.61c2.46-2.56,4.08-4.19,5.14-5.22,4.47-1.54,8.22-4.39,11.94-7.45a94.52,94.52,0,0,0,9.52-9l.06,0c-.18.71-.37,1.43-.56,2.16-2.26,8.58-5.68,21.54,7.7,38,7,8.63,16.52,11,23.46,12.8,5.45,1.38,8.65,2.28,11,4.73,3.93,4,6.88,13.22,8.3,25.82,1.33,11.71,2.75,19.19,6.46,25.24,6,9.82,15.43,11.35,19.94,12.08a23.07,23.07,0,0,1,7.93,2.42,18.26,18.26,0,0,0,8.23,2h13.21a18,18,0,0,0,4.79-.64l29.5-8.06c9.57-1.9,14.27-3.05,18.18-5a20.68,20.68,0,0,0,11.41-15.32l6.65-.13c7.14-.12,14.53-.24,21.54-.65l1,0c2.86,0,5.22.74,9.5,2.15,5.7,1.87,13.5,4.43,24.31,4.43l1.68,0a18.16,18.16,0,0,0,14.39-7.64c1-1.43,1.87-2.75,2.57-3.92,1.24-.15,2.66-.3,4.16-.45l2.17,3.32a18.19,18.19,0,0,0,15.22,8.23c.43,0,.86,0,1.29,0,20.19-1.43,32.78-15.51,39.55-23.07A18.21,18.21,0,0,0,672.07,936c-.79-1.46-1.27-2.3-1.55-2.78s-.54-.87-.82-1.28c2.23-5.7,1.71-12.62-3.46-18.89a30.55,30.55,0,0,1-2.9-4.34l-.05-.08a18.82,18.82,0,0,1-2.59-6.91,79.26,79.26,0,0,0-3.44-11.45,60.07,60.07,0,0,0-8.7-15c-.73-1-1.72-2.31-2-2.85-.46-1.2-.57-2.46-.75-5.62a64.46,64.46,0,0,0-3.64-19.59,18.17,18.17,0,0,0-20.9-11.65l-9.67,2c-2-4-.77-8.55,2.47-17.66,3.35-9.42,8.41-23.67-2-35.83a18.22,18.22,0,0,0-4.42-3.74c-9.21-5.55-17.63-5.63-23.21-5.69-4.81-.05-5.68-.06-8.5-2.37s-3.51-7.81-1.76-13.74c1.22-4.14,1.44-4.28,7.16-8,2.54-1.63,5.69-3.67,9.17-6.4A66.86,66.86,0,0,0,608.23,724c.41-.65.8-1.29,1.21-1.93,4.86.07,10.16.28,13,1.08a27.61,27.61,0,0,1,4.49,2.43,77.12,77.12,0,0,0,12.44,6.36,18.25,18.25,0,0,0,13.35-.07,72,72,0,0,0,12.71-6.8c4.18-2.67,6.09-3.89,11.32-4.6,3.1-.42,6.11-.73,9-1,10.36-1,21.07-2.12,32.81-8.4a18.17,18.17,0,0,0,6.51-5.9,20.24,20.24,0,0,0,2.62-5.63q.15-.37.27-.75l4-12c3.52-3.47,7.2-7.68,10.39-16.75a88.71,88.71,0,0,0,3.79-14.42c1.21-.9,3.25-2.33,6.7-4.61,27.81-18.23,35.18-26.86,38-37.1a101.8,101.8,0,0,1,9.42-5.89,18.21,18.21,0,0,0,9.15-15.69c.07-11.85,2.34-20.62,4.18-23.91,1.5-.54,4.14-1.23,6-1.72,7.47-2,17.7-4.66,26.35-12.11a18.21,18.21,0,0,0,6.25-15.47l-1.33-14.17c2.42-1.34,5.07-2.72,8.7-4.51,7.52-3.71,14-6.91,16.51-15.66a18.57,18.57,0,0,0,.56-7.72c6.65-3.17,19.46-9.72,14.47-28.06-.74-2.71-2.12-7.75-1.32-20.22l.1-1.52a228.93,228.93,0,0,1,2.46-23.84c1.55-8.71,3.36-11.57,3.77-12.13,5.7-4.34,16.53-6.72,27-9,12.5-2.74,25.42-5.57,36.24-12.57,10.13-6.55,22-19.34,20.75-43,0-.18,0-.35,0-.52l19.25-1.87a18.2,18.2,0,0,0,4.78-1.13,12.33,12.33,0,0,1,1.2-.41,20.39,20.39,0,0,0,8.85-5.14c13.08,12.09,22,18.31,30.6,19.68a34.77,34.77,0,0,0,5.32.43,28,28,0,0,0,14.55-3.93A54.24,54.24,0,0,0,1075,367.87a18.22,18.22,0,0,0,12.58,5.05,19.36,19.36,0,0,0,2.51-.17l1.56-.25a18.2,18.2,0,0,0,23.17,8.44,95.73,95.73,0,0,0,11-5.55l.3-.17c3,6.83,8.15,14.62,18.55,18.29a35.37,35.37,0,0,0,12,2.43c4,0,16.43-1.21,20.62-15.76a18.19,18.19,0,0,0,15.29-18V359.9a18.15,18.15,0,0,0-3.19-10.28c-3.57-5.22-4.38-8.66-6.34-17-.49-2.1-1-4.48-1.72-7.09-6.3-24.88-15.49-33.63-24.37-40.47-.63-.49-1.46-1.12-1.92-1.52a19.47,19.47,0,0,1-.53-3.68c-1.17-17-1.09-25.31-.8-29.32,5.37-3,11-8,15.49-18.3a18.19,18.19,0,0,0-6.93-22.71,86.74,86.74,0,0,0-36.68-12.89c-3-.38-5.28-1.11-5.76-1.82-1.19-1.8-2.07-6.71-2.84-11-1.1-6.16-2.48-13.83-5.87-21.47a48.74,48.74,0,0,0-2.94-5.72v-.51c0-.43.23-1.54.39-2.36a65.29,65.29,0,0,0,1.26-12.28A18.19,18.19,0,0,0,1096.69,124a74.49,74.49,0,0,0-21.81-2.75l-3.61,0c-1.12,0-2.24,0-3.38,0-1.74,0-3.21,0-4.57-.1l-45.85-14.38-.57-1.06a38.41,38.41,0,0,0-9.37-12.05,18.19,18.19,0,0,0-15.68-3.92l-9.12,2a25.93,25.93,0,0,0-2.15-2.74c5.93-10.52,6.63-22.62-4.2-42-10.52-18.77-22.27-22.53-37.85-22.53h-.4c-2.27-4.75-6.29-10.67-15.27-15.31-5.91-3.1-12-4.34-17-5.33-2.79-.56-5.95-1.2-7.34-1.91a18.17,18.17,0,0,0-8.25-2Z"/><path class="cls-2" d="M890.31,18.2c7.29,3.71,17,3.38,24.15,7.16,9.28,4.78,6.76,10,12.6,17.65,4.5-.12,8.25-.29,11.47-.29,10.78,0,15.59,1.84,22,13.23,13.8,24.68.33,24.41-2.92,36.29,7,11.81,9.09,1.46,14.2,20.57l24-5.24c6.71,5.7,4.19,10.81,14.53,16.06l49.7,15.58c2.78.23,5.4.28,7.93.28s4.7,0,7,0a57.13,57.13,0,0,1,16.73,2c0,6.64-1.73,10.69-1.66,14.8,0,6.86-.24,7.82,0,7.82s.24-.14.5-.14c.61,0,1.79.76,4,5.79,8.36,18.78.67,41.4,28.8,45a68.56,68.56,0,0,1,29.26,10.22c-10.15,23.09-20.57-7.23-16.19,56.2,1.72,25.08,17.45,9.89,27.34,48.9,3.31,13.07,3.91,20,10.68,29.86v2.32c-20.35,2.64-10.31,15.52-17.71,15.52a19.51,19.51,0,0,1-6-1.39c-9-3.18-8.89-14.92-14.33-23.62-13.33,1.2-18.18,7.1-28.53,11.42l2.92-21.77c-11.08,4.45-11.68,10.75-23.16,12.35-7.63-7.31-7.76-15.67-15.52-20.11-3.15-1.82-5.44-2.52-7.25-2.52-5.88,0-6.62,7.37-14.69,7.37a15,15,0,0,1-2.48-.21c-9.22-1.46-32.45-26.4-39.21-32.44l-10,7.43a10.3,10.3,0,0,0,1,1.79l2.12,4.91a10,10,0,0,1,.13,1.33c-.53,3.58.6,2.06-4,3.84L960,329.77c-8.56.8-10.75,1.46-15.13,5.78,8.23,4.64,11,5.17,17.05,12,2.19,42.79-52.75,30.12-77.36,49.63-10.36,8.22-11.75,33-12.94,50.36-2.59,40.6,14.66,22.89-16.39,39.94-.13,14.53,9.75,9.95-3.72,16.59a213.75,213.75,0,0,0-19.83,11l2.38,25.68c-10.55,9.09-27.4,7.63-33.57,14.73-7.16,8.22-9.22,24.88-9.29,36.69-36,20.63,4.65,8.82-48.37,43.59-18.9,12.48-11.08,9.36-17.65,28.2-3.18,9.09-6.1,8.89-9.35,13.67L710.76,693s0-.05,0-.05-.33,1.51-.69,2.05c-11.28,6-21.5,5.5-35.7,7.43-14.59,2-17.71,8.29-28.33,12.54-8-3.12-12.4-7.63-18.64-9.36-7.63-2.12-19.11-1.65-27.27-1.86-9.36,11.88-8.76,16.59-20.84,26.08-10.74,8.43-18.31,9.16-22.56,23.55-3.91,13.28-1,25.88,7.7,33,13.8,11.28,22.49,2.72,33.84,9.56,9.56,11.14-22.49,37.42,7.1,61.57L625,853.28c4,11.28,1.26,17.45,4.64,25.87,2.19,5.51,7.43,9.36,10.62,17.66,3.58,9.22,2.25,12.53,7.36,21.1,8.1,13.73,5.18,1,.2,16.51,1.89,3.67,2.29,4.48,2.39,4.48s0-.51.23-.51.83.44,2.22,2.14c1.08,1.31,1.46,1.56,1.63,1.56s.13-.1.19-.1.33.38,1.57,2.65c-6.77,7.57-15.06,16.19-27.27,17.06l-7.17-11c-.2-.92-.73-1.12-1.12-1.65-32.25,3.45-22.3,1.33-30.66,13.07l-1.25,0c-15,0-21.41-6.58-33.81-6.58-.66,0-1.34,0-2,.06-13.87.79-30.06.46-42,1.32-10.08,16.92,8.23,14.87-18.91,20.24l-30.12,8.23H448.54c-18.18-9.23-21.16,3.71-24.48-25.55-6.3-55.93-36.16-39.74-46.78-52.81-11.74-14.4-1.85-18.84-1.79-37.62-12.11-8.25-18-11.57-22.06-11.57-5.73,0-7.78,6.66-18.55,15.48-5.41,4.47-6.55,4.49-7.45,4.49h0c-1.14,0-2,0-11.16,9.65-9.75-.38-15.08-4-22.93-4a27.48,27.48,0,0,0-6.13.72c-10,2.29-11.32,4.53-12.93,4.53-1.46,0-3.17-1.85-11.89-7.19a16.07,16.07,0,0,0-8.53-2.8c-7.24,0-12.07,6.5-20.89,6.5-5.15,0-11.66-2.21-20.8-9.2-10.25,2.14-5.06,4-11.54,4-2.54,0-6.89-.29-14.67-1-3-.26-4.92-.58-6.46-.58-2.35,0-3.8.73-6.81,3.5l-6.43,9.55c-7.51-.72-23.59-2.06-39.6-2.06-16.4,0-32.75,1.41-39.76,6.31l-5.64,5c-10.22-5-13-3.72-21.5-10.42-5.7-29,3.65-31.58,9-51,6.16-22.68,8.72-28.29,13-28.29,3.09,0,7.07,2.86,13.9,4.41-.37-22.15,11.33-26.86,26.82-26.85,9.47,0,20.37,1.76,30.77,2.36,2.59-10.15,0-15.59,3-24.81,3-9,6.24-8,8.23-18.12-1.09-.06-2.15-.09-3.19-.09-9,0-16.29,2.08-22.59,2.08a18.86,18.86,0,0,1-6.8-1.12c-3-14.2,7.77-22,2.26-40.28-6-20-7.83-12.41-3.65-37.09a30.45,30.45,0,0,1-9.75,2c-7,0-10.52-4.16-19.64-8.46C90.78,660.27,82.69,659.27,73.2,655c-9.15-4.18-12.08-10.42-17.65-20.77-5.64-10.62-11.54-12.08-19.9-18.78,2.72-12.07,3.58-3.85,5.5-16.25L18.2,573v-9.16a20.62,20.62,0,0,1,8-1.45c20.69,0,51.49,23,66,27.59a72.59,72.59,0,0,0,22.12,3.23c21.09,0,41.56-7.32,62.57-7.32a75.84,75.84,0,0,1,14.77,1.37c13,2.59,16.87,3.8,18.84,3.8,2.83,0,1.8-2.51,18.71-7a58.25,58.25,0,0,1,15.17-2c9.51,0,17.4,2.13,25.42,2.13a36.81,36.81,0,0,0,7.25-.68c16.65-3.25,72.85-15.79,81-26.74-4.45-10.68-10.88-9.16-5.71-25.47,5.44-17,1.79-16.6,3.32-33,1.26-13,19.84-34.57,32.24-41.74.07,0,1.53-3.4,8.93-3.4l1,0,12.4,5.17L428,461.81c11.95-1.86,12.35-1.86,14.14-13.53l-9.49-3c20-17.05,14.33-4.71,37.29-30.32,5.37,6.17.33,4.31,10.22,7.63,7.52-5.05,11.74-7.33,14.92-7.33,4.58,0,6.95,4.76,13.81,12.84a27.9,27.9,0,0,0,5.42.7c2.76,0,4.35-.88,8-2.3,1.66-2.19,5.57-7.63,8.56-10.41,4.67-4.44,5.66-5.25,6.55-5.25a19,19,0,0,0,2.16.27,21.46,21.46,0,0,0,6.81-1.59c-1.46-9.95-5.37-16.26-7-27-3.19-21.49.06-14,9.35-24.88l-3.85-12.94c4-6.7,3.92-2.78,6.57-7.23,2.92-4.91.47-.86,2.19-5.31,9.22-23.88,25.94-3.65,48.5-25.54-.06-4.64-3.71-24.95-10-30.06-10.16-8.29-4.25.2-8.5-9.69-1.79-4-3.51-13.46-3.71-18,18.07,4.07,28.68,5.36,46.43,5.36q3.27,0,6.91-.06c5.11-7.29-4-4.57,4.45-9.42,6.83-3.91,10.08,0,16.85-3.91,12.14-7-2.46-17.32-5.84-26.08-.13-14.86,28-27,40-53.61L681,151c13.86-21.3,5.7-10.68,4.7-31.52-.72-15.86-12.47-13.14-22-24.75,3.11-8.69,11.15-13.07,16.85-19.17,6.07-6.51,7.34-9.46,10.49-9.46,1.7,0,4,.86,7.82,2.49-1.32-18.18,2.53-11.74,15.66-15.39,15.13-4.18,3.38-10.75,8-18.32a93.31,93.31,0,0,0,12.65.73c29.87,0,77.15-8.71,86.81-8.71.27,0,.51,0,.73,0,4.5.28,7.38,4.27,15.48,4.27,6.8,0,17.3-2.82,35.54-13h16.53"/><path class="cls-3" d="M461.75,986.62H448.54a1.12,1.12,0,0,1-.53-.13,39.49,39.49,0,0,0-12.9-4c-7.81-1.27-9.95-2.43-12.22-22.43-4.29-38.11-19.7-42-32.07-45.14-5.64-1.44-11-2.78-14.45-7.06-7.9-9.69-6.44-15.21-4.43-22.85a57.22,57.22,0,0,0,2.37-14.9c-10.53-7.14-17-11-20.88-11-2.86,0-4.67,2-8,5.64a86,86,0,0,1-9.83,9.58c-5.34,4.41-6.82,4.76-8.2,4.76-.7,0-1.46,0-10.34,9.28a1.11,1.11,0,0,1-.89.36,53.43,53.43,0,0,1-12.62-2.25,37.86,37.86,0,0,0-10.27-1.79,25.85,25.85,0,0,0-5.87.69,39.9,39.9,0,0,0-10.69,3.71,5.38,5.38,0,0,1-2.5.86c-1.2,0-2.18-.66-4.78-2.4-1.73-1.16-4.09-2.75-7.72-5a15.17,15.17,0,0,0-7.92-2.62c-3.16,0-5.92,1.39-8.85,2.88-3.34,1.69-7.13,3.61-12,3.61-6.06,0-13-3-21.08-9.11-4.61,1-5.58,1.91-6.22,2.51-1,1-1.83,1.41-5,1.41-2.56,0-6.84-.28-14.77-1-1.16-.1-2.15-.22-3-.31a33,33,0,0,0-3.33-.27c-1.86,0-3.05.47-5.91,3.1l-6.36,9.44a1.16,1.16,0,0,1-1.09.51c-8-.77-23.72-2.05-39.48-2.05-19.81,0-33.3,2.09-39,6.05L82,901.67a1.17,1.17,0,0,1-1.29.17,80.22,80.22,0,0,0-9-3.69A37,37,0,0,1,59,891.29a1.18,1.18,0,0,1-.42-.7c-4.06-20.62-.65-28.08,3.66-37.53a87,87,0,0,0,5.32-14c6.43-23.71,9.08-29.16,14.17-29.16,1.78,0,3.65.76,6,1.73a58.09,58.09,0,0,0,6.7,2.36c.07-9,2.19-15.49,6.46-19.83,4.5-4.57,11.33-6.7,21.53-6.7,5.69,0,11.72.61,18.1,1.26,3.88.39,7.88.8,11.77,1a48.49,48.49,0,0,0,1.07-11.1c.06-4.06.1-7.89,1.71-12.84a29.32,29.32,0,0,1,4.16-8.27,21,21,0,0,0,3.74-8.38l-1.75,0a93.36,93.36,0,0,0-13.15,1.16,69.66,69.66,0,0,1-9.44.91,19.85,19.85,0,0,1-7.21-1.2,1.18,1.18,0,0,1-.74-.85c-1.39-6.63.05-11.8,1.58-17.27,1.79-6.45,3.65-13.11.71-22.91-1.54-5.17-2.83-8.53-3.76-11-2.74-7.19-3-8-.25-24.74a28.84,28.84,0,0,1-8.27,1.42c-4.94,0-8.31-2-12.56-4.48-2.14-1.25-4.55-2.66-7.58-4.09a106.4,106.4,0,0,0-14.72-5.41A108,108,0,0,1,72.72,656c-9-4.1-12.29-10.24-17.27-19.53l-.93-1.75c-4-7.43-8-10.19-13.12-13.7-2-1.39-4.14-2.83-6.49-4.71a1.2,1.2,0,0,1-.41-1.18c1.37-6.08,2.34-7.3,3.2-8.36.7-.89,1.31-1.65,2.21-7.28l-22.6-25.79A1.2,1.2,0,0,1,17,573v-9.16a1.17,1.17,0,0,1,.73-1.08,21.78,21.78,0,0,1,8.44-1.55c13.71,0,31.81,9.91,46.35,17.86,8,4.41,15,8.21,20,9.8A71.7,71.7,0,0,0,114.3,592c10.45,0,21-1.85,31.14-3.65s20.83-3.67,31.43-3.67a76.63,76.63,0,0,1,15,1.39c5.94,1.18,9.89,2.06,12.78,2.7a37.14,37.14,0,0,0,5.84,1.08c.65,0,.93-.16,1.92-.76,1.89-1.14,5.4-3.28,16.49-6.25a59.34,59.34,0,0,1,15.47-2A106.86,106.86,0,0,1,258.31,582a90,90,0,0,0,11.47,1,35.7,35.7,0,0,0,7-.65c19.44-3.79,70.94-15.69,79.82-25.78a32.76,32.76,0,0,0-3.85-6.37c-3.13-4.29-5.39-7.39-1.62-19.27,3.34-10.43,3.2-14,3-19.44a87.4,87.4,0,0,1,.29-13.29C355.75,484.37,375,462.7,387,455.62c1.09-1.56,3.84-3.95,10.82-3.68a1.17,1.17,0,0,1,.41.1l12.29,5.13L428,460.62c10.94-1.7,11.28-1.76,12.79-11.53l-8.52-2.68a1.19,1.19,0,0,1-.8-.89,1.17,1.17,0,0,1,.39-1.12c8.28-7.07,12.16-9.13,15.59-10.93,4.75-2.51,8.18-4.32,21.59-19.29a1.19,1.19,0,0,1,.87-.38h0a1.17,1.17,0,0,1,.87.4,21.19,21.19,0,0,1,3,4.19c.56,1,.56,1,5.66,2.74l.51.17c7-4.67,11.51-7.21,15.09-7.21,4.07,0,6.5,3.06,10.53,8.13,1.14,1.43,2.42,3,3.92,4.82,5.62,1.12,6.73.64,10.58-.92l1.45-.58.64-.85a80.48,80.48,0,0,1,7.86-9.45c5-4.72,6-5.56,7.35-5.56a4.17,4.17,0,0,1,.9.12,5.48,5.48,0,0,0,1.26.15,18.83,18.83,0,0,0,5.5-1.21,77.55,77.55,0,0,0-3.16-11.84,81.38,81.38,0,0,1-3.65-14.21c-2.28-15.36-1.39-16.61,3.22-20a33.69,33.69,0,0,0,6-5.36L543.76,345a1.22,1.22,0,0,1,.12-1c2.23-3.68,3.33-4.43,4.53-5,.57-.28,1-.5,2-2.2.57-1,1.13-1.9,1.34-2.3a7.32,7.32,0,0,1,.76-2.83c5-13.05,12.49-13.65,21.12-14.33,7.91-.63,16.86-1.35,27.29-11.27-.3-5.41-3.87-24-9.57-28.67-2.84-2.31-4.82-3.65-5.9-4a1.53,1.53,0,0,1-1.18-1.34,29.81,29.81,0,0,0-1.76-4.81c-1.93-4.37-3.61-14.06-3.8-18.46a1.12,1.12,0,0,1,.42-.95,1.16,1.16,0,0,1,1-.25c20.45,4.62,31,5.59,52.45,5.29,1.59-2.43,1.1-3.13.7-3.69a2.3,2.3,0,0,1-.55-1.89c.23-1.06,1.29-1.95,4.35-3.69a15.84,15.84,0,0,1,9-2.12,13.56,13.56,0,0,0,7.81-1.8c2.36-1.35,3.68-2.84,4-4.56.74-3.42-2.36-7.7-5.35-11.83a40.48,40.48,0,0,1-5-8.25,1.15,1.15,0,0,1-.08-.41c-.07-7.93,6.93-14.69,15.79-23.24,8.49-8.19,18.09-17.45,24-30.22l-7.27-9.53a1.17,1.17,0,0,1-.05-1.35c8.59-13.2,8.45-13.59,7.07-17.29-.87-2.36-2.18-5.91-2.55-13.53-.42-9.14-4.53-11.55-10.22-14.9-3.63-2.13-7.74-4.54-11.54-9.16a1.18,1.18,0,0,1-.2-1.14c2.28-6.34,7-10.45,11.55-14.42a72.72,72.72,0,0,0,5.55-5.16c1.73-1.85,3.07-3.43,4.16-4.69,2.84-3.32,4.4-5.14,7.19-5.14,1.67,0,3.74.71,6.53,1.85-.65-11.34,1.16-12.71,8.16-13.32a43.93,43.93,0,0,0,8.48-1.39c8.18-2.26,7.57-4.81,6.66-8.66-.61-2.58-1.37-5.8.68-9.14a1.16,1.16,0,0,1,1.16-.55,93.58,93.58,0,0,0,12.49.71c19,0,45-3.52,63.94-6.09,11.69-1.58,20.66-2.8,23.68-2.58a15.14,15.14,0,0,1,5.6,1.79,21,21,0,0,0,9.8,2.48c8,0,19.48-4.22,35-12.89a1.13,1.13,0,0,1,.57-.15h16.53a1.25,1.25,0,0,1,.53.13c3.47,1.77,7.65,2.61,11.69,3.43,4.28.86,8.7,1.75,12.47,3.74,6.12,3.15,7.52,6.7,9,10.45a28.47,28.47,0,0,0,3.64,7l3.34-.1c2.84-.09,5.31-.17,7.55-.17,11.25,0,16.42,2.09,23,13.82,10.09,18.05,6,23.5,1.59,29.26a23.58,23.58,0,0,0-4.27,7.45c2.57,4.22,4.38,5.19,6,6,3,1.6,5,3.12,7.79,13.29l22.86-5a1.19,1.19,0,0,1,1,.26,21.44,21.44,0,0,1,5.4,7.11c1.6,3,3.12,5.84,8.82,8.74l49.47,15.53c3,.23,5.68.26,7.71.26l3.55,0,3.44,0a57.9,57.9,0,0,1,17.06,2.08,1.16,1.16,0,0,1,.84,1.12,49.07,49.07,0,0,1-1,9.24,28,28,0,0,0-.67,5.54c0,3.45-.06,5.45-.09,6.52v.09c1,.31,2.38,1.65,4.5,6.4,2.56,5.75,3.64,11.74,4.67,17.54,2.33,13.07,4.35,24.36,23.21,26.76,11.52,1.47,20.69,4.67,29.74,10.39a1.18,1.18,0,0,1,.44,1.46c-3.72,8.46-7.57,10.15-10.66,11.51-5,2.17-8.23,3.61-5.43,44.14.77,11.14,4.24,13.81,9,17.52,5.73,4.41,12.86,9.92,18.25,31.17.62,2.46,1.16,4.71,1.65,6.8,2.1,8.94,3.49,14.84,8.86,22.69a1.1,1.1,0,0,1,.21.66v2.32a1.17,1.17,0,0,1-1,1.16c-11.78,1.53-12.57,6.38-13.2,10.27-.4,2.47-.86,5.27-4.66,5.27a20.5,20.5,0,0,1-6.37-1.46c-6.37-2.25-8.48-8.2-10.72-14.5a52.74,52.74,0,0,0-3.84-9c-8.23.87-13.15,3.66-18.35,6.62a82.79,82.79,0,0,1-9.11,4.64,1.2,1.2,0,0,1-1.17-.15,1.17,1.17,0,0,1-.44-1.09l2.64-19.71a38,38,0,0,0-8.06,5.3c-3.43,2.76-6.67,5.36-13.5,6.31a1.17,1.17,0,0,1-1-.32,39.61,39.61,0,0,1-7.38-10.39c-2.12-3.91-4-7.28-7.91-9.55-2.75-1.58-4.93-2.36-6.67-2.36-2.23,0-3.57,1.29-5.26,2.92-2,2-4.6,4.45-9.43,4.45a16.85,16.85,0,0,1-2.67-.22c-7.56-1.2-23-16.41-33.3-26.48-2.31-2.25-4.34-4.25-5.8-5.61l-8.46,6.28.19.29a7.1,7.1,0,0,1,.37.62l2.15,5a.48.48,0,0,1,.06.18,9,9,0,0,1,.17,1.61,1,1,0,0,1,0,.17c-.09.62-.13,1.08-.16,1.43-.15,1.69-.57,2-2.15,2.5-.56.17-1.32.4-2.48.84a1.09,1.09,0,0,1-.3.07l-37.56,3.65c-7.78.73-10,1.33-13.28,4.36L950,337c5.11,2.73,7.93,4.23,12.84,9.79a1.19,1.19,0,0,1,.3.72c1.44,28.23-21.47,33.25-43.63,38.11-12.51,2.74-25.45,5.57-34.19,12.5-9.63,7.66-11.22,30.95-12.38,48l-.11,1.56c-1,15.31.89,22.14,1.88,25.8,1.37,5,.56,5.41-5.79,8.43-2.72,1.29-6.78,3.22-12.48,6.32.08,5.28,1.57,7.67,2.49,9.13.58.94,1.09,1.76.81,2.77-.41,1.42-1.92,2.22-7.67,5.05a211.84,211.84,0,0,0-19,10.49l-.15.09,2.32,24.95a1.13,1.13,0,0,1-.4,1c-5.67,4.89-13,6.83-19.57,8.54-6,1.57-11.15,2.93-13.88,6.08-8.22,9.43-9,29.88-9,35.93a1.21,1.21,0,0,1-.59,1c-15.91,9.11-16.4,11.55-17,14.65-.86,4.3-1.94,9.66-31.28,28.9-12.75,8.41-12.91,9.33-14,15.29a74,74,0,0,1-3.19,12.32c-2.2,6.25-4.35,8.37-6.43,10.41a22.46,22.46,0,0,0-3,3.4l-5.06,15.17a1.24,1.24,0,0,1-.19.36.57.57,0,0,0,0,.14,5.58,5.58,0,0,1-.64,1.77,1.1,1.1,0,0,1-.42.38c-8.76,4.69-17,5.52-26.48,6.48-3.05.3-6.2.62-9.61,1.08-8.93,1.22-13.43,4.09-18.19,7.13a56.79,56.79,0,0,1-9.86,5.34,1.16,1.16,0,0,1-.86,0,61.83,61.83,0,0,1-9.82-5.07,34.91,34.91,0,0,0-8.72-4.25c-5.88-1.64-14.17-1.69-21.48-1.75-1.71,0-3.36,0-4.91-.05A107,107,0,0,0,593.76,715c-3.31,5.34-5.91,9.55-13.78,15.73-2.87,2.25-5.55,4-7.9,5.5-6.53,4.22-11.25,7.27-14.26,17.47-3.78,12.8-1,25,7.31,31.73,7.45,6.09,13.38,6.15,19.1,6.21,4.61,0,9.37.1,14.61,3.25a1.27,1.27,0,0,1,.28.24c4,4.68,1.64,11.34-1.1,19-4.36,12.27-9.77,27.51,7.62,42l19.15-4.06a1.18,1.18,0,0,1,1.35.75,48,48,0,0,1,2.66,14.81c.23,3.84.41,7.16,2,11a30.12,30.12,0,0,0,4.13,6.63,44.39,44.39,0,0,1,6.49,11,63,63,0,0,1,2.73,9.17,35.34,35.34,0,0,0,4.55,11.75,46,46,0,0,0,4.44,6.54c.62.74,1.37,1.66.06,2.8-.58.49-2.11,1.8-4,7.68l.31.62c.51,1,.9,1.75,1.18,2.28.64.06,1.34.55,3,2.57.46.55.75.86.92,1,.81,0,.89.14,2.59,3.26a1.18,1.18,0,0,1-.16,1.35c-7.47,8.35-15.79,16.57-28.06,17.44a1.18,1.18,0,0,1-1.07-.53l-7.16-11a1.18,1.18,0,0,1-.17-.4,1.06,1.06,0,0,0-.41-.64l0,0c-2.7.3-5.1.54-7.23.76-16.47,1.71-16.47,1.71-18.35,5.55a40,40,0,0,1-3.66,6.22,1.16,1.16,0,0,1-.92.49c-8.77.19-14.63-1.71-20.27-3.57-5.21-1.71-10.09-3.3-16.79-2.93s-13.87.5-20.85.62c-7.43.13-14.46.25-20.51.66-3.49,6.08-3,9.39-2.74,11.6.67,4.83-.58,5.48-16.64,8.66l-30,8.21A1.1,1.1,0,0,1,461.75,986.62ZM435,444.81l7.45,2.35a1.17,1.17,0,0,1,.81,1.3c-1.87,12.17-2.83,12.6-14.92,14.48l-.19,0a1.13,1.13,0,0,1-.41,0L410,459.44a1.11,1.11,0,0,1-.22-.07l-12.21-5.09c-6.11-.19-8.11,1.9-8.66,2.78a1.39,1.39,0,0,1-.46.44v0c-12.55,7.25-30.5,28.76-31.67,40.83a87,87,0,0,0-.28,13c.22,5.46.39,9.42-3.08,20.24s-1.65,13.17,1.28,17.18a34.48,34.48,0,0,1,4.39,7.49,1.16,1.16,0,0,1-.14,1.15c-9.61,13-80.95,27.05-81.67,27.19a37.9,37.9,0,0,1-7.47.7,91.69,91.69,0,0,1-11.77-1,106.84,106.84,0,0,0-13.65-1.11,56.94,56.94,0,0,0-14.87,1.94c-10.76,2.88-14.09,4.91-15.88,6a5.37,5.37,0,0,1-3.13,1.1,35.35,35.35,0,0,1-6.35-1.15c-2.87-.63-6.82-1.51-12.72-2.68A74.34,74.34,0,0,0,176.87,587c-10.39,0-20.88,1.85-31,3.64s-20.89,3.69-31.55,3.69a73.83,73.83,0,0,1-22.48-3.29c-5.21-1.65-12.25-5.51-20.41-10-14.3-7.83-32.11-17.57-45.22-17.57a20.42,20.42,0,0,0-6.82,1.08v7.92L42,598.38a1.11,1.11,0,0,1,.28,1c-1,6.28-1.7,7.56-2.78,8.92-.67.83-1.42,1.77-2.57,6.7,2,1.61,3.93,2.9,5.76,4.15,5.18,3.55,9.65,6.6,13.87,14.54l.93,1.74c4.92,9.19,7.9,14.73,16.17,18.51a104,104,0,0,0,12.86,4.63,106.9,106.9,0,0,1,15,5.53c3.12,1.47,5.59,2.91,7.76,4.19,4.11,2.41,7.08,4.15,11.38,4.15a29.52,29.52,0,0,0,9.37-1.89,1.18,1.18,0,0,1,1.54,1.31c-3,18-2.88,18.37-.2,25.41,1,2.49,2.25,5.9,3.82,11.14,3.14,10.45,1.1,17.77-.7,24.23-1.4,5-2.72,9.73-1.67,15.51a18.2,18.2,0,0,0,5.78.83,67.72,67.72,0,0,0,9.11-.89,93.86,93.86,0,0,1,13.48-1.19c1.09,0,2.19,0,3.26.09a1.17,1.17,0,0,1,1.08,1.4,24,24,0,0,1-4.39,10.58,27.17,27.17,0,0,0-3.87,7.68,37.38,37.38,0,0,0-1.59,12.14,49.67,49.67,0,0,1-1.37,12.59,1.15,1.15,0,0,1-1.21.88c-4.25-.24-8.62-.69-12.84-1.12-6.33-.64-12.29-1.24-17.86-1.24-9.53,0-15.84,1.9-19.86,6s-5.94,10.55-5.79,19.67a1.14,1.14,0,0,1-.43.92,1.17,1.17,0,0,1-1,.24,51.87,51.87,0,0,1-8.5-2.83,15.82,15.82,0,0,0-5.14-1.55c-3.51,0-6.06,5.89-11.91,27.43A90.19,90.19,0,0,1,64.37,854c-4.1,9-7.35,16.13-3.57,35.69a34.54,34.54,0,0,0,11.71,6.22A82,82,0,0,1,81,899.39l5-4.46.11-.08c6.19-4.33,19.79-6.52,40.43-6.52,15.41,0,30.79,1.22,39,2l6.05-9a.91.91,0,0,1,.18-.21c4.42-4.06,5.95-4.09,11.18-3.52.86.09,1.84.2,3,.3,7.86.68,12.08,1,14.57,1s2.9-.28,3.44-.78c.91-.85,2.15-2,7.86-3.21a1.16,1.16,0,0,1,.95.21c7.88,6,14.46,9,20.09,9,4.35,0,7.72-1.71,11-3.37,3-1.54,6.19-3.13,9.91-3.13a17.36,17.36,0,0,1,9.15,3c3.67,2.25,6,3.85,7.79,5,1.93,1.29,3,2,3.48,2a4.49,4.49,0,0,0,1.42-.59c1.71-.9,4.58-2.39,11.25-3.92a28.8,28.8,0,0,1,6.39-.75,39.41,39.41,0,0,1,10.89,1.88,51.5,51.5,0,0,0,11.56,2.14c9.23-9.62,10.05-9.62,11.64-9.62.63,0,1.62,0,6.74-4.22a84.86,84.86,0,0,0,9.58-9.34c3.5-3.86,5.81-6.42,9.71-6.42,4.15,0,9.46,2.76,22.72,11.78a1.15,1.15,0,0,1,.51,1,59.74,59.74,0,0,1-2.45,16.11c-1.91,7.23-3.16,12,4,20.77,3,3.67,7.72,4.87,13.21,6.26,13.07,3.31,29.35,7.43,33.82,47.16,2.17,19.06,3.88,19.34,10.26,20.37a42.27,42.27,0,0,1,13.34,4.13h12.77l30-8.18c7.59-1.51,12-2.49,13.93-3.46,1.21-.61,1.17-.87.93-2.6-.34-2.44-.9-6.52,3.35-13.65a1.18,1.18,0,0,1,.92-.57c6.26-.45,13.55-.57,21.26-.7,6.95-.12,14.14-.25,20.76-.62,7.16-.4,12.24,1.27,17.65,3s10.85,3.55,18.89,3.47a38.1,38.1,0,0,0,3.13-5.42c2.45-5,2.78-5,20.21-6.84,2.28-.24,4.87-.5,7.81-.82a1.18,1.18,0,0,1,1.07.47,1.76,1.76,0,0,0,.26.28,3.32,3.32,0,0,1,1,1.6l6.67,10.2c10.75-1,18.39-8.38,25.25-16-.25-.46-.52-.94-.71-1.27-.56-.15-1.12-.68-2.15-1.94-.5-.61-.87-1-1.12-1.28a1.27,1.27,0,0,1-.43.09c-.8,0-.8,0-2.89-4.07l-.54-1a1.15,1.15,0,0,1-.08-.89c1.89-5.9,3.54-7.94,4.48-8.84a49,49,0,0,1-4.57-6.73,37.24,37.24,0,0,1-4.81-12.41,59.13,59.13,0,0,0-2.64-8.86A42.5,42.5,0,0,0,633,886.75a32.13,32.13,0,0,1-4.43-7.16c-1.69-4.22-1.9-7.89-2.13-11.76a46.63,46.63,0,0,0-2.19-13.19l-18.7,4a1.15,1.15,0,0,1-1-.23c-19.19-15.67-13.18-32.61-8.78-45,2.57-7.23,4.6-12.95,1.65-16.6-4.62-2.73-8.81-2.77-13.25-2.81-5.85-.07-12.48-.14-20.56-6.74-9-7.38-12.13-20.49-8.08-34.22,3.25-11,8.54-14.44,15.23-18.77,2.32-1.5,5-3.19,7.73-5.37,7.54-5.93,10.05-10,13.24-15.13a106.26,106.26,0,0,1,7.4-10.75,1.25,1.25,0,0,1,1-.45c1.7,0,3.54.06,5.46.07,7.46,0,15.91.11,22.09,1.83A37.38,37.38,0,0,1,637,709a60,60,0,0,0,9,4.72,54.92,54.92,0,0,0,9-5c5-3.18,9.69-6.18,19.13-7.47,3.45-.47,6.62-.79,9.7-1.1,9.51-1,17-1.71,25.27-6,.08-.25.17-.62.22-.82a3.11,3.11,0,0,1,.42-1.08l5-14.93a1,1,0,0,1,.14-.29,24.6,24.6,0,0,1,3.37-3.89c2-1.93,3.84-3.76,5.85-9.51a71,71,0,0,0,3.1-12c1.22-6.75,1.8-8.11,15-16.83,28.52-18.7,29.53-23.73,30.28-27.4.81-4,2.1-7,17.57-15.89.09-7,1.11-27.08,9.57-36.78,3.21-3.7,9-5.21,15.06-6.81s13-3.4,18.17-7.66l-2.33-25.06a1.18,1.18,0,0,1,.56-1.12l.78-.47A210.47,210.47,0,0,1,851,503c3.16-1.57,6.15-3,6.45-3.61,0-.05-.33-.5-.55-.87-1-1.62-2.9-4.63-2.84-11.07a1.15,1.15,0,0,1,.61-1c6.07-3.34,10.36-5.37,13.2-6.72s4.44-2.11,4.91-2.76c.29-.39.14-1-.37-2.93-1-3.8-3-10.87-2-26.58l.1-1.55c1.2-17.45,2.82-41.35,13.28-49.65,9.16-7.26,22.36-10.16,35.14-13,22.06-4.83,42.9-9.4,41.8-35.28-4.46-5-7-6.34-11.92-9-1.33-.72-2.83-1.51-4.56-2.49a1.17,1.17,0,0,1-.58-.87,1.15,1.15,0,0,1,.34-1c4.71-4.64,7.21-5.3,15.84-6.1L997.32,325c1.16-.44,2-.68,2.51-.84l.44-.13c0-.1,0-.2,0-.33,0-.36.07-.84.16-1.47a8.6,8.6,0,0,0-.08-.9l-2.07-4.79-.22-.33a6.26,6.26,0,0,1-.82-1.59,1.15,1.15,0,0,1,.42-1.28l10-7.43a1.16,1.16,0,0,1,1.48.06c1.51,1.35,3.75,3.55,6.58,6.33,9.43,9.26,25.21,24.76,32,25.83a14.6,14.6,0,0,0,2.3.2c3.88,0,5.79-1.85,7.8-3.79,1.82-1.76,3.71-3.58,6.89-3.58,2.16,0,4.73.87,7.84,2.67,4.53,2.6,6.61,6.42,8.8,10.46a38.24,38.24,0,0,0,6.53,9.42c5.81-.92,8.59-3.15,11.79-5.73a38.42,38.42,0,0,1,10.53-6.46,1.21,1.21,0,0,1,1.16.16,1.17,1.17,0,0,1,.44,1.09l-2.64,19.69c2.55-1.18,4.78-2.45,7-3.68,5.58-3.17,10.85-6.16,20-7a1.16,1.16,0,0,1,1.1.54,50.89,50.89,0,0,1,4.44,10.06c2.14,6,4,11.2,9.29,13.08a18.65,18.65,0,0,0,5.59,1.32c1.65,0,1.9-.58,2.34-3.3.66-4.06,1.65-10.13,14.2-12.07v-.94c-5.46-8.06-6.88-14.09-9-23.18-.5-2.07-1-4.3-1.64-6.75-5.19-20.47-12-25.7-17.42-29.9-4.89-3.76-9.11-7-9.95-19.21-2.79-40.38.25-43.56,6.83-46.45,2.74-1.2,5.83-2.56,9-9.37a67.18,67.18,0,0,0-27.92-9.51c-20.57-2.62-22.83-15.28-25.22-28.68-1-5.66-2.06-11.51-4.5-17-1.73-3.85-2.68-4.82-3-5.05a1.43,1.43,0,0,1-1.37-.28c-.41-.42-.4-.76-.35-2.19,0-1.06.09-3,.09-6.43a30.79,30.79,0,0,1,.7-6,49.1,49.1,0,0,0,1-7.93,56.6,56.6,0,0,0-15.55-1.74l-3.41,0c-1.18,0-2.37,0-3.58,0-2.11,0-4.92,0-8-.28l-.26,0-49.7-15.6a.67.67,0,0,1-.18-.07c-6.43-3.26-8.2-6.57-9.91-9.77a19.88,19.88,0,0,0-4.41-6.06L972,114a1.16,1.16,0,0,1-1.38-.84c-2.87-10.74-4.66-11.69-6.92-12.91-1.84-1-4.12-2.21-7.16-7.36a1.2,1.2,0,0,1-.12-.91c1-3.73,2.94-6.26,4.8-8.72,4.06-5.35,7.57-10-1.77-26.69-7.37-13.16-12.07-13-28.43-12.46-1.26,0-2.57.09-4,.12a1.15,1.15,0,0,1-1-.46,30.14,30.14,0,0,1-4.31-8.09c-1.43-3.62-2.56-6.48-7.9-9.23-3.48-1.83-7.55-2.66-11.85-3.52-4.11-.83-8.35-1.69-12-3.51H874.09c-15.72,8.77-27.45,13-35.85,13a23.05,23.05,0,0,1-10.79-2.71,13.32,13.32,0,0,0-4.76-1.57q-.3,0-.66,0c-3.42,0-11.86,1.15-22.55,2.6-19.05,2.58-45.14,6.11-64.26,6.11a98.82,98.82,0,0,1-12-.63c-1.09,2.28-.58,4.44,0,6.72,1,4,2,8.6-8.33,11.46a45.77,45.77,0,0,1-8.9,1.47c-5.74.5-6.78.59-5.9,12.7a1.15,1.15,0,0,1-.49,1,1.16,1.16,0,0,1-1.14.13c-3.85-1.63-5.93-2.4-7.36-2.4-1.63,0-2.6,1-5.41,4.32-1.1,1.29-2.47,2.89-4.22,4.77a75.92,75.92,0,0,1-5.73,5.34c-4.17,3.63-8.48,7.38-10.64,12.8a38.23,38.23,0,0,0,10.48,8.12c5.85,3.44,10.9,6.4,11.38,16.81.34,7.26,1.58,10.6,2.4,12.82,1.71,4.61,1.64,5.63-6.85,18.69l7.19,9.43a1.18,1.18,0,0,1,.14,1.2c-6.1,13.51-16,23.11-24.82,31.58-8.38,8.08-15,14.48-15.09,21.32a40.55,40.55,0,0,0,4.69,7.51c3.29,4.56,6.69,9.26,5.73,13.7-.51,2.41-2.21,4.41-5.16,6.1a15.71,15.71,0,0,1-9,2.12,13.79,13.79,0,0,0-7.87,1.8,16,16,0,0,0-3.13,2.08l.08.11c.93,1.3,1.69,3-1,6.89a1.18,1.18,0,0,1-.94.5c-21.53.32-32.23-.59-52.09-5,.45,4.89,2,12.68,3.51,16.08a34.3,34.3,0,0,1,1.83,5c.85.31,2.5,1.15,6.34,4.28,6.86,5.57,10.38,26.45,10.45,31a1.22,1.22,0,0,1-.36.86c-11.18,10.85-21.12,11.65-29.1,12.29-8.48.67-14.61,1.16-19.12,12.84a11.77,11.77,0,0,0-.6,1.78c.17.59.06.77-1.68,3.7-1.27,2.14-2.05,2.64-3,3.1-.68.34-1.44.71-3.29,3.7l3.7,12.44a1.19,1.19,0,0,1-.24,1.1,35.73,35.73,0,0,1-6.8,6.2c-3.67,2.68-4.43,3.24-2.28,17.74a80.14,80.14,0,0,0,3.55,13.82,77.26,77.26,0,0,1,3.42,13.18,1.19,1.19,0,0,1-.77,1.28,23.25,23.25,0,0,1-7.21,1.67,7.26,7.26,0,0,1-1.76-.21,2.39,2.39,0,0,0-.4-.07c-.55,0-3.19,2.51-5.75,4.93A80.55,80.55,0,0,0,524,426.1l-.84,1.12a1.2,1.2,0,0,1-.5.39c-.64.24-1.21.47-1.74.69-2.51,1-4.17,1.69-6.67,1.69a28.48,28.48,0,0,1-5.66-.74,1.15,1.15,0,0,1-.66-.39c-1.63-1.92-3-3.65-4.23-5.18-3.71-4.67-5.75-7.24-8.68-7.24s-7.55,2.61-14.27,7.13a1.14,1.14,0,0,1-1,.14l-1.05-.35c-5.64-1.89-6-2-7-3.85a15.85,15.85,0,0,0-1.83-2.75c-13,14.35-16.67,16.31-21.33,18.78"/></g></g></svg>