<svg xmlns="http://www.w3.org/2000/svg" xmlns:xlink="http://www.w3.org/1999/xlink" xmlns:v="https://vecta.io/nano" viewBox="0 0 803.54 958.08"><style><![CDATA[.B{isolation:isolate}.Bi,.Bk,.CL{mix-blend-mode:multiply}.Cb{fill:none}.Cc{fill:#2e5070}.Cd{fill:#20384f}.Ce{fill:#689ed1}.Cf{fill:#33597d}.Cg{stroke-miterlimit:10}.Ch{fill:#284561}.Ci{fill:#2b4c6a}.Cj{fill:#294764}.Ck{fill:#2a4967}.Cl{fill:#2d4e6d}.Cm{fill:#305477}.Cn{fill:#32567a}.Co{fill:#5e8fbd}.Cp{fill:#547fa8}.Cq{fill:#517ca3}.Cr{fill:#2f5274}.Cs{fill:#f1b2a2}.Ct{fill:#ffd3c8}.Cu{fill:#669acc}.Cv{fill:#6397c7}.Cw{fill:#6193c2}.Cx{fill:#5b8bb8}.Cy{fill:#5987b3}.Cz{fill:#5683ad}.DA{fill:#3e6c98}.DB{fill:#426485}.DC{fill:#345b80}.DD{stroke-width:.47}.DE{fill:#828282}.DF{fill:#213a52}.DG{fill:#061537}.DH{fill:#6ba2d6}.DI{fill:#26435e}.DJ{fill:#25415b}.DK{fill:#243f58}.DL{fill:#233c55}.DM{fill:#6b8094}.DN{stroke:#99776c}.DO{stroke-linecap:round}.DP{fill:#45688a}.DQ{fill:#476c8f}.DR{fill:#4a7094}.DS{fill:#4c7499}.DT{fill:#4f789e}.DU{fill:#5d6f80}.DV{fill:#607284}.DW{fill:#637688}.DX{fill:#66798c}.DY{fill:#687d90}.DZ{fill:#6e8398}.Da{fill:#71879c}.Db{fill:#748aa0}.Dc{fill:#778ea4}.Dd{fill:#ff9378}.De{stroke-width:.31}.Df{fill:#7fc1ff}.Dg{fill:#919191}.Dh{fill:#949494}.Di{fill:#969696}.Dj{fill:#9c9c9c}.Dk{fill:#9e9e9e}.Dl{fill:#a1a1a1}.Dm{fill:#a3a3a3}.Dn{fill:#a6a6a6}.Do{fill:#a8a8a8}.Dp{stroke:#061537}.Dq{stroke-linejoin:round}.Dr{stroke-width:4.67}]]></style><defs><clipPath id="A" transform="translate(9.06 77.01)"><path d="M583.14 690.33c0 .2-.07.38-.1.57l-6.57-4.39c0-.19.06-.38.09-.57l6.58 4.39z" class="Cb"></path></clipPath><clipPath id="B" transform="translate(9.06 77.01)"><path d="M583,690.9a7.81,7.81,0,0,0,1.14,5.56l-6.57-4.39a7.77,7.77,0,0,1-1.14-5.56Z" class="Cb"></path></clipPath><clipPath id="C" transform="translate(9.06 77.01)"><path d="M584.18 696.46a5.86 5.86 0 0 0 1.58 1.56l-6.58-4.39a6.09 6.09 0 0 1-1.55-1.53l6.55 4.38-6.55-4.38h0l3.28 2.19.43.29 1.69 1.13.4.27a5.71 5.71 0 0 1 .75.48z" class="Cb"></path></clipPath><clipPath id="D" transform="translate(9.06 77.01)"><path d="M579.86 694l6.57 4.39a6.44 6.44 0 0 1-.6-.34l-6.57-4.39a6.44 6.44 0 0 0 .6.34z" class="Cb"></path></clipPath><clipPath id="E" transform="translate(9.06 77.01)"><path d="M580.49 694.27l6.58 4.4-.64-.27-6.57-4.4a5.6 5.6 0 0 0 .63.27z" class="Cb"></path></clipPath><clipPath id="F" transform="translate(9.06 77.01)"><path d="M576.7 738.32l-6.58-4.39a16.82 16.82 0 0 0 9.42 2.75l6.57 4.39a16.68 16.68 0 0 1-9.41-2.75z" class="Cb"></path></clipPath><linearGradient id="G" x1="-11.38" y1="6081.58" x2="-10.97" y2="6074.18" gradientTransform="matrix(93.47, 0, 0, -51.5, 1306.89, 313280.42)" gradientUnits="userSpaceOnUse"><stop offset="0" stop-color="#d3f7ff"></stop><stop offset="1" stop-color="#dff4ff"></stop></linearGradient><linearGradient id="H" xlink:href="#G"></linearGradient><clipPath id="I" transform="translate(9.06 77.01)"><path d="M621.35 452.67l-6.58-4.39a1.69 1.69 0 0 0 .49.23l6.57 4.39a1.64 1.64 0 0 1-.48-.23z" class="Cb"></path></clipPath><clipPath id="J" transform="translate(9.06 77.01)"><path d="M637.71 416.63l6.57 4.39c-4.29 0-8.53 3.89-9.48 8.69l-6.57-4.39c.95-4.8 5.19-8.69 9.48-8.69z" class="Cb"></path></clipPath><clipPath id="K" transform="translate(9.06 77.01)"><path d="M614.81 485.69l-6.58-4.39a2 2 0 0 0 .49.23l6.57 4.39a1.53 1.53 0 0 1-.48-.23z" class="Cb"></path></clipPath><clipPath id="L" transform="translate(9.06 77.01)"><path d="M701.63,411.64h0l-6.57-4.39h0l6.57,4.39Z" class="Cb"></path></clipPath><clipPath id="M" transform="translate(9.06 77.01)"><path d="M704.28,409.21a3,3,0,0,0-2.65,2.43l-6.57-4.39a3,3,0,0,1,2.65-2.43Z" class="Cb"></path></clipPath><clipPath id="N" transform="translate(9.06 77.01)"><path d="M701.63,411.64a2,2,0,0,0,.74,2.15l-6.58-4.39a2.06,2.06,0,0,1-.73-2.15Z" class="Cb"></path></clipPath><clipPath id="O" transform="translate(9.06 77.01)"><path d="M702.37 413.79l-6.58-4.39a1.7 1.7 0 0 0 1 .28l6.57 4.39a1.66 1.66 0 0 1-.99-.28z" class="Cb"></path></clipPath><clipPath id="P" transform="translate(9.06 77.01)"><path d="M711.2,402.43h0L704.63,398h0l6.57,4.39Z" class="Cb"></path></clipPath><clipPath id="Q" transform="translate(9.06 77.01)"><path d="M714.81,399.13a4,4,0,0,0-3.61,3.3L704.63,398a4,4,0,0,1,3.61-3.31Z" class="Cb"></path></clipPath><clipPath id="R" transform="translate(9.06 77.01)"><path d="M716.1,399.5a2.3,2.3,0,0,0-1.29-.37l-6.57-4.4a2.31,2.31,0,0,1,1.29.38Z" class="Cb"></path></clipPath><clipPath id="S" transform="translate(9.06 77.01)"><path d="M711.2,402.43a2.75,2.75,0,0,0,1,2.92L705.63,401a2.75,2.75,0,0,1-1-2.92Z" class="Cb"></path></clipPath><clipPath id="T" transform="translate(9.06 77.01)"><path d="M709.53 395.11l6.57 4.39a2.77 2.77 0 0 1 1 2.93 4 4 0 0 1-3.6 3.3 2.34 2.34 0 0 1-1.3-.38l-6.57-4.35a2.32 2.32 0 0 0 1.3.38 4 4 0 0 0 3.6-3.3 2.77 2.77 0 0 0-1-2.97z" class="Cb"></path></clipPath><clipPath id="U" transform="translate(9.06 77.01)"><path d="M722.29,409.49a1.7,1.7,0,0,0-1-.28l-6.57-4.39a1.77,1.77,0,0,1,1,.27Z" class="Cb"></path></clipPath><clipPath id="V" transform="translate(9.06 77.01)"><path d="M715.72 405.09l6.57 4.4a2 2 0 0 1 .74 2.15 3 3 0 0 1-2.66 2.43l-6.57-4.39a3 3 0 0 0 2.65-2.43 2 2 0 0 0-.73-2.16z" class="Cb"></path></clipPath><clipPath id="W" transform="translate(9.06 77.01)"><path d="M581.16,694.47l6.57,4.39-.66-.19-6.58-4.4Z" class="Cb"></path></clipPath><clipPath id="X" transform="translate(9.06 77.01)"><path d="M581.87,694.59l6.57,4.39-.71-.12-6.57-4.39Z" class="Cb"></path></clipPath><clipPath id="Y" transform="translate(9.06 77.01)"><path d="M582.6 694.63l6.57 4.39h-.73l-6.57-4.39c.24-.02.48 0 .73 0z" class="Cb"></path></clipPath><clipPath id="Z" transform="translate(9.06 77.01)"><path d="M780.38,422a6,6,0,0,0-3.41-1l-6.57-4.39a6.06,6.06,0,0,1,3.41,1Z" class="Cb"></path></clipPath><clipPath id="a" transform="translate(9.06 77.01)"><path d="M773.81 417.63l6.57 4.39c2.17 1.45 3.28 4.35 2.62 7.69l-6.57-4.39c.66-3.32-.43-6.24-2.62-7.69z" class="Cb"></path></clipPath><clipPath id="b" transform="translate(9.06 77.01)"><path d="M652.39,707.71c-6.07,0-12.1,5.53-13.45,12.33l-6.57-4.39c1.35-6.81,7.38-12.33,13.45-12.33Z" class="Cb"></path></clipPath><clipPath id="c" transform="translate(9.06 77.01)"><path d="M644.59,718.81a9.3,9.3,0,0,0-.39,1.3l-6.57-4.39a8.13,8.13,0,0,1,.39-1.3Z" class="Cb"></path></clipPath><clipPath id="d" transform="translate(9.06 77.01)"><path d="M644.2,720.11a.52.52,0,0,0,0,.11l-6.57-4.39a.43.43,0,0,1,0-.11Z" class="Cb"></path></clipPath><clipPath id="e" transform="translate(9.06 77.01)"><path d="M644.18,720.22c0,.21-.08.42-.1.62l-6.57-4.39a4.44,4.44,0,0,1,.1-.62Z" class="Cb"></path></clipPath><clipPath id="f" transform="translate(9.06 77.01)"><path d="M644.08,720.84v0l-6.58-4.4v0Z" class="Cb"></path></clipPath><clipPath id="g" transform="translate(9.06 77.01)"><path d="M648.84,714.2a8.51,8.51,0,0,0-3.58,3.27l-6.57-4.39a8.39,8.39,0,0,1,3.58-3.27Z" class="Cb"></path></clipPath><clipPath id="h" transform="translate(9.06 77.01)"><path d="M644 721.63l-6.57-4.39v-.75l6.58 4.4a6.27 6.27 0 0 0-.01.74z" class="Cb"></path></clipPath><clipPath id="i" transform="translate(9.06 77.01)"><path d="M650,713.78a6.58,6.58,0,0,0-1.2.42l-6.57-4.39a6.75,6.75,0,0,1,1.19-.42Z" class="Cb"></path></clipPath><clipPath id="j" transform="translate(9.06 77.01)"><path d="M650.11 713.77H650l-6.58-4.39h.07z" class="Cb"></path></clipPath><clipPath id="k" transform="translate(9.06 77.01)"><path d="M650.11 713.77l-6.58-4.4a6.19 6.19 0 0 1 1.28-.14l6.57 4.39a5.44 5.44 0 0 0-1.27.15z" class="Cb"></path></clipPath><clipPath id="l" transform="translate(9.06 77.01)"><path d="M651.92,713.65a4.63,4.63,0,0,0-.54,0l-6.57-4.39a4.87,4.87,0,0,1,.54,0Z" class="Cb"></path></clipPath><clipPath id="m" transform="translate(9.06 77.01)"><path d="M652.6,713.77a3.71,3.71,0,0,0-.68-.12l-6.57-4.4c.23,0,.46.07.68.12Z" class="Cb"></path></clipPath><clipPath id="n" transform="translate(9.06 77.01)"><path d="M648.51 711l-2.51-1.63h.05l2 1.33 1.28.86 3.29 2.2h0z" class="Cb"></path></clipPath><clipPath id="o" transform="translate(9.06 77.01)"><path d="M652.66,713.78h0l-.77-.51-.4-.27-5.4-3.61h0Z" class="Cb"></path></clipPath><clipPath id="p" transform="translate(9.06 77.01)"><path d="M657.24,709.13a8.63,8.63,0,0,0-4.85-1.42l-6.57-4.39a8.58,8.58,0,0,1,4.85,1.42Z" class="Cb"></path></clipPath><clipPath id="q" transform="translate(9.06 77.01)"><path d="M638.94,720c-.94,4.75.63,8.87,3.72,10.93l-6.57-4.39c-3.09-2.07-4.66-6.18-3.72-10.93Z" class="Cb"></path></clipPath><clipPath id="r" transform="translate(9.06 77.01)"><path d="M654,714.37a4.57,4.57,0,0,0-1.31-.59l-6.57-4.39a4.4,4.4,0,0,1,1.3.59Z" class="Cb"></path></clipPath><clipPath id="s" transform="translate(9.06 77.01)"><path d="M644,721.63a5.2,5.2,0,0,0,2.15,4.44l-6.57-4.39a5.2,5.2,0,0,1-2.15-4.44Z" class="Cb"></path></clipPath><clipPath id="t" transform="translate(9.06 77.01)"><path d="M647 710.59l6.57 4.4a4 4 0 0 0-2.31-.68c-2.9 0-5.79 2.66-6.44 5.91a4.94 4.94 0 0 0 1.79 5.23l-6.61-4.39a4.94 4.94 0 0 1-1.79-5.23c.65-3.26 3.54-5.91 6.44-5.91a4.1 4.1 0 0 1 2.35.67z" class="Cb"></path></clipPath><clipPath id="u" transform="translate(9.06 77.01)"><path d="M648.9,726.13a4.13,4.13,0,0,1-2.31-.68L640,721.06a4.1,4.1,0,0,0,2.31.67Z" class="Cb"></path></clipPath><clipPath id="v" transform="translate(9.06 77.01)"><path d="M653.55,715a4.93,4.93,0,0,1,1.79,5.23l-6.57-4.39a5,5,0,0,0-1.79-5.24Z" class="Cb"></path></clipPath><clipPath id="w" transform="translate(9.06 77.01)"><path d="M655.34,720.22c-.64,3.26-3.53,5.91-6.44,5.91l-6.57-4.4c2.91,0,5.79-2.64,6.44-5.9h0Z" class="Cb"></path></clipPath><clipPath id="x" transform="translate(9.06 77.01)"><path d="M647.39 710l6.58 4.39a5.54 5.54 0 0 1 2 5.85c-.72 3.64-4 6.61-7.2 6.61a4.61 4.61 0 0 1-2.58-.76l-6.57-4.39a4.61 4.61 0 0 0 2.58.76c3.25 0 6.48-3 7.2-6.61a5.53 5.53 0 0 0-2.01-5.85z" class="Cb"></path></clipPath><clipPath id="y" transform="translate(9.06 77.01)"><path d="M650.67 704.74l6.57 4.39c3.09 2.06 4.66 6.18 3.72 10.91-1.35 6.82-7.37 12.34-13.46 12.34a8.66 8.66 0 0 1-4.84-1.41l-6.57-4.39a8.62 8.62 0 0 0 4.84 1.41c6.09 0 12.11-5.52 13.46-12.34.94-4.73-.63-8.85-3.72-10.91z" class="Cb"></path></clipPath><clipPath id="z" transform="translate(9.06 77.01)"><path d="M741.68 587.89l6.57 4.39a5.17 5.17 0 0 1 2 2.65l-6.57-4.39a5.28 5.28 0 0 0-2-2.65z" class="Cb"></path></clipPath><clipPath id="AA" transform="translate(9.06 77.01)"><path d="M724.76 685.94l6.57 4.39c-1 4.8-5.19 8.69-9.47 8.69l-6.57-4.39c4.28 0 8.52-3.89 9.47-8.69z" class="Cb"></path></clipPath><clipPath id="AB" transform="translate(9.06 77.01)"><path d="M780.14 389.49l6.57 4.39c6 4 9.07 12 7.24 21.24l-6.57-4.39c1.83-9.22-1.23-17.22-7.24-21.24z" class="Cb"></path></clipPath><clipPath id="AC" transform="translate(9.06 77.01)"><path d="M727.52 712.7l6.57 4.39c-2.62 13.25-14.34 24-26.16 24l-6.57-4.39c11.82-.02 23.53-10.7 26.16-24z" class="Cb"></path></clipPath><clipPath id="AD" transform="translate(9.06 77.01)"><path d="M778.93 467l6.58 4.39a2.34 2.34 0 0 1 .83 2.46l-6.57-4.39a2.32 2.32 0 0 0-.84-2.46z" class="Cb"></path></clipPath><clipPath id="AE" transform="translate(9.06 77.01)"><path d="M774.44 515.57l-6.57-4.39a1.93 1.93 0 0 0 1.08.31 3.39 3.39 0 0 0 3-2.77l6.57 4.39a3.4 3.4 0 0 1-3 2.78 1.94 1.94 0 0 1-1.08-.32z" class="Cb"></path></clipPath><clipPath id="AF" transform="translate(9.06 77.01)"><path d="M253.24 202.78c.61 4.43-2.91 8.32-7.87 8.71h-.75l-173.83.09c-4.75 0-8.85-3.31-9.3-7.55l-2.87-27L43.15 32.21c-.46-4.43 3.17-8.26 8.13-8.52L225 23.61c4.64 0 8.7 3.17 9.26 7.32l18 164.88z" class="Cb"></path></clipPath><clipPath id="AG" transform="translate(9.06 77.01)"><path d="M165.06 142.15s39.25 29.63 46.53 17c0 0 4.71-8.54 1-26.38 0 0 5.39-.57 5.32-2.51s-.74-2.16-6.83-2.82-4.34-8-.22-7 8 7.18 10.25 6-.46-4.63-.46-4.63 2.87 3.77 4.4 1.58-.77-4.46-.77-4.46a3.8 3.8 0 0 0 4.23.7c2.21-1.21-4-9.25-7.11-9.25 0 0-3.11-.31-3.57 1.49 0 0-4.58-1.85-5.41.88 0 0-5.07-.74-6.55 3.14 0 0-4.69-.43-3.4 8.74s1.64 15.28-.26 15.28-27.58-34.66-40.65-38.6 3.5 40.84 3.5 40.84z" class="Cb"></path></clipPath><clipPath id="AH" transform="translate(9.06 77.01)"><path d="M109.05 402.26h26.29l-.79 45.8H110.8s-13.72-2.18-13.8-3.68l17-6.18a4.3 4.3 0 0 0 2.72-5.08z" class="Cb"></path></clipPath><clipPath id="AI" transform="translate(9.06 77.01)"><path d="M200,406.72l11.46-11.22,11.65,30.62a20.58,20.58,0,0,0,5.76,8.27l11.83,10.26s-8.07,3.54-14.54,1.86-19.67-11.81-19.67-11.81Z" class="Cb"></path></clipPath><clipPath id="AJ" transform="translate(9.06 77.01)"><path d="M121.85 206s-15.42 11.17-18.61 16.62c-7.12 12.11-3.5 25.75-1.84 47.14C105 316.27 109.28 413 109.28 413h28l16.81-145.83s1.49 47.45 44 146.13l30.07.13-36.96-190.8L133.52 190z" class="Cb"></path></clipPath><clipPath id="AK" transform="translate(9.06 77.01)"><path d="M120.68 100.07a5.4 5.4 0 0 0-2.12 0q-28 11.61-23.87 34.31c4.28 23.47 16.68 43.15 16.25 68.3l-12.1 27.21s20.67-6.85 36.87 1.89c30.83 16.63 56.85-9.39 56.85-9.39s-9.4-48.26-10.49-63.31c-.63-8.69 2.92-8.83 4.17-14.89 2.35-11.32-7.49-19.34-13.75-27.26-4-5.06-6.88-9.71-8.26-11.8-5.73-8.65-9.38-3.51-12.38-5.06-9.4-4.87-31.17 0-31.17 0z" class="Cb"></path></clipPath><clipPath id="AL" transform="translate(9.06 77.01)"><path d="M97.43,121.4c3.47-7.63,17.59-12.5,27.31,6.34s18.8,42.09,18.8,42.09,34.73-25.5,42.45-27.66,23.42-2.76,34.41,3.66,13.35,10.21,12.29,10.69c-.57.26-4.18-1.88-10.48-4.56a28.89,28.89,0,0,0-4.66-1.17s2.93,4.68-.08,4.68c0,0-1,2.62-3.13,2.44,0,0,.66,2.13-3.25,1.93s-6.63-.06-6.58-3.15c0,0-7.43-2.27-8.88-4.73,0,0-1.73-1.58-5.3.92s-43.66,67.52-69.65,36.58S94,129,97.43,121.4Z" class="Cb"></path></clipPath><clipPath id="AM" transform="translate(9.06 77.01)"><path d="M161.77 57.13S173.87 88 155 90.7c0 0-10 4.88-9.07 5.6a108.63 108.63 0 0 0 11.33 3.56s10.36 14-4 18.09-35.75-17.47-35.75-17.47a32.62 32.62 0 0 1 4.88-1.57c4.23-.88 6.48-1.2 6.51-2.61a40.32 40.32 0 0 0-1.4-15.15 102.56 102.56 0 0 0-6.62-12.85s8.21-9.84 14.69-16.17S153.75 50 153.75 50a29.35 29.35 0 0 1 6.35 3 7 7 0 0 1 1.67 4.13z" class="Cb"></path></clipPath><clipPath id="AN" transform="translate(9.06 77.01)"><ellipse cx="672.24" cy="467.52" rx="24.7" ry="20.19" transform="matrix(.741742 -.670686 .670686 .741742 -139.95 571.57)" class="Cb"></ellipse></clipPath><clipPath id="AO" transform="translate(9.06 77.01)"><path d="M685.85 478.18s2.45 12.59 1.66 16.72c-.12.57-2.09.35-2.25.86l-6.81-1.6.55-15.46 4.64-1.35z" class="Cb"></path></clipPath><clipPath id="AP" transform="translate(9.06 77.01)"><path d="M654,476.49l6.16,3.63a16.41,16.41,0,0,1-.82,6.44c-1.14,2.59-6.6,5.63-6.25,8.8,0,0,6.34-2,10.22,0s7.58,6.31,11.91,5.34c0,0,1.57-16.48,4-21.19l6.73-1.33s-1.06-7.86-6.73-9.68a22.85,22.85,0,0,0-7.49-1A20.48,20.48,0,0,0,654,476.49Z" class="Cb"></path></clipPath><clipPath id="AQ" transform="translate(9.06 77.01)"><path d="M680.23 457.11s1.62 7.83-3.28 8.52c0 0-2.76 1.24-2.56 1.43a23.74 23.74 0 0 0 2.7.9 7.12 7.12 0 0 1-6.07 3.29 3.93 3.93 0 0 1-4.09-3.45l1.27-.16c1.08-.13 1.8-.23 1.87-.58a10.21 10.21 0 0 0 .36-3.85 22.33 22.33 0 0 0-1.07-3.27l4.48-4.11c1.94-1.61 4.7-.53 4.7-.53a5.81 5.81 0 0 1 1.46.77 1.47 1.47 0 0 1 .23 1.04z" class="Cb"></path></clipPath><clipPath id="AR" transform="translate(9.06 77.01)"><path d="M641.65 481.21s-.71-3.19-3.11-3.29-6.17-4.07-6.19-5.07c0-.65.31-.58.52-.52s.2.06.19 0a.64.64 0 0 1 .47-.62h.12c.33 0 .86 1.14.86 1.14v-2.06c0-.13.88 0 .76 1.07a1.29 1.29 0 0 0 .54 1.36c.52-.33.51.13 1.15 1a2.48 2.48 0 0 0 2.25.81 25.88 25.88 0 0 0-1.76-2.24c-.36-.48.23-1.78 1-.9a19.09 19.09 0 0 0 2.87 2.33c1.4.29 2.46 2.46 3 3.85h0l3.71 4.84a39.43 39.43 0 0 0 3 3l3.18-9.25 5.93 3.55s-3.2 10.72-7.51 12.89a2.27 2.27 0 0 1-1.36.2c-4.27-.8-9.62-12.09-9.62-12.09z" class="Cb"></path></clipPath><clipPath id="AS" transform="translate(9.06 77.01)"><path d="M687.26 495.84c-3.44 3.09-11.42-1.28-14.28-4.11 0 0-4.08-1.54-4.08-2.49s.5-1.05.5-1.05a1.46 1.46 0 0 1 .11-1.2s-.08-1 .29-1.26c0 0 0-1.28 1.93-1.42 0 0-.38.8 0 1.07s2.21.62 2.3.16-.89-1.58-.21-2.35.65 1 1.49 1.68a3.25 3.25 0 0 1 1.07 3.61s-.21 1.13 4.52 1.38c2.5.13 5.12.21 6.23 1.37s1.75 3.15.13 4.61z" class="Cb"></path></clipPath><path id="AT" d="M585.57 763.23l6.58 4.39a9 9 0 0 0-.1 2.47l-6.57-4.39a9.42 9.42 0 0 1 .09-2.47"></path><path id="AU" d="M586.4 768.65l6.57 4.39a3.87 3.87 0 0 0 .27.43l-6.57-4.39a3.87 3.87 0 0 1-.27-.43"></path><path id="AV" d="M704.19 484.01l6.58 4.39c0 .09-.06.19-.08.28s0 .05 0 .08l-6.57-4.39v-.08c0-.03.05-.19.07-.28"></path><path id="AW" d="M713.79 474.67l6.57 4.39c0 .12-.07.25-.1.38s0 .07 0 .11l-6.58-4.39a.43.43 0 0 0 0-.11c0-.13.06-.26.1-.38"></path><path id="AX" d="M659.73 781.75l6.57 4.39a8.63 8.63 0 0 0-4.85-1.42 11.37 11.37 0 0 0-4.71 1.08l-6.57-4.39a11.37 11.37 0 0 1 4.71-1.08 8.58 8.58 0 0 1 4.85 1.42"></path><path id="AY" d="M641.79 791.23l6.57 4.39-.36 1.43c0 .14-.05.27-.07.4l-6.57-4.39c0-.13.05-.27.07-.4l.36-1.43"></path><path id="AZ" d="M646.86 792.07l6.57 4.4a6.49 6.49 0 0 0-.19.76 1.55 1.55 0 0 0 0 .21l-6.61-4.43a1.55 1.55 0 0 1 0-.21 7.2 7.2 0 0 1 .19-.77"></path><path id="Aa" d="M646.63 793.01l6.57 4.39a7 7 0 0 0-.07 1.87l-6.58-4.39a7 7 0 0 1 .08-1.87"></path><path id="Ab" d="M651.35 786.81l6.57 4.39q-.32.15-.63.33l-6.57-4.39.63-.33"></path><path id="Ac" d="M656.45 787.01l6.58 4.39a4.64 4.64 0 0 0-2.59-.75 6.09 6.09 0 0 0-2.52.57l-6.57-4.39a6.05 6.05 0 0 1 2.52-.57 4.58 4.58 0 0 1 2.58.75"></path><path id="Ad" d="M653.64 798.23l6.58 4.39a5.48 5.48 0 0 1-2.26.52 4.11 4.11 0 0 1-2.31-.68l-6.59-4.39a4.1 4.1 0 0 0 2.31.67 5.39 5.39 0 0 0 2.25-.51"></path><path id="Ae" d="M657.86 792.65l6.58 4.39v.19a5.78 5.78 0 0 1-.17.69l-6.57-4.39c.07-.23.12-.46.17-.69v-.19"></path><path id="Af" d="M172.21 335.67l3.43 5 5.68.81-3.25 3.89 2.01 5.5-5.44-2.6-4.44 2.6-.12-5.5-4.74-3.89 5.36-.81 1.51-5z"></path></defs><g class="B"><g class="B" clip-path="url(#A)"><g><path d="M585.62 762.95l6.58 4.39v.28l-6.58-4.39a2.74 2.74 0 0 0 0-.28" class="Ce"></path><use xlink:href="#AT" class="DH"></use></g></g><g class="B" clip-path="url(#B)"><g><use xlink:href="#AT" class="DH"></use><path d="M585.48 765.7l6.57 4.39a8.47 8.47 0 0 0 .19 1.14l-6.57-4.39a7.14 7.14 0 0 1-.19-1.14" class="Ce"></path><path d="M585.67 766.84l6.57 4.39.23.74-6.57-4.39c-.09-.24-.16-.49-.23-.74" class="Cu"></path><path d="M585.9 767.58l6.57 4.39a5.89 5.89 0 0 0 .24.58l-6.57-4.39a5.89 5.89 0 0 1-.24-.58" class="Cv"></path><path d="M586.14 768.16l6.57 4.39.26.49-6.57-4.39a4.59 4.59 0 0 1-.26-.49" class="Cw"></path><use xlink:href="#AU" class="Co"></use></g></g><g class="B" clip-path="url(#C)"><g><use xlink:href="#AU" class="Co"></use><path d="M586.67 769.08l6.57 4.39.29.38-6.58-4.39c-.1-.12-.19-.25-.28-.38" class="Cx"></path><path d="M586.95 769.46l6.58 4.39a3.27 3.27 0 0 0 .3.35l-6.57-4.39-.31-.35" class="Cy"></path><path d="M587.26 769.81l6.57 4.39c.1.11.21.21.32.31l-6.57-4.39-.32-.31" class="Cz"></path><path d="M587.58 770.12l6.57 4.39.35.29-6.57-4.39-.35-.29" class="Cp"></path><path d="M587.93 770.41l6.57 4.39.32.23-6.57-4.39-.32-.23" class="Cq"></path></g></g><g class="B DE" clip-path="url(#D)"><g><path d="M588.92 771.01l6.57 4.39a6.44 6.44 0 0 1-.6-.34l-6.57-4.39a6.44 6.44 0 0 0 .6.34"></path></g></g><g class="B DE" clip-path="url(#E)"><g><path d="M589.55 771.28l6.58 4.4-.64-.27-6.57-4.4a5.6 5.6 0 0 0 .63.26"></path></g></g><g class="B DA" clip-path="url(#F)"><g><path d="M588.6 813.69l6.57 4.39a16.68 16.68 0 0 1-9.41-2.75l-6.58-4.39a16.82 16.82 0 0 0 9.42 2.75"></path></g></g><path d="M283.26 526.01h-111.1l30.8-66.51h109.61l-29.31 66.51zm-35.5-47.25a12.32 12.32 0 0 0-8.735 21.028 12.32 12.32 0 0 0 21.035-8.718 12.31 12.31 0 0 0-12.3-12.32z" class="Df"></path><path d="M186.12 459.49l-21.06 41.65a25.62 25.62 0 0 0 22.86 37.18h26.4v-13.31l-25.58-.26a9.85 9.85 0 0 1-9.72-10 9.6 9.6 0 0 1 .88-4l23.35-51.3z" class="DA"></path><path d="M211.88 525.01l112.75 1a2.74 2.74 0 0 1 2.72 2.74v6.85a2.75 2.75 0 0 1-2.75 2.75H211.85a2.75 2.75 0 0 1-2.74-2.75v-7.83a2.74 2.74 0 0 1 2.77-2.76z" fill="#5185b7"></path><g class="DA"><path d="M9.14 159.37a12.32 12.32 0 0 1 10.83-13.65 13.18 13.18 0 0 1 1.41-.08h433.55a12.31 12.31 0 0 1 12.24 11l33.58 299.08a12.31 12.31 0 0 1-10.9 13.58 12 12 0 0 1-1.34.08H53.14a12.32 12.32 0 0 1-12.24-10.91z"></path><path d="M513.06 446.01c-1.252 13.023-12.04 23.056-25.12 23.36-23.45 1.35 25.12-23.36 25.12-23.36zM42.53 143.17s-33.47-.7-33.47 14.09 33.47-14.09 33.47-14.09z"></path></g><path d="M21.5 156.94a12.32 12.32 0 0 1 10.79-13.68 11.6 11.6 0 0 1 1.44-.09h433.55a12.33 12.33 0 0 1 12.24 11l33.54 291.64c.749 6.761-4.12 12.851-10.88 13.61a12.94 12.94 0 0 1-1.39.07H65.43a12.32 12.32 0 0 1-12.24-10.87z" class="Df"></path><g opacity=".77" transform="translate(9.06 77.01)"><path d="M27.19 89.53a9.86 9.86 0 0 1 8.58-11c.4 0 .8-.07 1.2-.07h412.6a9.86 9.86 0 0 1 9.8 8.83l25.28 232.56a9.85 9.85 0 0 1-8.77 10.83l-1 .05H62.74A9.85 9.85 0 0 1 53 322.1z" fill="url(#G)"></path><path d="M37,81a7.38,7.38,0,0,0-7.33,8.28L55.41,321.8a7.39,7.39,0,0,0,7.33,6.49H474.85a7.4,7.4,0,0,0,7.35-8.16L456.92,87.56A7.37,7.37,0,0,0,449.57,81H37m0-2.47h412.6a9.86,9.86,0,0,1,9.8,8.83l25.28,232.56a9.85,9.85,0,0,1-9.8,10.88H62.74A9.85,9.85,0,0,1,53,322.1L27.19,89.53A9.85,9.85,0,0,1,37,78.48Z" fill="url(#H)"></path></g><g class="B Cd" clip-path="url(#I)"><g><path d="M624.32 525.52l6.57 4.39a1.64 1.64 0 0 1-.48-.23l-6.58-4.39a1.69 1.69 0 0 0 .49.23"></path></g></g><path d="M629.46 499.63l6.57 4.39-5.13 25.89-6.58-4.39 5.14-25.89z" fill="#376086"></path><path d="M629.45 499.63l-5.13 25.89a2.18 2.18 0 0 1-1.32-2.69l4.06-20.5a3.56 3.56 0 0 1 2.39-2.7z" class="Cc"></path><g class="B" clip-path="url(#J)"><g><path d="M646.77 493.64l6.57 4.39a7.93 7.93 0 0 0-3.32.76l-6.58-4.39a8 8 0 0 1 3.33-.76" class="DB"></path><path d="M643.44 494.4l6.58 4.39-.83.43-6.57-4.39a9.16 9.16 0 0 1 .82-.43" class="DP"></path><path d="M642.62 494.83l6.57 4.39-.64.4-6.58-4.39.65-.4" class="DQ"></path><path d="M641.97 495.23l6.58 4.39-.55.4-6.57-4.39.54-.4" class="DR"></path><path d="M641.43 495.63l6.57 4.39-.47.4-6.58-4.41.48-.4" class="DS"></path><path d="M640.95 496.01l6.58 4.39-.44.4-6.57-4.39.43-.4" class="DT"></path><path d="M640.52 496.43l6.57 4.39-.4.42-6.58-4.39.41-.42" class="Cq"></path><path d="M640.11 496.85l6.58 4.39-.38.42-6.57-4.39.37-.42" class="Cp"></path><path d="M639.74 497.27l6.57 4.39-.35.45-6.57-4.4.35-.44" class="Cz"></path><path d="M639.39 497.71l6.57 4.4-.34.46-6.56-4.39.34-.47" class="Cy"></path><path d="M639.06 498.18l6.57 4.39-.32.5-6.57-4.4.32-.49" class="Cx"></path><path d="M638.73 498.67l6.57 4.4-.31.53-6.57-4.39.31-.54" class="Co"></path><path d="M638.42 499.21l6.57 4.39-.29.59-6.58-4.39.3-.59" class="Cw"></path><path d="M638.12 499.8l6.58 4.39-.3.68-6.57-4.39.29-.68" class="Cv"></path><path d="M637.83 500.48l6.57 4.39-.29.84-6.57-4.4.29-.83" class="Cu"></path><path d="M637.54 501.31l6.57 4.4-.25 1-6.57-4.39.25-1" class="Ce"></path></g></g><g class="B Cd" clip-path="url(#K)"><g><path d="M617.78 558.54l6.57 4.39a1.53 1.53 0 0 1-.48-.23l-6.58-4.39a2 2 0 0 0 .49.23"></path></g></g><path d="M622.91 532.64l6.57 4.4-5.13 25.89-6.57-4.4 5.13-25.89z" fill="#376086"></path><path d="M622.91 532.65l-5.13 25.89a2.22 2.22 0 0 1-1.33-2.7l4.07-20.5a3.52 3.52 0 0 1 2.39-2.69z" class="Cc"></path><g class="B Ce" clip-path="url(#L)"><g><use xlink:href="#AV"></use></g></g><g class="B" clip-path="url(#M)"><g><path d="M706.77 481.83l6.57 4.39a2.13 2.13 0 0 0-.92.21l-6.58-4.42a2.21 2.21 0 0 1 .93-.21" class="DB"></path><path d="M705.84 482.01l6.58 4.39a1 1 0 0 0-.23.12l-6.58-4.39.23-.12" class="DP"></path><path d="M705.61 482.16l6.58 4.39-.18.11-6.57-4.39.17-.11" class="DQ"></path><path d="M705.44 482.27l6.57 4.39-.15.11-6.58-4.39a.91.91 0 0 1 .16-.11" class="DR"></path><path d="M705.28 482.38l6.58 4.39-.14.11-6.57-4.39.13-.11" class="DS"></path><path d="M705.15 482.49l6.57 4.39-.12.12-6.57-4.4.12-.11" class="DT"></path><path d="M705.06 482.6l6.57 4.4-.11.11-6.57-4.39.11-.12" class="Cq"></path><path d="M704.92 482.72l6.57 4.39-.11.12-6.57-4.39.11-.12" class="Cp"></path><path d="M704.81 482.84l6.57 4.39-.1.12-6.57-4.34.1-.12" class="Cz"></path><path d="M704.71 483.01l6.57 4.39-.09.13-6.57-4.39.09-.13" class="Cy"></path><path d="M704.62 483.09l6.57 4.39-.09.14-6.57-4.39.09-.14" class="Cx"></path><path d="M704.53 483.23l6.57 4.39-.09.15-6.57-4.39.09-.15" class="Co"></path><path d="M704.44 483.38l6.57 4.39-.08.17-6.57-4.39a1.3 1.3 0 0 1 .08-.17" class="Cw"></path><path d="M704.36 483.55l6.57 4.39a1.54 1.54 0 0 0-.08.19l-6.57-4.39a1.08 1.08 0 0 1 .08-.19" class="Cv"></path><path d="M704.28 483.74l6.57 4.39a2.25 2.25 0 0 0-.08.24l-6.58-4.36.09-.24" class="Cu"></path><use xlink:href="#AV" class="Ce"></use></g></g><g class="B" clip-path="url(#N)"><g><use xlink:href="#AV" class="Ce"></use><path d="M704.11 484.34l6.57 4.39a2.7 2.7 0 0 0 0 .69l-6.62-4.41a2.7 2.7 0 0 1 0-.69" class="DH"></path><path d="M704.06 485.01l6.57 4.39a1.65 1.65 0 0 0 .06.32l-6.57-4.39a1.65 1.65 0 0 1-.06-.32" class="Ce"></path><path d="M704.14 485.35l6.57 4.39.06.21-6.57-4.4a.66.66 0 0 1-.06-.2" class="Cu"></path><path d="M704.2 485.55l6.57 4.4a1.11 1.11 0 0 0 .07.16l-6.57-4.39a1.22 1.22 0 0 1-.07-.17" class="Cv"></path><path d="M704.27 485.72l6.57 4.39a.91.91 0 0 0 .07.14l-6.57-4.4a.83.83 0 0 1-.07-.13" class="Cw"></path><path d="M704.34 485.85l6.57 4.4.08.12-6.58-4.4a.63.63 0 0 1-.07-.12" class="Co"></path><path d="M704.41 486.01l6.58 4.4.08.1-6.58-4.39-.08-.11" class="Cx"></path><path d="M704.49 486.08l6.58 4.39a.39.39 0 0 0 .08.1l-6.57-4.39-.09-.1" class="Cy"></path><path d="M704.58 486.18l6.57 4.39.09.09-6.57-4.39-.09-.09" class="Cz"></path><path d="M704.67 486.27l6.57 4.39.1.08-6.57-4.39-.1-.08" class="Cp"></path><path d="M704.77 486.35l6.57 4.39.09.06-6.66-4.45" class="Cq"></path></g></g><g class="B Cd" clip-path="url(#O)"><g><path d="M705.81 486.69l6.57 4.39a1.66 1.66 0 0 1-1-.28l-6.58-4.39a1.7 1.7 0 0 0 1 .28"></path></g></g><g class="B Ce" clip-path="url(#P)"><g><use xlink:href="#AW"></use></g></g><g class="B" clip-path="url(#Q)"><g><path d="M717.3 471.74l6.57 4.4a3.08 3.08 0 0 0-1.26.28l-6.55-4.41a3.18 3.18 0 0 1 1.27-.29" class="DB"></path><path d="M716.06 472.01l6.58 4.39-.32.17-6.57-4.39.31-.17" class="DP"></path><path d="M715.72 472.2l6.57 4.39-.24.15-6.57-4.39.24-.15" class="DQ"></path><path d="M715.48 472.35l6.57 4.39-.21.15-6.57-4.39.21-.15" class="DR"></path><path d="M715.27 472.5l6.57 4.39-.18.15-6.6-4.39.18-.15" class="DS"></path><path d="M715.06 472.65l6.6 4.36-.17.16-6.57-4.39.17-.16" class="DT"></path><path d="M714.92 472.81l6.57 4.39-.15.16-6.57-4.4.15-.15" class="Cq"></path><path d="M714.77 473.01l6.57 4.4a1.07 1.07 0 0 0-.14.16l-6.57-4.39a2.09 2.09 0 0 1 .14-.17" class="Cp"></path><path d="M714.63 473.13l6.57 4.39c0 .05-.09.11-.14.17l-6.57-4.4.14-.16" class="Cz"></path><path d="M714.49 473.29l6.57 4.4-.12.17-6.58-4.39.13-.18" class="Cy"></path><path d="M714.36 473.47l6.58 4.39a2.14 2.14 0 0 0-.13.19l-6.57-4.39.12-.19" class="Cx"></path><path d="M714.24 473.66l6.57 4.39a2.12 2.12 0 0 0-.11.21l-6.58-4.4.12-.2" class="Co"></path><path d="M714.12 473.86l6.58 4.4-.12.22-6.52-4.39.11-.23" class="Cw"></path><path d="M714.06 474.09l6.57 4.39c0 .08-.07.17-.11.26l-6.57-4.39a2 2 0 0 1 .11-.26" class="Cv"></path><path d="M713.9 474.35l6.57 4.39a3 3 0 0 0-.11.32l-6.57-4.39a3 3 0 0 1 .11-.32" class="Cu"></path><use xlink:href="#AW" class="Ce"></use></g></g><g class="B DB" clip-path="url(#R)"><g><path d="M718.59 472.12l6.57 4.39a2.3 2.3 0 0 0-1.29-.37l-6.57-4.4a2.31 2.31 0 0 1 1.29.38"></path></g></g><g class="B" clip-path="url(#S)"><g><use xlink:href="#AW" class="Ce"></use><path d="M713.67 475.16l6.58 4.39a3.27 3.27 0 0 0 0 .93l-6.57-4.39a3.67 3.67 0 0 1 0-.93" class="DH"></path><path d="M713.64 476.09l6.57 4.39a2.76 2.76 0 0 0 .07.43l-6.57-4.39a3 3 0 0 1-.07-.43" class="Ce"></path><path d="M713.71 476.52l6.57 4.39.09.29-6.57-4.4a1.31 1.31 0 0 1-.09-.28" class="Cu"></path><path d="M713.8 476.8l6.57 4.4.09.22-6.57-4.4a.85.85 0 0 1-.09-.22" class="Cv"></path><path d="M713.89 477.01l6.57 4.4a1.62 1.62 0 0 0 .1.18l-6.57-4.39a1.14 1.14 0 0 1-.1-.19" class="Cw"></path><path d="M713.99 477.21l6.57 4.39.1.17-6.57-4.4a.86.86 0 0 1-.1-.16" class="Co"></path><path d="M714.06 477.37l6.57 4.4a1.71 1.71 0 0 0 .11.14l-6.57-4.39-.11-.15" class="Cx"></path><path d="M714.2 477.52l6.57 4.39.12.13-6.58-4.39-.11-.13" class="Cy"></path><path d="M714.31 477.65l6.58 4.39a.68.68 0 0 0 .12.12l-6.57-4.39-.13-.12" class="Cz"></path><path d="M714.44 477.77l6.57 4.39a.69.69 0 0 0 .13.11l-6.57-4.39a.69.69 0 0 1-.13-.11" class="Cp"></path><path d="M714.57 477.88l6.57 4.39.12.09-6.57-4.35-.12-.09" class="Cq"></path></g></g><g class="B" clip-path="url(#T)"><g><path d="M718.59 472.12l6.57 4.39.12.09-6.57-4.39-.12-.09" class="Ch"></path><path d="M718.71 472.21l6.57 4.39.13.11-6.57-4.39a.69.69 0 0 0-.13-.11" class="Cj"></path><path d="M718.84 472.32l6.57 4.39.13.12-6.57-4.39-.13-.12" class="Ck"></path><path d="M718.97 472.44l6.57 4.39.11.13-6.59-4.39-.11-.13" class="Ci"></path><path d="M719.06 472.57l6.57 4.39.11.15-6.57-4.39-.11-.15" class="Cl"></path><path d="M719.19 472.72l6.57 4.39.11.16-6.58-4.39a.86.86 0 0 0-.1-.16" class="Cc"></path><path d="M719.29 472.88l6.58 4.39.09.19-6.57-4.39a1.14 1.14 0 0 0-.1-.19" class="Cr"></path><path d="M719.39 473.07l6.57 4.39a1.47 1.47 0 0 1 .1.22l-6.58-4.39a.85.85 0 0 0-.09-.22" class="Cm"></path><path d="M719.48 473.29l6.58 4.39a2.29 2.29 0 0 1 .08.28l-6.57-4.39a1.31 1.31 0 0 0-.09-.28" class="Cn"></path><path d="M719.57 473.57l6.57 4.39a3.25 3.25 0 0 1 .08.43l-6.58-4.38a3 3 0 0 0-.07-.43" class="Cf"></path><path d="M719.64 474.01l6.58 4.39a3.41 3.41 0 0 1 0 .95l-6.57-4.39a3.82 3.82 0 0 0 0-.95" class="DC"></path><path d="M719.61 474.95l6.57 4.39v.1c0 .03-.06.26-.1.39l-6.57-4.4c0-.12.07-.25.1-.38a.36.36 0 0 1 0-.1" class="Cf"></path><path d="M719.49 475.43l6.57 4.4c0 .1-.07.21-.11.31l-6.57-4.39a3 3 0 0 0 .11-.32" class="Cn"></path><path d="M719.38 475.75l6.57 4.39a2 2 0 0 1-.11.26l-6.57-4.39c0-.09.08-.17.11-.26" class="Cm"></path><path d="M719.27 476.01l6.57 4.39a1.51 1.51 0 0 1-.11.22l-6.57-4.39.11-.22" class="Cr"></path><path d="M719.16 476.23l6.57 4.39-.12.21-6.57-4.4.12-.2" class="Cc"></path><path d="M719.06 476.43l6.57 4.4-.12.19-6.57-4.4.12-.19" class="Cl"></path><path d="M718.92 476.62l6.57 4.4-.13.17-6.57-4.39.13-.18" class="Ci"></path><path d="M718.79 476.8l6.57 4.39a1.09 1.09 0 0 1-.13.17l-6.57-4.35.13-.17" class="Ck"></path><path d="M718.66 477.01l6.57 4.39-.14.16-6.58-4.39.15-.16" class="Cj"></path><path d="M718.51 477.13l6.58 4.39a1.21 1.21 0 0 1-.16.16l-6.57-4.39.15-.16" class="Ch"></path><path d="M718.36 477.29l6.57 4.39-.16.15-6.57-4.39.16-.15" class="DI"></path><path d="M718.2 477.44l6.57 4.39-.19.16-6.57-4.4.19-.15" class="DJ"></path><path d="M718.06 477.59l6.57 4.4-.2.15-6.57-4.4a1 1 0 0 0 .2-.15" class="DK"></path><path d="M717.81 477.74l6.57 4.4-.25.15-6.57-4.39.25-.16" class="DL"></path><path d="M717.56 477.9l6.57 4.39a1.82 1.82 0 0 1-.31.16l-6.57-4.39.31-.16" class="DF"></path><path d="M717.25 478.06l6.57 4.39a2.94 2.94 0 0 1-1.26.29 2.34 2.34 0 0 1-1.3-.38l-6.57-4.35a2.32 2.32 0 0 0 1.3.38 3 3 0 0 0 1.26-.29" class="Cd"></path></g></g><path d="M717.3 471.74c1.62 0 2.65 1.48 2.29 3.31a4 4 0 0 1-3.6 3.3c-1.63 0-2.66-1.48-2.3-3.3a4 4 0 0 1 3.61-3.31z" class="Cc"></path><path d="M723.83 481.82l6.57 4.39h-17.05l-6.57-4.39h17.05z" fill="#406180"></path><g class="B DB" clip-path="url(#U)"><g><path d="M724.78 482.1l6.57 4.4a1.7 1.7 0 0 0-1-.28l-6.57-4.39a1.77 1.77 0 0 1 1 .27"></path></g></g><path d="M722.86 486.69l6.57 4.39h-17.05l-6.57-4.39h17.05z" fill="#1f364c"></path><g class="B" clip-path="url(#V)"><g><path d="M724.78 482.1l6.57 4.4.09.06-6.57-4.39-.09-.07" class="Ch"></path><path d="M724.87 482.17l6.57 4.39.1.08-6.58-4.39-.09-.08" class="Cj"></path><path d="M724.96 482.25l6.58 4.39.09.09-6.57-4.39-.1-.09" class="Ck"></path><path d="M725.06 482.34l6.57 4.39a.39.39 0 0 1 .08.1l-6.57-4.39-.08-.1" class="Ci"></path><path d="M725.14 482.44l6.57 4.39.08.1-6.57-4.39-.08-.1" class="Cl"></path><path d="M725.22 482.54l6.57 4.39a.57.57 0 0 1 .08.13l-6.57-4.4-.08-.12" class="Cc"></path><path d="M725.3 482.66l6.57 4.4.07.13-6.57-4.39-.07-.14" class="Cr"></path><path d="M725.37 482.8l6.57 4.39a1.22 1.22 0 0 1 .07.17l-6.57-4.4-.07-.16" class="Cm"></path><path d="M725.44 483.01l6.57 4.4.06.2-6.57-4.39-.06-.21" class="Cn"></path><path d="M725.5 483.17l6.57 4.39a1.8 1.8 0 0 1 .06.32l-6.57-4.39a3 3 0 0 0-.06-.32" class="Cf"></path><path d="M725.56 483.49l6.57 4.39a2.8 2.8 0 0 1 0 .7l-6.57-4.4a2.7 2.7 0 0 0 0-.69" class="DC"></path><path d="M725.53 484.18l6.57 4.4v.07c0 .02 0 .19-.07.28l-6.58-4.39a1.28 1.28 0 0 0 .07-.28c0 0 0-.05 0-.08" class="Cf"></path><path d="M725.44 484.54l6.58 4.39c0 .08-.05.16-.08.24l-6.58-4.4a1.55 1.55 0 0 0 .08-.23" class="Cn"></path><path d="M725.36 484.77l6.58 4.4-.09.18-6.57-4.34a1.08 1.08 0 0 0 .08-.19" class="Cm"></path><path d="M725.28 485.01l6.57 4.39a.89.89 0 0 1-.08.17l-6.57-4.39a1.3 1.3 0 0 0 .08-.17" class="Cr"></path><path d="M725.2 485.13l6.57 4.39-.09.15-6.57-4.39.09-.15" class="Cc"></path><path d="M725.11 485.28l6.57 4.39a1 1 0 0 1-.08.14l-6.54-4.4.09-.13" class="Cl"></path><path d="M725.06 485.41l6.58 4.4a.64.64 0 0 0-.1.13l-6.57-4.39.09-.14" class="Ci"></path><path d="M724.93 485.55l6.57 4.39-.1.12-6.57-4.39.1-.12" class="Ck"></path><path d="M724.83 485.67l6.57 4.39-.1.12-6.58-4.39.11-.12" class="Cj"></path><path d="M724.72 485.79l6.58 4.39-.12.12-6.57-4.4a.57.57 0 0 0 .11-.11" class="Ch"></path><path d="M724.61 485.9l6.57 4.4-.12.11-6.57-4.4.12-.12" class="DI"></path><path d="M724.49 486.01l6.57 4.4-.13.11-6.57-4.39.13-.11" class="DJ"></path><path d="M724.36 486.13l6.57 4.39-.15.11-6.58-4.39.16-.11" class="DK"></path><path d="M724.2 486.24l6.58 4.39-.19.12-6.53-4.39.18-.12" class="DL"></path><path d="M724.06 486.36l6.57 4.39-.23.12-6.57-4.39.23-.12" class="DF"></path><path d="M723.79 486.48l6.57 4.39a2.33 2.33 0 0 1-.93.21l-6.57-4.39a2.33 2.33 0 0 0 .93-.21" class="Cd"></path></g></g><path d="M637.29 502.32l6.58 4.39-51.67 260.63-6.57-4.39 51.66-260.63z" fill="#70abe2"></path><g class="B DE" clip-path="url(#W)"><g><path d="M590.22 771.48l6.57 4.39-.66-.19-6.58-4.4.67.2"></path></g></g><g class="B DE" clip-path="url(#X)"><g><path d="M590.93 771.6l6.57 4.39-.71-.12-6.57-4.39.71.12"></path></g></g><g class="B DE" clip-path="url(#Y)"><g><path d="M591.66 771.64l6.57 4.39h-.73l-6.57-4.39h.73"></path></g></g><path d="M779.46 493.64l6.57 4.39H653.35l-6.58-4.39h132.69z" fill="#406180"></path><g class="B DB" clip-path="url(#Z)"><g><path d="M782.87 494.64l6.57 4.39a6 6 0 0 0-3.41-1l-6.57-4.39a6.06 6.06 0 0 1 3.41 1"></path></g></g><g class="B" clip-path="url(#a)"><g><path d="M782.87 494.64l6.57 4.39.32.23-6.57-4.39-.32-.23" class="Dg"></path><path d="M783.19 494.87l6.57 4.39c.12.09.23.19.34.29l-6.57-4.4-.34-.28" class="Dh"></path><path d="M783.53 495.15l6.57 4.4.33.31-6.58-4.39-.32-.32" class="Di"></path><path d="M783.85 495.47l6.58 4.39.3.35-6.57-4.39-.31-.35" fill="#999"></path><path d="M784.16 495.82l6.57 4.39c.1.12.19.25.28.38l-6.57-4.39-.28-.38" class="Dj"></path><path d="M784.44 496.2l6.57 4.39.28.43-6.58-4.39a3.87 3.87 0 0 0-.27-.43" class="Dk"></path><path d="M784.71 496.63l6.58 4.39.25.49-6.57-4.39a4.59 4.59 0 0 0-.26-.49" class="Dl"></path><path d="M784.97 497.12l6.57 4.39a5.89 5.89 0 0 1 .24.58l-6.57-4.39a5.89 5.89 0 0 0-.24-.58" class="Dm"></path><path d="M785.21 497.7l6.57 4.39a6.34 6.34 0 0 1 .23.74l-6.57-4.39a5.79 5.79 0 0 0-.23-.74" class="Dn"></path><path d="M785.44 498.44l6.57 4.39a8.48 8.48 0 0 1 .2 1.14l-6.57-4.39a8 8 0 0 0-.2-1.14" class="Do"></path><path d="M785.64 499.58l6.57 4.39a9.44 9.44 0 0 1-.1 2.47l-6.57-4.43a9.89 9.89 0 0 0 .1-2.47" fill="#ababab"></path><path d="M785.54 502.01l6.57 4.39v.28l-6.57-4.39c0-.1 0-.19.05-.28" class="Do"></path></g></g><g class="B" clip-path="url(#b)"><g><use xlink:href="#AX" class="DB"></use><path d="M650.17 781.41l6.57 4.39a10.84 10.84 0 0 0-1.17.61l-6.57-4.4a12.9 12.9 0 0 1 1.17-.6" class="DP"></path><path d="M649 782.01l6.57 4.4-.91.57-6.6-4.39.91-.58" class="DQ"></path><path d="M648.06 782.59l6.6 4.42-.77.57-6.57-4.4.77-.56" class="DR"></path><path d="M647.32 783.15l6.57 4.4-.68.56-6.57-4.39.68-.57" class="DS"></path><path d="M646.64 783.72l6.57 4.39-.62.57-6.53-4.39.62-.57" class="DT"></path><path d="M646.06 784.29l6.57 4.39-.57.59-6.57-4.39.57-.59" class="Cq"></path><path d="M645.45 784.88l6.57 4.39-.54.61-6.57-4.39.54-.61" class="Cp"></path><path d="M644.91 785.49l6.57 4.39-.5.63-6.57-4.4.5-.62" class="Cz"></path><path d="M644.41 786.11l6.57 4.4-.47.66-6.58-4.4.48-.66" class="Cy"></path><path d="M643.93 786.77l6.58 4.4-.46.7-6.57-4.39.45-.71" class="Cx"></path><path d="M643.48 787.48l6.57 4.39-.44.76-6.55-4.39.44-.76" class="Co"></path><path d="M643.06 788.24l6.57 4.39q-.22.4-.42.84l-6.57-4.4.42-.83" class="Cw"></path><path d="M642.62 789.07l6.57 4.4a10.25 10.25 0 0 0-.41 1l-6.58-4.46.42-1" class="Cv"></path><path d="M642.2 790.01l6.58 4.39a12.94 12.94 0 0 0-.42 1.19l-6.57-4.39.41-1.19" class="Cu"></path><use xlink:href="#AY" class="Ce"></use></g></g><g class="B" clip-path="url(#c)"><g><path d="M647.3 790.92l6.57 4.4c-.08.16-.15.34-.22.51l-6.59-4.39.22-.52" class="Cm"></path><path d="M647.06 791.44l6.57 4.39-.22.64-6.57-4.4c.06-.21.14-.42.22-.63" class="Cn"></path><use xlink:href="#AZ" class="Cf"></use></g></g><g class="B Cf" clip-path="url(#d)"><g><use xlink:href="#AZ"></use></g></g><g class="B" clip-path="url(#e)"><g><use xlink:href="#AZ" class="Cf"></use><use xlink:href="#Aa" class="DC"></use></g></g><g class="B DC" clip-path="url(#f)"><g><use xlink:href="#Aa"></use></g></g><g class="B" clip-path="url(#g)"><g><use xlink:href="#Ab" class="DF"></use><path d="M650.72 787.14l6.57 4.39a6.48 6.48 0 0 0-.48.31l-6.58-4.39.49-.31" class="DL"></path><path d="M650.23 787.45l6.58 4.39a4 4 0 0 0-.42.3l-6.57-4.39.41-.3" class="DK"></path><path d="M649.82 787.75l6.57 4.39-.36.3-6.58-4.43.37-.3" class="DJ"></path><path d="M649.45 788.01l6.58 4.39-.34.31-6.57-4.39.33-.31" class="DI"></path><path d="M649.12 788.36l6.57 4.39-.3.32-6.58-4.39.31-.32" class="Ch"></path><path d="M648.81 788.68l6.58 4.39-.29.32-6.57-4.38.28-.32" class="Cj"></path><path d="M648.53 789.01l6.57 4.39-.27.34-6.57-4.39.27-.34" class="Ck"></path><path d="M648.26 789.34l6.57 4.39-.25.35-6.58-4.39.26-.35" class="Ci"></path><path d="M648 789.69l6.58 4.39-.25.38-6.57-4.39.24-.38" class="Cl"></path><path d="M647.76 790.07l6.57 4.39-.23.41-6.58-4.39.24-.41" class="Cc"></path></g></g><g class="B DC" clip-path="url(#h)"><g><use xlink:href="#Aa"></use></g></g><g class="B" clip-path="url(#i)"><g><use xlink:href="#Ac" class="Cd"></use><use xlink:href="#Ab" class="DF"></use></g></g><g class="B Cd" clip-path="url(#j)"><g><use xlink:href="#Ac"></use></g></g><g class="B Cd" clip-path="url(#k)"><g><use xlink:href="#Ac"></use></g></g><g class="B Cd" clip-path="url(#l)"><g><use xlink:href="#Ac"></use></g></g><g class="B Cd" clip-path="url(#m)"><g><use xlink:href="#Ac"></use></g></g><g class="B Cd" clip-path="url(#n)"><g><use xlink:href="#Ac"></use></g></g><g class="B Cd" clip-path="url(#o)"><g><use xlink:href="#Ac"></use></g></g><g class="B DB" clip-path="url(#p)"><g><use xlink:href="#AX"></use></g></g><g class="B" clip-path="url(#q)"><g><use xlink:href="#AY" class="Ce"></use><path d="M641.36 793.06l6.57 4.39a13.09 13.09 0 0 0-.14 3.51l-6.57-4.39a13.09 13.09 0 0 1 .14-3.51" class="DH"></path><path d="M641.22 796.57l6.57 4.39a11.9 11.9 0 0 0 .28 1.62l-6.57-4.39a11.9 11.9 0 0 1-.28-1.62" class="Ce"></path><path d="M641.5 798.19l6.57 4.39a7.36 7.36 0 0 0 .32 1l-6.57-4.39-.32-1.05" class="Cu"></path><path d="M641.82 799.24l6.57 4.39.35.83-6.58-4.4-.34-.82" class="Cv"></path><path d="M642.16 800.06l6.58 4.4.36.69-6.57-4.39-.37-.7" class="Cw"></path><path d="M642.53 800.76l6.57 4.39a6.33 6.33 0 0 0 .39.61l-6.58-4.39-.38-.61" class="Co"></path><path d="M642.91 801.37l6.58 4.39.4.54-6.57-4.39-.41-.54" class="Cx"></path><path d="M643.32 801.91l6.57 4.39.43.5-6.57-4.4c-.15-.15-.29-.32-.43-.49" class="Cy"></path><path d="M643.75 802.4l6.57 4.4.46.44-6.57-4.39c-.16-.14-.31-.29-.46-.45" class="Cz"></path><path d="M644.21 802.85l6.57 4.39a6.26 6.26 0 0 0 .49.41l-6.57-4.39a6.26 6.26 0 0 1-.49-.41" class="Cp"></path><path d="M644.7 803.26l6.57 4.39.45.33-6.57-4.39-.45-.33" class="Cq"></path></g></g><g class="B Cd" clip-path="url(#r)"><g><use xlink:href="#Ac"></use></g></g><g class="B" clip-path="url(#s)"><g><use xlink:href="#Aa" class="DC"></use><path d="M646.55 794.92l6.58 4.39a7.9 7.9 0 0 0 .14.87l-6.57-4.39a6.08 6.08 0 0 1-.15-.87" class="Cf"></path><path d="M646.7 795.79l6.57 4.39a5.22 5.22 0 0 0 .18.56l-6.57-4.39a5.22 5.22 0 0 1-.18-.56" class="Cn"></path><path d="M646.88 796.35l6.57 4.39a3.38 3.38 0 0 0 .18.44l-6.57-4.39a3.38 3.38 0 0 1-.18-.44" class="Cm"></path><path d="M647.06 796.79l6.57 4.39c.06.13.13.26.2.38l-6.57-4.39-.2-.38" class="Cr"></path><path d="M647.26 797.17l6.57 4.39a3 3 0 0 0 .21.33l-6.58-4.39-.2-.33" class="Cc"></path><path d="M647.46 797.5l6.58 4.39.21.29-6.57-4.39-.22-.29" class="Cl"></path><path d="M647.68 797.79l6.57 4.39.24.26-6.58-4.43c-.08-.08-.15-.17-.23-.26" class="Ci"></path><path d="M647.91 798.01l6.58 4.39.24.25-6.57-4.4a2.77 2.77 0 0 1-.25-.24" class="Ck"></path><path d="M648.16 798.29l6.57 4.4.27.22-6.58-4.4-.26-.22" class="Cj"></path><path d="M648.42 798.51l6.58 4.4.24.17-6.57-4.39a2.27 2.27 0 0 1-.25-.18" class="Ch"></path></g></g><g class="B" clip-path="url(#t)"><g><path d="M656.06 787.6l6.57 4.4a4 4 0 0 0-2.31-.68 5.38 5.38 0 0 0-2.24.51l-6.58-4.39a5.46 5.46 0 0 1 2.25-.51 4.1 4.1 0 0 1 2.31.67" fill="#4b5a68"></path><path d="M651.48 787.44l6.58 4.39q-.29.13-.57.3l-6.57-4.4.56-.29" fill="#4e5d6c"></path><path d="M650.92 787.73l6.57 4.4-.43.27-6.57-4.39.43-.28" fill="#516170"></path><path d="M650.49 788.01l6.57 4.39-.37.27-6.57-4.39.37-.27" fill="#546474"></path><path d="M650.12 788.28l6.57 4.39-.33.27-6.57-4.39.33-.27" fill="#576878"></path><path d="M649.79 788.55l6.57 4.39-.3.28-6.57-4.39.3-.28" fill="#5a6b7c"></path><path d="M649.49 788.83l6.57 4.39-.27.28-6.57-4.39.27-.28" class="DU"></path><path d="M649.22 789.11l6.57 4.39-.26.29-6.57-4.39a3.58 3.58 0 0 1 .26-.29" class="DV"></path><path d="M648.96 789.4l6.57 4.39-.24.3-6.57-4.39.24-.3" class="DW"></path><path d="M648.72 789.7l6.57 4.39-.23.32-6.57-4.4.23-.32" class="DX"></path><path d="M648.49 790.01l6.57 4.4-.22.34-6.57-4.39.22-.34" class="DY"></path><path d="M648.27 790.36l6.57 4.39-.21.36-6.57-4.39.21-.36" class="DM"></path><path d="M648.06 790.72l6.57 4.39-.2.41-6.57-4.4.2-.4" class="DZ"></path><path d="M647.86 791.12l6.57 4.4-.2.46-6.57-4.4.2-.46" class="Da"></path><path d="M647.66 791.58l6.57 4.4a4.76 4.76 0 0 0-.19.57l-6.58-4.4.2-.57" class="Db"></path><path d="M647.46 792.15l6.58 4.4-.18.68v.19l-6.6-4.41v-.19c0-.23.11-.46.17-.69" class="Dc"></path><path d="M647.26 793.01l6.57 4.39a6.4 6.4 0 0 0-.07 1.68l-6.57-4.39a6.4 6.4 0 0 1 .07-1.68" fill="#7a91a8"></path><path d="M647.19 794.71l6.57 4.39a5 5 0 0 0 .14.77l-6.58-4.39a6.51 6.51 0 0 1-.13-.77" class="Dc"></path><path d="M647.32 795.48l6.58 4.39a4.13 4.13 0 0 0 .15.5l-6.57-4.36a7.31 7.31 0 0 1-.16-.5" class="Db"></path><path d="M647.48 796.01l6.57 4.39a2.83 2.83 0 0 0 .17.4l-6.58-4.39a4.76 4.76 0 0 1-.16-.4" class="Da"></path><path d="M647.64 796.38l6.58 4.39.17.33-6.57-4.39-.18-.33" class="DZ"></path><path d="M647.82 796.71l6.57 4.39.19.3L648 797l-.18-.29" class="DM"></path><path d="M648 797.01l6.58 4.4.19.26-6.57-4.4a2.56 2.56 0 0 1-.2-.26" class="DY"></path><path d="M648.2 797.26l6.57 4.4a2.29 2.29 0 0 0 .21.23l-6.58-4.39-.2-.24" class="DX"></path><path d="M648.4 797.5l6.58 4.39.22.22-6.58-4.4-.22-.21" class="DW"></path><path d="M648.62 797.71l6.58 4.4.23.19-6.57-4.39-.24-.2" class="DV"></path><path d="M648.86 797.91l6.57 4.39.22.16-6.59-4.39-.22-.16" class="DU"></path></g></g><g class="B Cd" clip-path="url(#u)"><g><use xlink:href="#Ad"></use></g></g><g class="B" clip-path="url(#v)"><g><path d="M656.06 787.6l6.57 4.4.22.15-6.57-4.39-.22-.16" class="Ch"></path><path d="M656.26 787.76l6.57 4.39.24.2-6.58-4.34-.23-.2" class="Cj"></path><path d="M656.49 788.01l6.58 4.39.22.21-6.58-4.39-.22-.21" class="Ck"></path><path d="M656.71 788.17l6.58 4.39.2.24-6.57-4.39a2.25 2.25 0 0 0-.21-.24" class="Ci"></path><path d="M656.92 788.41l6.57 4.39a2.56 2.56 0 0 1 .2.26l-6.57-4.39-.2-.26" class="Cl"></path><path d="M657.12 788.67l6.57 4.39a2.82 2.82 0 0 1 .18.29l-6.57-4.34-.18-.29" class="Cc"></path><path d="M657.3 789.01l6.57 4.39a3.65 3.65 0 0 1 .18.34l-6.57-4.39-.18-.34" class="Cr"></path><path d="M657.48 789.3l6.57 4.39.16.39-6.57-4.39-.16-.39" class="Cm"></path><path d="M657.64 789.69l6.57 4.39.16.51-6.57-4.39c0-.18-.1-.34-.16-.51" class="Cn"></path><path d="M657.8 790.2l6.57 4.39a5 5 0 0 1 .13.77l-6.57-4.35a6.51 6.51 0 0 0-.13-.77" class="Cf"></path><path d="M657.93 791.01l6.57 4.39a6.37 6.37 0 0 1-.06 1.68l-6.58-4.39a6.4 6.4 0 0 0 .07-1.68" class="DC"></path><use xlink:href="#Ae" class="Cf"></use></g></g><g class="B" clip-path="url(#w)"><g><use xlink:href="#Ae" class="Cf"></use><path d="M657.66 793.53l6.57 4.39-.2.57-6.57-4.4.2-.56" class="Cn"></path><path d="M657.46 794.09l6.57 4.4a4.58 4.58 0 0 1-.2.46l-6.57-4.4.2-.46" class="Cm"></path><path d="M657.26 794.55l6.57 4.4-.2.4-6.57-4.34.2-.41" class="Cr"></path><path d="M657.06 795.01l6.57 4.39a3.35 3.35 0 0 1-.21.36l-6.57-4.39.21-.36" class="Cc"></path><path d="M656.85 795.32l6.57 4.39a4 4 0 0 1-.22.34l-6.57-4.39c.08-.11.15-.23.22-.34" class="Cl"></path><path d="M656.63 795.66l6.57 4.39c-.07.11-.15.21-.22.31l-6.58-4.35.23-.31" class="Ci"></path><path d="M656.4 796.01l6.58 4.39-.24.31-6.58-4.4a1.76 1.76 0 0 0 .24-.3" class="Ck"></path><path d="M656.16 796.27l6.58 4.4c-.09.09-.17.19-.26.29l-6.57-4.4a3.47 3.47 0 0 0 .25-.29" class="Cj"></path><path d="M655.91 796.56l6.57 4.4-.27.28-6.58-4.39.28-.29" class="Ch"></path><path d="M655.63 796.85l6.58 4.39-.3.27-6.57-4.39.29-.27" class="DI"></path><path d="M655.34 797.12l6.57 4.39a3.92 3.92 0 0 1-.33.27l-6.52-4.39.33-.27" class="DJ"></path><path d="M655.06 797.39l6.57 4.39a3.18 3.18 0 0 1-.37.27l-6.57-4.39a3.18 3.18 0 0 0 .37-.27" class="DK"></path><path d="M654.64 797.66l6.57 4.39-.43.28-6.57-4.39.43-.28" class="DL"></path><path d="M654.21 797.94l6.57 4.39-.56.29-6.58-4.39.57-.29" class="DF"></path><use xlink:href="#Ad" class="Cd"></use></g></g><g class="B" clip-path="url(#x)"><g><path d="M656.45 787.01l6.58 4.39.24.18-6.57-4.39a2.27 2.27 0 0 0-.25-.18" class="DU"></path><path d="M656.7 787.17l6.57 4.39a2.75 2.75 0 0 1 .26.22l-6.57-4.4-.26-.21" class="DV"></path><path d="M656.96 787.38l6.57 4.4a1.88 1.88 0 0 1 .25.24l-6.58-4.4c-.07-.08-.16-.16-.24-.24" class="DW"></path><path d="M657.2 787.62l6.58 4.4c.08.08.15.17.23.26l-6.57-4.39-.24-.27" class="DX"></path><path d="M657.44 787.89l6.57 4.39a3.06 3.06 0 0 1 .21.29l-6.57-4.39-.21-.29" class="DY"></path><path d="M657.65 788.18l6.57 4.39a3 3 0 0 1 .21.33l-6.57-4.39a2.66 2.66 0 0 0-.21-.33" class="DM"></path><path d="M657.86 788.51l6.57 4.39.2.37-6.57-4.39c-.06-.13-.13-.25-.2-.37" class="DZ"></path><path d="M658.06 788.88l6.57 4.39.18.44-6.57-4.39-.18-.44" class="Da"></path><path d="M658.24 789.32l6.57 4.39a3.74 3.74 0 0 1 .17.57l-6.57-4.39a4.74 4.74 0 0 0-.17-.57" class="Db"></path><path d="M658.41 789.89l6.57 4.39a5.94 5.94 0 0 1 .15.86l-6.57-4.39a5.71 5.71 0 0 0-.15-.86" class="Dc"></path><path d="M658.56 790.75l6.57 4.39a7 7 0 0 1-.07 1.87l-6.57-4.39a7.06 7.06 0 0 0 .07-1.88" fill="#7a91a8"></path><path d="M658.49 792.63l6.57 4.38v.21c-.05.26-.12.52-.19.77l-6.57-4.39.19-.77v-.21" class="Dc"></path><path d="M658.26 793.61l6.57 4.39-.22.63-6.55-4.39.22-.63" class="Db"></path><path d="M658.06 794.24l6.57 4.39-.22.52-6.57-4.39.22-.52" class="Da"></path><path d="M657.82 794.76l6.57 4.39-.23.45-6.57-4.39.23-.45" class="DZ"></path><path d="M657.59 795.21l6.57 4.39a5.2 5.2 0 0 1-.23.4l-6.58-4.39c.09-.13.16-.27.24-.4" class="DM"></path><path d="M657.35 795.61l6.58 4.39-.25.38-6.57-4.37.24-.38" class="DY"></path><path d="M657.11 796.01l6.57 4.39-.25.36-6.58-4.4.26-.35" class="DX"></path><path d="M656.85 796.34l6.58 4.4-.27.33-6.58-4.39a2.88 2.88 0 0 0 .27-.34" class="DW"></path><path d="M656.58 796.68l6.58 4.39-.29.33-6.57-4.39.28-.33" class="DV"></path><path d="M656.3 797.01l6.57 4.39-.31.32-6.57-4.4.31-.31" class="DU"></path><path d="M655.99 797.32l6.57 4.4-.33.3-6.57-4.39.33-.31" fill="#5a6b7c"></path><path d="M655.66 797.63l6.57 4.39-.37.31-6.57-4.39.37-.31" fill="#576878"></path><path d="M655.29 797.94l6.57 4.39-.41.3-6.57-4.39.41-.3" fill="#546474"></path><path d="M654.88 798.24l6.57 4.39-.49.31-6.57-4.39.49-.31" fill="#516170"></path><path d="M654.39 798.55l6.57 4.39a4.65 4.65 0 0 1-.63.32l-6.57-4.39.63-.32" fill="#4e5d6c"></path><path d="M653.76 798.87l6.57 4.39a6 6 0 0 1-2.51.58 4.61 4.61 0 0 1-2.58-.76l-6.57-4.39a4.61 4.61 0 0 0 2.58.76 6 6 0 0 0 2.51-.58" fill="#4b5a68"></path></g></g><g class="B" clip-path="url(#y)"><g><path d="M659.73 781.75l6.57 4.39a3.72 3.72 0 0 1 .45.33l-6.57-4.4-.45-.32" class="Ch"></path><path d="M660.18 782.07l6.57 4.4a4.83 4.83 0 0 1 .49.41l-6.57-4.4-.49-.41" class="Cj"></path><path d="M660.67 782.48l6.57 4.4.46.44-6.57-4.39-.46-.45" class="Ck"></path><path d="M661.13 782.93l6.57 4.39.43.5-6.57-4.4-.43-.49" class="Ci"></path><path d="M661.56 783.42l6.57 4.4a5.47 5.47 0 0 1 .41.54l-6.57-4.35-.41-.55" class="Cl"></path><path d="M661.97 784.01l6.57 4.39c.14.19.26.4.39.61l-6.58-4.39-.38-.61" class="Cc"></path><path d="M662.35 784.58l6.58 4.39c.13.22.25.46.36.69l-6.57-4.39a7.55 7.55 0 0 0-.37-.69" class="Cr"></path><path d="M662.72 785.27l6.57 4.39a7.59 7.59 0 0 1 .34.83l-6.57-4.4a11.78 11.78 0 0 0-.34-.82" class="Cm"></path><path d="M663.06 786.09l6.57 4.4a9.12 9.12 0 0 1 .32 1l-6.57-4.39a9.28 9.28 0 0 0-.32-1.06" class="Cn"></path><path d="M663.38 787.15l6.57 4.39a10.62 10.62 0 0 1 .28 1.61l-6.57-4.39a10.2 10.2 0 0 0-.28-1.61" class="Cf"></path><path d="M663.66 788.76l6.57 4.39a13.09 13.09 0 0 1-.14 3.51l-6.57-4.39a13.09 13.09 0 0 0 .14-3.51" class="DC"></path><path d="M663.52 792.27l6.57 4.39c0 .13 0 .26-.07.39a13.77 13.77 0 0 1-.36 1.44l-6.6-4.39q.21-.71.36-1.44c0-.13.05-.26.07-.39" class="Cf"></path><path d="M663.06 794.1l6.57 4.39-.41 1.2-6.57-4.4.41-1.19" class="Cn"></path><path d="M662.68 795.29l6.57 4.4q-.2.48-.42 1l-6.57-4.39.42-1" class="Cm"></path><path d="M662.26 796.26l6.57 4.39q-.19.42-.42.84l-6.57-4.39q.22-.42.42-.84" class="Cr"></path><path d="M661.84 797.1l6.57 4.39-.44.76-6.57-4.4.44-.75" class="Cc"></path><path d="M661.4 797.85l6.57 4.4-.45.7-6.57-4.39.45-.71" class="Cl"></path><path d="M660.95 798.56l6.57 4.39-.48.66-6.57-4.39.48-.66" class="Ci"></path><path d="M660.47 799.22l6.59 4.39-.5.63-6.57-4.39.5-.63" class="Ck"></path><path d="M659.97 799.85l6.57 4.39-.53.61-6.58-4.4c.19-.19.36-.4.54-.6" class="Cj"></path><path d="M659.43 800.45l6.58 4.4-.58.58-6.57-4.42.57-.59" class="Ch"></path><path d="M658.86 801.01l6.57 4.39-.61.58-6.58-4.4.62-.57" class="DI"></path><path d="M658.24 801.61l6.58 4.4-.68.56-6.58-4.39.68-.57" class="DJ"></path><path d="M657.56 802.18l6.58 4.39-.77.56-6.57-4.39.76-.56" class="DK"></path><path d="M656.8 802.74l6.57 4.39-.91.58-6.58-4.39.92-.58" class="DL"></path><path d="M655.88 803.32l6.58 4.39-1.18.61-6.57-4.39 1.17-.61" class="DF"></path><path d="M654.71 803.93l6.57 4.39a11.36 11.36 0 0 1-4.72 1.07 8.66 8.66 0 0 1-4.84-1.41l-6.57-4.39a8.62 8.62 0 0 0 4.84 1.41 11.36 11.36 0 0 0 4.72-1.07" class="Cd"></path></g></g><g class="B" clip-path="url(#z)"><g><path d="M750.74 664.9l6.57 4.39.27.19-6.52-4.39-.27-.19" class="Dg"></path><path d="M751.06 665.09l6.57 4.39.29.24-6.57-4.39-.29-.24" class="Dh"></path><path d="M751.3 665.33l6.57 4.39.27.27-6.57-4.39-.27-.27" class="Di"></path><path d="M751.57 665.6l6.57 4.39a3.47 3.47 0 0 1 .25.29l-6.57-4.39-.25-.29" fill="#999"></path><path d="M751.82 665.89l6.57 4.39a2.43 2.43 0 0 1 .24.32l-6.57-4.39-.24-.32" class="Dj"></path><path d="M752.06 666.21l6.57 4.39.23.36-6.57-4.39a3.17 3.17 0 0 0-.23-.36" class="Dk"></path><path d="M752.29 666.57l6.57 4.44c.08.13.15.27.22.41l-6.58-4.41a3.17 3.17 0 0 0-.21-.41" class="Dl"></path><path d="M752.5 667.01l6.58 4.39.2.49-6.57-4.39a4.25 4.25 0 0 0-.21-.49" class="Dm"></path><path d="M752.71 667.47l6.57 4.39v.08l-6.57-4.4v-.07" class="Dn"></path></g></g><path d="M785.49 502.32l6.57 4.39-32.75 165.22-6.57-4.39 32.75-165.22z" fill="#b1b1b1"></path><path d="M724.35 771.63l6.57 4.4H598.24l-6.57-4.4h132.68z" fill="gray"></path><path d="M752.74 667.54l6.57 4.39-18.91 95.41-6.57-4.39 18.91-95.41z" fill="#b1b1b1"></path><g class="B" clip-path="url(#AA)"><g><path d="M733.82 762.95l6.57 4.39a8.92 8.92 0 0 1-.25 1l-6.57-4.4.25-1" class="Do"></path><path d="M733.57 764.01l6.57 4.4a8.15 8.15 0 0 1-.29.83l-6.57-4.39c.11-.27.2-.55.29-.84" class="Dn"></path><path d="M733.28 764.8l6.57 4.39-.29.68-6.57-4.39.29-.68" class="Dm"></path><path d="M732.99 765.48l6.57 4.39-.3.59-6.57-4.39.3-.59" class="Dl"></path><path d="M732.69 766.07l6.57 4.39-.31.54-6.57-4.4.31-.53" class="Dk"></path><path d="M732.38 766.6l6.57 4.4-.32.49-6.57-4.39.32-.5" class="Dj"></path><path d="M732.06 767.1l6.57 4.39-.33.47-6.58-4.39.34-.47" fill="#999"></path><path d="M731.72 767.57l6.58 4.39-.36.44-6.57-4.39.35-.44" class="Di"></path><path d="M731.37 768.01l6.57 4.39-.37.43-6.57-4.4.37-.42" class="Dh"></path><path d="M731 768.43l6.57 4.4-.41.41-6.57-4.39.41-.42" class="Dg"></path><path d="M730.59 768.85l6.57 4.39-.43.4-6.57-4.39.43-.4" fill="#8f8f8f"></path><path d="M730.16 769.25l6.57 4.39-.48.4-6.57-4.39.48-.4" fill="#8c8c8c"></path><path d="M729.68 769.65l6.57 4.39-.54.4-6.57-4.43.54-.4" fill="#8a8a8a"></path><path d="M729.14 770.01l6.57 4.39-.64.4-6.58-4.39a8.72 8.72 0 0 0 .65-.4" fill="#878787"></path><path d="M728.49 770.45l6.58 4.39a9.33 9.33 0 0 1-.83.43l-6.57-4.39a9.16 9.16 0 0 0 .82-.43" fill="#858585"></path><path d="M727.67 770.88l6.57 4.39a7.93 7.93 0 0 1-3.32.76l-6.57-4.39a8 8 0 0 0 3.32-.76" class="DE"></path></g></g><path d="M779.79 463.75H657.97c-11.82 0-23.53 10.74-26.16 24l-2.36 11.89-5.13 25.89-1.41 7.13-5.13 25.89-45.83 231.16c-2.63 13.25 4.83 24 16.65 24h121.82c11.82 0 23.53-10.73 26.16-24l40-201.81 8.64-43.61 11.21-56.55c2.63-13.25-4.82-23.99-16.64-23.99zm-66.1 11.26a4 4 0 0 1 3.61-3.31c1.62 0 2.65 1.49 2.29 3.31a4 4 0 0 1-3.6 3.3c-1.63 0-2.66-1.48-2.3-3.3m-9.57 9.21a3 3 0 0 1 2.65-2.43h17a1.85 1.85 0 0 1 1.69 2.43 3 3 0 0 1-2.65 2.43h-17a1.85 1.85 0 0 1-1.69-2.43m-40.67 308.4c-1.39 6.86-7.39 12.39-13.46 12.39s-9.91-5.52-8.56-12.34 7.38-12.33 13.45-12.33 9.92 5.52 8.57 12.33m122-290.33l-32.72 165.21-18.91 95.4c-1 4.8-5.19 8.69-9.47 8.69H591.66c-3.72 0-6.24-2.93-6.22-6.84h0a8.19 8.19 0 0 1 0-.85.13.13 0 0 1 0-.06c0-.31.07-.62.13-.94l51.67-260.62a11.14 11.14 0 0 1 1.28-3.38c1.79-3.12 5-5.31 8.2-5.31h132.74a6.15 6.15 0 0 1 2.88.68 6 6 0 0 1 .6.37 5.83 5.83 0 0 1 1 .93 6.83 6.83 0 0 1 1.56 3.33 9.42 9.42 0 0 1-.06 3.38" class="Df"></path><path d="M723.82 481.83a1.85 1.85 0 0 1 1.69 2.43 3 3 0 0 1-2.65 2.43h-17a1.85 1.85 0 0 1-1.69-2.43 3 3 0 0 1 2.65-2.43z" class="Cc"></path><g class="B" clip-path="url(#AB)"><g><path d="M789.2 466.5l6.57 4.39.89.64-6.6-4.39-.89-.64" class="Cq"></path><path d="M790.06 467.14l6.57 4.39c.33.25.64.52.95.8l-6.57-4.4-1-.79" class="Cp"></path><g class="DA"><path d="M791.06 467.93l6.57 4.4a12.18 12.18 0 0 1 .89.87l-6.57-4.39-.89-.88"></path><path d="M791.93 468.81l6.57 4.39.84.95-6.57-4.39-.84-.95"></path><path d="M792.77 469.76l6.57 4.39.79 1.06-6.57-4.4-.79-1.05"></path><path d="M793.56 470.81l6.57 4.4.75 1.18-6.57-4.38-.75-1.19"></path><path d="M794.31 472.01l6.57 4.39.71 1.36-6.53-4.4-.71-1.36"></path><path d="M795.06 473.36l6.57 4.39.67 1.6-6.62-4.34-.66-1.6"></path><path d="M795.68 475.01l6.58 4.39a19.29 19.29 0 0 1 .62 2l-6.57-4.39a19.32 19.32 0 0 0-.63-2"></path><path d="M796.31 477.01l6.57 4.39a22.5 22.5 0 0 1 .54 3.15l-6.57-4.4a22.61 22.61 0 0 0-.54-3.14"></path><path d="M796.85 480.14l6.57 4.4a25.2 25.2 0 0 1-.27 6.83l-6.57-4.4a25.59 25.59 0 0 0 .27-6.83"></path><path d="M796.58 487.01l6.57 4.4c0 .25-.09.5-.14.76l-6.57-4.39c0-.26.1-.51.14-.77"></path></g></g></g><path d="M796.44 487.73l6.58 4.4-11.22 56.55-6.57-4.39 11.21-56.56z" class="DA"></path><path d="M785.23 544.29l6.57 4.39-8.64 43.6-6.57-4.39 8.64-43.6z" fill="#70abe2"></path><path d="M653.73 786.93c2.91 0 4.74 2.65 4.1 5.91s-3.53 5.9-6.44 5.9-4.74-2.64-4.1-5.9 3.54-5.91 6.44-5.91z" class="Cc"></path><path d="M653.87 786.24c3.25 0 5.3 3 4.58 6.6s-3.95 6.61-7.2 6.61-5.31-3-4.58-6.61 3.95-6.6 7.2-6.6zm-2.48 12.5c2.91 0 5.79-2.64 6.44-5.9s-1.19-5.91-4.1-5.91-5.79 2.65-6.44 5.91 1.19 5.9 4.1 5.9" class="DM"></path><path d="M654.88 780.33c6.09 0 9.92 5.52 8.57 12.33s-7.39 12.35-13.46 12.35-9.91-5.52-8.56-12.34 7.38-12.34 13.45-12.34zm-3.63 19.12c3.25 0 6.48-3 7.2-6.61s-1.33-6.6-4.58-6.6-6.48 3-7.2 6.6 1.34 6.61 4.58 6.61" class="Cc"></path><path d="M710.42 813.68l6.58 4.4H595.18l-6.57-4.4h121.81zm66.17-225.79l6.57 4.39-40.01 201.82-6.57-4.39 40.01-201.82z" class="DA"></path><g class="B DA" clip-path="url(#AC)"><g><path d="M736.58 789.71l6.57 4.39-.7 2.8-6.57-4.39c.28-.92.51-1.85.7-2.8"></path><path d="M735.88 792.51l6.57 4.39-.8 2.31-6.59-4.39.8-2.31"></path><path d="M735.06 794.82l6.57 4.39-.8 1.87-6.58-4.39.81-1.87"></path><path d="M734.27 796.69l6.58 4.39-.83 1.63-6.57-4.39.82-1.63"></path><path d="M733.45 798.32l6.61 4.39-.85 1.48-6.57-4.4.85-1.47m-.89 1.47l6.57 4.4-.88 1.36-6.57-4.39.88-1.37"></path><path d="M731.72 801.16l6.57 4.39q-.45.66-.93 1.29l-6.57-4.39q.48-.63.93-1.29"></path><path d="M730.79 802.45l6.57 4.39-1 1.22-6.57-4.39 1-1.22"></path><path d="M729.82 803.67l6.57 4.39-1 1.18-6.57-4.4 1-1.17m-1.04 1.17l6.57 4.4q-.54.59-1.11 1.14l-6.57-4.37 1.11-1.15"></path><path d="M727.67 806.01l6.57 4.39-1.2 1.11-6.58-4.39 1.21-1.11"></path><path d="M726.46 807.1l6.58 4.39-1.33 1.1-6.57-4.39 1.32-1.1"></path><path d="M725.14 808.2l6.57 4.39-1.49 1.1-6.57-4.4 1.49-1.09"></path><path d="M723.65 809.29l6.57 4.4-1.77 1.12-6.58-4.4 1.78-1.12"></path><path d="M721.87 810.41l6.58 4.4-2.29 1.18-6.57-4.39a24.67 24.67 0 0 0 2.28-1.19"></path><path d="M719.59 811.6l6.57 4.41a22.15 22.15 0 0 1-9.17 2.09l-6.57-4.39a22.15 22.15 0 0 0 9.17-2.09"></path></g></g><g class="B"><g class="B" clip-path="url(#AD)"><g><path d="M787.99 544.01l6.58 4.39.1.08-6.57-4.4-.11-.07" class="Ch"></path><g class="Cc"><path d="M788.06 544.07l6.57 4.4.11.09-6.57-4.39-.11-.1"></path><path d="M788.21 544.17l6.57 4.39.1.1-6.57-4.39-.1-.1"></path></g><path d="M788.31 544.27l6.57 4.39.1.11-6.57-4.39-.1-.11" class="Ci"></path><g class="Cc"><path d="M788.41 544.38l6.57 4.39.09.12-6.57-4.39-.09-.12"></path><path d="M788.5 544.5l6.57 4.39.09.14-6.58-4.39a1 1 0 0 0-.08-.14"></path><path d="M788.58 544.64l6.58 4.37.08.16-6.57-4.4-.09-.15m.09.17l6.57 4.4.08.18-6.58-4.36a1.46 1.46 0 0 0-.07-.19"></path><path d="M788.74 545.01l6.58 4.39c0 .08 0 .16.07.24l-6.57-4.39a2.25 2.25 0 0 0-.08-.24"></path><path d="M788.82 545.22l6.57 4.39a2.08 2.08 0 0 1 .06.36l-6.57-4.39a1.93 1.93 0 0 0-.06-.36"></path><path d="M788.88 545.58l6.57 4.39a2.66 2.66 0 0 1 0 .79l-6.57-4.39a3.55 3.55 0 0 0 0-.79m-.03.79l6.57 4.39v.09l-6.57-4.39v-.09"></path></g></g></g><path d="M788.84 546.45l6.57 4.39-7.79 39.28-6.57-4.39 7.79-39.28z" fill="#5185b7"></path><g class="B Cc" clip-path="url(#AE)"><g><path d="M781.06 585.73l6.57 4.39c0 .11 0 .22-.08.33l-6.57-4.4c0-.1.05-.21.08-.32"></path><path d="M780.97 586.01l6.57 4.4a2.77 2.77 0 0 1-.1.26l-6.57-4.39c0-.09.07-.18.1-.27"></path><path d="M780.87 586.32l6.57 4.39a1.45 1.45 0 0 1-.09.22l-6.57-4.39.09-.22"></path><path d="M780.78 586.54l6.57 4.39-.09.19-6.58-4.4a1.62 1.62 0 0 0 .1-.18"></path><path d="M780.68 586.72l6.58 4.4-.1.17-6.57-4.39.09-.18"></path><path d="M780.59 586.9l6.57 4.39c0 .05-.07.1-.1.16l-6.58-4.4.11-.15"></path><path d="M780.48 587.01l6.58 4.4a1.71 1.71 0 0 1-.11.14l-6.57-4.39.1-.15m-.1.19l6.57 4.39-.11.15-6.58-4.4.12-.14"></path><path d="M780.26 587.34l6.58 4.4-.12.13-6.58-4.39.12-.14"></path><path d="M780.14 587.48l6.58 4.39-.13.13-6.53-4.39.12-.13"></path><path d="M780.06 587.61l6.57 4.39-.14.13-6.57-4.39.14-.13m-.18.13l6.57 4.39-.16.13-6.57-4.39.16-.13"></path><path d="M779.72 587.87l6.57 4.39-.17.13-6.57-4.4.17-.12m-.17.14l6.57 4.4-.2.13-6.58-4.4.21-.13"></path><path d="M779.34 588.12l6.58 4.4-.27.13-6.59-4.39.26-.14"></path><path d="M779.06 588.26l6.57 4.39a2.51 2.51 0 0 1-1.07.25 1.94 1.94 0 0 1-1.08-.32l-6.57-4.39a1.93 1.93 0 0 0 1.08.31 2.49 2.49 0 0 0 1.07-.24"></path></g></g><path d="M786.9 543.68c1.37 0 2.23 1.24 1.93 2.78l-7.77 39.27a3.39 3.39 0 0 1-3 2.77 1.84 1.84 0 0 1-1.42-.61l8.64-43.6a2.79 2.79 0 0 1 1.62-.61z" class="Cc"></path></g><path d="M785.74 500.5l-.2 1.75-32.75 165.21-18.91 95.41-.5 1.75-.77 1.63-1.01 1.48-1.21 1.28-1.36 1.06-1.46.8-1.57.51-1.59.18H591.63l-.1-.01h-.17l-.1-.01-.1-.01-.08-.01h-.09l-.13-.03-.12-.01-.11-.02-.09-.01-.06-.02-.08-.01-.12-.02-.14-.04-.11-.03-.1-.03-.07-.02-.08-.02-.05-.02-.07-.02-.04-.02-.13-.05-.11-.04-.1-.04-.07-.03-.08-.03-.04-.02-.06-.03-.04-.02-.13-.07-.11-.05-.09-.05-.06-.04-.07-.04-.05-.03-.06-.03-.04-.03-.12-.08-.1-.07-.07-.06-.09-.05-.12-.1-.04-.04-.06-.04-.1-.09-.08-.08-.15-.15-.07-.06-.06-.07-.12-.12-.07-.09-.08-.08-.05-.08-.05-.06-.05-.06-.04-.05-.03-.05-.05-.05-.06-.12-.08-.1-.04-.08-.06-.07-.04-.06-.02-.05-.03-.05-.03-.05-.06-.13-.06-.1-.05-.09-.03-.08-.04-.07-.02-.05-.03-.05-.01-.05-.05-.14-.06-.12-.03-.1-.03-.08-.03-.07-.02-.06-.02-.05-.01-.06-.04-.14-.05-.13-.03-.11-.01-.09-.02-.08-.02-.07-.02-.06-.01-.06-.03-.17-.02-.15-.02-.13-.02-.11-.03-.11-.01-.1-.01-.09v-.09l-.01-.13-.01-.12v-.1l-.01-.1v-.55l.01-.23.01-.23.02-.23.04-.23.03-.23.07-.48 51.68-260.62.5-1.75.77-1.63 1-1.48 1.22-1.29 1.35-1.06 1.47-.8 1.57-.5 1.6-.18h132.67l1.53.18 1.36.5 1.15.8.95 1.06.68 1.29.44 1.48.12 1.63z" fill="#c4eaff"></path><image class="Bi" width="229" height="198" transform="translate(51.49 223.01)" opacity=".6"></image><path d="M246.95 387.5H108.13a9.79 9.79 0 0 1-9.78-8.83L85.06 246.38h158.9l13.12 130a10.21 10.21 0 0 1-10.13 11.12z" fill="#fff"></path><image class="Bk" width="268" height="245" transform="translate(18.49 77.01)" opacity=".5"></image><g clip-path="url(#AF)"><path d="M410.33 374.63a15.84 15.84 0 0 1-14.5 18.21l-1.42.06-335.35.19c-9.053-.06-16.67-6.801-17.83-15.78l-6.44-56.48L.06 18.01a15.87 15.87 0 0 1 15-17.83L342.45.01a18.07 18.07 0 0 1 17.73 15.3l48.14 344.7z" fill="#fff"></path><path d="M223.94 199.17s-3.24 3.76-3.3 7.07-7.3 0-7.3 0l1.18-9.34 5.87-1.64z" class="Cs"></path><path d="M174.12 219.16s39.25 29.63 46.53 17c0 0 4.71-8.54 1-26.38 0 0 5.39-.57 5.32-2.51s-.74-2.16-6.83-2.82-4.34-8-.22-7 8 7.18 10.25 6-.46-4.63-.46-4.63 2.87 3.77 4.4 1.58-.77-4.46-.77-4.46a3.8 3.8 0 0 0 4.23.7c2.21-1.21-4-9.25-7.11-9.25 0 0-3.11-.31-3.57 1.49 0 0-4.58-1.85-5.41.88 0 0-5.07-.74-6.55 3.14 0 0-4.69-.43-3.4 8.74s1.64 15.28-.26 15.28-27.58-34.66-40.65-38.6 3.5 40.84 3.5 40.84z" class="Ct"></path><g clip-path="url(#AG)"><path d="M178.39 186.66s17.18 16.68 22.81 29.58 15.31 20.11 22.18 14.62 7.45 12.15-4.67 12.15-25.45-9.52-25.45-9.52l-18.37-44.61z" class="Cs"></path><path d="M181.32 179.25l-5.63 16.36-7.23-20.18z" class="Dd"></path></g><g class="Cb Cg DD DN"><path d="M230.32 199.56s-5.34-6.56-9.88-7.23m13.19 3.68a23.23 23.23 0 0 0-6.76-7.23m-8.14 8.53a3.86 3.86 0 0 0-2.06 5 3.76 3.76 0 0 0 .42.76s1.22 1.65 5.92 1.77 4.87 3.22 3.05 3.77a9 9 0 0 1-6.77.32"></path></g><path d="M118.11 479.27h26.29l-.79 45.8h-23.75s-13.72-2.18-13.8-3.68l17-6.18a4.3 4.3 0 0 0 2.72-5.08z" class="Ct"></path><g clip-path="url(#AH)" class="Cs"><path d="M118.42 489.34l27.17 12.83.28-16z"></path></g><path d="M144.49 516.57a75 75 0 0 1-9.46 3.91c-7.59 2-12.87 1.71-15.79.89-6.15-1.73-4.1-4.41-8.36-2.83-13.24 4.89-18.37 6.09-17.28 11.93l48.84-.81a2.59 2.59 0 0 0 2.55-2.58v-.13z" class="DG"></path><path d="M209.06 483.73l11.46-11.22 11.65 30.62a20.58 20.58 0 0 0 5.76 8.27l11.83 10.26s-8.07 3.54-14.54 1.86-19.67-11.81-19.67-11.81z" class="Ct"></path><g clip-path="url(#AI)" class="Cs"><path d="M206.52 489.34l27.29 12.83.28-16z"></path></g><path d="M212.71 502.17s10.91 11.57 16 14.15c.2.1 5.14 2.87 8.36 2.73 3.61-.15 5.55-3.19 5.75-3.09 7.08 3.7 13.49 2.79 15.18 14.51h-16.6a20.85 20.85 0 0 1-15-6.31l-2.92-3s-8.33.21-8.28-3-2.49-15.99-2.49-15.99z" class="DG"></path><path d="M130.91 283.01s-15.42 11.17-18.61 16.62c-7.12 12.11-3.5 25.75-1.84 47.14 3.6 46.51 7.88 143.24 7.88 143.24h28l16.81-145.83s1.49 47.45 44 146.13l30.07.13-36.96-190.8-57.68-32.63z" fill="#56d4b7"></path><g clip-path="url(#AJ)"><g fill="#4bc5a9"><path d="M150.51 285.4s-22.7 4.75-23.24 36.1 11 208.7 11 208.7l-26.61-4.65-20.72-236.48 39.17-17zm13.08 57.42a223.13 223.13 0 0 0 1.36 35c2.26 19.46 51.45 155.77 51.45 155.77l17.16-3.36z"></path></g><path d="M165.98 309.64s3.7 21.57 2.71 27.37a6.6 6.6 0 0 1-6.32 5.81" stroke="#4bc5a9" stroke-width=".93" class="Cb Cg"></path></g><path d="M129.74 177.08a5.4 5.4 0 0 0-2.12 0q-28 11.61-23.87 34.31c4.28 23.47 16.68 43.15 16.25 68.3l-12.1 27.21s20.67-6.85 36.87 1.89c30.83 16.63 56.85-9.39 56.85-9.39s-9.4-48.26-10.49-63.31c-.63-8.69 2.92-8.83 4.17-14.89 2.35-11.32-7.49-19.34-13.75-27.26-4-5.06-6.88-9.71-8.26-11.8-5.73-8.65-9.38-3.51-12.38-5.06-9.4-4.87-31.17 0-31.17 0z" class="Dd"></path><g clip-path="url(#AK)"><path d="M144.24 223.47c3.77 6.07 8.93 27.4 30.69 10s15.61 4.2 15.61 4.2l.76 3.53s-14 26.74-30.86 37.55-21.49 3.51-22.12 9.64 9.37-1.37 18.1 6.26 9.2 16.15 24.26 11.89 18.7-13 23.42-9.34-23.63 21.66-23.63 21.66l-66.09-3.63H88.56l10.59-56.86 33.59-55s7.74 14.02 11.5 20.1z" fill="#df775d"></path></g><path d="M106.49 198.41c3.47-7.63 17.59-12.5 27.31 6.34s18.8 42.09 18.8 42.09 34.73-25.5 42.45-27.66 23.42-2.76 34.41 3.66 13.35 10.21 12.29 10.69c-.57.26-4.18-1.88-10.48-4.56a28.89 28.89 0 0 0-4.66-1.17c0 0 2.93 4.68-.08 4.68 0 0-1 2.62-3.13 2.44 0 0 .66 2.13-3.25 1.93s-6.63-.06-6.58-3.15c0 0-7.43-2.27-8.88-4.73 0 0-1.73-1.58-5.3.92s-43.66 67.52-69.65 36.58-26.68-60.46-23.25-68.06z" class="Ct"></path><g clip-path="url(#AL)"><path d="M104.8 219.6l34.19-12.75s-3.71-19.55-15.7-19.55-18.13 11.24-18.13 11.24a47.36 47.36 0 0 0-1.79 9.35 92 92 0 0 0 1.43 11.71z" class="Dd"></path><g class="Cb Cg DD DN"><path d="M193.77 236.77l4.74-6.24c2.22-3 5.11-2.42 5.75-1.9a19.83 19.83 0 0 1 1.7 1.73s8.68 4.41 13.34 4.41m7.34-2.21a6.48 6.48 0 0 0-3.25-3.41m-.09 5.62a4 4 0 0 0-3.31-2.86m19.01.65s-8.26-5.23-12.28-4.78"></path></g></g><g class="Cb Cg DD DN"><path d="M229.46 222.85c-13.57-9.07-34.11-3.25-34.11-3.25s-14.13 5.3-42.75 27.24c0 0-15.2-36.67-16.79-38.47m16.79 38.47a13.39 13.39 0 0 0-5.73 13.06"></path></g><path d="M170.83 134.14s12.1 30.87-6.77 33.57c0 0-10 4.88-9.07 5.6a108.63 108.63 0 0 0 11.33 3.56c0 0 10.36 14-4 18.09s-35.75-17.47-35.75-17.47a32.62 32.62 0 0 1 4.88-1.57c4.23-.88 6.48-1.2 6.51-2.61a40.32 40.32 0 0 0-1.4-15.15 102.56 102.56 0 0 0-6.62-12.85c0 0 8.21-9.84 14.69-16.17s18.18-2.13 18.18-2.13a29.35 29.35 0 0 1 6.35 3 7 7 0 0 1 1.67 4.13z" class="Ct"></path><g clip-path="url(#AM)" class="Cs"><path d="M153.42 167.41a18.68 18.68 0 0 1-8.11-5.14c0 0 1.95 11.43 9.44 10.93s-1.33-5.79-1.33-5.79z"></path></g><g class="Cb Cg DD DO Dp"><path d="M152.85 143.23a6.31 6.31 0 0 1 6.13 0m6.18-.22a5.26 5.26 0 0 1 4.22.7"></path></g><path d="M166.82 131.01s-8.93 15.27-27 13.85c0 0-3.75-2.11-4.61.68s.68 4 3.55 5.15l-.76 22.63s-2.67 0-7.05-.09a27.92 27.92 0 0 1-7.34-1l1.23-5.61-4.6 4.18s-13.37-6.44-15.18-8.15c0 0 11.17-8.41 15.69-19s10.84-29.36 26.89-30.9 25.79 7 27.67 20.17 3.56 38.79 10.16 39.91l-17.21.38c-1.34.07-2.31-4.92-2.31-4.92l-2.51 5.16-8.52-.18-1.45-5.9s17.21.37 17.11-28.45a13.65 13.65 0 0 1-3.17-3.91 9.4 9.4 0 0 1-.59-4z" class="DG"></path><path d="M162.96 145.56a4.17 4.17 0 0 0 .49 4.21c1.56 2.1 1.51 4.72-2.85 3.78" stroke="#9d3f28" class="Cb Cg DD DO"></path><ellipse cx="147.97" cy="69.54" rx=".86" ry=".84" transform="matrix(.710185 -.704015 .704015 .710185 2.99 201.34)" class="DG"></ellipse><path d="M158.27 146.34a2.76 2.76 0 0 0-3.29.1" class="Cb Cg DD Dp"></path><ellipse cx="158.15" cy="69.54" rx=".86" ry=".84" transform="matrix(.710185 -.704015 .704015 .710185 5.94 208.51)" class="DG"></ellipse><g class="Cg DD"><path d="M168.45 146.31a2.77 2.77 0 0 0-3.29.16" class="Cb Dp"></path><path d="M161.06 160.94c-2.27.19-4.62-3-4.62-3a22.36 22.36 0 0 0 4.62 1.07 9.94 9.94 0 0 0 3.56-1s-1.32 2.74-3.56 2.93z" fill="#fff" stroke="#9d3f28"></path></g></g><g class="Cb"><g class="DO Dq"><path d="M110.41 305.15h67.51" stroke="#a1bedb" stroke-width="9.34"></path><path d="M110.41 319.74h128.61m-127.68 8.57h48.79" stroke="#d0e6f6" class="Dr"></path></g><path d="M107.59 361.08l1.28 12.74a3.44 3.44 0 0 0 3.44 3.11h129.68a3.46 3.46 0 0 0 3.44-3.81l-1.28-12.73a3.45 3.45 0 0 0-3.44-3.11H111.06a3.45 3.45 0 0 0-3.47 3.8z" opacity=".5" stroke-width=".93" stroke="#7fc1ff" class="Cg"></path></g><g fill="#ffbc00"><path d="M118.24 335.67l3.44 5 5.67.81-3.24 3.89 2 5.5-5.44-2.6-4.44 2.6-.11-5.5-4.75-3.89 5.37-.81 1.5-5zm26.98 0l3.44 5 5.68.81-3.25 3.89 2.01 5.5-5.44-2.6-4.44 2.6-.12-5.5-4.75-3.89 5.37-.81 1.5-5z"></path><use xlink:href="#Af"></use><path d="M199.19 335.67l3.44 5 5.67.81-3.24 3.89 2 5.5-5.44-2.6-4.43 2.6-.12-5.5-4.75-3.89 5.37-.81 1.5-5z"></path><use xlink:href="#Af" x="53.97"></use></g><image class="CL" width="215" height="197" transform="translate(569.76 496.28)" opacity=".3"></image><path d="M608.8 518.34a10.88 10.88 0 0 1 10.18-8.47h139.4c4.68 0 7.7 3.79 6.76 8.47l-25.19 124.77a10.88 10.88 0 0 1-10.18 8.47h-14a10.15 10.15 0 0 0-5.82 2l-29.22 20.85 2.9-14.34c.94-4.68-2.09-8.47-6.77-8.47h-86.49c-4.68 0-7.7-3.79-6.76-8.47z" fill="#fff"></path><g clip-path="url(#AN)"><ellipse cx="672.24" cy="467.52" rx="24.7" ry="20.19" transform="matrix(.741742 -.670686 .670686 .741742 -130.89 648.58)" fill="#8cc6ff"></ellipse><path d="M694.91 555.19s2.45 12.59 1.66 16.72c-.12.57-2.09.35-2.25.86l-6.81-1.6.55-15.46 4.64-1.35z" class="Ct"></path><g clip-path="url(#AO)" class="Cs"><path d="M692.51 555.43s-1.61 6.38-.67 9.4c.3.94 2.1 1.23 3 1.78a5.33 5.33 0 0 1 2.2 3.17l-8.47-3.17z"></path></g><path d="M663.06 553.5l6.16 3.63a16.41 16.41 0 0 1-.82 6.44c-1.14 2.59-6.6 5.63-6.25 8.8 0 0 6.34-2 10.22 0s7.58 6.31 11.91 5.34c0 0 1.57-16.48 4-21.19l6.73-1.33s-1.06-7.86-6.73-9.68a22.85 22.85 0 0 0-7.49-1 20.48 20.48 0 0 0-17.73 8.99z" class="Dd"></path><g clip-path="url(#AP)"><path d="M669.17 557.13s.14 6.17 3.81 6.69a5.88 5.88 0 0 0 5.43-1.69c0 0 1.2 3.05 4.1 2.72 0 0-1.14 4.06-3.5 2.58s-5.23-.62-4.65.89.27 4.69 6.34 6.78 9.63-1.42 9.63-1.42l-5.78 6.13-24.49-4.71.46-7.93z" fill="#df775d"></path></g><path d="M688.47 553.8l.06 3.26" stroke="#301913" class="Cb Cg De"></path><path d="M689.29 534.12s1.62 7.83-3.28 8.52c0 0-2.76 1.24-2.56 1.43a23.74 23.74 0 0 0 2.7.9 7.12 7.12 0 0 1-6.07 3.29 3.93 3.93 0 0 1-4.09-3.45 50.03 50.03 0 0 1 1.27-.16c1.08-.13 1.8-.23 1.87-.58a10.21 10.21 0 0 0 .36-3.85 22.33 22.33 0 0 0-1.07-3.27l4.48-4.11c1.94-1.61 4.7-.53 4.7-.53a5.81 5.81 0 0 1 1.46.77 1.47 1.47 0 0 1 .23 1.04z" class="Ct"></path><g clip-path="url(#AQ)" class="Cs"><path d="M683.32 542.57a3.69 3.69 0 0 1-1.81-1.31s0 2.9 1.88 2.77-.07-1.46-.07-1.46z"></path></g><path d="M688.42 533.32a9.28 9.28 0 0 1-7.49 3.52s-.85-.54-1.2.17 0 1 .66 1.31l-1.25 5.75h-1.78a6.34 6.34 0 0 1-1.81-.26l.57-1.42-1.37 1.06a29.35 29.35 0 0 1-3.47-2.06 18.57 18.57 0 0 0 4.86-4.82c1.64-2.68 4.13-7.46 8.26-7.84s6.21 1.77 6.07 5.12-.91 9.85.7 10.13l-4.38.1c-.38.03-.35-1.25-.35-1.25l-.88 1.31h-2.15l-.09-1.5s4.35.09 5.67-7.23a2.74 2.74 0 0 1-.61-1 2.4 2.4 0 0 1 .04-1.09z" class="DG"></path><path d="M650.71 558.22s-.71-3.19-3.11-3.29-6.17-4.07-6.19-5.07c0-.65.31-.58.52-.52s.2.06.19 0a.64.64 0 0 1 .47-.62h.12c.33 0 .86 1.14.86 1.14v-2.06c0-.13.88 0 .76 1.07a1.29 1.29 0 0 0 .54 1.36c.52-.33.51.13 1.15 1a2.48 2.48 0 0 0 2.25.81 25.88 25.88 0 0 0-1.76-2.24c-.36-.48.23-1.78 1-.9a19.09 19.09 0 0 0 2.87 2.33c1.4.29 2.46 2.46 3 3.85h0l3.71 4.84a39.43 39.43 0 0 0 3 3l3.18-9.25 5.93 3.55s-3.2 10.72-7.51 12.89a2.27 2.27 0 0 1-1.36.2c-4.27-.8-9.62-12.09-9.62-12.09z" class="Ct"></path><g clip-path="url(#AR)" class="Cs"><path d="M648.64 555.2s1.71 0 3.36 3.11 4.88 13.09 11.63 10.5-3.16 3.73-3.16 3.73l-11.3-5.61zm12.42 9.32l4-11.19-2.38-1.77-3 10.79z"></path></g><g stroke-width=".77" class="Cb Cg DN"><path d="M650.8 553.4c-1.29-1.18-1.89-.51-3.58-.8s-1.47-1.85-1.77-2.28-.46-.21-.46-.21-.79 1.29 1.06 3.6"></path><path d="M642.06 549.37l3 2.95"></path><path d="M643.47 549.55l.59.82c.22.26.42.41.64.6"></path></g><path d="M681.99 555.37h10.54l-3.7 18.31H678.3l3.69-18.31z" fill="#230d99"></path><path d="M682.37 556.23h9.45l-3.34 16.59h-9.46l3.35-16.59z" stroke="#fff" class="Cb Cg De"></path><path d="M696.32 572.85c-3.44 3.09-11.42-1.28-14.28-4.11 0 0-4.08-1.54-4.08-2.49s.5-1.05.5-1.05a1.46 1.46 0 0 1 .11-1.2c0 0-.08-1 .29-1.26 0 0 0-1.28 1.93-1.42 0 0-.38.8 0 1.07s2.21.62 2.3.16-.89-1.58-.21-2.35.65 1 1.49 1.68a3.25 3.25 0 0 1 1.07 3.61c0 0-.21 1.13 4.52 1.38 2.5.13 5.12.21 6.23 1.37s1.75 3.15.13 4.61z" class="Ct"></path><g clip-path="url(#AS)" class="Cs"><path d="M682.06 568.74s10.71 5.83 15.2 3-2.06 4.31-2.06 4.31l-15-4.31z"></path></g><g class="Cb Cg"><path d="M669.17 557.13l.63-2.17" stroke="#301913" class="De"></path><g class="DN"><g stroke-width=".77"><path d="M653.39 555.01l3.15 4.31c2.87 3.34 5 4.42 5.13 7.3"></path><path d="M659.84 562.85a3.87 3.87 0 0 1 2.72 1m22.86 1.84a6.77 6.77 0 0 0 4.33 1.21c3 0 6.51.43 7.35 2.88"></path></g><g class="De"><path d="M678.86 562.74s.06.46.89.59m-1.18.68a1.54 1.54 0 0 0 .93.53m-1.04.66a1.72 1.72 0 0 0 1 .53"></path></g></g></g></g><path d="M613.93 615.01h107.8m-110.91 15.4h85.48" stroke="#d0e6f6" class="Cb DO Dq Dr"></path><path d="M630.7 582.07l1.23 4.22a.75.75 0 0 0 .64.54l4.52.68a.8.8 0 0 1 .61 1.12 1.27 1.27 0 0 1-.4.57l-4 3.29a1.19 1.19 0 0 0-.46.88l-.18 4.64a1.28 1.28 0 0 1-1.05 1.15.93.93 0 0 1-.6-.1l-3.72-2.19a1 1 0 0 0-.92 0l-4.6 2.19a.86.86 0 0 1-1.26-.41 1 1 0 0 1 0-.64l1.71-4.63a.88.88 0 0 0-.11-.88l-2.69-3.29a1 1 0 0 1 .26-1.4 1.25 1.25 0 0 1 .63-.29l4.79-.68a1.29 1.29 0 0 0 .85-.54l2.94-4.22a1.13 1.13 0 0 1 1.42-.45.71.71 0 0 1 .39.44zm22.36 0l1.23 4.22a.78.78 0 0 0 .64.54l4.52.68a.81.81 0 0 1 .62 1.12 1.29 1.29 0 0 1-.41.57l-4 3.29a1.2 1.2 0 0 0-.47.88l-.14 4.63a1.28 1.28 0 0 1-1 1.15.9.9 0 0 1-.59-.1l-3.72-2.19a1 1 0 0 0-.92 0l-4.76 2.15a.85.85 0 0 1-1.25-.41.94.94 0 0 1 0-.64l1.72-4.63a.88.88 0 0 0-.11-.88l-2.7-3.29a1 1 0 0 1 .27-1.4 1.18 1.18 0 0 1 .62-.29l4.8-.68a1.32 1.32 0 0 0 .85-.54l2.93-4.22a1.13 1.13 0 0 1 1.42-.45.68.68 0 0 1 .45.49zm22.31 0l1.23 4.22a.75.75 0 0 0 .64.54l4.52.68a.8.8 0 0 1 .61 1.12 1.27 1.27 0 0 1-.4.57l-4 3.29a1.19 1.19 0 0 0-.46.88l-.14 4.63a1.29 1.29 0 0 1-1.06 1.15.91.91 0 0 1-.59-.1l-3.72-2.19a1 1 0 0 0-.92 0l-4.6 2.19a.86.86 0 0 1-1.26-.41 1 1 0 0 1 0-.64l1.71-4.63a.88.88 0 0 0-.11-.88l-2.7-3.29a1 1 0 0 1 .27-1.4 1.21 1.21 0 0 1 .63-.29l4.79-.68a1.29 1.29 0 0 0 .85-.54l2.94-4.22a1.13 1.13 0 0 1 1.42-.45.74.74 0 0 1 .35.45zm22.33 0l1.23 4.22a.78.78 0 0 0 .64.54l4.52.68a.81.81 0 0 1 .62 1.12 1.29 1.29 0 0 1-.41.57l-4 3.29a1.19 1.19 0 0 0-.46.88l-.18 4.64a1.28 1.28 0 0 1-1.05 1.15.89.89 0 0 1-.59-.1l-3.72-2.19a1 1 0 0 0-.93 0l-4.6 2.19a.87.87 0 0 1-1.26-.41 1 1 0 0 1 0-.64l1.71-4.63a.9.9 0 0 0-.1-.88l-2.7-3.29a1 1 0 0 1 .27-1.4 1.18 1.18 0 0 1 .62-.29l4.8-.68a1.32 1.32 0 0 0 .85-.54l2.93-4.22a1.13 1.13 0 0 1 1.42-.45.68.68 0 0 1 .39.44z" fill="#ffbc00"></path><path d="M720.06 582.07l1.23 4.22a.75.75 0 0 0 .64.54l4.52.68a.8.8 0 0 1 .61 1.12 1.35 1.35 0 0 1-.4.57l-4 3.29a1.19 1.19 0 0 0-.46.88l-.15 4.63a1.28 1.28 0 0 1-1 1.15.91.91 0 0 1-.59-.1l-3.72-2.19a1 1 0 0 0-.92 0l-4.6 2.19a.86.86 0 0 1-1.26-.41 1 1 0 0 1 0-.64l1.71-4.63a.88.88 0 0 0-.11-.88l-2.7-3.29a1 1 0 0 1 .27-1.4 1.18 1.18 0 0 1 .63-.29l4.79-.68a1.29 1.29 0 0 0 .85-.54l2.93-4.22a1.14 1.14 0 0 1 1.43-.45.74.74 0 0 1 .3.45z" fill="#ffbb20"></path><path d="M245 269.01c12-13.93 50.64-47.92 136.2-38.2 52.22 5.93 107.51 21.15 148.68 87.86 44.31 71.78 18.2 152.53-12.13 197.17-33.39 49.17-84.55 78-112.09 79.17-59.34 2.51-77.14-56.45-39.16-79.19s78.17-.28 90.2 44.13c9.49 35.06-5.16 68 4.88 118.93 10.94 55.51 44 79.91 82.81 89.4 43.72 10.71 84 8.73 126.59-13.45 37.36-19.45 51.28-53.11 51-79.27" stroke="#3e6c98" stroke-width="10" class="Cb DO Dq"></path><path d="M251.22 273.31a7.52 7.52 0 1 1-1.36-10.54 7.52 7.52 0 0 1 1.36 10.54zm486.51 410.85l-15.69-3.58-13.47 8.81 8.38-37.18 20.78 31.95z" class="DA"></path></g></svg>