<svg xmlns="http://www.w3.org/2000/svg" xmlns:v="https://vecta.io/nano" viewBox="0 0 682 764.69"><style><![CDATA[.D{isolation:isolate}.N,.V{mix-blend-mode:multiply}.X{fill:none}.Y{fill-rule:evenodd}.Z{stroke-linecap:round}.a{fill:#7fc1ff}.b{stroke-width:8.69}]]></style><defs><clipPath id="A"><rect x="190.42" y="405.43" width="300.88" height="146.1" rx="12.8" class="X"></rect></clipPath><linearGradient id="B" x1="312.92" y1="67.88" x2="397.44" y2="981.61" gradientUnits="userSpaceOnUse"><stop offset="0" stop-color="#d3f7ff"></stop><stop offset="1" stop-color="#dff4ff"></stop></linearGradient><mask id="C" x="159.35" y="65.31" width="365.21" height="608.85" maskUnits="userSpaceOnUse"><rect x="159.35" y="65.31" width="362.85" height="607.5" rx="18.99" fill="#fff"></rect><rect x="159.79" y="65.75" width="361.97" height="606.62" rx="18.55" stroke="#fff" stroke-width=".88" class="X"></rect></mask></defs><g class="D"><g fill="#3e6c98"><path d="M545.73 174.65h0a6.08 6.08 0 0 1 6.08 6.07v85.82a6.08 6.08 0 0 1-6.08 6.07h0a6.07 6.07 0 0 1-6.07-6.07v-85.82a6.07 6.07 0 0 1 6.07-6.07z"></path><rect x="134.3" y="150.35" width="12.15" height="56.95" rx="6.07"></rect><rect x="134.3" y="78.21" width="12.15" height="56.95" rx="6.07"></rect></g><rect x="138.86" width="403.08" height="764.69" rx="52.4" class="a"></rect><g fill="#3e6c98"><path d="M340.4 31.89a7.21 7.21 0 1 0-7.21-7.21 7.21 7.21 0 0 0 7.21 7.21z" class="Y"></path><path d="M319.53 39.48h41.75a5.32 5.32 0 0 1 5.31 5.32h0a5.31 5.31 0 0 1-5.31 5.31h-41.75a5.32 5.32 0 0 1-5.32-5.31h0a5.32 5.32 0 0 1 5.32-5.32z"></path><path d="M337.36 745.71a27 27 0 1 0-26.94-27 27 27 0 0 0 26.94 27z" class="Y"></path></g><path d="M337.74 732.8a13.67 13.67 0 1 0-13.66-13.67 13.66 13.66 0 0 0 13.66 13.67z" stroke="#91adc8" stroke-width="1.52" class="X"></path><g opacity=".77"><rect x="159.35" y="65.31" width="362.85" height="607.5" rx="18.99" fill="url(#B)"></rect><rect x="159.79" y="65.75" width="361.97" height="606.62" rx="18.55" stroke-width=".88" stroke="#040404" stroke-opacity=".62" class="X"></rect></g><g mask="url(#C)"><g opacity=".15"><rect x="159.79" y="437.72" width="364.77" height="236.44" rx="15.95" fill="#fff"></rect></g></g><image class="N" width="539" height="203" transform="translate(143 64.61)" opacity=".4"></image><path d="M190.26,114.83a18.62,18.62,0,0,1,18.62-18.62H631a18.62,18.62,0,0,1,18.62,18.62v86.91A18.62,18.62,0,0,1,631,220.36H208.88a18.62,18.62,0,0,1-18.62-18.62Z" fill="#fff" class="Y"></path><path d="M327.31 145h144m-144 26.54h115.91" stroke="#bedcff" class="X Z b"></path><path d="M258.78 119.8a38.48 38.48 0 1 0 38.48 38.48 38.47 38.47 0 0 0-38.48-38.48zm-1 62.3a5.28 5.28 0 1 1 5.28-5.28 5.3 5.3 0 0 1-5.24 5.28zm5-20.15c-1.55 2.26-1 5.41-5.28 5.41a4.09 4.09 0 0 1-4.12-4.31c0-7.66 11.27-9.4 11.27-15.71 0-3.48-2.32-5.54-6.18-5.54-8.24 0-5 8.5-11.27 8.5-2.25 0-4.18-1.35-4.18-3.93 0-6.31 7.21-11.91 15.06-11.91 8.24 0 16.35 3.8 16.35 12.88.06 8.37-9.53 11.59-11.59 14.66z" fill="#88bfff"></path><image class="N" width="539" height="204" transform="translate(0 218.61)" opacity=".4"></image><path d="M31.94,269.44a18.63,18.63,0,0,1,18.63-18.62H472.68a18.62,18.62,0,0,1,18.62,18.62v86.91A18.62,18.62,0,0,1,472.68,375H50.57a18.63,18.63,0,0,1-18.63-18.62Z" fill="#fff" class="Y"></path><g class="X"><path d="M169 286.38h276M169 312.9h218.48M169 339.41h190.4" stroke="#bedcff" class="Z b"></path><path d="M92.15 283.72h0a34.15 34.15 0 0 1 34.14 34.14h0A34.14 34.14 0 0 1 92.15 352h0A34.13 34.13 0 0 1 58 317.86h0a34.14 34.14 0 0 1 34.15-34.14z" stroke="#88c0ff" stroke-width="7.63"></path><path d="M76,313.84l24.43,22.32,43.85-66.72" stroke="#458747" stroke-width="9.93" class="Z"></path></g><image class="N" width="380" height="138" transform="translate(151 551.61)" opacity=".4"></image><path d="M190.26 629.74v-34.6A12.16 12.16 0 0 1 202.42 583h276.72a12.16 12.16 0 0 1 12.16 12.17v34.6a12.16 12.16 0 0 1-12.16 12.17H202.42a12.16 12.16 0 0 1-12.16-12.2z" fill="#fff" class="Y"></path><path d="M288.59 624.13a7 7 0 0 1-3-2.29 6.17 6.17 0 0 1-1.19-3.64h5.6a2.71 2.71 0 0 0 .83 1.83 2.64 2.64 0 0 0 1.85.64 2.89 2.89 0 0 0 1.85-.54 1.79 1.79 0 0 0 .68-1.5 1.77 1.77 0 0 0-.54-1.33 4.25 4.25 0 0 0-1.32-.86 19.18 19.18 0 0 0-2.24-.77 26 26 0 0 1-3.43-1.3 6.23 6.23 0 0 1-2.28-1.92 5.3 5.3 0 0 1-1-3.3 5.68 5.68 0 0 1 2.19-4.74 9 9 0 0 1 5.71-1.71 9.16 9.16 0 0 1 5.78 1.71 6.12 6.12 0 0 1 2.34 4.77h-5.71a2.23 2.23 0 0 0-.77-1.65 2.72 2.72 0 0 0-1.82-.6 2.28 2.28 0 0 0-1.55.51 2 2 0 0 0 .4 3.1 16.78 16.78 0 0 0 3.09 1.27 28.12 28.12 0 0 1 3.41 1.35 6.52 6.52 0 0 1 2.27 1.89 5 5 0 0 1 1 3.18 6.19 6.19 0 0 1-.94 3.36 6.57 6.57 0 0 1-2.73 2.41 9.35 9.35 0 0 1-4.23.9 11.19 11.19 0 0 1-4.25-.77zM321 607.45v17.23h-5.28v-2.35a5.68 5.68 0 0 1-2.17 1.84 6.7 6.7 0 0 1-3 .7A6.88 6.88 0 0 1 307 624a6 6 0 0 1-2.35-2.55 8.74 8.74 0 0 1-.83-3.92v-10.08h5.25v9.36a3.74 3.74 0 0 0 .89 2.68 3.14 3.14 0 0 0 2.41 1 3.18 3.18 0 0 0 2.44-1 3.74 3.74 0 0 0 .89-2.68v-9.36zm11.21.55a6.6 6.6 0 0 1 3.18-.74 7.13 7.13 0 0 1 3.86 1.08 7.53 7.53 0 0 1 2.73 3.08 11.3 11.3 0 0 1 0 9.34 7.58 7.58 0 0 1-2.73 3.12 7.06 7.06 0 0 1-3.86 1.1 6.61 6.61 0 0 1-3.18-.73 5.6 5.6 0 0 1-2.13-1.93v2.41h-5.28v-22.9h5.28v8.06a5.5 5.5 0 0 1 2.13-1.89zm4.31 5a3.61 3.61 0 0 0-2.7-1.12 3.56 3.56 0 0 0-2.67 1.14 5 5 0 0 0 0 6.24 3.69 3.69 0 0 0 5.35 0 4.34 4.34 0 0 0 1.11-3.13 4.27 4.27 0 0 0-1.09-3.2zm36.34-3.79a7.45 7.45 0 0 1 1.9 5.41v10.06h-5.25v-9.35a3.58 3.58 0 0 0-.88-2.58 3.69 3.69 0 0 0-4.85 0 3.54 3.54 0 0 0-.88 2.58v9.35h-5.25v-9.35a3.54 3.54 0 0 0-.88-2.58 3.18 3.18 0 0 0-2.42-.91 3.22 3.22 0 0 0-2.43.91 3.58 3.58 0 0 0-.87 2.58v9.35h-5.28v-17.23h5.28v2.16a5.59 5.59 0 0 1 2.09-1.71 6.68 6.68 0 0 1 2.94-.63 7.21 7.21 0 0 1 3.47.83 6 6 0 0 1 2.39 2.38 7 7 0 0 1 2.44-2.32 6.66 6.66 0 0 1 3.37-.89 6.84 6.84 0 0 1 5.11 1.94zm5.99-4.37a2.63 2.63 0 0 1-.88-2 2.66 2.66 0 0 1 .88-2.05 3.51 3.51 0 0 1 4.51 0 2.7 2.7 0 0 1 .88 2.05 2.67 2.67 0 0 1-.88 2 3.51 3.51 0 0 1-4.51 0zm4.89 2.61v17.23h-5.28v-17.23zm13.43 12.75v4.48h-2.68a6.61 6.61 0 0 1-4.48-1.4q-1.61-1.41-1.61-4.59v-6.85h-2.1v-4.39h2.1v-4.2h5.28v4.2h3.46v4.39h-3.46v6.91a1.45 1.45 0 0 0 .37 1.11 1.8 1.8 0 0 0 1.24.34z" fill="#88c0ff"></path><g clip-path="url(#A)"><path d="M190.42 403.75H491.3v147.79H190.42z" class="a"></path><image class="V" width="424" height="271" transform="translate(131.88 347.49)" opacity=".6"></image><path d="M478.5,405.43a12.8,12.8,0,0,1,12.8,12.8V538.74a12.8,12.8,0,0,1-12.8,12.8H203.22a12.8,12.8,0,0,1-12.8-12.8V418.23a12.8,12.8,0,0,1,12.8-12.8H478.5m0-45.5H203.22a58.36,58.36,0,0,0-58.3,58.3V538.74a58.36,58.36,0,0,0,58.3,58.3H478.5a58.37,58.37,0,0,0,58.31-58.3V418.23a58.37,58.37,0,0,0-58.31-58.3Z" class="a"></path></g><path d="M223.63 439.44h234.3M223.63 466h234.3m-234.3 26.48h122.05" stroke="#448fd3" stroke-width="8.01" class="X Z"></path></g></svg>