<svg xmlns="http://www.w3.org/2000/svg" xmlns:xlink="http://www.w3.org/1999/xlink" xmlns:v="https://vecta.io/nano" viewBox="0 0 851.35 597.34"><style><![CDATA[.B{isolation:isolate}.Bc,.Be,.CI{mix-blend-mode:multiply}.CK{fill:none}.CL{fill:#2e5070}.CM{fill:#20384f}.CN{fill:#33597d}.CO{fill:#689ed1}.CP{fill:#284561}.CQ{fill:#2b4c6a}.CR{fill:#294764}.CS{fill:#2a4967}.CT{fill:#2d4e6d}.CU{fill:#305477}.CV{fill:#32567a}.CW{fill:#2f5274}.CX{stroke-miterlimit:10}.CY{fill:#426485}.CZ{fill:#517ca3}.Ca{fill:#547fa8}.Cb{fill:#345b80}.Cc{fill:#3e6c98}.Cd{fill:#5683ad}.Ce{fill:#5987b3}.Cf{fill:#5b8bb8}.Cg{fill:#5e8fbd}.Ch{fill:#6193c2}.Ci{fill:#6397c7}.Cj{fill:#669acc}.Ck{stroke-width:.44}.Cl{fill:#213a52}.Cm{fill:#f1b2a2}.Cn{fill:#ffd3c8}.Co{fill:#26435e}.Cp{fill:#25415b}.Cq{fill:#243f58}.Cr{fill:#233c55}.Cs{fill:#6b8094}.Ct{fill:#ff9378}.Cu{fill:#061537}.Cv{fill:#45688a}.Cw{fill:#476c8f}.Cx{fill:#4a7094}.Cy{fill:#4c7499}.Cz{fill:#4f789e}.DA{fill:#828282}.DB{fill:#5d6f80}.DC{fill:#607284}.DD{fill:#637688}.DE{fill:#66798c}.DF{fill:#687d90}.DG{fill:#6e8398}.DH{fill:#71879c}.DI{fill:#748aa0}.DJ{fill:#778ea4}.DK{fill:#e5b295}.DL{fill:#7fc1ff}.DM{fill:#6ba2d6}.DN{fill:#919191}.DO{fill:#949494}.DP{fill:#969696}.DQ{fill:#9c9c9c}.DR{fill:#9e9e9e}.DS{fill:#a1a1a1}.DT{fill:#a3a3a3}.DU{fill:#a6a6a6}.DV{fill:#a8a8a8}.DW{stroke:#99776c}.DX{stroke:#061537}.DY{stroke-linecap:round}.DZ{fill:#eac6b2}]]></style><defs><linearGradient id="A" x1="12.46" y1="3571.12" x2="12.86" y2="3564.01" gradientTransform="matrix(93.47, 0, 0, -51.5, -958.1, 183978.05)" gradientUnits="userSpaceOnUse"><stop offset="0" stop-color="#d3f7ff"></stop><stop offset="1" stop-color="#dff4ff"></stop></linearGradient><linearGradient id="B" gradientTransform="matrix(93.47, 0, 0, -51.5, -958.11, 183978.05)" xlink:href="#A"></linearGradient><clipPath id="C" transform="translate(7.88 71.82)"><path d="M718 205.77l-4.76-3.18a1.39 1.39 0 0 0 .35.16l4.76 3.19a1.62 1.62 0 0 1-.35-.17z" class="CK"></path></clipPath><clipPath id="D" transform="translate(7.88 71.82)"><path d="M729.89 179.66l4.76 3.18c-3.11 0-6.18 2.82-6.87 6.29L723 186c.71-3.53 3.78-6.34 6.89-6.34z" class="CK"></path></clipPath><clipPath id="E" transform="translate(7.88 71.82)"><path d="M713.29 229.69l-4.76-3.18a1.11 1.11 0 0 0 .35.16l4.76 3.19a1.62 1.62 0 0 1-.35-.17z" class="CK"></path></clipPath><clipPath id="F" transform="translate(7.88 71.82)"><path d="M776.2,176h0l-4.76-3.18h0L776.2,176Z" class="CK"></path></clipPath><clipPath id="G" transform="translate(7.88 71.82)"><path d="M778.12,174.28A2.14,2.14,0,0,0,776.2,176l-4.76-3.18a2.14,2.14,0,0,1,1.92-1.76Z" class="CK"></path></clipPath><clipPath id="H" transform="translate(7.88 71.82)"><path d="M776.2,176a1.48,1.48,0,0,0,.53,1.56L772,174.42a1.49,1.49,0,0,1-.53-1.56Z" class="CK"></path></clipPath><clipPath id="I" transform="translate(7.88 71.82)"><path d="M776.73 177.6l-4.73-3.18a1.22 1.22 0 0 0 .69.2l4.76 3.18a1.22 1.22 0 0 1-.72-.2z" class="CK"></path></clipPath><clipPath id="J" transform="translate(7.88 71.82)"><path d="M783.13,169.37h0l-4.76-3.18h0l4.76,3.18Z" class="CK"></path></clipPath><clipPath id="K" transform="translate(7.88 71.82)"><path d="M785.75 167a2.94 2.94 0 0 0-2.62 2.4l-4.76-3.18a2.92 2.92 0 0 1 2.62-2.4l4.76 3.18z" class="CK"></path></clipPath><clipPath id="L" transform="translate(7.88 71.82)"><path d="M786.68,167.25a1.62,1.62,0,0,0-.93-.28L781,163.79a1.62,1.62,0,0,1,.93.28Z" class="CK"></path></clipPath><clipPath id="M" transform="translate(7.88 71.82)"><path d="M783.13,169.37a2,2,0,0,0,.73,2.11l-4.76-3.18a2,2,0,0,1-.73-2.11Z" class="CK"></path></clipPath><clipPath id="N" transform="translate(7.88 71.82)"><path d="M781.92 164.07l4.76 3.18a2 2 0 0 1 .73 2.12 2.93 2.93 0 0 1-2.61 2.39 1.63 1.63 0 0 1-.94-.28l-4.76-3.18a1.63 1.63 0 0 0 .94.28 2.91 2.91 0 0 0 2.6-2.39 2 2 0 0 0-.72-2.12z" class="CK"></path></clipPath><clipPath id="O" transform="translate(7.88 71.82)"><path d="M791.17,174.48a1.25,1.25,0,0,0-.7-.2l-4.76-3.18a1.19,1.19,0,0,1,.69.2Z" class="CK"></path></clipPath><clipPath id="P" transform="translate(7.88 71.82)"><path d="M786.4 171.3l4.77 3.18a1.48 1.48 0 0 1 .53 1.56 2.15 2.15 0 0 1-1.92 1.76l-4.78-3.18a2.15 2.15 0 0 0 1.93-1.76 1.46 1.46 0 0 0-.53-1.56z" class="CK"></path></clipPath><clipPath id="Q" transform="translate(7.88 71.82)"><path d="M688.92 381l4.76 3.18a3.42 3.42 0 0 1-.49-.14l-4.76-3.18a3.42 3.42 0 0 0 .49.14z" class="CK"></path></clipPath><clipPath id="R" transform="translate(7.88 71.82)"><path d="M689.43 381l4.76 3.18a3.9 3.9 0 0 1-.51-.09l-4.76-3.09h.51z" class="CK"></path></clipPath><clipPath id="S" transform="translate(7.88 71.82)"><path d="M690 381.07l4.76 3.18a4.58 4.58 0 0 1-.53 0l-4.8-3.25a4.58 4.58 0 0 0 .57.07z" class="CK"></path></clipPath><clipPath id="T" transform="translate(7.88 71.82)"><path d="M833.25,183.56a4.4,4.4,0,0,0-2.47-.72L826,179.66a4.4,4.4,0,0,1,2.47.72Z" class="CK"></path></clipPath><clipPath id="U" transform="translate(7.88 71.82)"><path d="M828.49 180.38l4.76 3.18a5.25 5.25 0 0 1 1.9 5.57l-4.76-3.13a5.25 5.25 0 0 0-1.9-5.62z" class="CK"></path></clipPath><clipPath id="V" transform="translate(7.88 71.82)"><path d="M740.53,390.55c-4.41,0-8.77,4-9.75,8.93L726,396.3c1-4.93,5.34-8.93,9.74-8.93Z" class="CK"></path></clipPath><clipPath id="W" transform="translate(7.88 71.82)"><path d="M734.87,398.59a6,6,0,0,0-.28.94l-4.76-3.18a6.11,6.11,0,0,1,.28-1Z" class="CK"></path></clipPath><clipPath id="X" transform="translate(7.88 71.82)"><path d="M734.59 399.53v.08l-4.76-3.18v-.08z" class="CK"></path></clipPath><clipPath id="Y" transform="translate(7.88 71.82)"><path d="M734.57,399.61c0,.15-.05.3-.07.45l-4.76-3.18c0-.15,0-.3.07-.45Z" class="CK"></path></clipPath><clipPath id="Z" transform="translate(7.88 71.82)"><path d="M734.5,400.06v0l-4.76-3.18v0Z" class="CK"></path></clipPath><clipPath id="a" transform="translate(7.88 71.82)"><path d="M738,395.25a6.08,6.08,0,0,0-2.59,2.37l-4.77-3.18a6.09,6.09,0,0,1,2.6-2.37Z" class="CK"></path></clipPath><clipPath id="b" transform="translate(7.88 71.82)"><path d="M734.47 400.63l-4.76-3.18a5 5 0 0 1 0-.54l4.76 3.18a5.17 5.17 0 0 0 0 .54z" class="CK"></path></clipPath><clipPath id="c" transform="translate(7.88 71.82)"><path d="M738.82,395a4.48,4.48,0,0,0-.87.3l-4.76-3.18a4.51,4.51,0,0,1,.87-.31Z" class="CK"></path></clipPath><clipPath id="d" transform="translate(7.88 71.82)"><path d="M738.87 394.93h0l-4.76-3.19h.05z" class="CK"></path></clipPath><clipPath id="e" transform="translate(7.88 71.82)"><path d="M738.87 394.93l-4.76-3.18a4.06 4.06 0 0 1 .92-.11q2.38 1.59 4.76 3.19a4.05 4.05 0 0 0-.92.1z" class="CK"></path></clipPath><clipPath id="f" transform="translate(7.88 71.82)"><path d="M740.18 394.85a2.42 2.42 0 0 0-.39 0q-2.37-1.6-4.76-3.19h.39z" class="CK"></path></clipPath><clipPath id="g" transform="translate(7.88 71.82)"><path d="M740.67,394.93a2.51,2.51,0,0,0-.49-.08l-4.76-3.19a3.86,3.86,0,0,1,.49.09Z" class="CK"></path></clipPath><clipPath id="h" transform="translate(7.88 71.82)"><path d="M737.71,393l-1.8-1.21h0l1.45,1,.93.62,2.38,1.59h0Z" class="CK"></path></clipPath><clipPath id="i" transform="translate(7.88 71.82)"><path d="M740.72 395h0l-.56-.37-.29-.19-3.87-2.68h0z" class="CK"></path></clipPath><clipPath id="j" transform="translate(7.88 71.82)"><path d="M744 391.57a6.28 6.28 0 0 0-3.51-1l-4.77-3.18a6.28 6.28 0 0 1 3.52 1l4.76 3.18z" class="CK"></path></clipPath><clipPath id="k" transform="translate(7.88 71.82)"><path d="M730.78,399.48c-.68,3.44.46,6.42,2.7,7.92l-4.76-3.18c-2.24-1.5-3.38-4.48-2.7-7.92Z" class="CK"></path></clipPath><clipPath id="l" transform="translate(7.88 71.82)"><path d="M741.66,395.37a3.07,3.07,0,0,0-.94-.42L736,391.76a3.35,3.35,0,0,1,.94.43Z" class="CK"></path></clipPath><clipPath id="m" transform="translate(7.88 71.82)"><path d="M734.47,400.63a3.74,3.74,0,0,0,1.55,3.22l-4.76-3.18a3.74,3.74,0,0,1-1.55-3.22Z" class="CK"></path></clipPath><clipPath id="n" transform="translate(7.88 71.82)"><path d="M736.6 392.64l4.77 3.18a3 3 0 0 0-1.68-.49 5.21 5.21 0 0 0-4.66 4.28 3.58 3.58 0 0 0 1.29 3.79l-4.76-3.18a3.58 3.58 0 0 1-1.29-3.79 5.21 5.21 0 0 1 4.66-4.28 2.89 2.89 0 0 1 1.67.49z" class="CK"></path></clipPath><clipPath id="o" transform="translate(7.88 71.82)"><path d="M738,403.89a3,3,0,0,1-1.68-.49l-4.76-3.18a3,3,0,0,0,1.67.49Z" class="CK"></path></clipPath><clipPath id="p" transform="translate(7.88 71.82)"><path d="M741.37,395.82a3.57,3.57,0,0,1,1.29,3.79l-4.76-3.18a3.56,3.56,0,0,0-1.3-3.79Z" class="CK"></path></clipPath><clipPath id="q" transform="translate(7.88 71.82)"><path d="M742.66,399.61a5.22,5.22,0,0,1-4.66,4.28l-4.77-3.18a5.22,5.22,0,0,0,4.67-4.28h0Z" class="CK"></path></clipPath><clipPath id="r" transform="translate(7.88 71.82)"><path d="M736.9 392.19l4.76 3.18a4 4 0 0 1 1.45 4.24c-.52 2.64-2.86 4.79-5.21 4.79a3.36 3.36 0 0 1-1.88-.55l-4.76-3.18a3.34 3.34 0 0 0 1.87.54c2.36 0 4.7-2.15 5.22-4.78a4 4 0 0 0-1.45-4.24z" class="CK"></path></clipPath><clipPath id="s" transform="translate(7.88 71.82)"><path d="M739.28 388.39l4.76 3.18c2.24 1.5 3.37 4.48 2.69 7.91-1 4.94-5.34 8.94-9.75 8.94a6.22 6.22 0 0 1-3.5-1l-4.76-3.18a6.22 6.22 0 0 0 3.5 1c4.41 0 8.77-4 9.75-8.94.68-3.43-.46-6.41-2.69-7.91z" class="CK"></path></clipPath><clipPath id="t" transform="translate(7.88 71.82)"><path d="M805.21 303.73l4.76 3.19a3.69 3.69 0 0 1 1.45 1.91l-4.76-3.18a3.75 3.75 0 0 0-1.45-1.92z" class="CK"></path></clipPath><clipPath id="u" transform="translate(7.88 71.82)"><path d="M793 374.78l4.76 3.18c-.69 3.47-3.76 6.29-6.87 6.29l-4.76-3.18c3.06 0 6.14-2.82 6.87-6.29z" class="CK"></path></clipPath><clipPath id="v" transform="translate(7.88 71.82)"><path d="M833.08 160l4.76 3.19c4.36 2.91 6.57 8.7 5.25 15.38l-4.77-3.18c1.33-6.69-.89-12.49-5.24-15.39z" class="CK"></path></clipPath><clipPath id="w" transform="translate(7.88 71.82)"><path d="M795 394.16l4.77 3.18c-1.91 9.6-10.39 17.38-19 17.38l-4.77-3.19c8.57 0 17.05-7.77 19-17.37z" class="CK"></path></clipPath><clipPath id="x" transform="translate(7.88 71.82)"><path d="M832.2 216.14l4.77 3.18a1.68 1.68 0 0 1 .6 1.78l-4.76-3.18a1.68 1.68 0 0 0-.61-1.78z" class="CK"></path></clipPath><clipPath id="y" transform="translate(7.88 71.82)"><path d="M829 251.34l-4.76-3.18a1.43 1.43 0 0 0 .78.23 2.45 2.45 0 0 0 2.2-2l4.76 3.18a2.45 2.45 0 0 1-2.2 2 1.43 1.43 0 0 1-.78-.23z" class="CK"></path></clipPath><clipPath id="z" transform="translate(7.88 71.82)"><path d="M236.62 189c.57 4.13-2.71 7.75-7.33 8.12h-.71l-162 .08c-4.44 0-8.25-3.08-8.68-7L55.21 165 40.79 30c-.43-4.14 3-7.7 7.58-7.94L210.31 22c4.33 0 8.11 3 8.63 6.82l16.82 153.69z" class="CK"></path></clipPath><clipPath id="AA" transform="translate(7.88 71.82)"><path d="M154.43 132.47s36.57 27.62 43.37 15.84c0 0 4.39-8 .93-24.59 0 0 5-.53 5-2.34s-.7-2-6.36-2.63-4.06-7.43-.22-6.55 7.43 6.69 9.56 5.56-.43-4.31-.43-4.31 2.67 3.52 4.1 1.48-.72-4.17-.72-4.17a3.56 3.56 0 0 0 3.95.66c2.06-1.13-3.71-8.63-6.63-8.63 0 0-2.9-.28-3.33 1.39 0 0-4.27-1.72-5 .82 0 0-4.73-.68-6.11 2.93 0 0-4.36-.4-3.16 8.15s1.53 14.24-.25 14.24-25.71-32.3-37.88-36 3.18 38.15 3.18 38.15z" class="CK"></path></clipPath><clipPath id="AB" transform="translate(7.88 71.82)"><path d="M102.21,374.92h24.52L126,417.61H103.84s-12.78-2-12.83-3.43l15.85-5.76a4,4,0,0,0,2.55-4.73Z" class="CK"></path></clipPath><clipPath id="AC" transform="translate(7.88 71.82)"><path d="M187,379.07l10.68-10.45,10.86,28.54a19.22,19.22,0,0,0,5.38,7.71l11,9.56s-7.52,3.31-13.55,1.74-18.33-11-18.33-11Z" class="CK"></path></clipPath><clipPath id="AD" transform="translate(7.88 71.82)"><path d="M114.15 192s-14.37 10.4-17.35 15.49c-6.63 11.28-3.27 24-1.72 43.93 3.38 43.35 7.35 133.58 7.35 133.58h26.1l15.67-135.94s1.39 44.24 41 136.21l28 .13-34.41-177.92L125 177.06z" class="CK"></path></clipPath><clipPath id="AE" transform="translate(7.88 71.82)"><path d="M113.06 93.24a5.07 5.07 0 0 0-2 0q-26.1 10.82-22.25 32c4 21.88 15.55 40.22 15.15 63.66L92.7 214.25s19.3-6.39 34.37 1.75c28.73 15.5 53-8.75 53-8.75s-8.76-45-9.78-59c-.59-8.1 2.72-8.23 3.89-13.89 2.19-10.55-7-18-12.81-25.41-3.73-4.71-6.42-9-7.71-11-5.34-8-8.74-3.26-11.54-4.71-8.77-4.54-29.06 0-29.06 0z" class="CK"></path></clipPath><clipPath id="AF" transform="translate(7.88 71.82)"><path d="M91.39 113.13c3.23-7.12 16.39-11.65 25.45 5.91s17.52 39.22 17.52 39.22 32.37-23.77 39.57-25.77 21.83-2.58 32.08 3.41 12.44 9.51 11.46 10c-.53.24-3.9-1.75-9.77-4.25a26.12 26.12 0 0 0-4.35-1.09s2.74 4.36-.07 4.36c0 0-.95 2.44-2.92 2.27 0 0 .61 2-3 1.81s-6.18-.06-6.13-3c0 0-6.92-2.11-8.28-4.4 0 0-1.62-1.48-4.94.86s-40.7 62.93-64.92 34.09-24.94-56.31-21.7-63.42z" class="CK"></path></clipPath><clipPath id="AG" transform="translate(7.88 71.82)"><path d="M151.36 53.22s11.28 28.78-6.29 31.29c0 0-9.32 4.54-8.46 5.22a104.28 104.28 0 0 0 10.56 3.32s9.66 13-3.72 16.86-33.32-16.28-33.32-16.28a28.39 28.39 0 0 1 4.55-1.47c3.94-.82 6-1.12 6.06-2.43a37.4 37.4 0 0 0-1.3-14.13 95.45 95.45 0 0 0-6.17-12s7.65-9.17 13.69-15.07 16.92-1.95 16.92-1.95a27.46 27.46 0 0 1 5.92 2.81 6.6 6.6 0 0 1 1.56 3.83z" class="CK"></path></clipPath><path id="AH" d="M779.37 244.47l4.76 3.19a1.17 1.17 0 0 0 0 .2v.06l-4.76-3.18v-.06a1.6 1.6 0 0 1 0-.21"></path><path id="AI" d="M786.32 237.73l4.76 3.18c0 .09-.05.19-.07.28s0 0 0 .08l-4.76-3.19v-.07a2.29 2.29 0 0 1 .07-.28"></path><path id="AJ" d="M747.16 460.21l4.76 3.18a6.28 6.28 0 0 0-3.51-1 8.25 8.25 0 0 0-3.42.78l-4.76-3.18a8.2 8.2 0 0 1 3.41-.78 6.28 6.28 0 0 1 3.52 1"></path><path id="AK" d="M734.16 467.08l4.76 3.18-.26 1v.29l-4.78-3.14v-.29a8.55 8.55 0 0 1 .26-1"></path><path id="AL" d="M737.88 467.69l4.76 3.19-.14.55v.15l-4.76-3.18v-.15l.14-.56"></path><path id="AM" d="M737.66 468.4l4.76 3.18a5.23 5.23 0 0 0 0 1.36l-4.76-3.18a5.23 5.23 0 0 1 0-1.36"></path><path id="AN" d="M741.09 463.88l4.76 3.18a4 4 0 0 0-.46.24l-4.76-3.18a4 4 0 0 1 .46-.24"></path><path id="AO" d="M744.78 464.01l4.76 3.18a3.29 3.29 0 0 0-1.87-.54 4.31 4.31 0 0 0-1.82.41l-4.76-3.18a4.32 4.32 0 0 1 1.82-.42 3.32 3.32 0 0 1 1.87.55"></path><path id="AP" d="M742.75 472.15l4.76 3.19a4.11 4.11 0 0 1-1.63.37 3 3 0 0 1-1.68-.49l-4.76-3.18a3 3 0 0 0 1.67.49 4 4 0 0 0 1.64-.38"></path><path id="AQ" d="M745.8 468.11l4.77 3.19v.13a4.05 4.05 0 0 1-.12.5l-4.76-3.18c0-.17.09-.33.12-.5a.68.68 0 0 0 0-.14"></path><path id="AR" d="M160.52 312.88l3.2 4.67 5.29.75-3.02 3.63 1.87 5.12-5.07-2.42-4.14 2.42-.11-5.12-4.42-3.63 5-.75 1.4-4.67z"></path><path id="AS" d="M508.08 452.92s6.16 5.48 12.41 3.31l10.67-3.86-10.92-9.65z"></path></defs><g class="B"><path d="M244.88 479.87h-94l26-56.26h92.72l-24.72 56.26zm-30-40a10.42 10.42 0 0 0-7.382 17.785 10.42 10.42 0 0 0 17.792-7.365 10.42 10.42 0 0 0-10.47-10.4z" class="DL"></path><path d="M162.67 423.61l-17.79 35.21a21.68 21.68 0 0 0 19.34 31.45h22.33V479l-21.67-.18a8.33 8.33 0 0 1-7.48-11.79l19.75-43.38z" class="Cc"></path><path d="M184.46 479.02l95.42.8a2.32 2.32 0 0 1 2.3 2.33v5.79a2.32 2.32 0 0 1-2.32 2.32h-95.42a2.32 2.32 0 0 1-2.32-2.32v-6.62a2.32 2.32 0 0 1 2.34-2.3z" fill="#5185b7"></path><g class="Cc"><path d="M7.95 139.61c-.662-5.716 3.434-10.887 9.15-11.55q.6-.06 1.2-.06h366.75a10.41 10.41 0 0 1 10.35 9.28l33.48 283.11c.625 5.718-3.502 10.862-9.22 11.49a10.88 10.88 0 0 1-1.14.06H50.19a10.42 10.42 0 0 1-10.31-9.22z"></path><path d="M439.24 412.18c-1.064 11.014-10.188 19.498-21.25 19.76-19.84 1.16 21.25-19.76 21.25-19.76zM36.19 125.91s-28.31-.6-28.31 11.91 28.31-11.91 28.31-11.91z"></path></g><path d="M18.4 137.55c-.669-5.715 3.416-10.892 9.13-11.57.4 0 .81-.07 1.22-.07h366.74a10.42 10.42 0 0 1 10.39 9.26l33.37 276.86c.637 5.719-3.481 10.872-9.2 11.51a11.5 11.5 0 0 1-1.18.07H60.58a10.43 10.43 0 0 1-10.35-9.2z" class="DL"></path><g opacity=".77" transform="translate(7.88 71.82)"><path d="M23 73.86a8.34 8.34 0 0 1 7.26-9.29 8.68 8.68 0 0 1 1-.06h349a8.34 8.34 0 0 1 8.33 7.49L415 298.82a8.38 8.38 0 0 1-8.3 9.18H58.09a8.34 8.34 0 0 1-8.27-7.33z" fill="url(#A)"></path><path d="M31.27 66.59a6.25 6.25 0 0 0-6.2 7l26.82 226.86a6.25 6.25 0 0 0 6.2 5.49H406.7a6.25 6.25 0 0 0 6.22-6.9L386.51 72.19a6.23 6.23 0 0 0-6.21-5.6h-349m0-2.08h349a8.34 8.34 0 0 1 8.29 7.49L415 298.82a8.34 8.34 0 0 1-8.3 9.18H58.09a8.34 8.34 0 0 1-8.27-7.33L23 73.86a8.34 8.34 0 0 1 8.27-9.35z" fill="url(#B)"></path></g><g class="B CM" clip-path="url(#C)"><g><path d="M721.5 274.57l4.76 3.19a1.62 1.62 0 0 1-.35-.17l-4.76-3.18a1.39 1.39 0 0 0 .35.16"></path></g></g><path d="M725.22 255.81l4.76 3.19-3.72 18.75-4.76-3.18 3.72-18.76z" fill="#376086"></path><path d="M725.22 255.82l-3.72 18.75a1.59 1.59 0 0 1-1-1.94l3-14.86a2.55 2.55 0 0 1 1.72-1.95z" class="CL"></path><g class="B" clip-path="url(#D)"><g><path d="M737.77 251.48l4.76 3.18a5.69 5.69 0 0 0-2.41.55l-4.76-3.19a5.83 5.83 0 0 1 2.41-.54" class="CY"></path><path d="M735.36 252.02l4.76 3.19a4.87 4.87 0 0 0-.6.31l-4.76-3.18a5.7 5.7 0 0 1 .6-.32" class="Cv"></path><path d="M734.76 252.34l4.76 3.18-.47.29-4.76-3.18.47-.29" class="Cw"></path><path d="M734.29 252.63l4.76 3.18-.39.29-4.78-3.18.39-.29" class="Cx"></path><path d="M733.88 252.92l4.76 3.18-.35.29-4.76-3.18.35-.29" class="Cy"></path><path d="M733.55 253.21l4.76 3.18-.31.29-4.76-3.18.31-.29" class="Cz"></path><path d="M733.24 253.5l4.76 3.18-.29.3-4.77-3.16.3-.3" class="CZ"></path><path d="M732.94 253.82l4.77 3.18a4.12 4.12 0 0 0-.28.31l-4.76-3.18.27-.31" class="Ca"></path><path d="M732.67 254.11l4.76 3.18-.25.32-4.76-3.18a3.92 3.92 0 0 1 .25-.32" class="Cd"></path><path d="M732.42 254.43l4.76 3.18a2.62 2.62 0 0 0-.24.34l-4.77-3.19.25-.33" class="Ce"></path><path d="M732.17 254.76l4.77 3.19a3.22 3.22 0 0 0-.24.36l-4.76-3.19.23-.36" class="Cf"></path><path d="M731.94 255.12l4.76 3.19-.22.38-4.76-3.18.22-.39" class="Cg"></path><path d="M731.72 255.51l4.76 3.18-.22.43-4.76-3.18.22-.43" class="Ch"></path><path d="M731.5 255.94l4.76 3.18-.21.49-4.76-3.18.21-.49" class="Ci"></path><path d="M731.29 256.43l4.76 3.18a6.26 6.26 0 0 0-.21.61l-4.76-3.18a6.26 6.26 0 0 1 .21-.61" class="Cj"></path><path d="M731.08 257.04l4.8 3.18-.18.73-4.82-3.13.18-.73" class="CO"></path></g></g><g class="B CM" clip-path="url(#E)"><g><path d="M716.76 298.49l4.76 3.19a1.62 1.62 0 0 1-.35-.17l-4.76-3.18a1.11 1.11 0 0 0 .35.16"></path></g></g><path d="M720.48 279.74l4.76 3.18-3.72 18.75-4.76-3.18 3.72-18.75z" fill="#376086"></path><path d="M720.48 279.74l-3.72 18.75a1.59 1.59 0 0 1-1-1.95l3-14.85a2.55 2.55 0 0 1 1.72-1.95z" class="CL"></path><g class="B CO" clip-path="url(#F)"><g><use xlink:href="#AH"></use></g></g><g class="B" clip-path="url(#G)"><g><path d="M781.24 242.92l4.76 3.18a1.56 1.56 0 0 0-.67.15l-4.76-3.18a1.56 1.56 0 0 1 .67-.15" class="CY"></path><path d="M780.57 243.07l4.76 3.18-.17.09-4.76-3.18a.56.56 0 0 1 .17-.09" class="Cv"></path><path d="M780.4 243.16l4.76 3.18-.13.08-4.76-3.18.13-.08" class="Cw"></path><path d="M780.27 243.24l4.76 3.18-.11.08-4.76-3.18.11-.08" class="Cx"></path><path d="M780.16 243.32l4.76 3.18-.09.08-4.77-3.18.1-.08" class="Cy"></path><path d="M780.06 243.4l4.77 3.18-.09.08-4.76-3.18a.3.3 0 0 1 .08-.08" class="Cz"></path><path d="M779.98 243.48l4.76 3.18-.08.09-4.78-3.19.09-.08" class="CZ"></path><path d="M779.88 243.56l4.77 3.19a.3.3 0 0 0-.08.08l-4.76-3.18.07-.09" class="Ca"></path><path d="M779.82 243.65l4.76 3.17-.07.09-4.76-3.18.07-.09" class="Cd"></path><path d="M779.75 243.74l4.76 3.18a.36.36 0 0 0-.07.1l-4.76-3.2.07-.09" class="Ce"></path><path d="M779.68 243.82l4.76 3.19-.07.1-4.76-3.19a.86.86 0 0 0 .07-.1" class="Cf"></path><path d="M779.61 243.93l4.76 3.19-.06.11-4.76-3.19.06-.11" class="Cg"></path><path d="M779.55 244.04l4.76 3.19-.06.12-4.76-3.19.06-.12" class="Ch"></path><path d="M779.49 244.16l4.76 3.19-.06.13-4.76-3.18.06-.14" class="Ci"></path><path d="M779.43 244.3l4.76 3.18-.06.18-4.76-3.19.06-.17" class="Cj"></path><use xlink:href="#AH" class="CO"></use></g></g><g class="B" clip-path="url(#H)"><g><use xlink:href="#AH" class="CO"></use><path d="M779.31 244.74l4.76 3.18a1.69 1.69 0 0 0 0 .5l-4.76-3.18a1.69 1.69 0 0 1 0-.5" class="DM"></path><path d="M779.29 245.24l4.76 3.18a1.57 1.57 0 0 0 0 .23l-4.76-3.18a1.85 1.85 0 0 1 0-.23" class="CO"></path><path d="M779.33 245.47l4.76 3.18a.88.88 0 0 0 0 .15l-4.77-3.18v-.15" class="Cj"></path><path d="M779.37 245.62l4.77 3.18a.61.61 0 0 0 0 .12l-4.77-3.18a.61.61 0 0 0 0-.12" class="Ci"></path><path d="M779.42 245.74l4.77 3.18.05.1-4.76-3.2-.06-.09" class="Ch"></path><path d="M779.48 245.82l4.76 3.19a.22.22 0 0 0 0 .08l-4.76-3.18a.41.41 0 0 1 0-.09" class="Cg"></path><path d="M779.53 245.92l4.76 3.18.06.08-4.76-3.18-.06-.08" class="Cf"></path><path d="M779.59 246l4.76 3.18.06.07-4.76-3.18-.06-.07" class="Ce"></path><path d="M779.65 246.07l4.76 3.18.07.06-4.76-3.18-.07-.06" class="Cd"></path><path d="M779.72 246.13l4.76 3.18a.2.2 0 0 0 .07.06l-4.76-3.18-.07-.06" class="Ca"></path><path d="M779.79 246.19l4.76 3.18h.06l-4.73-3.13h-.06" class="CZ"></path></g></g><g class="B CM" clip-path="url(#I)"><g><path d="M780.54 246.44l4.76 3.18a1.22 1.22 0 0 1-.69-.2l-4.73-3.18a1.22 1.22 0 0 0 .69.2"></path></g></g><g class="B CO" clip-path="url(#J)"><g><use xlink:href="#AI"></use></g></g><g class="B" clip-path="url(#K)"><g><path d="M788.88 235.61l4.76 3.18a2.29 2.29 0 0 0-.92.21l-4.77-3.18a2.25 2.25 0 0 1 .92-.21" class="CY"></path><path d="M787.95 235.82l4.76 3.18-.23.12-4.76-3.18.23-.12" class="Cv"></path><path d="M787.72 235.94l4.76 3.18-.17.11-4.77-3.18.18-.11" class="Cw"></path><path d="M787.54 236.05l4.77 3.18-.15.11-4.76-3.18.14-.11" class="Cx"></path><path d="M787.4 236.16l4.76 3.18-.13.11-4.77-3.18.14-.11" class="Cy"></path><path d="M787.26 236.27l4.77 3.18-.13.11-4.76-3.18.12-.11" class="Cz"></path><path d="M787.14 236.38l4.76 3.18-.11.12-4.76-3.18.11-.12" class="CZ"></path><path d="M787.03 236.5l4.76 3.18-.1.11-4.76-3.18.1-.11" class="Ca"></path><path d="M786.93 236.61l4.76 3.18-.1.13-4.71-3.19.1-.12" class="Cd"></path><path d="M786.88 236.73l4.76 3.19-.09.13-4.81-3.23.09-.13" class="Ce"></path><path d="M786.74 236.82l4.76 3.19-.09.13-4.76-3.18.09-.14" class="Cf"></path><path d="M786.65 237l4.76 3.18a1.09 1.09 0 0 0-.08.15l-4.76-3.18a1.09 1.09 0 0 1 .08-.15" class="Cg"></path><path d="M786.57 237.15l4.76 3.18-.09.16-4.76-3.18.09-.16" class="Ch"></path><path d="M786.48 237.31l4.76 3.18a1.54 1.54 0 0 1-.08.19l-4.76-3.18c0-.07.05-.13.08-.19" class="Ci"></path><path d="M786.4 237.5l4.76 3.18c0 .07 0 .15-.08.23l-4.76-3.18c0-.08 0-.16.08-.23" class="Cj"></path><use xlink:href="#AI" class="CO"></use></g></g><g class="B CY" clip-path="url(#L)"><g><path d="M789.8 235.89l4.76 3.18a1.62 1.62 0 0 0-.93-.28l-4.75-3.18a1.62 1.62 0 0 1 .93.28"></path></g></g><g class="B" clip-path="url(#M)"><g><use xlink:href="#AI" class="CO"></use><path d="M786.24 238.08l4.76 3.19a2.55 2.55 0 0 0 0 .67l-4.76-3.18a2.64 2.64 0 0 1 0-.68" class="DM"></path><path d="M786.21 238.76l4.76 3.18a1.65 1.65 0 0 0 .06.32l-4.76-3.19a1.55 1.55 0 0 1-.06-.31" class="CO"></path><path d="M786.27 239.07l4.76 3.19a1.52 1.52 0 0 0 .06.2l-4.76-3.18a.83.83 0 0 1-.06-.21" class="Cj"></path><path d="M786.33 239.28l4.76 3.18a1.11 1.11 0 0 0 .07.16l-4.77-3.18-.06-.16" class="Ci"></path><path d="M786.39 239.44l4.77 3.18a.54.54 0 0 0 .07.13l-4.76-3.18-.08-.13" class="Ch"></path><path d="M786.47 239.57l4.76 3.18a.63.63 0 0 0 .07.12l-4.76-3.18a.75.75 0 0 1-.07-.12" class="Cg"></path><path d="M786.54 239.69l4.76 3.18.08.11-4.76-3.16-.08-.11" class="Cf"></path><path d="M786.62 239.82l4.76 3.18.08.09-4.76-3.18-.08-.09" class="Ce"></path><path d="M786.7 239.89l4.76 3.18.09.09-4.76-3.18-.09-.09" class="Cd"></path><path d="M786.79 239.98l4.76 3.18.1.08-4.77-3.18-.1-.08" class="Ca"></path><path d="M786.88 240.06l4.76 3.18.09.06-4.85-3.24" class="CZ"></path></g></g><g class="B" clip-path="url(#N)"><g><path d="M789.8 235.89l4.76 3.18.09.06-4.86-3.24" class="CP"></path><path d="M789.88 235.95l4.76 3.18.1.08-4.77-3.18-.09-.08" class="CR"></path><path d="M789.98 236.03l4.77 3.18.08.09-4.76-3.18-.09-.09" class="CS"></path><path d="M790.07 236.12l4.76 3.18.09.09-4.76-3.18-.09-.09" class="CQ"></path><path d="M790.16 236.21l4.76 3.18.08.11-4.76-3.18-.08-.11" class="CT"></path><path d="M790.24 236.32l4.76 3.18.07.12-4.76-3.19-.07-.11" class="CL"></path><path d="M790.31 236.43l4.76 3.19a.83.83 0 0 1 .07.13l-4.76-3.18a.91.91 0 0 0-.07-.14" class="CW"></path><path d="M790.38 236.57l4.76 3.18a1.11 1.11 0 0 1 .07.16l-4.76-3.18a.77.77 0 0 0-.07-.16" class="CU"></path><path d="M790.45 236.73l4.76 3.18.06.21-4.76-3.19-.06-.2" class="CV"></path><path d="M790.51 236.93l4.76 3.19a1.55 1.55 0 0 1 .06.31l-4.77-3.18a1.64 1.64 0 0 0 0-.32" class="CN"></path><path d="M790.56 237.25l4.77 3.18a2.61 2.61 0 0 1 0 .68l-4.76-3.18a2.24 2.24 0 0 0 0-.68" class="Cb"></path><path d="M790.54 237.93l4.76 3.18v.08l-.07.28-4.77-3.18a1.64 1.64 0 0 0 .07-.28c0 0 0-.05 0-.08" class="CN"></path><path d="M790.45 238.29l4.77 3.18c0 .07-.05.15-.08.23l-4.77-3.19a2 2 0 0 0 .08-.22" class="CV"></path><path d="M790.37 238.51l4.77 3.19a1.42 1.42 0 0 0-.08.18l-4.77-3.18a1.08 1.08 0 0 0 .08-.19" class="CU"></path><path d="M790.29 238.7l4.77 3.18-.09.17-4.76-3.23a.8.8 0 0 0 .08-.16" class="CW"></path><path d="M790.21 238.82l4.76 3.19a1 1 0 0 1-.08.14l-4.76-3.18a1.09 1.09 0 0 0 .08-.15" class="CL"></path><path d="M790.13 239.01l4.76 3.18-.09.14-4.76-3.18.09-.14" class="CT"></path><path d="M790.04 239.15l4.76 3.18-.09.13-4.76-3.18.09-.13" class="CQ"></path><path d="M789.95 239.28l4.76 3.18-.1.12-4.73-3.18.1-.12" class="CS"></path><path d="M789.88 239.4l4.76 3.18-.1.12-4.76-3.19.1-.11" class="CR"></path><path d="M789.75 239.51l4.76 3.19a1.14 1.14 0 0 0-.11.11l-4.76-3.18.11-.12" class="CP"></path><path d="M789.64 239.63l4.76 3.18-.12.11-4.77-3.18.13-.11" class="Co"></path><path d="M789.51 239.74l4.77 3.18-.14.11-4.76-3.21.13-.11" class="Cp"></path><path d="M789.38 239.82l4.76 3.18a.58.58 0 0 1-.15.11l-4.76-3.18.15-.11" class="Cq"></path><path d="M789.23 239.96l4.76 3.18-.17.11-4.76-3.18.17-.11" class="Cr"></path><path d="M789.06 240.07l4.76 3.18a1.27 1.27 0 0 1-.23.12l-4.71-3.18.23-.12" class="Cl"></path><path d="M788.88 240.19l4.76 3.18a2.24 2.24 0 0 1-.91.21 1.63 1.63 0 0 1-.94-.28l-4.76-3.18a1.63 1.63 0 0 0 .94.28 2.24 2.24 0 0 0 .91-.21" class="CM"></path></g></g><path d="M788.88 235.61a1.82 1.82 0 0 1 1.65 2.4 2.91 2.91 0 0 1-2.6 2.39 1.82 1.82 0 0 1-1.67-2.39 2.92 2.92 0 0 1 2.62-2.4z" class="CL"></path><path d="M793.59 242.91l4.76 3.18H786l-4.76-3.18h12.35z" fill="#406180"></path><g class="B CY" clip-path="url(#O)"><g><path d="M794.28 243.12l4.77 3.18a1.25 1.25 0 0 0-.7-.2l-4.76-3.18a1.19 1.19 0 0 1 .69.2"></path></g></g><path d="M792.89 246.44l4.77 3.18H785.3l-4.76-3.18h12.35z" fill="#1f364c"></path><g class="B" clip-path="url(#P)"><g><path d="M794.28 243.12l4.77 3.18.06.05-4.76-3.19h-.07" class="CP"></path><path d="M794.35 243.16l4.76 3.19a.2.2 0 0 1 .07.06l-4.76-3.19-.07-.06" class="CR"></path><path d="M794.42 243.22l4.76 3.19.07.06-4.76-3.18-.07-.07" class="CS"></path><path d="M794.49 243.29l4.76 3.18.06.07-4.76-3.18-.06-.07" class="CQ"></path><path d="M794.55 243.36l4.76 3.18.06.08-4.76-3.18-.06-.08" class="CT"></path><path d="M794.61 243.44l4.76 3.18v.08l-4.76-3.18v-.08" class="CL"></path><path d="M794.66 243.52l4.76 3.18a.93.93 0 0 1 .05.1l-4.76-3.18a.93.93 0 0 0-.05-.1" class="CW"></path><path d="M794.71 243.62l4.76 3.18a.61.61 0 0 1 0 .12l-4.76-3.18a.61.61 0 0 0 0-.12" class="CU"></path><path d="M794.76 243.74l4.76 3.18a.88.88 0 0 1 .05.15l-4.76-3.18v-.15" class="CV"></path><path d="M794.81 243.89l4.76 3.18a1.85 1.85 0 0 1 0 .23l-4.69-3.18a1.85 1.85 0 0 0 0-.23" class="CN"></path><path d="M794.88 244.12l4.76 3.18a2.22 2.22 0 0 1 0 .51l-4.76-3.19a2.12 2.12 0 0 0 0-.5" class="Cb"></path><path d="M794.88 244.62l4.76 3.19h0a1.6 1.6 0 0 1-.05.21l-4.76-3.19c0-.06 0-.13.05-.2v-.06" class="CN"></path><path d="M794.77 244.88l4.76 3.19-.06.16-4.76-3.18.06-.17" class="CV"></path><path d="M794.71 245.05l4.76 3.18-.06.14-4.76-3.18.06-.14" class="CU"></path><path d="M794.65 245.19l4.76 3.18-.06.12-4.76-3.18.06-.12" class="CW"></path><path d="M794.59 245.31l4.76 3.18-.06.11-4.76-3.18.06-.11" class="CL"></path><path d="M794.53 245.42l4.76 3.18a.61.61 0 0 1-.07.1l-4.76-3.18a.86.86 0 0 1 .07-.1" class="CT"></path><path d="M794.46 245.52l4.76 3.18-.06.09-4.77-3.18.07-.09" class="CQ"></path><path d="M794.39 245.61l4.77 3.18-.08.09-4.76-3.18.07-.09" class="CS"></path><path d="M794.32 245.7l4.76 3.18-.07.09-4.76-3.15.07-.09" class="CR"></path><path d="M794.25 245.82l4.76 3.18-.08.08-4.77-3.18.09-.08" class="CP"></path><path d="M794.16 245.87l4.77 3.18-.09.09-4.76-3.19a.3.3 0 0 0 .08-.08" class="Co"></path><path d="M794.08 245.95l4.76 3.19-.1.08-4.76-3.19.1-.08" class="Cp"></path><path d="M793.98 246.03l4.76 3.19-.11.08-4.75-3.18.11-.09" class="Cq"></path><path d="M793.88 246.12l4.76 3.18-.13.08-4.76-3.18a.57.57 0 0 1 .13-.08" class="Cr"></path><path d="M793.74 246.2l4.76 3.18-.17.09-4.76-3.19.17-.08" class="Cl"></path><path d="M793.57 246.28l4.76 3.19a1.63 1.63 0 0 1-.67.15l-4.78-3.18a1.65 1.65 0 0 0 .68-.16" class="CM"></path></g></g><path d="M730.9 257.77l4.76 3.18-37.43 188.82-4.76-3.18 37.43-188.82z" fill="#70abe2"></path><g class="B DA" clip-path="url(#Q)"><g><path d="M696.8 452.82l4.76 3.18a3.42 3.42 0 0 1-.49-.14l-4.76-3.18a3.42 3.42 0 0 0 .49.14"></path></g></g><g class="B DA" clip-path="url(#R)"><g><path d="M697.31 452.82l4.76 3.18a3.9 3.9 0 0 1-.51-.09l-4.76-3.09c.11 0 .22 0 .51.09"></path></g></g><g class="B DA" clip-path="url(#S)"><g><path d="M697.88 452.89l4.76 3.18a4.58 4.58 0 0 1-.53 0l-4.8-3.25a4.58 4.58 0 0 0 .53 0"></path></g></g><path d="M833.9 251.47l4.76 3.19h-96.13l-4.76-3.19h96.13z" fill="#406180"></path><g class="B CY" clip-path="url(#T)"><g><path d="M836.37 252.2l4.76 3.18a4.4 4.4 0 0 0-2.47-.72l-4.78-3.18a4.4 4.4 0 0 1 2.47.72"></path></g></g><g class="B" clip-path="url(#U)"><g><path d="M836.37 252.2l4.76 3.18.23.17-4.76-3.19-.23-.16" class="DN"></path><path d="M836.6 252.36l4.76 3.19a2.43 2.43 0 0 1 .25.2l-4.73-3.18-.25-.21" class="DO"></path><path d="M836.88 252.57l4.76 3.18.24.23-4.8-3.16-.23-.23" class="DP"></path><path d="M837.08 252.82l4.77 3.18.22.25-4.77-3.18-.22-.25" fill="#999"></path><path d="M837.3 253.05l4.77 3.18.2.28-4.76-3.18a1.86 1.86 0 0 0-.21-.28" class="DQ"></path><path d="M837.51 253.33l4.76 3.18a3.28 3.28 0 0 1 .2.31l-4.76-3.18a3.28 3.28 0 0 0-.2-.31" class="DR"></path><path d="M837.71 253.64l4.76 3.18.19.36-4.78-3.18a4.09 4.09 0 0 0-.19-.36" class="DS"></path><path d="M837.88 254l4.76 3.18a4.08 4.08 0 0 1 .17.42l-4.76-3.18a4.08 4.08 0 0 0-.17-.42" class="DT"></path><path d="M838.07 254.42l4.76 3.18.17.53-4.77-3.18a4.64 4.64 0 0 0-.16-.53" class="DU"></path><path d="M838.23 254.95l4.77 3.18a7.18 7.18 0 0 1 .14.83l-4.76-3.14a5.53 5.53 0 0 0-.15-.83" class="DV"></path><path d="M838.38 255.82l4.76 3.18a7.27 7.27 0 0 1-.07 1.79l-4.76-3.18a7.29 7.29 0 0 0 .07-1.79" fill="#ababab"></path><path d="M838.31 257.57l4.76 3.18v.2l-4.8-3.13a1.42 1.42 0 0 1 0-.2" class="DV"></path></g></g><g class="B" clip-path="url(#V)"><g><use xlink:href="#AJ" class="CY"></use><path d="M740.23 459.97l4.76 3.18a9.78 9.78 0 0 0-.85.44l-4.76-3.18a7.62 7.62 0 0 1 .85-.44" class="Cv"></path><path d="M739.38 460.41l4.76 3.18-.66.41-4.76-3.18.66-.41" class="Cw"></path><path d="M738.72 460.82l4.76 3.18-.56.41-4.76-3.18.56-.41" class="Cx"></path><path d="M738.16 461.23l4.76 3.18-.49.41-4.76-3.18.49-.41" class="Cy"></path><path d="M737.67 461.64l4.76 3.18-.45.42-4.76-3.18q.23-.23.45-.42" class="Cz"></path><path d="M737.22 462.06l4.76 3.18-.41.42-4.76-3.18.41-.42" class="CZ"></path><path d="M736.81 462.48l4.76 3.18-.39.44-4.76-3.18.39-.44" class="Ca"></path><path d="M736.42 462.92l4.76 3.18-.36.46-4.76-3.18c.11-.16.24-.31.36-.46" class="Cd"></path><path d="M736.06 463.38l4.76 3.18-.35.48-4.76-3.22.35-.47" class="Ce"></path><path d="M735.71 463.82l4.76 3.19q-.17.24-.33.51l-4.76-3.19.33-.51" class="Cf"></path><path d="M735.38 464.36l4.76 3.19-.31.55-4.77-3.19.32-.55" class="Cg"></path><path d="M735.06 464.91l4.77 3.19-.31.6-4.76-3.18c.09-.21.2-.41.3-.61" class="Ch"></path><path d="M734.76 465.52l4.76 3.18-.3.7-4.76-3.18.3-.7" class="Ci"></path><path d="M734.46 466.22l4.76 3.18-.3.86-4.76-3.18.3-.86" class="Cj"></path><use xlink:href="#AK" class="CO"></use></g></g><g class="B" clip-path="url(#W)"><g><path d="M738.15 466.82l4.76 3.18c-.06.12-.11.25-.16.38l-4.76-3.19c0-.12.1-.25.16-.37" class="CU"></path><path d="M737.99 467.23l4.76 3.19-.16.46-4.71-3.19c0-.15.1-.31.16-.46" class="CV"></path><use xlink:href="#AL" class="CN"></use></g></g><g class="B CN" clip-path="url(#X)"><g><use xlink:href="#AL"></use></g></g><g class="B" clip-path="url(#Y)"><g><use xlink:href="#AL" class="CN"></use><use xlink:href="#AM" class="Cb"></use></g></g><g class="B Cb" clip-path="url(#Z)"><g><use xlink:href="#AM"></use></g></g><g class="B" clip-path="url(#a)"><g><use xlink:href="#AN" class="Cl"></use><path d="M740.63 464.12l4.76 3.18-.35.22-4.76-3.18c.11-.08.23-.15.35-.22" class="Cr"></path><path d="M740.28 464.34l4.76 3.18-.3.22-4.76-3.18a2.32 2.32 0 0 1 .3-.22" class="Cq"></path><path d="M739.98 464.56l4.76 3.18-.27.22-4.76-3.14.27-.22" class="Cp"></path><path d="M739.71 464.82l4.76 3.18-.24.22-4.76-3.18.24-.22" class="Co"></path><path d="M739.47 465l4.76 3.18-.22.23-4.76-3.18.22-.23" class="CP"></path><path d="M739.25 465.23l4.76 3.18-.21.24-4.76-3.18.21-.24" class="CR"></path><path d="M739.04 465.47l4.76 3.18-.19.24-4.73-3.18.19-.24" class="CS"></path><path d="M738.88 465.71l4.76 3.18-.19.26-4.76-3.18.19-.26" class="CQ"></path><path d="M738.66 465.97l4.76 3.18-.17.27-4.77-3.18.18-.27" class="CT"></path><path d="M738.48 466.24l4.77 3.18-.17.3-4.77-3.18.17-.3" class="CL"></path></g></g><g class="B Cb" clip-path="url(#b)"><g><use xlink:href="#AM"></use></g></g><g class="B" clip-path="url(#c)"><g><use xlink:href="#AO" class="CM"></use><use xlink:href="#AN" class="Cl"></use></g></g><g class="B CM" clip-path="url(#d)"><g><use xlink:href="#AO"></use></g></g><g class="B CM" clip-path="url(#e)"><g><use xlink:href="#AO"></use></g></g><g class="B CM" clip-path="url(#f)"><g><use xlink:href="#AO"></use></g></g><g class="B CM" clip-path="url(#g)"><g><use xlink:href="#AO"></use></g></g><g class="B CM" clip-path="url(#h)"><g><use xlink:href="#AO"></use></g></g><g class="B CM" clip-path="url(#i)"><g><use xlink:href="#AO"></use></g></g><g class="B CY" clip-path="url(#j)"><g><use xlink:href="#AJ"></use></g></g><g class="B" clip-path="url(#k)"><g><use xlink:href="#AK" class="CO"></use><path d="M733.88 468.41l4.76 3.18a9.55 9.55 0 0 0-.1 2.54l-4.76-3.18a9.54 9.54 0 0 1 .1-2.54" class="DM"></path><path d="M733.75 470.95l4.76 3.18a8.8 8.8 0 0 0 .2 1.18l-4.76-3.19a7.14 7.14 0 0 1-.2-1.17" class="CO"></path><path d="M733.95 472.12l4.76 3.19a6.65 6.65 0 0 0 .23.76l-4.76-3.18a6.25 6.25 0 0 1-.23-.77" class="Cj"></path><path d="M734.18 472.89l4.76 3.18.25.59-4.76-3.18-.25-.59" class="Ci"></path><path d="M734.43 473.48l4.76 3.18a4.11 4.11 0 0 0 .27.51l-4.77-3.18-.26-.51" class="Ch"></path><path d="M734.69 473.99l4.77 3.18a4.08 4.08 0 0 0 .28.44l-4.77-3.18-.28-.44" class="Cg"></path><path d="M734.97 474.43l4.77 3.18a4 4 0 0 0 .29.39l-4.76-3.18a4 4 0 0 1-.3-.39" class="Cf"></path><path d="M735.27 474.82l4.76 3.18a3.65 3.65 0 0 0 .31.36l-4.76-3.18-.31-.36" class="Ce"></path><path d="M735.58 475.18l4.76 3.18.33.32-4.79-3.18-.33-.32" class="Cd"></path><path d="M735.88 475.5l4.76 3.18.36.3-4.73-3.16a3.37 3.37 0 0 1-.36-.3" class="Ca"></path><path d="M736.27 475.82l4.76 3.18.33.24-4.76-3.18-.33-.24" class="CZ"></path></g></g><g class="B CM" clip-path="url(#l)"><g><use xlink:href="#AO"></use></g></g><g class="B" clip-path="url(#m)"><g><use xlink:href="#AM" class="Cb"></use><path d="M737.61 469.76l4.76 3.18a4.23 4.23 0 0 0 .11.62l-4.76-3.18a4.23 4.23 0 0 1-.11-.62" class="CN"></path><path d="M737.72 470.38l4.76 3.18a4 4 0 0 0 .12.41l-4.72-3.15a2.77 2.77 0 0 1-.12-.41" class="CV"></path><path d="M737.88 470.82l4.76 3.18a3.09 3.09 0 0 0 .14.32l-4.76-3.18a3.09 3.09 0 0 1-.14-.32" class="CU"></path><path d="M737.98 471.11l4.76 3.18a2.44 2.44 0 0 0 .14.28l-4.76-3.19a1.71 1.71 0 0 1-.14-.27" class="CW"></path><path d="M738.12 471.38l4.76 3.19.15.23-4.76-3.18a2.52 2.52 0 0 1-.15-.24" class="CL"></path><path d="M738.27 471.62l4.76 3.18a1.77 1.77 0 0 0 .16.22l-4.76-3.2a1.16 1.16 0 0 1-.16-.21" class="CT"></path><path d="M738.43 471.82l4.76 3.19.17.19-4.76-3.18-.17-.2" class="CQ"></path><path d="M738.6 472.03l4.76 3.18a1 1 0 0 0 .18.17l-4.77-3.18-.17-.17" class="CS"></path><path d="M738.77 472.2l4.77 3.18.19.16-4.76-3.18-.2-.16" class="CR"></path><path d="M738.97 472.36l4.76 3.18a1.09 1.09 0 0 0 .17.13l-4.76-3.18-.17-.13" class="CP"></path></g></g><g class="B" clip-path="url(#n)"><g><path d="M744.48 464.46l4.77 3.18a3 3 0 0 0-1.68-.49 4 4 0 0 0-1.63.37l-4.76-3.18a3.91 3.91 0 0 1 1.63-.37 2.89 2.89 0 0 1 1.67.49" fill="#4b5a68"></path><path d="M741.18 464.34l4.76 3.18a3.84 3.84 0 0 0-.4.21l-4.76-3.18a3 3 0 0 1 .4-.21" fill="#4e5d6c"></path><path d="M740.78 464.55l4.76 3.18-.32.2-4.76-3.18.32-.2" fill="#516170"></path><path d="M740.46 464.75l4.76 3.18-.27.2-4.76-3.19.27-.19" fill="#546474"></path><path d="M740.19 464.94l4.76 3.19-.23.19-4.77-3.18.24-.2" fill="#576878"></path><path d="M739.95 465.14l4.77 3.18-.22.2-4.76-3.18.21-.2" fill="#5a6b7c"></path><path d="M739.74 465.34l4.76 3.18-.2.21-4.76-3.18.2-.21" class="DB"></path><path d="M739.54 465.55l4.76 3.18-.18.21-4.77-3.18a2 2 0 0 1 .19-.21" class="DC"></path><path d="M739.35 465.76l4.77 3.18-.18.22-4.76-3.18.17-.22" class="DD"></path><path d="M739.18 465.98l4.76 3.18a1.88 1.88 0 0 0-.16.23l-4.77-3.18.17-.23" class="DE"></path><path d="M739.01 466.21l4.77 3.18-.16.24-4.74-3.18.15-.24" class="DF"></path><path d="M738.88 466.45l4.76 3.18c-.06.09-.11.18-.16.27l-4.76-3.19.16-.26" class="Cs"></path><path d="M738.7 466.71l4.76 3.19a2.59 2.59 0 0 0-.14.29l-4.76-3.18c0-.1.09-.2.14-.3" class="DG"></path><path d="M738.56 467.01l4.76 3.18-.15.33-4.76-3.18a3.31 3.31 0 0 1 .15-.33" class="DH"></path><path d="M738.41 467.34l4.76 3.18c0 .14-.1.27-.14.41l-4.76-3.18c0-.14.09-.28.14-.41" class="DI"></path><path d="M738.27 467.75l4.76 3.18a4.54 4.54 0 0 0-.12.5v.14l-4.76-3.19v-.13a4.54 4.54 0 0 1 .12-.5" class="DJ"></path><path d="M738.12 468.38l4.76 3.19a5 5 0 0 0 0 1.21l-4.76-3.18a4.62 4.62 0 0 1 0-1.22" fill="#7a91a8"></path><path d="M738.07 469.6l4.81 3.22a4.65 4.65 0 0 0 .1.56l-4.76-3.18a3.45 3.45 0 0 1-.1-.56" class="DJ"></path><path d="M738.17 470.16l4.76 3.18c0 .13.07.25.11.37l-4.76-3.18c0-.12-.08-.24-.11-.37" class="DI"></path><path d="M738.28 470.53l4.76 3.18.12.28-4.76-3.17-.12-.28" class="DH"></path><path d="M738.4 470.82l4.76 3.18a2 2 0 0 0 .13.25l-4.76-3.19a1.83 1.83 0 0 1-.13-.24" class="DG"></path><path d="M738.53 471.05l4.76 3.19a2.39 2.39 0 0 0 .13.21l-4.76-3.18a1.59 1.59 0 0 1-.13-.22" class="Cs"></path><path d="M738.66 471.27l4.76 3.18.14.19-4.76-3.19-.14-.18" class="DF"></path><path d="M738.8 471.45l4.76 3.19.15.17-4.76-3.19-.15-.17" class="DE"></path><path d="M738.95 471.62l4.76 3.19.16.15-4.76-3.14c-.05 0-.11-.1-.16-.16" class="DD"></path><path d="M739.11 471.82l4.76 3.18.17.14-4.76-3.18-.17-.14" class="DC"></path><path d="M739.28 471.92l4.76 3.18.16.12-4.76-3.18-.16-.12" class="DB"></path></g></g><g class="B CM" clip-path="url(#o)"><g><use xlink:href="#AP"></use></g></g><g class="B" clip-path="url(#p)"><g><path d="M744.48 464.46l4.77 3.18.15.11-4.76-3.18a.91.91 0 0 0-.16-.11" class="CP"></path><path d="M744.64 464.57l4.76 3.18.17.14-4.76-3.18-.17-.14" class="CR"></path><path d="M744.81 464.71l4.76 3.18.16.16-4.76-3.18a1.21 1.21 0 0 0-.16-.16" class="CS"></path><path d="M744.97 464.87l4.76 3.18a1.22 1.22 0 0 1 .15.17l-4.76-3.18-.15-.17" class="CQ"></path><path d="M745.12 465.04l4.76 3.18a1.33 1.33 0 0 1 .14.19l-4.76-3.18a1.33 1.33 0 0 0-.14-.19" class="CT"></path><path d="M745.26 465.23l4.76 3.18.14.21-4.76-3.18-.14-.21" class="CL"></path><path d="M745.4 465.44l4.76 3.18.13.24-4.77-3.18-.12-.24" class="CW"></path><path d="M745.52 465.68l4.77 3.18c0 .1.08.19.11.29l-4.76-3.18a1.48 1.48 0 0 0-.12-.29" class="CU"></path><path d="M745.64 465.97l4.76 3.18a2.29 2.29 0 0 1 .12.37l-4.76-3.19c0-.12-.07-.24-.12-.36" class="CV"></path><path d="M745.76 466.33l4.76 3.19a4.68 4.68 0 0 1 .09.56l-4.73-3.18a4.85 4.85 0 0 0-.09-.57" class="CN"></path><path d="M745.88 466.9l4.76 3.18a4.6 4.6 0 0 1 0 1.22l-4.77-3.19a4.15 4.15 0 0 0 .05-1.21" class="Cb"></path><use xlink:href="#AQ" class="CN"></use></g></g><g class="B" clip-path="url(#q)"><g><use xlink:href="#AQ" class="CN"></use><path d="M745.66 468.75l4.76 3.18c0 .14-.09.27-.15.41l-4.76-3.18c.06-.14.1-.27.15-.41" class="CV"></path><path d="M745.51 469.16l4.76 3.18c0 .11-.09.22-.14.33l-4.76-3.18c0-.11.1-.22.14-.33" class="CU"></path><path d="M745.37 469.49l4.76 3.18a2.64 2.64 0 0 1-.15.29l-4.76-3.14.15-.29" class="CW"></path><path d="M745.22 469.82l4.76 3.18c0 .09-.1.18-.15.27l-4.76-3.19.15-.26" class="CL"></path><path d="M745.07 470.04l4.76 3.19-.16.24-4.79-3.18a2.13 2.13 0 0 0 .16-.25" class="CT"></path><path d="M744.88 470.29l4.76 3.18a1.88 1.88 0 0 1-.16.23l-4.76-3.18.16-.23" class="CQ"></path><path d="M744.75 470.52l4.76 3.18-.18.22-4.76-3.18.18-.22" class="CS"></path><path d="M744.57 470.74l4.76 3.18-.18.21-4.76-3.18.18-.21" class="CR"></path><path d="M744.39 470.95l4.76 3.18-.2.2-4.76-3.18.2-.2" class="CP"></path><path d="M744.19 471.15l4.76 3.18-.21.2-4.77-3.18a2.09 2.09 0 0 0 .22-.2" class="Co"></path><path d="M743.97 471.35l4.77 3.18-.24.2-4.76-3.18.23-.2" class="Cp"></path><path d="M743.74 471.55l4.76 3.18-.27.19-4.76-3.18.27-.19" class="Cq"></path><path d="M743.47 471.74l4.76 3.18a2.7 2.7 0 0 1-.31.2l-4.77-3.18.32-.2" class="Cr"></path><path d="M743.15 471.94l4.73 3.18-.41.22-4.76-3.19a3.84 3.84 0 0 0 .4-.21" class="Cl"></path><use xlink:href="#AP" class="CM"></use></g></g><g class="B" clip-path="url(#r)"><g><path d="M744.78 464.01l4.76 3.18.18.13-4.76-3.18-.18-.13" class="DB"></path><path d="M744.96 464.14l4.76 3.18.19.16-4.76-3.18-.19-.16" class="DC"></path><path d="M745.15 464.3l4.76 3.18.18.17-4.76-3.18-.18-.17" class="DD"></path><path d="M745.33 464.47l4.76 3.18.17.19-4.77-3.18-.16-.19" class="DE"></path><path d="M745.49 464.66l4.77 3.18.15.21-4.76-3.18-.16-.21" class="DF"></path><path d="M745.65 464.87l4.76 3.18a1.58 1.58 0 0 1 .15.24l-4.76-3.18-.15-.24" class="Cs"></path><path d="M745.8 465.11l4.76 3.18.14.27-4.76-3.18c0-.09-.09-.18-.14-.27" class="DG"></path><path d="M745.94 465.38l4.76 3.18c0 .11.1.21.14.32l-4.76-3.18a3.09 3.09 0 0 0-.14-.32" class="DH"></path><path d="M746.08 465.7l4.76 3.18a2.77 2.77 0 0 1 .12.41l-4.76-3.18c0-.14-.08-.28-.12-.41" class="DI"></path><path d="M746.2 466.11l4.76 3.18a4.14 4.14 0 0 1 .11.63l-4.76-3.18a4.14 4.14 0 0 0-.11-.63" class="DJ"></path><path d="M746.31 466.74l4.76 3.18a5.25 5.25 0 0 1-.05 1.36l-4.76-3.18a5.25 5.25 0 0 0 0-1.36" fill="#7a91a8"></path><path d="M746.26 468.1l4.76 3.18v.15a5.73 5.73 0 0 1-.14.56l-4.79-3.17c0-.18.1-.36.14-.55v-.15" class="DJ"></path><path d="M746.09 468.82l4.76 3.19-.16.46-4.76-3.19.16-.46" class="DI"></path><path d="M745.93 469.26l4.76 3.19c0 .12-.1.25-.16.37l-4.76-3.18.16-.38" class="DH"></path><path d="M745.77 469.64l4.76 3.18c0 .11-.11.22-.16.32l-4.77-3.18a3.24 3.24 0 0 0 .17-.32" class="DG"></path><path d="M745.6 469.96l4.77 3.18-.17.3-4.77-3.18.17-.3" class="Cs"></path><path d="M745.43 470.26l4.77 3.18-.18.27-4.76-3.18.17-.27" class="DF"></path><path d="M745.26 470.53l4.76 3.18a2.48 2.48 0 0 1-.19.26l-4.76-3.15.19-.26" class="DE"></path><path d="M745.07 470.82l4.76 3.18-.19.24-4.76-3.21.19-.24" class="DD"></path><path d="M744.88 471.03l4.76 3.18c-.07.09-.14.16-.21.24l-4.76-3.18.21-.24" class="DC"></path><path d="M744.67 471.27l4.76 3.18-.22.23-4.76-3.18.22-.23" class="DB"></path><path d="M744.45 471.5l4.76 3.18-.24.22-4.76-3.18.24-.22" fill="#5a6b7c"></path><path d="M744.21 471.72l4.76 3.18-.27.22-4.76-3.18.27-.22" fill="#576878"></path><path d="M743.94 471.94l4.76 3.18-.3.22-4.76-3.18.3-.22" fill="#546474"></path><path d="M743.64 472.16l4.76 3.18-.35.23-4.76-3.19.35-.22" fill="#516170"></path><path d="M743.29 472.38l4.76 3.19-.46.23-4.71-3.18a4 4 0 0 0 .46-.24" fill="#4e5d6c"></path><path d="M742.88 472.62l4.76 3.18a4.32 4.32 0 0 1-1.81.42 3.36 3.36 0 0 1-1.88-.55l-4.76-3.18a3.34 3.34 0 0 0 1.87.54 4.31 4.31 0 0 0 1.82-.41" fill="#4b5a68"></path></g></g><g class="B" clip-path="url(#s)"><g><path d="M747.16 460.21l4.76 3.18.33.24-4.77-3.18-.32-.24" class="CP"></path><path d="M747.48 460.45l4.77 3.18.35.3-4.72-3.18a3.37 3.37 0 0 0-.36-.3" class="CR"></path><path d="M747.88 460.75l4.76 3.18a3.34 3.34 0 0 1 .33.32l-4.76-3.18-.33-.32" class="CS"></path><path d="M748.17 461.07l4.76 3.18.32.36-4.77-3.18a3.65 3.65 0 0 0-.31-.36" class="CQ"></path><path d="M748.48 461.43l4.77 3.18.29.39-4.76-3.18a4 4 0 0 0-.3-.39" class="CT"></path><path d="M748.78 461.82l4.76 3.18a6.57 6.57 0 0 1 .28.44l-4.76-3.18-.28-.44" class="CL"></path><path d="M749.06 462.26l4.76 3.18.26.51-4.76-3.13c-.08-.18-.17-.35-.26-.51" class="CW"></path><path d="M749.32 462.82l4.76 3.18a6.14 6.14 0 0 1 .25.59l-4.76-3.18a6.14 6.14 0 0 0-.25-.59" class="CU"></path><path d="M749.57 463.36l4.76 3.18a6.25 6.25 0 0 1 .23.77l-4.76-3.19a6.65 6.65 0 0 0-.23-.76" class="CV"></path><path d="M749.8 464.12l4.76 3.19a7.13 7.13 0 0 1 .21 1.17l-4.77-3.19a7.52 7.52 0 0 0-.2-1.17" class="CN"></path><path d="M750 465.29l4.77 3.19a9.55 9.55 0 0 1-.1 2.54l-4.79-3.2a9.61 9.61 0 0 0 .1-2.55" class="Cb"></path><path d="M749.88 467.82l4.77 3.18-.06.28a9.47 9.47 0 0 1-.26 1l-4.76-3.19.26-1a2.74 2.74 0 0 0 0-.28" class="CN"></path><path d="M749.59 469.16l4.76 3.19-.3.86-4.76-3.18.3-.87" class="CV"></path><path d="M749.29 470.03l4.76 3.18-.3.7-4.76-3.18.3-.7" class="CU"></path><path d="M748.99 470.73l4.76 3.18-.3.6-4.77-3.18.31-.6" class="CW"></path><path d="M748.68 471.33l4.77 3.18-.32.55-4.76-3.18.31-.55" class="CL"></path><path d="M748.37 471.88l4.76 3.18-.33.51-4.76-3.18q.17-.24.33-.51" class="CT"></path><path d="M748.04 472.39l4.76 3.18a5.92 5.92 0 0 1-.35.48l-4.76-3.18.35-.48" class="CQ"></path><path d="M747.69 472.87l4.76 3.18c-.11.16-.24.31-.36.46l-4.76-3.18.36-.46" class="CS"></path><path d="M747.33 473.33l4.76 3.18-.39.44-4.76-3.19.39-.43" class="CR"></path><path d="M746.94 473.76l4.76 3.19-.41.42-4.76-3.18.41-.43" class="CP"></path><path d="M746.53 474.19l4.76 3.18-.41.45-4.76-3.18.45-.42" class="Co"></path><path d="M746.08 474.61l4.8 3.21-.49.41-4.76-3.19.49-.4" class="Cp"></path><path d="M745.59 475.01l4.76 3.19-.56.4-4.76-3.18.56-.41" class="Cq"></path><path d="M745.03 475.42l4.76 3.18a7.39 7.39 0 0 1-.66.42l-4.76-3.2.66-.42" class="Cr"></path><path d="M744.37 475.82l4.76 3.18-.85.44-4.76-3.18a9.78 9.78 0 0 0 .85-.44" class="Cl"></path><path d="M743.52 476.28l4.76 3.18a8.21 8.21 0 0 1-3.42.78 6.22 6.22 0 0 1-3.5-1l-4.76-3.18a6.22 6.22 0 0 0 3.5 1 8.28 8.28 0 0 0 3.42-.78" class="CM"></path></g></g><g class="B" clip-path="url(#t)"><g><path d="M813.09 375.55l4.76 3.19.2.14-4.76-3.19-.2-.14" class="DN"></path><path d="M813.29 375.69l4.76 3.19.21.17-4.76-3.18-.21-.18" class="DO"></path><path d="M813.5 375.87l4.76 3.18c.07.06.13.13.19.19l-4.76-3.18c-.06-.07-.13-.13-.19-.19" class="DP"></path><path d="M813.69 376.06l4.76 3.18.19.21-4.76-3.18-.19-.21" fill="#999"></path><path d="M813.88 376.27l4.76 3.18.17.23-4.76-3.18a2 2 0 0 0-.17-.23" class="DQ"></path><path d="M814.05 376.5l4.76 3.18.17.27-4.76-3.19-.17-.26" class="DR"></path><path d="M814.22 376.76l4.76 3.19a2.64 2.64 0 0 1 .15.29l-4.76-3.18-.15-.3" class="DS"></path><path d="M814.37 377.06l4.76 3.18a2.75 2.75 0 0 1 .15.36l-4.76-3.19a2.63 2.63 0 0 0-.15-.35" class="DT"></path><path d="M814.52 377.41l4.76 3.19v.05l-4.76-3.18v-.06" class="DU"></path></g></g><path d="M838.27 257.77l4.76 3.18-23.73 119.7-4.76-3.18 23.73-119.7z" fill="#b1b1b1"></path><path d="M793.97 452.88l4.77 3.19H702.6l-4.76-3.19h96.13z" fill="gray"></path><path d="M814.54 377.47l4.76 3.18-13.7 69.12-4.76-3.18 13.7-69.12z" fill="#b1b1b1"></path><g class="B" clip-path="url(#u)"><g><path d="M800.88 446.6l4.76 3.18-.18.73-4.77-3.18a6.54 6.54 0 0 0 .19-.73" class="DV"></path><path d="M800.65 447.33l4.77 3.18-.21.61-4.77-3.18.21-.61" class="DU"></path><path d="M800.44 447.94l4.77 3.18-.22.49-4.76-3.18a5.16 5.16 0 0 0 .21-.49" class="DT"></path><path d="M800.23 448.43l4.76 3.18-.21.43-4.76-3.22.21-.42" class="DS"></path><path d="M800.02 448.82l4.76 3.19a4.79 4.79 0 0 1-.23.38l-4.76-3.18.23-.39" class="DR"></path><path d="M799.79 449.24l4.76 3.18-.23.36-4.76-3.18.23-.36" class="DQ"></path><path d="M799.56 449.6l4.76 3.18-.24.34-4.76-3.18.24-.34" fill="#999"></path><path d="M799.32 449.94l4.76 3.18a4 4 0 0 1-.26.32l-4.76-3.18.26-.32" class="DP"></path><path d="M799.06 450.26l4.76 3.18-.27.31-4.76-3.18.27-.31" class="DO"></path><path d="M798.79 450.57l4.76 3.18-.29.3-4.76-3.18.29-.3" class="DN"></path><path d="M798.5 450.87l4.76 3.18-.32.29-4.76-3.18.32-.29" fill="#8f8f8f"></path><path d="M798.18 451.16l4.76 3.18-.34.29-4.72-3.18.35-.29" fill="#8c8c8c"></path><path d="M797.88 451.45l4.77 3.18-.4.29-4.76-3.18.39-.29" fill="#8a8a8a"></path><path d="M797.44 451.74l4.76 3.18-.46.29-4.76-3.18.46-.29" fill="#878787"></path><path d="M796.98 452.03l4.76 3.18-.6.31-4.76-3.18c.2-.09.4-.2.6-.31" fill="#858585"></path><path d="M796.38 452.34l4.76 3.18a5.85 5.85 0 0 1-2.41.55l-4.76-3.18a5.85 5.85 0 0 0 2.41-.55" class="DA"></path></g></g><path d="M834.14 229.82h-88.26c-8.56 0-17 7.78-19 17.38l-1.66 8.62-3.72 18.75-1 5.17-3.72 18.75-33.2 167.49c-1.9 9.6 3.5 17.37 12.06 17.37h88.24c8.57 0 17-7.77 19-17.37l29-146.22 6.26-31.59 8.12-41c1.85-9.57-3.56-17.35-12.12-17.35zm-47.89 8.19a2.91 2.91 0 0 1 2.62-2.4 1.82 1.82 0 0 1 1.65 2.4 2.91 2.91 0 0 1-2.6 2.39 1.82 1.82 0 0 1-1.67-2.39m-6.93 6.67a2.14 2.14 0 0 1 1.92-1.76h12.35a1.34 1.34 0 0 1 1.23 1.76 2.15 2.15 0 0 1-1.93 1.76h-12.35a1.34 1.34 0 0 1-1.22-1.76m-29.44 223.44c-1 4.94-5.34 8.94-9.75 8.94s-7.18-4-6.2-8.94 5.34-8.93 9.74-8.93 7.19 4 6.21 8.93m88.39-210.3l-23.73 119.7-13.66 69.08c-.69 3.47-3.77 6.29-6.87 6.29h-96.13c-2.69 0-4.52-2.12-4.51-4.95h0v-.62a.09.09 0 0 1 0-.05 5.16 5.16 0 0 1 .1-.67l37.41-188.78a8 8 0 0 1 .92-2.45 7.25 7.25 0 0 1 5.95-3.84h96.13a4.47 4.47 0 0 1 2.09.49 4 4 0 0 1 .44.27 4.4 4.4 0 0 1 .76.67 5 5 0 0 1 1.12 2.41 6.55 6.55 0 0 1 0 2.45" class="DL"></path><path d="M793.59 242.92a1.34 1.34 0 0 1 1.23 1.76 2.15 2.15 0 0 1-1.93 1.76h-12.35a1.34 1.34 0 0 1-1.22-1.76 2.14 2.14 0 0 1 1.92-1.76z" class="CL"></path><g class="B" clip-path="url(#v)"><g><path d="M840.96 231.82l4.76 3.19c.22.14.43.3.64.46l-4.76-3.19-.64-.46" class="CZ"></path><path d="M841.6 232.27l4.76 3.19q.36.27.69.57l-4.76-3.21-.69-.58" class="Ca"></path><g class="Cc"><path d="M842.29 232.82l4.76 3.18.65.63-4.76-3.18-.65-.63m.65.66l4.76 3.18.61.7-4.77-3.18-.6-.7"></path><path d="M843.54 234.18l4.77 3.18.57.76-4.76-3.18-.58-.76"></path><path d="M844.12 234.94l4.76 3.18.54.86-4.76-3.16-.54-.86"></path><path d="M844.66 235.82l4.76 3.18.52 1-4.77-3.18-.51-1"></path><path d="M845.17 236.82l4.77 3.18.48 1.16-4.76-3.18-.49-1.16"></path><path d="M845.66 237.94l4.76 3.18.45 1.48-4.76-3.18-.45-1.48"></path><path d="M846.11 239.42l4.76 3.18a16.43 16.43 0 0 1 .39 2.28l-4.76-3.18a16.43 16.43 0 0 0-.39-2.28"></path><path d="M846.5 241.7l4.76 3.18a18.53 18.53 0 0 1-.19 4.95l-4.76-3.18a18.53 18.53 0 0 0 .19-5"></path><path d="M846.31 246.65l4.76 3.18c0 .18-.07.37-.1.55l-4.77-3.18c0-.19.07-.37.11-.55"></path></g></g></g><path d="M846.21 247.2l4.76 3.18-8.13 40.97-4.76-3.18 8.13-40.97z" class="Cc"></path><path d="M838.08 288.17l4.76 3.18-6.26 31.59-4.76-3.18 6.26-31.59z" fill="#70abe2"></path><path d="M742.81 463.97c2.11 0 3.44 1.92 3 4.28a5.22 5.22 0 0 1-4.67 4.28c-2.1 0-3.43-1.92-3-4.28a5.21 5.21 0 0 1 4.67-4.28z" class="CL"></path><path d="M742.88 463.46c2.35 0 3.84 2.15 3.32 4.79s-2.86 4.78-5.22 4.78-3.84-2.15-3.32-4.78 2.9-4.79 5.22-4.79zm-1.8 9.07a5.22 5.22 0 0 0 4.67-4.28c.47-2.36-.86-4.28-3-4.28a5.21 5.21 0 0 0-4.66 4.28c-.47 2.36.86 4.28 3 4.28" class="Cs"></path><path d="M743.64 459.19c4.41 0 7.19 4 6.21 8.93s-5.34 8.94-9.75 8.94-7.18-4-6.2-8.94 5.34-8.93 9.74-8.93zm-2.63 13.84c2.36 0 4.7-2.15 5.22-4.78s-1-4.79-3.32-4.79-4.7 2.15-5.22 4.79 1 4.78 3.32 4.78" class="CL"></path><path d="M783.88 483.35l4.76 3.18h-88.25l-4.77-3.18h88.26zm47.94-163.59l4.76 3.18-28.98 146.22-4.76-3.18 28.98-146.22z" class="Cc"></path><g class="B Cc" clip-path="url(#w)"><g><path d="M802.88 465.98l4.77 3.18-.51 2-4.76-3.18a20 20 0 0 0 .5-2m-.55 2.03l4.76 3.18-.58 1.68-4.76-3.19.58-1.67"></path><path d="M801.75 469.68l4.76 3.19-.58 1.35-4.77-3.18.59-1.36"></path><path d="M801.16 471.04l4.77 3.18-.6 1.18-4.76-3.18.59-1.18"></path><path d="M800.57 472.22l4.76 3.18-.62 1.07-4.76-3.18.62-1.07"></path><path d="M799.95 473.29l4.76 3.18-.64 1-4.76-3.18.64-1"></path><path d="M799.31 474.28l4.76 3.18-.67.93-4.76-3.18.67-.93"></path><path d="M798.64 475.21l4.76 3.18-.7.88-4.77-3.18.71-.88"></path><path d="M797.93 476.09l4.77 3.18-.76.86-4.76-3.18.75-.86"></path><path d="M797.18 476.95l4.76 3.18-.8.83-4.76-3.14.8-.82"></path><path d="M796.38 477.82l4.76 3.19-.87.8-4.76-3.18q.43-.39.87-.81"></path><path d="M795.51 478.58l4.76 3.18-1 .8-4.76-3.18 1-.8"></path><path d="M794.55 479.38l4.76 3.18-1.08.79-4.77-3.18 1.09-.79"></path><path d="M793.46 480.17l4.77 3.18q-.63.44-1.29.81l-4.76-3.18 1.28-.81"></path><path d="M792.18 480.98l4.76 3.18-1.65.86-4.76-3.2 1.65-.86"></path><path d="M790.53 481.82l4.76 3.18a16.1 16.1 0 0 1-6.65 1.52l-4.76-3.17a16.08 16.08 0 0 0 6.65-1.51"></path></g></g><g class="B"><g class="B" clip-path="url(#x)"><g><path d="M840.08 287.96l4.77 3.18.07.06-4.76-3.18-.08-.06" class="CP"></path><g class="CL"><path d="M840.16 288.02l4.76 3.18.08.07-4.76-3.19-.08-.06"></path><path d="M840.24 288.08l4.76 3.19.08.07-4.77-3.18-.07-.08"></path></g><path d="M840.31 288.16l4.77 3.18.07.08-4.77-3.18a.27.27 0 0 0-.07-.08" class="CQ"></path><g class="CL"><path d="M840.38 288.24l4.77 3.18.06.09-4.76-3.19a.27.27 0 0 0-.07-.08"></path><path d="M840.45 288.32l4.76 3.19.06.1-4.76-3.19-.06-.1"></path><path d="M840.51 288.42l4.76 3.19a.24.24 0 0 1 .06.11l-4.76-3.18-.06-.12"></path><path d="M840.57 288.54l4.76 3.18.06.13-4.76-3.18-.06-.13"></path><path d="M840.63 288.67l4.76 3.18a1.21 1.21 0 0 1 0 .18l-4.71-3.21a1.09 1.09 0 0 0 0-.17"></path><path d="M840.68 288.82l4.76 3.19a2 2 0 0 1 .05.26l-4.76-3.18a2.56 2.56 0 0 0-.05-.27"></path><path d="M840.73 289.11l4.76 3.18a1.85 1.85 0 0 1 0 .57l-4.76-3.18a2.23 2.23 0 0 0 0-.57m-.03.57l4.76 3.18v.06l-4.76-3.18v-.06"></path></g></g></g><path d="M840.69 289.74l4.76 3.18-5.64 28.46-4.76-3.19 5.64-28.45z" fill="#5185b7"></path><g class="B CL" clip-path="url(#y)"><g><path d="M835.05 318.2l4.76 3.18a.86.86 0 0 1-.06.23l-4.76-3.18a1 1 0 0 0 .06-.23"></path><path d="M834.99 318.43l4.76 3.18-.06.2-4.76-3.19.06-.19"></path><path d="M834.93 318.62l4.76 3.19-.07.15-4.74-3.14.07-.16"></path><path d="M834.88 318.82l4.76 3.18c0 .05 0 .09-.07.14l-4.76-3.18.07-.14"></path><path d="M834.79 318.92l4.76 3.18-.07.12-4.76-3.18.07-.12"></path><path d="M834.72 319.04l4.76 3.18-.07.12-4.77-3.19a1 1 0 0 0 .08-.11"></path><path d="M834.64 319.15l4.77 3.19-.08.1-4.76-3.18.07-.11"></path><path d="M834.57 319.26l4.76 3.18a.76.76 0 0 0-.08.11l-4.77-3.19.09-.1"></path><path d="M834.48 319.36l4.77 3.19-.09.1-4.76-3.19a.39.39 0 0 0 .08-.1"></path><path d="M834.4 319.46l4.76 3.19-.09.09-4.77-3.18a.47.47 0 0 0 .1-.1"></path><path d="M834.3 319.56l4.77 3.18-.11.09-4.76-3.18.1-.09"></path><path d="M834.2 319.65l4.76 3.18a.52.52 0 0 1-.11.1l-4.76-3.19.11-.09"></path><path d="M834.09 319.74l4.76 3.19-.12.09-4.76-3.2.12-.1"></path><path d="M833.97 319.82l4.76 3.18-.15.09-4.76-3.18.15-.09m-.15.11l4.76 3.18-.19.1-4.76-3.18.19-.1"></path><path d="M833.63 320.03l4.76 3.18a1.93 1.93 0 0 1-.78.18 1.43 1.43 0 0 1-.78-.23l-4.76-3.18a1.43 1.43 0 0 0 .78.23 1.93 1.93 0 0 0 .78-.18"></path></g></g><path d="M839.29 287.73a1.53 1.53 0 0 1 1.4 2l-5.64 28.46a2.45 2.45 0 0 1-2.2 2 1.36 1.36 0 0 1-1-.45l6.26-31.59a2.07 2.07 0 0 1 1.18-.42z" class="CL"></path></g><path d="M838.45 256.44l-.14 1.27-23.73 119.7-13.7 69.12-.36 1.27-.57 1.18-.73 1.07-.87.93-.98.77-1.07.58-1.13.37-1.15.13h-96.2l-.07-.01h-.13l-.07-.01h-.07l-.07-.01h-.06l-.1-.02-.08-.01-.08-.01-.06-.01-.05-.01-.05-.01-.09-.02-.1-.03-.08-.02-.07-.02-.06-.01-.05-.02-.05-.01-.04-.02-.03-.01-.1-.04-.08-.03-.06-.03-.06-.02-.05-.02-.04-.01-.04-.03-.03-.01-.1-.05-.07-.04-.06-.03-.05-.03-.05-.03-.04-.02-.04-.02-.03-.03-.08-.05-.08-.06-.05-.04-.06-.04-.09-.07-.03-.03-.04-.03-.07-.06-.07-.06-.11-.11-.05-.04-.04-.05-.09-.09-.05-.06-.05-.06-.04-.06-.04-.04-.03-.05-.03-.03-.03-.04-.03-.04-.05-.08-.05-.07-.03-.06-.04-.05-.03-.05-.02-.03-.02-.04-.02-.03-.05-.1-.03-.07-.04-.07-.03-.06-.02-.05-.01-.03-.03-.04-.01-.03-.04-.11-.03-.08-.03-.08-.02-.05-.02-.05-.01-.05-.02-.03-.01-.05-.03-.1-.03-.09-.02-.08-.02-.07-.01-.06-.02-.05v-.04l-.01-.04-.02-.13-.02-.11-.02-.09-.01-.08-.02-.08v-.07l-.01-.07v-.06l-.01-.1-.01-.08v-.07-.08-.4-.16l.01-.17.02-.17.02-.16.02-.17.06-.35 37.43-188.82.37-1.27.56-1.18.73-1.07.87-.93.98-.77 1.07-.58 1.13-.36 1.16-.14h96.13l1.11.14.98.36.84.58.68.77.5.93.31 1.07.09 1.18z" fill="#c4eaff"></path><image class="Bc" width="214" height="185" transform="translate(48.71 207.82)" opacity=".6"></image><path d="M230.19 361.2h-129.4a9.12 9.12 0 0 1-9.11-8.23L79.31 229.66H227.4l12.23 121.16a9.51 9.51 0 0 1-9.44 10.38z" fill="#fff"></path><image class="Be" width="250" height="229" transform="translate(17.71 71.82)" opacity=".5"></image><g clip-path="url(#z)"><path d="M382.48 349.2a14.76 14.76 0 0 1-13.51 17l-1.33.06-312.6.18c-8.436-.061-15.53-6.343-16.61-14.71l-6-52.65L.1 16.82a14.79 14.79 0 0 1 14-16.6L319.24.05a16.84 16.84 0 0 1 16.52 14.27l44.88 321.34z" fill="#fff"></path><path d="M208.74 185.65s-3 3.5-3.08 6.6-6.8 0-6.8 0l1.11-8.72 5.47-1.52z" class="Cm"></path><path d="M162.31 204.29s36.57 27.62 43.37 15.84c0 0 4.39-8 .93-24.59 0 0 5-.53 5-2.34s-.7-2-6.36-2.63-4.06-7.43-.22-6.55 7.43 6.69 9.56 5.56-.43-4.31-.43-4.31 2.67 3.52 4.1 1.48-.72-4.17-.72-4.17a3.56 3.56 0 0 0 3.95.66c2.06-1.13-3.71-8.63-6.63-8.63 0 0-2.9-.28-3.33 1.39 0 0-4.27-1.72-5 .82 0 0-4.73-.68-6.11 2.93 0 0-4.36-.4-3.16 8.15s1.53 14.24-.25 14.24-25.71-32.3-37.88-36 3.18 38.15 3.18 38.15z" class="Cn"></path><g clip-path="url(#AA)"><path d="M166.29 173.99s16 15.54 21.26 27.57 14.26 18.75 20.67 13.63 6.95 11.36-4.35 11.36-23.73-8.87-23.73-8.87l-17.12-41.58z" class="Cm"></path><path d="M169.02 167.08l-5.25 15.26-6.75-18.82z" class="Ct"></path></g><g class="CK CX Ck DW"><path d="M214.69 186.01s-5-6.11-9.21-6.74m12.3 3.47a21.84 21.84 0 0 0-6.31-6.74m-7.59 7.92a3.6 3.6 0 0 0-1.93 4.66 3.44 3.44 0 0 0 .4.7s1.14 1.55 5.52 1.66 4.53 3 2.84 3.51a8.37 8.37 0 0 1-6.31.3"></path></g><path d="M110.09 446.74h24.52l-.73 42.69h-22.16s-12.78-2-12.83-3.43l15.85-5.76a4 4 0 0 0 2.55-4.73z" class="Cn"></path><g clip-path="url(#AB)" class="Cm"><path d="M110.39 456.12l25.32 12 .26-14.93z"></path></g><path d="M134.68 481.51a70.39 70.39 0 0 1-8.81 3.64c-7.08 1.84-12 1.6-14.72.83-5.73-1.61-3.82-4.11-7.79-2.64-12.34 4.56-17.12 5.68-16.11 11.12l45.53-.75a2.42 2.42 0 0 0 2.37-2.41v-.12z" class="Cu"></path><path d="M194.88 450.89l10.68-10.45 10.86 28.54a19.22 19.22 0 0 0 5.38 7.71l11 9.56s-7.52 3.31-13.55 1.74-18.33-11-18.33-11z" class="Cn"></path><g clip-path="url(#AC)" class="Cm"><path d="M192.51 456.12l25.43 12 .26-14.93z"></path></g><path d="M198.28 468.09s10.17 10.78 14.94 13.18c.19.1 4.78 2.68 7.79 2.55 3.37-.14 5.18-3 5.36-2.88 6.6 3.45 12.57 2.6 14.15 13.53h-15.5a19.44 19.44 0 0 1-14-5.88l-2.7-2.77s-7.76.2-7.71-2.83-2.33-14.9-2.33-14.9z" class="Cu"></path><path d="M122.03 263.82s-14.37 10.4-17.35 15.49c-6.63 11.28-3.27 24-1.72 43.93 3.38 43.35 7.35 133.58 7.35 133.58h26.1l15.67-135.94s1.39 44.24 41 136.21l28 .13-34.41-177.92-53.79-30.42z" fill="#56d4b7"></path><g clip-path="url(#AD)"><g fill="#4bc5a9"><path d="M140.3 266.02s-21.16 4.43-21.67 33.65 10.25 194.54 10.25 194.54l-24.8-4.33-19.31-220.43 36.51-15.81zm12.19 53.53a207.41 207.41 0 0 0 1.27 32.59c2.11 18.14 48 145.2 48 145.2l16-3.13z"></path></g><path d="M154.72 288.62s3.44 20.11 2.52 25.52a6.15 6.15 0 0 1-5.89 5.41" stroke="#4bc5a9" stroke-width=".87" class="CK CX"></path></g><path d="M120.94 165.06a5.07 5.07 0 0 0-2 0q-26.1 10.82-22.25 32c4 21.88 15.55 40.22 15.15 63.66l-11.26 25.35s19.3-6.39 34.37 1.75c28.73 15.5 53-8.75 53-8.75s-8.76-45-9.78-59c-.59-8.1 2.72-8.23 3.89-13.89 2.19-10.55-7-18-12.81-25.41-3.73-4.71-6.42-9-7.71-11-5.34-8-8.74-3.26-11.54-4.71-8.77-4.54-29.06 0-29.06 0z" class="Ct"></path><g clip-path="url(#AE)"><path d="M134.46 208.3c3.51 5.66 8.32 25.54 28.6 9.37s14.55 3.92 14.55 3.92l.71 3.28s-13.05 24.93-28.76 35-20 3.27-20.62 9 8.73-1.28 16.86 5.84 8.58 15.05 22.62 11.08 17.43-12.1 21.83-8.71-22 20.19-22 20.19l-61.6-3.38h-24.1l9.87-53 31.32-51.24s7.2 12.99 10.72 18.65z" fill="#df775d"></path></g><path d="M99.27 184.95c3.23-7.12 16.39-11.65 25.45 5.91s17.52 39.22 17.52 39.22 32.37-23.77 39.57-25.77 21.83-2.58 32.08 3.41 12.44 9.51 11.46 10c-.53.24-3.9-1.75-9.77-4.25a26.12 26.12 0 0 0-4.35-1.09c0 0 2.74 4.36-.07 4.36 0 0-.95 2.44-2.92 2.27 0 0 .61 2-3 1.81s-6.18-.06-6.13-3c0 0-6.92-2.11-8.28-4.4 0 0-1.62-1.48-4.94.86s-40.7 62.93-64.92 34.09-24.94-56.31-21.7-63.42z" class="Cn"></path><g clip-path="url(#AF)"><path d="M97.69 204.69l31.87-11.87s-3.46-18.23-14.64-18.23-16.89 10.48-16.89 10.48a44 44 0 0 0-1.67 8.75 84.86 84.86 0 0 0 1.33 10.87z" class="Ct"></path><g class="CK CX Ck DW"><path d="M180.62 220.7l4.42-5.81c2.07-2.81 4.77-2.26 5.36-1.78a18.59 18.59 0 0 1 1.59 1.61s8.08 4.11 12.43 4.11m6.84-2.01a6 6 0 0 0-3-3.18m-.12 5.18a3.65 3.65 0 0 0-3.07-2.66m17.71.66s-7.7-4.88-11.45-4.46"></path></g></g><g class="CK CX Ck DW"><path d="M213.88 207.72c-12.65-8.45-31.8-3-31.8-3s-13.17 4.94-39.85 25.4c0 0-14.17-34.18-15.65-35.86"></path><path d="M142.24 230.08a12.51 12.51 0 0 0-5.36 12.18"></path></g><path d="M159.24 125.04s11.28 28.78-6.29 31.29c0 0-9.32 4.54-8.46 5.22a104.28 104.28 0 0 0 10.56 3.32s9.66 13-3.72 16.86-33.32-16.28-33.32-16.28a28.39 28.39 0 0 1 4.55-1.47c3.94-.82 6-1.12 6.06-2.43a37.4 37.4 0 0 0-1.3-14.13 95.45 95.45 0 0 0-6.17-12c0 0 7.65-9.17 13.69-15.07s16.92-1.95 16.92-1.95a27.46 27.46 0 0 1 5.92 2.81 6.6 6.6 0 0 1 1.56 3.83z" class="Cn"></path><g clip-path="url(#AG)" class="Cm"><path d="M143.01 156.05a17.47 17.47 0 0 1-7.56-4.8s1.82 10.66 8.8 10.2-1.24-5.4-1.24-5.4z"></path></g><g class="CK CX Ck DX DY"><path d="M142.48 133.51a5.86 5.86 0 0 1 5.71 0m5.77-.24a4.86 4.86 0 0 1 3.93.65"></path></g><path d="M155.5 122.11s-8.33 14.23-25.17 12.91c0 0-3.5-2-4.3.63s.63 3.77 3.3 4.81l-.71 21.09s-2.48 0-6.57-.08a26.29 26.29 0 0 1-6.84-1l1.15-5.23-4.29 3.9s-12.45-6-14.18-7.55c0 0 10.41-7.84 14.62-17.67s10.11-27.37 25.07-28.8 24 6.51 25.79 18.79 3.31 36.18 9.51 37.23l-16 .35c-1.25.07-2.16-4.59-2.16-4.59l-2.33 4.81-8-.16-1.35-5.5s16 .34 16-26.52a12.71 12.71 0 0 1-2.91-3.65 8.64 8.64 0 0 1-.63-3.77z" class="Cu"></path><path d="M151.88 135.68a3.89 3.89 0 0 0 .46 3.93c1.45 1.95 1.41 4.39-2.66 3.52" stroke="#9d3f28" class="CK CX Ck DY"></path><ellipse cx="138.5" cy="64.79" rx=".8" ry=".78" transform="matrix(.710185 -.704015 .704015 .710185 2.41 188.1)" class="Cu"></ellipse><path d="M147.53 136.41a2.57 2.57 0 0 0-3.06.09" class="CK CX Ck DX"></path><ellipse cx="147.99" cy="64.79" rx=".8" ry=".78" transform="matrix(.710185 -.704015 .704015 .710185 5.16 194.78)" class="Cu"></ellipse><g class="CX Ck"><path d="M157.02 136.38a2.57 2.57 0 0 0-3.06.15" class="CK DX"></path><path d="M150.1 150.02c-2.12.18-4.3-2.75-4.3-2.75a20.57 20.57 0 0 0 4.33 1 9.69 9.69 0 0 0 3.32-1s-1.24 2.55-3.35 2.75z" fill="#fff" stroke="#9d3f28"></path></g></g><g class="CK"><g stroke-linejoin="round" class="DY"><path d="M102.91 284.44h62.93" stroke="#a1bedb" stroke-width="8.71"></path><path d="M102.91 298.04H222.8m-119.02 7.99h45.48" stroke="#d0e6f6" stroke-width="4.35"></path></g><path d="M100.29 336.58l1.19 11.86a3.23 3.23 0 0 0 3.21 2.91h120.88a3.23 3.23 0 0 0 3.21-3.53l-1.2-11.87a3.22 3.22 0 0 0-3.21-2.91H103.5a3.23 3.23 0 0 0-3.21 3.54z" opacity=".5" stroke-width=".87" stroke="#7fc1ff" class="CX"></path></g><g fill="#ffbc00"><path d="M110.22 312.88l3.2 4.67 5.29.75-3.03 3.63 1.87 5.12-5.07-2.42-4.13 2.42-.11-5.12-4.43-3.63 5-.75 1.41-4.67zm25.15 0l3.2 4.67 5.29.75-3.02 3.63 1.86 5.12-5.07-2.42-4.13 2.42-.11-5.12-4.43-3.63 5.01-.75 1.4-4.67z"></path><use xlink:href="#AR"></use><use xlink:href="#AR" x="25.15"></use><path d="M210.82 312.88l3.21 4.67 5.29.75-3.03 3.63 1.87 5.12-5.07-2.42-4.14 2.42-.11-5.12-4.42-3.63 5-.75 1.4-4.67z"></path></g><g class="Cc"><ellipse cx="754.67" cy="280.36" rx="75.84" ry="31.04" transform="matrix(.20996 -.97771 .97771 .20996 329.96 1031.15)"></ellipse><ellipse cx="326.03" cy="185.43" rx="42.65" ry="104.53" transform="matrix(.980064 -.198684 .198684 .980064 -22.46 140.27)"></ellipse></g><use xlink:href="#AS" fill="#fab29a"></use><use xlink:href="#AS" class="DK"></use><path d="M614.48 417.03a5.29 5.29 0 0 1-.05.8c0 0 0 .09 0 .13-.35 2.08-1.35 6.44-3.83 8.89-3.33 3.3-9.47 6.25-19.16-2h0c.16.45 2.45 6.36-.3 12.27a14.53 14.53 0 0 1-1.1 1.94 1.13 1.13 0 0 1-.1.13c-4.68 6.75-14.74 5.36-17.31 3.92h0c0 .08 0 .21.07.41s0 .3 0 .48a5.85 5.85 0 0 1 0 .62 9.83 9.83 0 0 1-2.83 6.76 13.28 13.28 0 0 1-1.53 1.42c-5.62 4.51-11.69 2-13.48 1a15.53 15.53 0 0 1-3.63-3.11h0s0 .15-.15.4l-.1.25a.69.69 0 0 1 0 .13c0 .1-.09.2-.14.31a13.36 13.36 0 0 1-2.54 3.77c-.14.15-.29.29-.44.43h0a8.27 8.27 0 0 1-7.44 2.09 26.21 26.21 0 0 1-11.23-5.09c-.73-.54-1.48-1.12-2.23-1.74h0l-.72-.6c-.32-.26-.63-.54-1-.82l-1.3-1.14-.45-.41-.37-.34h0l-1.68-1.54-.62-.56-.12-.11-1-.91-1-.92h0l-1.23-1.06-1.7-1.44-.62-.52-.76-.61h0l-1.23-1-2-1.63h0c-1-.85-2.13-1.72-3.25-2.61l-1.62-1.29-1.65-1.32q-.84-.65-1.68-1.32l-.84-.66-1.69-1.33-1.24-1c-1.34-1-2.66-2.06-3.95-3.08l-14.93-11.5-1.18-1.44-.34-.4-1.69-2.06-.68-.82-.86-1-.93-1.12-1-1.19-1-1.25-2.75-3.3-1.15-1.38-1.22-1.45h0l-1.84-2.18c-.62-.72-1.36-1.63-2-2.43l-2-2.37c-.82-1-1.64-1.91-2.42-2.82l-.92-1.06-4.39-5-6.3-4.69h0l-9.33-6.94h0l-9.06-6.74-8.63-6.42-2.41-1.79-9-6.74-10.57-7.87-2.76-2.05 23.34-22.5 24.66-23.81 6.93 4.8 5.06 3.51 5 3.43 7.9 5.46 8.83 6.1 4.54 3.14 12.63 8.75 26.63-.92 6.3-.22h.29l7.61-.28 11.06 10.47 1.38 1.31h0l9.67 9.17 54.77 51.87h0l.53 10.5 1.38 6h0a5.74 5.74 0 0 1 .09 1.24z" class="Cn"></path><g class="Cm"><path d="M523.99 448.82l-4.24-3.86c-7.9-7.25-39.44-31.31-39.44-31.31l-11.61-14-14.84-17.25-6.3-4.69-18.39-13.7 5.77-6.66 27.87 20.47s31.82 39.55 41.48 48.63 19.67 20.37 19.67 20.37z"></path><path d="M482.08 319.14l-34.52 58.52-27.02-20.12 40.28-53.11 21.26 14.71zm132.27 96.68h0l-1.38-6-.53-10.5-54.76-51.88h0l-22.12-21-7.89.3-6.09 5.9-26.91 24.95s1.84 9.83 13.66 11.13 24.81-12.92 29.29-14c1.78-.44 10.25 4.58 20.61 11.56l49.88 43a32 32 0 0 1 6.34 8.58 5.54 5.54 0 0 0-.1-2.04zm-23.22 21.36l-20.1-20.52c-8-8.12-5.28-15.88-5.28-15.88l25.68 24.1h0a16.58 16.58 0 0 1-.3 12.3zm-21.17 14.31l-14.72-14.8c-6.12-6.17-4.63-15.45-4.63-15.45l22 21.93h0c.06.16 1.1 4.28-2.65 8.32zm-18.65-.67a13.7 13.7 0 0 1-3.42 5.3 155.11 155.11 0 0 1-11.9-11.6c-5.2-6-3.91-10.88-3.91-10.88z"></path></g><path d="M712.49 386.46l-22 3.48-13 2.07-9.61 1.52-11.76 1.87-14.53 2.31-8.36 1.33-.56.43-.93.7-.75.54-1.29.89-.74.48-3.9 2.31-.93.5-2.72 1.38-2.47 1.14-.8.35-5.2 2-1.1-2.19a20.1 20.1 0 0 0-4.48-5.84l-7.87-7.1-14.91-13.42-4.56-4.11-31.6-28.46a6.2 6.2 0 0 0-4.27-1.59h-.34 0-.37l-11 1.55-.63.08c-.21 0-.42.08-.63.13a3.51 3.51 0 0 0-.49.15h-.09a3.71 3.71 0 0 0-.46.19h0a3.48 3.48 0 0 0-.43.22l-.09.05-.42.26a6.32 6.32 0 0 0-1 .85c-10.32 11.02-19.32 13.29-25.62 12.84a19.65 19.65 0 0 1-6.05-1.44l-.32-.14a4.33 4.33 0 0 1-1.85-6.3l16-22.31a11.34 11.34 0 0 1 6.22-4.72l4.77-1.49 28.81-9a11.5 11.5 0 0 1 6.75 0l51.47 15.56 17.5-2.87 6.21-1 16.6-2.69 9.77-1.58 5.59-.91 11.83-1.93 25.26-4.1 9.54 57.19z" class="DZ"></path><path d="M479.63 313.1l-2.08 2.9h-.01l-34.15 47.51-5.16 7.19v.01l-4.39 6.11-20.26-14.46-9.7-6.91-10.87-7.75 5.51-6.56 20.58-24.56 25.12-29.97 9.59 7.18 4.64 3.47 21.18 15.84z" fill="#fff"></path><path d="M526.97 451.35l-7.22-6.43c-7.9-7.25-39.44-31.31-39.44-31.31l-11.61-14c3.29.75 9.71 3.24 15.2 11.5l9.94-2.54s9.77 2.76 11 16.59l10.19-2.34a15.61 15.61 0 0 1 5.39 13.32c0 0 7 4.16 7.33 9.13a15.3 15.3 0 0 1-.78 6.08z" class="DK"></path><path d="M472.63 417.05a8.68 8.68 0 0 1-4.61-1.75c-5.08-3.68-8.35-14.87-3.57-17 0 0 2.68-1.81 7.81 2.82a21.71 21.71 0 0 1 5.78 7.35 8.85 8.85 0 0 1 .71 4.42c-.25 2.33-2.87 4.35-6.12 4.16z" class="DZ"></path><path d="M472.63 417.05a50.93 50.93 0 0 1 5.41-8.6 8.85 8.85 0 0 1 .71 4.42c-.25 2.35-2.87 4.37-6.12 4.18z" class="DK"></path><g class="DZ"><path d="M479.42 432.28a9.35 9.35 0 0 1-4.75-12.46 38.12 38.12 0 0 1 6.9-10.53c6.47-6.76 20.33-.65 16.35 12l-8.04 11.53s-5.57 1.54-10.46-.54z"></path><path d="M514.47 433.26l-9.46 12.69c-.41.1-7.47 1.08-12.28-4a12.66 12.66 0 0 1-.86-1c-3.65-4.55-2-8.2-2-8.2l8-11.47s5.51-6.9 12.11-3.76l.41.21c6.83 3.65 6.92 10.59 4.08 15.53z"></path><path d="M525.45 443.31c-1.45 3.52-6.35 12.28-6.35 12.28-1.51 1-3.88 1.87-9.22-1.34a10.64 10.64 0 0 1-2.53-2.07 8.9 8.9 0 0 1-2.34-6.23l7.76-10.4c2.87-1.64 5.31-1.65 7.26-.85 4.1 1.7 6.06 7.04 5.42 8.61z"></path></g><g class="DK"><path d="M510.03 417.54c-2.27 1.08-6.62 3.81-10.42 10-2.84 4.6-5.68 9.67-7.74 13.46-3.65-4.55-2-8.2-2-8.2l8-11.47s5.56-6.93 12.16-3.79zm10 17.16c-1.55.89-4 2.89-6.76 7.4a252.8 252.8 0 0 0-5.92 10.08 8.9 8.9 0 0 1-2.34-6.23l7.76-10.4c2.87-1.64 5.31-1.65 7.26-.85zm192.46-48.24l-22 3.48-13 2.07-9.61 1.52-11.76 1.87-14.53 2.31-8.36 1.33-.56.43-.93.7-.75.54-1.29.89-.74.48-3.9 2.31-.93.5-2.72 1.38-2.47 1.14-.8.35-5.2 2-1.1-2.19a20.1 20.1 0 0 0-4.48-5.84l-7.87-7.1-14.91-13.42-4.56-4.11-31.6-28.46a6.2 6.2 0 0 0-4.27-1.59h-.36-.37l-11 1.55-.63.08-.33.06-.3.07a3.51 3.51 0 0 0-.49.15h-.09l-.43.17h0 0a3.48 3.48 0 0 0-.43.22l-.09.05-.42.26a6.32 6.32 0 0 0-1 .85c-10.33 11.04-19.33 13.31-25.63 12.86a68.33 68.33 0 0 0 13-5c12.32-6.09 15.7-19.09 15.7-19.09s13.33-1.63 16.72-1.07h0l.2.05c1.81.4 23.66 20.34 41.82 37.26 5.3-2 11.27-6.38 16.15-15.35 0 0-1.58 12.63-12.85 18.43l13.49 12.7a32.89 32.89 0 0 0 10.44-2c1.34-.5 6.5-1.43 14.18-2.63l8.46-1.3 14.93-2.16 11.44-1.61 8.93-1.24 12.9-1.75 22.6-3z"></path><path d="M656.14 395.4l-22.89 3.64-.57.44-6.8-68.82 22.8-3.7z"></path></g><path d="M692.29 398.09l-13.22 1.81-10.09 1.38-26.37 3.6-1-7.18-1.73-12.26-7.82-55.79-.35-2.48 26.38-4.22 5.46-.87 11.82-1.89.51 2.36 12.2 56.12 2.44 11.27 1.77 8.15z" fill="#fff"></path><path class="CI" d="M692.29 398.09l-13.22 1.81-10.09 1.38-1.08-7.75-1.65-11.86-7.82-56.29-.34-2.43 5.46-.87 11.82-1.89.51 2.36 12.2 56.12 2.44 11.27 1.77 8.15z" fill="#e2e2e2"></path><g fill="#659cff"><path d="M780.09 343.82c-2.3 26.67-17.22 49.28-25 59.45a20.38 20.38 0 0 1-11.37 7.38l-59.63 14.47-5-25.22 13.22-1.81-1.77-8.15 22-3.48-1.81-10.82-9.54-57.19-25.31 4.1-.51-2.36-11.82 1.89-.67-3.35 50.69-8.14 54.79-14.18a6.28 6.28 0 0 1 7.2 3.3c2.96 5.88 6.72 18.68 4.53 44.11z"></path><path d="M690.52 389.94l1.77 8.15-13.22 1.81-1.58-7.89-2.31-11.58-3.69-18.55-.94-4.71-6.52-32.71-.48-2.38 11.82-1.89.51 2.36 25.26-4.1 9.54 57.19 1.81 10.81-21.97 3.49z"></path></g><path class="CI" d="M458.45 297.26l-2.59 3.75-37.73 54.73-4.55 6.62-9.7-6.91-10.87-7.75 5.51-6.56 20.58-24.56 25.12-29.97 9.59 7.18 4.64 3.47z" fill="#e2e2e2"></path><path d="M360.65 337.67a8.55 8.55 0 0 1-8.47 6.52l-8.36-7.37a8.44 8.44 0 0 1 .16-3.27c1.135-4.603 5.787-7.415 10.39-6.28s7.415 5.787 6.28 10.39z" fill="#56d4b7"></path><path d="M453.81 293.79l-3.01 3.71-19.5 24.09-3.02 3.73-19.19 23.69-5.21 6.44-10.87-7.75 5.51-6.56-2.76-2.05 23.34-22.51 25.12-29.97 9.59 7.18z" class="Ct"></path><path d="M360.65 337.67a8.58 8.58 0 0 1-16.83-.84 8.44 8.44 0 0 1 .16-3.27c1.135-4.603 5.787-7.415 10.39-6.28s7.415 5.787 6.28 10.39z" fill="#df775d"></path><path d="M455.96 291.13l-2.15 2.69h0l-9.59-7.18-25.12 30-23.34 22.5 2.76 2.05-5.51 6.57 10.87 7.69-16.19 20-35.5-31.25h0a8.58 8.58 0 0 0 1.549-17.041 8.58 8.58 0 0 0-9.749 6.411 8.44 8.44 0 0 0-.16 3.27h0l-1.83-1.61a27.27 27.27 0 0 1-5.34-6.39c-6.63-11-24.84-45-28.53-91.88-2.92-37.2 3-52.43 7.51-58.55a5.54 5.54 0 0 1 8.15-.73l91.09 82.66z" class="Ct"></path></g></svg>