<svg xmlns="http://www.w3.org/2000/svg" xmlns:v="https://vecta.io/nano" viewBox="0 0 875 600"><style><![CDATA[.B,.G{isolation:isolate}.I{mix-blend-mode:multiply}.Aj{fill:none}.Ak{fill:#ffd3c8}.Al{stroke-miterlimit:10}.Am{fill:#f1b2a2}.An{fill:#fff}.Ao{stroke:#301913}.Ap{stroke:#99776c}.Aq{fill:#2a3756}.Ar{fill:#3e6c98}.As{opacity:.1}.At{opacity:.3}.Au{fill:#8cc6ff}.Av{fill:#ffbc00}.Aw{fill:#7fc1ff}.Ax{stroke-width:.59}.Ay{fill:#061537}.Az{fill:#e6e6e6}.BA{stroke-width:.26}.BB{fill:#56d4b7}.BC{stroke-width:.72}.BD{stroke-width:.31}.BE{stroke-width:.5}.BF{stroke-width:.61}.BG{stroke-width:1.47}.BH{stroke-linecap:round}.BI{stroke-width:1.79}]]></style><defs><clipPath id="A" transform="translate(24.76 18.76)"><path d="M366.83 491.41s1.7 54.08-10.87 73l157.59.13s-10.68-16.38-10.68-76.34-136.04 3.21-136.04 3.21z" class="Aj"></path></clipPath><clipPath id="B" transform="translate(24.76 18.76)"><rect x="90.77" y="15.4" width="689" height="476.01" rx="24.1" class="Aj"></rect></clipPath><clipPath id="C" transform="translate(24.76 18.76)"><circle cx="203.25" cy="126.63" r="42.52" class="Aj"></circle></clipPath><clipPath id="D" transform="translate(24.76 18.76)"><path d="M233.26,146.93s9.52,24,9.59,31.83c0,1.08-3.84.68-3.95,1.65l-13.59-3.06-4.84-29.42,8.31-2.57Z" class="Aj"></path></clipPath><clipPath id="E" transform="translate(24.76 18.76)"><path d="M171.89 143.72l13.12 6.9a30.39 30.39 0 0 1 .9 12.26c-1.17 4.94-10.39 10.72-8.51 16.75 0 0 11.31-3.85 19.46 0s16.86 12 24.72 10.17c0 0-3.34-31.38-.61-40.34l12.29-2.53s-5-15-16.53-18.43a47.07 47.07 0 0 0-14.64-1.9c-23.43-.41-30.2 17.12-30.2 17.12z" class="Aj"></path></clipPath><clipPath id="F" transform="translate(24.76 18.76)"><path d="M214.47 106.81s6.1 14.91-3 16.24c0 0-4.78 2.34-4.33 2.71a55.41 55.41 0 0 0 5.49 1.72 10.71 10.71 0 0 1-10.29 6.26 9.59 9.59 0 0 1-9.12-6.57l2.37-.31c2-.23 3.33-.43 3.33-1.1a19.6 19.6 0 0 0-.8-7.34 50.49 50.49 0 0 0-3.29-6.21s3.87-4.76 6.94-7.82 8.75-1 8.75-1a14.31 14.31 0 0 1 3.09 1.46 3.42 3.42 0 0 1 .86 1.96z" class="Aj"></path></clipPath><clipPath id="G" transform="translate(24.76 18.76)"><path d="M150.29 152.7s-2.59-6.08-7.2-6.26-13.3-7.76-13.72-9.67c-.28-1.23.35-1.09.79-1 .23.07.41.12.35-.06a.94.94 0 0 1 .64-1.17.62.62 0 0 1 .23 0c.63 0 2.07 2.16 2.07 2.16s-.73-3.66-.72-3.91 1.69.06 1.84 2a3.05 3.05 0 0 0 1.57 2.59c.85-.64 1 .25 2.57 1.89a5.54 5.54 0 0 0 4.58 1.53c0-.27-3.33-3.35-4.2-4.26s-.25-3.38 1.47-1.71a49.86 49.86 0 0 0 6.36 4.43c2.78.56 5.64 4.69 7.21 7.33h0s5.59 6.15 8.93 9.21 6.78 5.66 6.78 5.66l2.51-17.61 12.65 6.74s-2 20.4-9.33 24.53a3.84 3.84 0 0 1-2.51.38c-8.28-1.3-22.87-22.8-22.87-22.8z" class="Aj"></path></clipPath><clipPath id="H" transform="translate(24.76 18.76)"><path d="M242.74 180.54c-5.36 5.9-22.24-2.43-28.77-7.8 0 0-8.35-2.94-8.72-4.75s.54-2 .54-2-.77-1.45-.25-2.28c0 0-.55-2 .07-2.39 0 0-.51-2.44 3.13-2.71 0 0-.41 1.52.37 2s4.45 1.18 4.45.3-2.31-3-1.3-4.47 1.63 1.94 3.47 3.2a7.47 7.47 0 0 1 3.43 6.86s0 2.16 9.13 2.64c4.82.25 9.83.4 12.39 2.6 2.32 1.97 4.59 6.02 2.06 8.8z" class="Aj"></path></clipPath><clipPath id="I" transform="translate(24.76 18.76)"><circle cx="460.56" cy="135.43" r="42.52" class="Aj"></circle></clipPath><clipPath id="J" transform="translate(24.76 18.76)"><circle cx="460.56" cy="302.02" r="42.52" class="Aj"></circle></clipPath><clipPath id="K" transform="translate(24.76 18.76)"><path d="M462.32 292.18a9.75 9.75 0 0 1 .08-4.43c3.31-.65 2.74-3.88 1.54-4.1s-1.87 1.54-1.87 1.54c-.11-3.21-2.86-.2-5.22-5.07s-6.43-1.94-6.88-.51-3.64 16.39 5.42 16.39a14.3 14.3 0 0 1 0 4c-.06.2-.05.44-.11.64-.24.79 0 1.75-.28 2.51-1 2.67-4.61 9.29.19 11.53s11.8-5.63 10.34-10.52-2.7-9.5-3.21-11.98z" class="Aj"></path></clipPath><clipPath id="L" transform="translate(24.76 18.76)"><path d="M423.74 362s-.77 1.81-4.49 2.47-9.5 3.41-13 3a1.81 1.81 0 0 0 1.85 1.78h.15l7-.25s-.57 1.61 1.73 1.61 4.2-1 6.32-1 3.94-.26 4.46-2.09 3.34-3.74 3.34-3.74l-6.81-2.39z" class="Aj"></path></clipPath><clipPath id="M" transform="translate(24.76 18.76)"><path d="M496.85,362s.78,1.81,4.5,2.47,9.5,3.41,13,3a1.81,1.81,0,0,1-1.85,1.78h-.15c-2,0-7-.25-7-.25s.57,1.61-1.73,1.61-4.2-1-6.32-1-3.94-.26-4.46-2.09-3.34-3.74-3.34-3.74l6.81-2.39Z" class="Aj"></path></clipPath><clipPath id="N" transform="translate(24.76 18.76)"><path d="M478.87 333.08a35.71 35.71 0 0 1-1.57 5 12.69 12.69 0 0 0-1.67 5.5c-.67 3.49 3.24 8.16 4.73 14.81s-.89 5.25-.89 5.25h-19.11l-22.86 1.52a74.32 74.32 0 0 1 4.32-10.64c2.29-4.29 3.17-5.67 3.17-10.94a31.09 31.09 0 0 0-1.6-6.91 20.83 20.83 0 0 1-.84-5.08C441.78 347 432 365.12 432 365.12l-7.95-3.5c1.33-3.53 5.21-16.33 8.38-38.65 1-6.93 1.86-13.85 6.32-17.61s9.69-3.76 16.86-4.09c.57 0 3.36 3.94 3.36 3.94l1.23-3.44v-.55h3.06s13.41.2 17.71 4.14c4.09 3.74 6.18 10.36 7.21 17.61 3.16 22.32 7 35.11 8.38 38.66l-8 3.49s-8.56-15.77-9.69-32.04z" class="Aj"></path></clipPath><clipPath id="O" transform="translate(24.76 18.76)"><path d="M465,409.47v14.39c0,3,.82,13.44-2.07,14.36s-6.74-.47-5.36-9.47,2-21.19,2-21.19Z" class="Aj"></path></clipPath><clipPath id="P" transform="translate(24.76 18.76)"><path d="M450.06,419.66s1.44,8.17,1.44,10.63-1.44,12.24,4.82,11.8,1.38-24.52,1.38-24.52Z" class="Aj"></path></clipPath><clipPath id="Q" transform="translate(24.76 18.76)"><path d="M343.25 310.48c-77.24 35.11-168.89.28-204.3-77.64s-1.4-169.87 75.84-205 168.88-.28 204.29 77.65 1.4 169.89-75.83 204.99z" class="Aj"></path></clipPath><clipPath id="R" transform="translate(24.76 18.76)"><path d="M387.18,563s2.08,66.1-13.29,89.27l192.6.16s-13.06-20-13.06-93.3S387.18,563,387.18,563Z" class="Aj"></path></clipPath><clipPath id="S" transform="translate(24.76 18.76)"><rect x="49.79" y="-18.76" width="842.05" height="581.75" rx="29.45" class="Aj"></rect></clipPath><clipPath id="T" transform="translate(24.76 18.76)"><circle cx="187.26" cy="117.18" r="51.97" class="Aj"></circle></clipPath><clipPath id="U" transform="translate(24.76 18.76)"><path d="M223.93,142s11.63,29.31,11.72,38.91c0,1.32-4.69.82-4.82,2l-16.61-3.73-5.92-36,10.16-3.14Z" class="Aj"></path></clipPath><clipPath id="V" transform="translate(24.76 18.76)"><path d="M148.93 138.06l16 8.43a37.38 37.38 0 0 1 1.1 15c-1.43 6-12.7 13.11-10.41 20.47 0 0 13.82-4.7 23.79 0s20.6 14.7 30.21 12.43c0 0-4.08-38.35-.75-49.3l15-3.09s-6.15-18.28-20.2-22.52a57.56 57.56 0 0 0-17.89-2.33c-28.58-.51-36.85 20.91-36.85 20.91z" class="Aj"></path></clipPath><clipPath id="W" transform="translate(24.76 18.76)"><path d="M201 93s7.45 18.21-3.63 19.84c0 0-5.85 2.87-5.29 3.31a65.25 65.25 0 0 0 6.71 2.11 13.12 13.12 0 0 1-12.57 7.65 11.75 11.75 0 0 1-11.16-8l2.9-.39c2.45-.28 4.08-.51 4.08-1.34a24 24 0 0 0-1-9 63.29 63.29 0 0 0-4-7.59s4.73-5.82 8.49-9.56 10.69-1.24 10.69-1.24a17.6 17.6 0 0 1 3.78 1.76 4.24 4.24 0 0 1 1 2.45z" class="Aj"></path></clipPath><clipPath id="X" transform="translate(24.76 18.76)"><path d="M122.53 149s-3.16-7.43-8.79-7.65-16.26-9.44-16.74-11.77c-.34-1.51.44-1.34 1-1.2.29.07.5.14.43-.08a1.16 1.16 0 0 1 .79-1.44 1.26 1.26 0 0 1 .27 0c.78 0 2.53 2.65 2.53 2.65l-.88-4.78c.01-.29 2.07.07 2.26 2.47a3.73 3.73 0 0 0 1.9 3.17c1-.78 1.24.3 3.15 2.31a6.81 6.81 0 0 0 5.6 1.87c0-.34-4.07-4.1-5.14-5.21s-.3-4.13 1.8-2.09a61.36 61.36 0 0 0 7.77 5.42c3.4.69 6.89 5.73 8.81 9h0s6.85 7.52 10.92 11.26 8.29 6.92 8.29 6.92l3.07-21.52 15.43 8.13s-2.42 24.93-11.41 30a4.61 4.61 0 0 1-3.07.46c-10.16-1.61-27.99-27.92-27.99-27.92z" class="Aj"></path></clipPath><clipPath id="Y" transform="translate(24.76 18.76)"><path d="M235.52 183.07c-6.55 7.2-27.18-3-35.16-9.54 0 0-10.21-3.59-10.66-5.81s.66-2.45.66-2.45-.94-1.77-.3-2.78c0 0-.68-2.41.09-2.93 0 0-.63-3 3.81-3.3 0 0-.5 1.85.45 2.49s5.45 1.43 5.45.35-2.83-3.67-1.6-5.45 2 2.37 4.25 3.91a9.13 9.13 0 0 1 4.2 8.38s0 2.64 11.15 3.23c5.88.31 12 .48 15.14 3.17 2.77 2.38 5.61 7.33 2.52 10.73z" class="Aj"></path></clipPath><clipPath id="Z" transform="translate(24.76 18.76)"><circle cx="501.72" cy="127.93" r="51.97" class="Aj"></circle></clipPath><clipPath id="a" transform="translate(24.76 18.76)"><circle cx="501.72" cy="331.52" r="51.97" class="Aj"></circle></clipPath><clipPath id="b" transform="translate(24.76 18.76)"><path d="M503.87 319.51a12.14 12.14 0 0 1 .1-5.43c4-.78 3.36-4.74 1.89-5s-2.29 1.89-2.29 1.89c-.14-3.94-3.49-.25-6.37-6.2s-7.86-2.38-8.42-.62-4.44 20 6.63 20.06c0 0 .43 3.52 0 4.9-.08.24-.06.54-.14.79-.29 1 0 2.13-.34 3.05-1.25 3.28-5.63 11.36.23 14.1s14.42-6.88 12.64-12.85-3.3-11.67-3.93-14.69z" class="Aj"></path></clipPath><clipPath id="c" transform="translate(24.76 18.76)"><path d="M456.73 404.82s-.94 2.21-5.49 3-11.61 4.17-15.89 3.69a2.22 2.22 0 0 0 2.26 2.18h.19l8.52-.3s-.69 2 2.12 2 5.13-1.26 7.73-1.26 4.81-.33 5.45-2.56 4.08-4.57 4.08-4.57l-8.32-3z" class="Aj"></path></clipPath><clipPath id="d" transform="translate(24.76 18.76)"><path d="M546.08 404.82s.95 2.21 5.49 3 11.62 4.17 15.9 3.69a2.23 2.23 0 0 1-2.26 2.18h-.19c-2.45 0-8.52-.3-8.52-.3s.68 2-2.12 2-5.13-1.26-7.73-1.26-4.82-.33-5.46-2.56-4.07-4.57-4.07-4.57l8.32-2.92z" class="Aj"></path></clipPath><clipPath id="e" transform="translate(24.76 18.76)"><path d="M524.1 369.49a41.41 41.41 0 0 1-1.92 6.06 15.66 15.66 0 0 0-2 6.72c-.82 4.27 4 10 5.78 18.1s-1.09 6.42-1.09 6.42h-23.39l-27.94 1.86a90.64 90.64 0 0 1 5.28-13c2.8-5.24 3.87-6.93 3.87-13.36a37.7 37.7 0 0 0-1.95-8.45 25.6 25.6 0 0 1-1-6.21c-.93 18.82-12.94 41-12.94 41l-9.72-4.27c1.64-4.33 6.38-20 10.24-47.24 1.2-8.47 2.28-16.94 7.73-21.53s11.84-4.59 20.61-5c.69 0 4.11 4.81 4.11 4.81l1.5-4.19v-.68H505s16.4.25 21.65 5.06c5 4.58 7.55 12.66 8.81 21.53 3.87 27.28 8.6 42.91 10.24 47.24l-9.7 4.29s-10.52-19.27-11.9-39.16z" class="Aj"></path></clipPath><clipPath id="f" transform="translate(24.76 18.76)"><path d="M507.1,462.85v17.59c0,3.7,1,16.42-2.53,17.55s-8.24-.58-6.54-11.58,2.4-25.9,2.4-25.9Z" class="Aj"></path></clipPath><clipPath id="g" transform="translate(24.76 18.76)"><path d="M488.89,475.3s1.76,10,1.76,13-1.76,15,5.89,14.43,1.69-30,1.69-30Z" class="Aj"></path></clipPath></defs><g class="B"><rect x="350.01" y="583.21" width="219.23" height="24.08" rx="8.84" class="Ar"></rect><path d="M391.59 510.17s1.7 54.08-10.87 73l157.59.13s-10.68-16.38-10.68-76.34-136.04 3.21-136.04 3.21z" class="Aw"></path><g clip-path="url(#A)" class="Ar"><path d="M538.31 509.21l-162.16 26.78v-43.23z"></path></g><rect x="115.53" y="34.16" width="689" height="476.01" rx="24.1" class="Aw"></rect><g clip-path="url(#B)"><g class="An G"><path class="As" d="M99.641 580.62l195.388-289.674 121.628 82.039L221.27 662.659z"></path><path class="As" d="M143.707 546.169l147.101-218.087 91.642 61.813-147.101 218.087zM581.76 560.88L728.5 343.39l91.26 61.54-146.74 217.5z"></path><path class="As" d="M614.88 534.98l110.19-163.49 68.6 46.3-110.19 163.49z"></path></g><path d="M115.53 34.16h689v410.99h-689z" class="Ar"></path><path d="M145.24 62.25h629.57v355.6H145.24z" fill="#cae9ff"></path></g><image class="I At" width="358" height="374" transform="translate(54.66 54.33)"></image><path d="M79.92 95.54a16.13 16.13 0 0 1 16.13-16.13h265.38c8.908 0 16.13 7.222 16.13 16.13v237.52c0 8.908-7.222 16.13-16.13 16.13h-26.55a16.11 16.11 0 0 0-10.33 3.74l-47.61 39.69v-27.3c0-8.908-7.222-16.13-16.13-16.13H96.05a16.13 16.13 0 0 1-16.13-16.13z" class="An"></path><g clip-path="url(#C)"><circle cx="228.01" cy="145.39" r="42.52" class="Au"></circle><path d="M258.02 165.69s9.52 24 9.59 31.83c0 1.08-3.84.68-3.95 1.65l-13.59-3.06-4.84-29.42 8.31-2.57z" class="Ak"></path><g clip-path="url(#D)" class="Am"><path d="M253.55 166.15s-.61 12.14 2.34 17.89c.92 1.79 4.46 2.34 6.31 3.39a13.48 13.48 0 0 1 5.41 6l-17.35-6z"></path></g><path d="M196.65 162.48l13.12 6.9a30.39 30.39 0 0 1 .9 12.26c-1.17 4.94-10.39 10.72-8.51 16.75 0 0 11.31-3.85 19.46 0s16.86 12 24.72 10.17c0 0-3.34-31.38-.61-40.34l12.29-2.53s-5-15-16.53-18.43a47.07 47.07 0 0 0-14.64-1.9c-23.43-.41-30.2 17.12-30.2 17.12z" fill="#ff9378"></path><g clip-path="url(#E)"><path d="M209.76 169.38s2.64 11.76 9.83 12.74 9.68-3.23 9.68-3.23 3.46 5.82 8.86 5.19c0 0-.63 7.74-5.68 4.91s-10.2-1.17-8.51 1.69 2.32 8.94 14.67 12.91 17.8-2.69 17.8-2.69l-8.65 11.66-48.41-9-2.17-15.1z" fill="#df775d"></path></g><path d="M245.23 163.05l1.36 6.2" class="Aj Al Ao Ax"></path><path d="M239.23 125.57s6.1 14.91-3 16.24c0 0-4.78 2.34-4.33 2.71a55.41 55.41 0 0 0 5.49 1.72 10.71 10.71 0 0 1-10.29 6.26 9.59 9.59 0 0 1-9.12-6.57l2.37-.31c2-.23 3.33-.43 3.33-1.1a19.6 19.6 0 0 0-.8-7.34 50.49 50.49 0 0 0-3.29-6.21c0 0 3.87-4.76 6.94-7.82s8.75-1 8.75-1a14.31 14.31 0 0 1 3.09 1.46 3.42 3.42 0 0 1 .86 1.96z" class="Ak"></path><g clip-path="url(#F)" class="Am"><path d="M231.12 141.66a9.22 9.22 0 0 1-4-2.49s1 5.53 4.64 5.28-.64-2.79-.64-2.79z"></path></g><path d="M237.27 124.05a14.15 14.15 0 0 1-12.9 6.7s-1.83-1-2.22.33.36 2 1.76 2.49l-.15 10.94h-3.41a13.23 13.23 0 0 1-3.54-.51l.53-2.7-2.18 2a79.47 79.47 0 0 1-7.4-3.94 26.4 26.4 0 0 0 7.41-9.17c2.09-5.1 5-14.2 12.71-14.94s12.5 3.38 13.52 9.75 2.05 18.76 5.23 19.3l-8.3.18c-.64 0-1.15-2.37-1.15-2.37l-1.17 2.49-4.11-.09-.75-2.85s8.31.18 8-13.76a6.66 6.66 0 0 1-1.53-1.89 4.52 4.52 0 0 1-.35-1.96z" class="Ay"></path><path d="M175.05 171.46s-2.59-6.08-7.2-6.26-13.3-7.76-13.72-9.67c-.28-1.23.35-1.09.79-1 .23.07.41.12.35-.06a.94.94 0 0 1 .64-1.17.62.62 0 0 1 .23 0c.63 0 2.07 2.16 2.07 2.16s-.73-3.66-.72-3.91 1.69.06 1.84 2a3.05 3.05 0 0 0 1.57 2.59c.85-.64 1 .25 2.57 1.89a5.54 5.54 0 0 0 4.58 1.53c0-.27-3.33-3.35-4.2-4.26s-.25-3.38 1.47-1.71a49.86 49.86 0 0 0 6.36 4.43c2.78.56 5.64 4.69 7.21 7.33h0s5.59 6.15 8.93 9.21 6.78 5.66 6.78 5.66l2.51-17.61 12.65 6.74s-2 20.4-9.33 24.53a3.84 3.84 0 0 1-2.51.38c-8.28-1.3-22.87-22.8-22.87-22.8z" class="Ak"></path><g clip-path="url(#G)" class="Am"><path d="M169.94 165.76s3.26 0 7.59 5.91 14.33 24.93 26.17 20-4.58 7.11-4.58 7.11l-23.67-10.68zm27.24 17.7l3.39-21.31-5.21-3.39-1.6 20.55z"></path></g><g class="Aj Al Ap BG"><path d="M173.37 162.28c-2.93-2.24-3.8-1-7.13-1.52s-3.51-3.52-4.24-4.35-1-.39-1-.39-1 2.45 3.4 6.85"></path><path d="M155.21 154.61l6.89 5.61"></path><path d="M157.93 154.96l1.44 1.55a15.79 15.79 0 0 0 1.45 1.14"></path></g><path d="M233.5 166.03h20.05v34.87H233.5z" fill="#230d99"></path><path d="M234.54 167.67h18v31.59h-18z" stroke="#fff" class="Aj Al Ax"></path><path d="M267.5 199.3c-5.36 5.9-22.24-2.43-28.77-7.8 0 0-8.35-2.94-8.72-4.75s.54-2 .54-2-.77-1.45-.25-2.28c0 0-.55-2 .07-2.39 0 0-.51-2.44 3.13-2.71 0 0-.41 1.52.37 2s4.45 1.18 4.45.3-2.31-3-1.3-4.47 1.63 1.94 3.47 3.2a7.47 7.47 0 0 1 3.43 6.86s0 2.16 9.13 2.64c4.82.25 9.83.4 12.39 2.6 2.32 1.97 4.59 6.02 2.06 8.8z" class="Ak"></path><g clip-path="url(#H)" class="Am"><path d="M238.76 191.5s22.64 11.09 30.12 5.78-2.27 8.21-2.27 8.21l-30.19-8.21z"></path></g><g class="Aj Al"><path d="M209.76 169.38l.36-4.14" class="Ao Ax"></path><g class="Ap"><g class="BG"><path d="M178.92 165.33s5.17 5.87 7.64 8.2c6.75 6.36 11.17 8.42 12.57 13.9"></path><path d="M194.2 180.28a8.87 8.87 0 0 1 5.57 1.93m44.22 3.46a14.91 14.91 0 0 0 8.72 2.31c5.75 0 12.56.83 15.1 5.49"></path></g><g class="Ax"><path d="M230.37 180.07s.3.88 1.92 1.12m-1.99 1.27a3.8 3.8 0 0 0 2 1m-1.74 1.3a4 4 0 0 0 2 1"></path></g></g></g></g><path d="M126.84 279.58h205.23M126.84 308.9h162.75" stroke="#8cc6ff" stroke-width="4.4" class="Aj Al BH"></path><path d="M146.11 216.86l4 8a1.87 1.87 0 0 0 1.42 1l8.87 1.28a1.9 1.9 0 0 1 1.6 2.15 1.94 1.94 0 0 1-.55 1.08l-6.43 6.25a1.9 1.9 0 0 0-.54 1.68l1.51 8.82a1.9 1.9 0 0 1-2.73 2l-7.91-4.17a1.89 1.89 0 0 0-1.76 0l-7.92 4.17a1.89 1.89 0 0 1-2.56-.79 1.94 1.94 0 0 1-.19-1.21l1.48-8.81a1.86 1.86 0 0 0-.54-1.67l-6.4-6.27a1.9 1.9 0 0 1 1-3.23l8.86-1.28a1.9 1.9 0 0 0 1.41-1l4-8a1.89 1.89 0 0 1 2.53-.86 1.8 1.8 0 0 1 .85.86zm42.52 0l4 8a1.87 1.87 0 0 0 1.42 1l8.87 1.28a1.9 1.9 0 0 1 1.6 2.15 1.94 1.94 0 0 1-.55 1.08l-6.43 6.25a1.9 1.9 0 0 0-.54 1.68l1.51 8.82a1.9 1.9 0 0 1-2.73 2l-7.91-4.17a1.89 1.89 0 0 0-1.76 0l-7.92 4.17a1.89 1.89 0 0 1-2.56-.79 1.94 1.94 0 0 1-.19-1.21l1.48-8.81a1.86 1.86 0 0 0-.54-1.67l-6.4-6.27a1.9 1.9 0 0 1 1.05-3.23l8.86-1.28a1.9 1.9 0 0 0 1.41-1l4-8a1.89 1.89 0 0 1 2.53-.86 1.84 1.84 0 0 1 .8.86zm42.52 0l4 8a1.87 1.87 0 0 0 1.42 1l8.87 1.28a1.9 1.9 0 0 1 1.6 2.15 1.94 1.94 0 0 1-.55 1.08l-6.43 6.25a1.9 1.9 0 0 0-.54 1.68l1.51 8.82a1.9 1.9 0 0 1-2.73 2l-7.91-4.17a1.89 1.89 0 0 0-1.76 0l-7.92 4.17a1.89 1.89 0 0 1-2.56-.79 1.94 1.94 0 0 1-.19-1.21l1.48-8.81a1.86 1.86 0 0 0-.54-1.67l-6.4-6.27a1.9 1.9 0 0 1 1-3.23l8.86-1.28a1.9 1.9 0 0 0 1.41-1l4-8a1.89 1.89 0 0 1 2.53-.86 1.84 1.84 0 0 1 .85.86zm42.52 0l4 8a1.87 1.87 0 0 0 1.42 1l8.87 1.28a1.89 1.89 0 0 1 1 3.23l-6.42 6.25a1.9 1.9 0 0 0-.54 1.68l1.51 8.82a1.9 1.9 0 0 1-2.73 2l-7.91-4.17a1.89 1.89 0 0 0-1.76 0l-7.92 4.17a1.89 1.89 0 0 1-2.56-.79 1.94 1.94 0 0 1-.19-1.21l1.48-8.81a1.86 1.86 0 0 0-.54-1.67l-6.4-6.27a1.9 1.9 0 0 1 1.05-3.23l8.86-1.28a1.9 1.9 0 0 0 1.41-1l4-8a1.89 1.89 0 0 1 2.53-.86 1.84 1.84 0 0 1 .84.86z" class="Av"></path><path d="M316.19 216.86l4 8a1.87 1.87 0 0 0 1.42 1l8.86 1.28a1.89 1.89 0 0 1 1.05 3.23l-6.42 6.25a1.9 1.9 0 0 0-.54 1.68l1.51 8.82a1.9 1.9 0 0 1-2.73 2l-7.91-4.17a1.89 1.89 0 0 0-1.76 0l-7.91 4.24a1.89 1.89 0 0 1-2.56-.79 1.94 1.94 0 0 1-.19-1.21l1.48-8.81a1.88 1.88 0 0 0-.54-1.67l-6.4-6.27a1.9 1.9 0 0 1 1.05-3.23l8.86-1.28a1.9 1.9 0 0 0 1.41-1l4-8a1.89 1.89 0 0 1 2.53-.86 1.84 1.84 0 0 1 .79.79z" fill="#ffbb20"></path><image class="I At" width="502" height="207" transform="translate(363.66 54.33)"></image><rect x="398.81" y="79.41" width="441.33" height="146.62" rx="21.99" class="An"></rect><path d="M591.09 137.68l4 8a1.86 1.86 0 0 0 1.42 1l8.86 1.29a1.89 1.89 0 0 1 1.61 2.14 1.92 1.92 0 0 1-.56 1.09l-6.42 6.25a1.88 1.88 0 0 0-.54 1.67l1.51 8.83a1.9 1.9 0 0 1-1.56 2.18 2 2 0 0 1-1.17-.18l-7.91-4.17a1.89 1.89 0 0 0-1.76 0l-7.92 4.17a1.91 1.91 0 0 1-2.56-.79 2 2 0 0 1-.19-1.21l1.48-8.81a1.9 1.9 0 0 0-.54-1.68l-6.4-6.26a1.9 1.9 0 0 1 0-2.68 1.88 1.88 0 0 1 1.08-.55l8.86-1.29a1.88 1.88 0 0 0 1.41-1l4-8a1.89 1.89 0 0 1 2.53-.86 1.93 1.93 0 0 1 .77.86zm42.52 0l4 8a1.89 1.89 0 0 0 1.43 1l8.86 1.29a1.89 1.89 0 0 1 1.61 2.14 1.92 1.92 0 0 1-.56 1.09l-6.42 6.25a1.88 1.88 0 0 0-.54 1.67l1.51 8.83a1.9 1.9 0 0 1-1.56 2.18 2 2 0 0 1-1.17-.18l-7.91-4.17a1.89 1.89 0 0 0-1.76 0l-7.92 4.17a1.91 1.91 0 0 1-2.56-.79 2 2 0 0 1-.19-1.21l1.48-8.81a1.9 1.9 0 0 0-.54-1.68l-6.4-6.26a1.9 1.9 0 0 1 0-2.68 1.88 1.88 0 0 1 1.08-.55l8.86-1.29a1.88 1.88 0 0 0 1.41-1l4-8a1.89 1.89 0 0 1 2.53-.86 1.93 1.93 0 0 1 .76.86zm42.52 0l4 8a1.89 1.89 0 0 0 1.43 1l8.86 1.29a1.89 1.89 0 0 1 1 3.23l-6.42 6.25a1.88 1.88 0 0 0-.54 1.67l1.51 8.83a1.9 1.9 0 0 1-1.56 2.18 2 2 0 0 1-1.17-.18l-7.91-4.17a1.89 1.89 0 0 0-1.76 0l-7.92 4.17a1.91 1.91 0 0 1-2.56-.79 2 2 0 0 1-.19-1.21l1.48-8.81a1.9 1.9 0 0 0-.54-1.68l-6.4-6.26a1.9 1.9 0 0 1 0-2.68 1.93 1.93 0 0 1 1.09-.55l8.83-1.21a1.88 1.88 0 0 0 1.41-1l4-8a1.89 1.89 0 0 1 2.53-.86 1.93 1.93 0 0 1 .83.78zm42.52 0l4 8a1.89 1.89 0 0 0 1.43 1l8.86 1.29a1.89 1.89 0 0 1 1.6 2.14 1.84 1.84 0 0 1-.55 1.09l-6.42 6.25a1.88 1.88 0 0 0-.54 1.67l1.51 8.83a1.9 1.9 0 0 1-1.56 2.18 2 2 0 0 1-1.17-.18l-7.92-4.17a1.87 1.87 0 0 0-1.75 0l-7.92 4.17a1.91 1.91 0 0 1-2.56-.79 2 2 0 0 1-.19-1.21l1.48-8.81a1.9 1.9 0 0 0-.54-1.68l-6.4-6.26a1.89 1.89 0 0 1 1-3.23l8.86-1.29a1.88 1.88 0 0 0 1.41-1l4-8a1.89 1.89 0 0 1 2.53-.86 1.93 1.93 0 0 1 .84.86z" class="Av"></path><path d="M761.17 137.68l4 8a1.89 1.89 0 0 0 1.43 1l8.86 1.29a1.9 1.9 0 0 1 1.05 3.23l-6.42 6.25a1.88 1.88 0 0 0-.54 1.67l1.51 8.83a1.9 1.9 0 0 1-1.56 2.18 2 2 0 0 1-1.17-.18l-7.92-4.17a1.87 1.87 0 0 0-1.75 0l-7.92 4.17a1.91 1.91 0 0 1-2.56-.79 2 2 0 0 1-.19-1.21l1.48-8.81a1.9 1.9 0 0 0-.54-1.68l-6.4-6.26a1.89 1.89 0 0 1 1-3.23l8.86-1.29a1.88 1.88 0 0 0 1.41-1l4-8a1.89 1.89 0 0 1 2.53-.86 1.93 1.93 0 0 1 .84.86z" class="Az"></path><g clip-path="url(#I)"><circle cx="485.31" cy="154.18" r="42.52" class="Au"></circle><path d="M460.91 271.38s-5.59 25.29-10 25.61a2.18 2.18 0 0 1-2.59-1.67 3.17 3.17 0 0 1 0-.53c-.14-2.63-5.72-32.49-3.61-33.43s10.94-.84 10.94-.84z" class="Aq"></path><g class="Ak"><path d="M464.39 258.08s-9.26 2.19-11.36 3.17-1.62 13.19 1.59 11.69 5.33 2.48 5.33 2.48 1.06-3.2 2.06-4.1 3.68-1.05 3.68-1.05zm63.37 70.5s-7.1-3.09-7.43-6-.26-7.71-.26-7.71l-13.29.13.33 11.26-.24 6.83 17.83-.16z"></path></g><path d="M523.36 325.53s-5 2.79-5.74 5.33-10.72-4.88-10.72-4.88-3.22 6.91-.3 8.78 23.14 11 28.48 11.16 6.79-8-1.53-13.84-10.19-6.55-10.19-6.55z" class="Aq"></path><path d="M498.24 268.89c-.06-.32-.56-.53-1.41-.69-16.75 2.59-31.25 3.73-31.25 3.73l-2.35-16.4 5.41-1.31c-7.46-13.51-.16-27.45-.16-27.45l20.93-4.79-.09-.2.55.1 5.38-1.24.35 2.32 19.2 3.61s33.14 5.88 32.09 22.45c-.37 5.84-10.58 10.41-23.65 13.88 3.11 11.45-.15 54.76-.15 54.76l-18.92-.56-5.93-48.21zm7.75-23.69l2-.5-6.15-3.49 4.12 4z" fill="#955454"></path><g class="Aj Al Ao BE"><path d="M468.64 268.6l-2-14.21 36.64-8.43a115.93 115.93 0 0 0 15.34-5.11m-4.52 1.34l3.18-4.89m-13.67 75.95l19.5.36m-20.13-45.77l-4.86.86 5.84 4.68m-7.52-40.76l5.26 8.63s1-1.25-.11-4.28a41.08 41.08 0 0 0-4.29-7.37m6.39 10.22a13 13 0 0 1 4.27-7.85"></path><path d="M465.55 271.99s20.2-1.7 30.1-3.09 27.91-5.08 27.91-5.08 24.9-6.21 23.23-17"></path></g><path d="M483.33 235.61s6.43.78 7.27 2.57a6.51 6.51 0 0 1 .41 3.7z" class="Am"></path><path d="M480.92 235.01a19.15 19.15 0 0 1 6.16 2.19c2.22 1.51 13.76 11.06 11.36 11.82-.75.24-2.51-.94-5.58-3.29-.82-.63-2.67-1.83-2.67-1.83s7.73 7.18 7.5 8.26-1.58.6-1.58.6a1.27 1.27 0 0 1-1.49 1h-.05c-1.23-.31-7.66-5.13-7.66-5.13a28.92 28.92 0 0 0 2 2.45c1.49 1.49 2.8 2 2 2.55-.64.46-7.32-4.27-8.3-5.16s-5.67-4.85-5.61-6.55l-2.1-2.16 5.28-5.32z" class="Ak"></path><g class="Aj Al Ap BE"><path d="M496.24 252.56l-7.77-6.8m-4.64-10.13a36.37 36.37 0 0 1 7.33 4.75"></path><path d="M490.54 243.86s4.39 2.9 4.87 3.67"></path></g><path d="M456.61 168.86c-6.72 12.61-12.08 43.69-9.15 50.61s24.5 23.88 24.5 23.88l10.07-10.17-4.18-5a106.24 106.24 0 0 1 20.77-1.42c11.22.4 13.94-.64 13.94-.64l-1-20.17s16.3 5.28 22.94-4.92-20.23-38.67-28.68-40.57c-10.22-2.27-42.48-4.23-49.21 8.4z" fill="#659cff"></path><g class="Aj Al Ao BE"><path d="M511.89 205.6l-14.8-5.78 1.57-12.19s6.12 2.26 8.6 2.24c7.1-.08 13.27-2.67 20.18-.07"></path><path d="M510.45 189.55l-.58-12m-36.6 64.71l8.63-8.75-4.14-5s-11.49-12.86-12.89-15.32 6.66-28.51 6.66-28.51"></path></g><path d="M498.19 189.2s-4.82-.44-5.68-1.17-2.67-3.22-1.72-7.33c0 0 .32-1.23-.56-1.16s-2.79.75-3 3.58.36 2.76-.88 2.89-6.66-1.18-7.15.2a2.77 2.77 0 0 0-.05 2.17 3.07 3.07 0 0 0-.6 3.11 3.33 3.33 0 0 0-.34 2.77c.61 1.23-.09 1.73.61 2.51s9.75 2.51 11.47 1.72c0 0 .8-.28.92-.63l5.7 1.34z" class="Ak"></path><path d="M489.06 186.23l-5.55-.58c-1.74-.11-3.85 0-3.85 0a2 2 0 0 0-.51 2.48 2.41 2.41 0 0 0-.6 2.94 2.7 2.7 0 0 0-.14 3.32 1.91 1.91 0 0 0 1 2.52 1.65 1.65 0 0 0 .36.11" stroke-width=".52" class="Aj Al Ap"></path><path d="M472.65 142.76l-1.35-5.72a17.73 17.73 0 0 1 .26-5.39s-2.89-4-2-6.49c2.43-6.74 8.88-6.4 20.71-1.09a3.77 3.77 0 0 1 2.37 4.34 5.82 5.82 0 0 1 4.44 4.15c1.15 3.69-1.49 11.28-2.95 13.87a31.23 31.23 0 0 1-3.7 5z" fill="#4c2603"></path><path d="M472.76 132.86a1 1 0 0 0-.18.54l-.38 10.61c.8 7.59 3.93 11.25 8.16 11l-.25 3.06a11 11 0 0 0-.21 2c.09 1.15.57 2.2.66 3.52.21 3 4.12 5.35 6.54 4.77 5.8-1.41 5.51-9.41 5.51-9.41s-.93-.58-1-3.94.33-11.14.33-11.14 1.29-.4 1.65-3-.59-3-1.6-3-2.15 2.24-2.4 4c-1.64.84-1-1.14-1-3.46s-2.63-2.34-3.08-3.8a11.39 11.39 0 0 1-.27-3.77 15.42 15.42 0 0 1-10.6-.67z" class="Ak"></path><path d="M480.04 158.6s2 5.54 5.25 8.73 7-8.93 7-8.93h0a3.18 3.18 0 0 1 2.56 2.68l.47 3.48c0 2.74-.59 8.32-.59 8.32s-3-6.35-5.37-5c-1.54.91-2.52 5.29-2.52 5.29a25.29 25.29 0 0 0-1.42-4.14 2.65 2.65 0 0 0-3-1.28c-1.25.14-2.43 2.36-3.28 4.73a21.48 21.48 0 0 1-1.31-7.14l.63-4.54a3 3 0 0 1 1.51-2.21z" class="An"></path></g><image class="I At" width="502" height="208" transform="translate(363.66 220.33)"></image><rect x="398.81" y="246" width="441.33" height="146.62" rx="21.99" class="An"></rect><g clip-path="url(#J)"><circle cx="485.31" cy="320.77" r="42.52" class="Au"></circle><path d="M478.76 322.02s-9.21 1.58-11.81-5.81 5.18-12.74 5.18-12.74-4.17-7.74 2.41-11.16c0 0 3.23-7 12.19-4.77s6.48 10.75 10.74 12 9.53 1.56 8.94 8c0 0 7.33 4.21 5.87 14.46s-18.48 8.54-18-.21c0 0-5.23 2.5-6.92-.75s-8.6.98-8.6.98z" class="Ay"></path><path d="M487.08 310.94a9.75 9.75 0 0 1 .08-4.43c3.31-.65 2.74-3.88 1.54-4.1s-1.87 1.54-1.87 1.54c-.11-3.21-2.86-.2-5.22-5.07s-6.43-1.94-6.88-.51-3.64 16.39 5.42 16.39a14.3 14.3 0 0 1 0 4c-.06.2-.05.44-.11.64-.24.79 0 1.75-.28 2.51-1 2.67-4.61 9.29.19 11.53s11.8-5.63 10.34-10.52-2.7-9.5-3.21-11.98z" class="Ak"></path><g clip-path="url(#K)" class="Am"><path d="M479.69 314.76s3.91.38 5.82-4.9c0 0 .44 9.31-5 10.47s-.82-5.57-.82-5.57z"></path></g><path d="M448.5 380.76s-.77 1.81-4.49 2.47-9.5 3.41-13 3a1.81 1.81 0 0 0 1.85 1.78h.15l7-.25s-.57 1.61 1.73 1.61 4.2-1 6.32-1 3.94-.26 4.46-2.09 3.34-3.74 3.34-3.74l-6.81-2.39z" class="Ak"></path><g clip-path="url(#L)" class="Am"><path d="M448.12 379.05l6 1.91 2.17 2.56-9.7-1.84z"></path></g><path d="M439.95 388.07s-.29-.86 2.87-1.11 4.38-1.52 4.38-1.52" class="Aj Al Ap BA"></path><path d="M521.61 380.76s.78 1.81 4.5 2.47 9.5 3.41 13 3a1.81 1.81 0 0 1-1.85 1.78h-.15c-2 0-7-.25-7-.25s.57 1.61-1.73 1.61-4.2-1-6.32-1-3.94-.26-4.46-2.09-3.34-3.74-3.34-3.74l6.81-2.39z" class="Ak"></path><g clip-path="url(#M)" class="Am"><path d="M521.9 379.88l-6.21 5.56-1.52-4.1z"></path></g><path d="M530.17 388.07s.29-.86-2.87-1.11-4.38-1.52-4.38-1.52" class="Aj Al Ap BA"></path><path d="M503.63 351.84a35.71 35.71 0 0 1-1.57 5 12.69 12.69 0 0 0-1.67 5.5c-.67 3.49 3.24 8.16 4.73 14.81s-.89 5.25-.89 5.25h-19.11l-22.86 1.52a74.32 74.32 0 0 1 4.32-10.64c2.29-4.29 3.17-5.67 3.17-10.94a31.09 31.09 0 0 0-1.6-6.91 20.83 20.83 0 0 1-.84-5.08c-.77 15.41-10.55 33.53-10.55 33.53l-7.95-3.5c1.33-3.53 5.21-16.33 8.38-38.65 1-6.93 1.86-13.85 6.32-17.61s9.69-3.76 16.86-4.09c.57 0 3.36 3.94 3.36 3.94l1.23-3.44v-.55h3.06s13.41.2 17.71 4.14c4.09 3.74 6.18 10.36 7.21 17.61 3.16 22.32 7 35.11 8.38 38.66l-8 3.49s-8.56-15.77-9.69-32.04z" class="BB"></path><g clip-path="url(#N)" fill="#4bc5a9"><path d="M484.89 387.23h-8.39l-13.13-5.81s3.57-19.88 3.57-26.44a67.31 67.31 0 0 1 .59-7.23c.1-.56-.08-3.14.2-3.2.85-.17 0 6.59 4.33 8.48 8.42 3.66 12.23-4.91 13-6 .72 1.05 4.09 9.17 13.24 6.49 3.47-1 4.56-8.16 4.56-8.16l1.24 12.72c.63 6.85 2.87 12.27 2.91 17.27a8.11 8.11 0 0 0 .7-1.66 7.62 7.62 0 0 1 .71-1.66c0 2.64-3.49 8.67-3.49 8.67l-11.28 6.49zm-22.61-61.93s-2.88 16.12-3.69 25.06-5.24 25.84-8.83 36.4-9.8-5.95-9.8-5.95l16.76-56.28z"></path><path d="M502.12 335.01s4.83 36.5 15.57 47.82l-7.46 5.93-8.11-31 .74-10.12-.54-9.17z"></path></g><path d="M479.99 318.76a3.07 3.07 0 0 0-.74 2.65c.14 2 3.77 3.08 3.77 3.08h3.31l3.59-3.82a5.5 5.5 0 0 0-.6-2.55 10.31 10.31 0 0 1-1.15-2.33s-5.15 3.95-7 3.95-1.18-.98-1.18-.98z" class="Ak"></path><path d="M480.27 318.33s-6.45 8.12-5.9 9.75 8.78-3.33 8.78-3.33 6.51 4.8 8 4.8c.95 0 0-3.56-.79-9.35a9.26 9.26 0 0 0-.84-1.7c0 0-2.52 4.15-3.81 5a3.21 3.21 0 0 1-5-1.18 6.14 6.14 0 0 1-.44-3.99z" class="An"></path><g class="Aj Al Ao BA"><path d="M467.76 335.63s1.34 25.34-11.06 48.25m45.42-48.98s1.61 33.82 11.2 49"></path></g><path d="M458.49 386.98s2.51-16.93 17.52-9.6c0 0 8.16 6.13 15.88-.11s19.4-2.52 19.4 10.07c0 0-.3 3.85-5.31 3.66-8-.29-10-4.74-13.41-4.74-2.45 0-6.89 19.55-9 19.55-2.28 0-2.17-19.55-4-19.55-4.43 0-9 3.14-16.8 4.38-4.4.71-4.28-3.66-4.28-3.66z" fill="#dc5f58"></path><path d="M484.87 436.59a11.61 11.61 0 0 0-3.36 5.4c-.63 3-.76 8.27-1.47 12.41s.24 10.43 5.8 11.13 6.27-9.26 4.16-16.4a68.39 68.39 0 0 0-5.13-12.54z" class="Aq"></path><path d="M489.76 428.23v14.39c0 3 .82 13.44-2.07 14.36s-6.74-.47-5.36-9.47 2-21.19 2-21.19z" class="Ak"></path><g clip-path="url(#O)" class="Am"><path d="M491.1 433.97s-5.64 2.69-5.64 4.67-.37 17.63 4.36 14.38-1.54 8.79-1.54 8.79l-6.28-6.46.83-19 1.5-4.07z"></path></g><path d="M475.6 445.47s-1.76 17.48 1.53 22.66 8.66 4 9.5-1.63-3-23.39-3-23.39l-8 .8z" class="Aq"></path><path d="M474.82 438.42s1.44 8.17 1.44 10.63-1.44 12.24 4.82 11.8 1.38-24.52 1.38-24.52z" class="Ak"></path><g clip-path="url(#P)" class="Am"><path d="M482.64 437.28s-6.14 1.91-6.14 3.2 1.24 8.43 1.24 10.9-.49 9.8 6.6 6.32l-1.21 5.24-10.81-2.07.43-20.69 1.17-3.59z"></path></g><g fill="#ff6f66"><path d="M483.25 402.32s6.43-27.81 14-28.59 14.35 5 10.1 16.82l-15.59 44.43h-8.5l-1.15-31.92z"></path><path d="M467.3 374.51s-8.4 4.11-5.6 19 11.06 45.61 11.06 45.61l11.41-1.94s1.08-51.61-4.77-57.81-12.1-4.86-12.1-4.86z"></path></g><path d="M472.76 439.12l11.41-1.94s.86-46.52-2.62-53.66" class="Aj Al Ao BA"></path></g><path d="M591.09 304.27l4 8a1.86 1.86 0 0 0 1.42 1l8.86 1.29a1.89 1.89 0 0 1 1.61 2.14 2 2 0 0 1-.56 1.09l-6.42 6.25a1.88 1.88 0 0 0-.54 1.67l1.51 8.83a1.89 1.89 0 0 1-1.56 2.17 1.82 1.82 0 0 1-1.17-.18l-7.91-4.16a1.89 1.89 0 0 0-1.76 0l-7.92 4.16a1.9 1.9 0 0 1-2.56-.78 2 2 0 0 1-.19-1.21l1.48-8.81a1.9 1.9 0 0 0-.54-1.68l-6.4-6.26a1.9 1.9 0 0 1 0-2.68 1.88 1.88 0 0 1 1.08-.55l8.86-1.29a1.88 1.88 0 0 0 1.41-1l4-8a1.89 1.89 0 0 1 2.53-.86 1.93 1.93 0 0 1 .77.86zm42.52 0l4 8a1.89 1.89 0 0 0 1.43 1l8.86 1.29a1.89 1.89 0 0 1 1.61 2.14 2 2 0 0 1-.56 1.09l-6.42 6.25a1.88 1.88 0 0 0-.54 1.67l1.51 8.83a1.89 1.89 0 0 1-1.56 2.17 1.82 1.82 0 0 1-1.17-.18l-7.91-4.16a1.89 1.89 0 0 0-1.76 0l-7.92 4.16a1.9 1.9 0 0 1-2.56-.78 2 2 0 0 1-.19-1.21l1.48-8.81a1.9 1.9 0 0 0-.54-1.68l-6.4-6.26a1.9 1.9 0 0 1 0-2.68 1.88 1.88 0 0 1 1.08-.55l8.86-1.29a1.88 1.88 0 0 0 1.41-1l4-8a1.89 1.89 0 0 1 2.53-.86 1.93 1.93 0 0 1 .76.86zm42.52 0l4 8a1.89 1.89 0 0 0 1.43 1l8.86 1.29a1.9 1.9 0 0 1 1.61 2.14 2 2 0 0 1-.56 1.09l-6.42 6.25a1.88 1.88 0 0 0-.54 1.67l1.51 8.83a1.89 1.89 0 0 1-1.56 2.17 1.82 1.82 0 0 1-1.17-.18l-7.91-4.16a1.89 1.89 0 0 0-1.76 0l-7.92 4.16a1.89 1.89 0 0 1-2.56-.78 2 2 0 0 1-.19-1.21l1.48-8.81a1.9 1.9 0 0 0-.54-1.68l-6.4-6.26a1.9 1.9 0 0 1 0-2.68 1.93 1.93 0 0 1 1.09-.55l8.86-1.29a1.88 1.88 0 0 0 1.41-1l4-8a1.89 1.89 0 0 1 2.53-.86 1.93 1.93 0 0 1 .75.86z" class="Av"></path><path d="M718.65 304.27l4 8a1.89 1.89 0 0 0 1.43 1l8.86 1.29a1.9 1.9 0 0 1 1.05 3.23l-6.42 6.25a1.88 1.88 0 0 0-.54 1.67l1.51 8.83a1.89 1.89 0 0 1-1.56 2.17 1.82 1.82 0 0 1-1.17-.18l-7.92-4.16a1.87 1.87 0 0 0-1.75 0l-7.92 4.16a1.89 1.89 0 0 1-2.56-.78 2 2 0 0 1-.19-1.21l1.48-8.81a1.9 1.9 0 0 0-.54-1.68l-6.4-6.26a1.89 1.89 0 0 1 1-3.23l8.86-1.29a1.88 1.88 0 0 0 1.41-1l4-8a1.89 1.89 0 0 1 2.53-.86 1.93 1.93 0 0 1 .84.86zm42.52 0l4 8a1.89 1.89 0 0 0 1.43 1l8.86 1.29a1.89 1.89 0 0 1 1.6 2.14 1.93 1.93 0 0 1-.55 1.09l-6.42 6.25a1.88 1.88 0 0 0-.54 1.67l1.51 8.83a1.89 1.89 0 0 1-1.6 2.22 1.82 1.82 0 0 1-1.17-.18l-7.92-4.16a1.87 1.87 0 0 0-1.75 0l-7.92 4.16a1.89 1.89 0 0 1-2.56-.78 2 2 0 0 1-.19-1.21l1.48-8.81a1.9 1.9 0 0 0-.54-1.68l-6.4-6.26a1.89 1.89 0 0 1 1-3.23l8.86-1.29a1.88 1.88 0 0 0 1.41-1l4-8a1.89 1.89 0 0 1 2.53-.86 1.93 1.93 0 0 1 .88.81z" class="Az"></path><g clip-path="url(#Q)"><rect x="361.12" y="671.02" width="267.93" height="29.43" rx="10.8" class="Ar"></rect><path d="M411.94 581.76s2.08 66.1-13.29 89.27l192.6.16s-13.06-20-13.06-93.3-166.25 3.87-166.25 3.87z" class="Aw"></path><g clip-path="url(#R)" class="Ar"><path d="M591.25 580.58L393.06 613.3v-52.81z"></path></g><rect x="74.55" width="842.05" height="581.75" rx="29.45" class="Aw"></rect><g clip-path="url(#S)"><g class="An G"><path class="As" d="M55.133 667.859l238.792-354.024 148.646 100.263-238.792 354.024z"></path><path class="As" d="M108.992 625.753l179.781-266.536 111.995 75.541-179.781 266.536zM644.32 643.76l179.37-265.84 111.55 75.22-179.36 265.8z"></path><path class="As" d="M684.83 612.07l134.67-199.8 83.83 56.58-134.67 199.81z"></path></g><path d="M74.55 0H916.6v502.28H74.55z" class="Ar"></path><path d="M110.86 34.34h769.43v434.59H110.86z" fill="#cae9ff"></path></g><image class="I At" width="439" height="457" transform="translate(0 24.67)"></image><path d="M31.04 75.01A19.71 19.71 0 0 1 50.76 55.3h324.32c10.874.017 19.68 8.836 19.68 19.71V365.3a19.7 19.7 0 0 1-19.71 19.71h-32.43a19.74 19.74 0 0 0-12.62 4.57l-58.19 48.51v-33.33c0-10.886-8.824-19.71-19.71-19.71H50.76a19.7 19.7 0 0 1-19.72-19.75z" class="An"></path><g clip-path="url(#T)"><circle cx="212.02" cy="135.94" r="51.97" class="Au"></circle><path d="M248.69 160.76s11.63 29.31 11.72 38.91c0 1.32-4.69.82-4.82 2l-16.61-3.73-5.92-36 10.16-3.14z" class="Ak"></path><g clip-path="url(#U)" class="Am"><path d="M243.22 161.31s-.74 14.84 2.87 21.86c1.13 2.19 5.45 2.87 7.71 4.14a16.5 16.5 0 0 1 6.61 7.39l-21.2-7.38z"></path></g><path d="M173.69 156.82l16 8.43a37.38 37.38 0 0 1 1.1 15c-1.43 6-12.7 13.11-10.41 20.47 0 0 13.82-4.7 23.79 0s20.6 14.7 30.21 12.43c0 0-4.08-38.35-.75-49.3l15-3.09s-6.15-18.28-20.2-22.52a57.56 57.56 0 0 0-17.89-2.33c-28.58-.51-36.85 20.91-36.85 20.91z" fill="#ff9378"></path><g clip-path="url(#V)"><path d="M189.76 165.25s3.22 14.37 12 15.58 11.83-3.94 11.83-3.94 4.22 7.1 10.82 6.34c0 0-.76 9.45-6.94 6s-12.46-1.44-10.39 2.06 2.83 10.92 17.92 15.77 21.76-3.3 21.76-3.3l-10.6 14.26L177 207.08l-2.66-18.46z" fill="#df775d"></path></g><path d="M233.06 157.52l1.66 7.58" class="Aj Al Ao BC"></path><path d="M225.76 111.76s7.45 18.21-3.63 19.84c0 0-5.85 2.87-5.29 3.31a65.25 65.25 0 0 0 6.71 2.11 13.12 13.12 0 0 1-12.57 7.65 11.75 11.75 0 0 1-11.16-8l2.9-.39c2.45-.28 4.08-.51 4.08-1.34a24 24 0 0 0-1-9 63.29 63.29 0 0 0-4-7.59s4.73-5.82 8.49-9.56 10.69-1.24 10.69-1.24a17.6 17.6 0 0 1 3.78 1.76 4.24 4.24 0 0 1 1 2.45z" class="Ak"></path><g clip-path="url(#W)" class="Am"><path d="M215.81 131.38a11.36 11.36 0 0 1-4.84-3s1.27 6.76 5.68 6.45-.84-3.45-.84-3.45z"></path></g><path d="M223.33 109.86a17.24 17.24 0 0 1-15.77 8.18c0 0-2.23-1.24-2.71.41s.44 2.39 2.15 3l-.24 13.42s-1.57 0-4.16-.06a16.3 16.3 0 0 1-4.33-.62l.65-3.29-2.66 2.47a95.54 95.54 0 0 1-9.06-4.8 32.3 32.3 0 0 0 9-11.21c2.56-6.24 6.1-17.35 15.54-18.26s15.28 4.13 16.52 11.92 2.51 22.93 6.39 23.58l-10.13.23c-.79 0-1.42-2.91-1.42-2.91l-1.43 3-5-.1-.91-3.49s10.15.22 9.79-16.82a8.23 8.23 0 0 1-1.79-2.26 5.73 5.73 0 0 1-.43-2.39z" class="Ay"></path><path d="M147.29 167.76s-3.16-7.43-8.79-7.65-16.26-9.44-16.74-11.77c-.34-1.51.44-1.34 1-1.2.29.07.5.14.43-.08a1.16 1.16 0 0 1 .79-1.44 1.26 1.26 0 0 1 .27 0c.78 0 2.53 2.65 2.53 2.65l-.88-4.78c.01-.29 2.07.07 2.26 2.47a3.73 3.73 0 0 0 1.9 3.17c1-.78 1.24.3 3.15 2.31a6.81 6.81 0 0 0 5.6 1.87c0-.34-4.07-4.1-5.14-5.21s-.3-4.13 1.8-2.09a61.36 61.36 0 0 0 7.77 5.42c3.4.69 6.89 5.73 8.81 9h0s6.85 7.52 10.92 11.26 8.29 6.92 8.29 6.92l3.07-21.52 15.43 8.13s-2.42 24.93-11.41 30a4.61 4.61 0 0 1-3.07.46c-10.16-1.61-27.99-27.92-27.99-27.92z" class="Ak"></path><g clip-path="url(#X)" class="Am"><path d="M141.04 160.76s4 0 9.28 7.23 17.52 30.46 32 24.42-5.6 8.69-5.6 8.69l-28.96-13.04zm33.3 21.7l4.15-26-6.37-4.12-1.94 25.1z"></path></g><g class="Aj Al Ap BI"><path d="M145.23 156.58c-3.57-2.74-4.64-1.18-8.71-1.85s-4.28-4.31-5.18-5.32-1.18-.48-1.18-.48-1.23 3 4.16 8.37"></path><path d="M123.05 147.2l8.42 6.86"></path><path d="M126.37 147.63l1.76 1.9a19.66 19.66 0 0 0 1.77 1.39"></path></g><path d="M218.72 161.17h24.51v42.61h-24.51z" fill="#230d99"></path><path d="M219.99 163.17h22v38.6h-22z" stroke="#fff" class="Aj Al BC"></path><path d="M260.28 201.83c-6.55 7.2-27.18-3-35.16-9.54 0 0-10.21-3.59-10.66-5.81s.66-2.45.66-2.45-.94-1.77-.3-2.78c0 0-.68-2.41.09-2.93 0 0-.63-3 3.81-3.3 0 0-.5 1.85.45 2.49s5.45 1.43 5.45.35-2.83-3.67-1.6-5.45 2 2.37 4.25 3.91a9.13 9.13 0 0 1 4.2 8.38s0 2.64 11.15 3.23c5.88.31 12 .48 15.14 3.17 2.77 2.38 5.61 7.33 2.52 10.73z" class="Ak"></path><g clip-path="url(#Y)" class="Am"><path d="M225.13 192.29s27.67 13.55 36.82 7.06-2.78 10-2.78 10l-36.9-10z"></path></g><g class="Aj Al"><path d="M189.76 165.25l.44-5.05" class="Ao BC"></path><g class="Ap"><g class="BI"><path d="M152.02 160.31s6.32 7.17 9.34 10c8.24 7.77 13.65 10.29 15.36 17"></path><path d="M170.69 178.58a10.78 10.78 0 0 1 6.81 2.36m54.04 4.23a18.24 18.24 0 0 0 10.66 2.82c7 0 15.35 1 18.46 6.71"></path></g><g class="BC"><path d="M214.91 178.32s.35 1.07 2.33 1.37m-2.42 1.56a4.48 4.48 0 0 0 2.42 1.22m-2.11 1.56a4.89 4.89 0 0 0 2.51 1.24"></path></g></g></g></g><g stroke="#8cc6ff" stroke-width="5.38" class="Aj Al BH"><path d="M88.38 299.93h250.81M88.38 335.76h198.9"></path></g><g class="Av"><path d="M111.93 223.28l4.83 9.82a2.33 2.33 0 0 0 1.74 1.27l10.84 1.57a2.31 2.31 0 0 1 1.28 3.94l-7.86 7.64a2.36 2.36 0 0 0-.67 2.05l1.87 10.79a2.31 2.31 0 0 1-1.9 2.66 2.35 2.35 0 0 1-1.43-.22l-9.68-5.1a2.33 2.33 0 0 0-2.15 0l-9.67 5.06a2.33 2.33 0 0 1-3.13-1 2.27 2.27 0 0 1-.24-1.4l1.81-10.77a2.32 2.32 0 0 0-.66-2.05l-7.83-7.66a2.31 2.31 0 0 1 1.29-3.94l10.83-1.57a2.31 2.31 0 0 0 1.72-1.27l4.84-9.82a2.31 2.31 0 0 1 3.09-1.05 2.39 2.39 0 0 1 1.08 1.05zm51.96 0l4.85 9.82a2.3 2.3 0 0 0 1.74 1.27l10.83 1.57a2.3 2.3 0 0 1 1.28 3.94l-7.83 7.64a2.3 2.3 0 0 0-.67 2.05l1.85 10.79a2.31 2.31 0 0 1-3.33 2.44l-9.68-5.1a2.33 2.33 0 0 0-2.15 0l-9.68 5.1a2.31 2.31 0 0 1-3.12-1 2.34 2.34 0 0 1-.24-1.47l1.81-10.77a2.3 2.3 0 0 0-.66-2.05l-7.82-7.66a2.31 2.31 0 0 1 1.28-3.94l10.83-1.57a2.32 2.32 0 0 0 1.73-1.27l4.84-9.82a2.31 2.31 0 0 1 4.15 0zm51.97 0l4.84 9.82a2.33 2.33 0 0 0 1.74 1.27l10.84 1.57a2.31 2.31 0 0 1 1.28 3.94l-7.8 7.64a2.36 2.36 0 0 0-.67 2.05l1.85 10.79a2.31 2.31 0 0 1-1.9 2.66 2.35 2.35 0 0 1-1.43-.22l-9.68-5.1a2.33 2.33 0 0 0-2.15 0l-9.72 5.06a2.33 2.33 0 0 1-3.13-1 2.27 2.27 0 0 1-.23-1.47l1.81-10.77a2.32 2.32 0 0 0-.66-2.05l-7.83-7.66a2.31 2.31 0 0 1 1.29-3.94l10.83-1.57a2.31 2.31 0 0 0 1.72-1.27l4.85-9.82a2.31 2.31 0 0 1 3.09-1.05 2.39 2.39 0 0 1 1.06 1.12zm51.96 0l4.85 9.82a2.3 2.3 0 0 0 1.74 1.27l10.83 1.57a2.3 2.3 0 0 1 1.28 3.94l-7.84 7.64a2.3 2.3 0 0 0-.67 2.05l1.85 10.79a2.31 2.31 0 0 1-3.33 2.44l-9.68-5.1a2.33 2.33 0 0 0-2.15 0l-9.68 5.1a2.31 2.31 0 0 1-3.12-1 2.34 2.34 0 0 1-.24-1.47l1.81-10.77a2.3 2.3 0 0 0-.66-2.05l-7.82-7.66a2.31 2.31 0 0 1 1.28-3.94l10.83-1.57a2.32 2.32 0 0 0 1.73-1.27l4.84-9.82a2.31 2.31 0 0 1 4.15 0z"></path></g><path d="M319.76 223.28l4.84 9.82a2.33 2.33 0 0 0 1.74 1.27l10.84 1.57a2.31 2.31 0 0 1 1.28 3.94l-7.85 7.64a2.36 2.36 0 0 0-.67 2.05l1.85 10.79a2.31 2.31 0 0 1-1.9 2.66 2.35 2.35 0 0 1-1.43-.22l-9.68-5.1a2.33 2.33 0 0 0-2.15 0l-9.67 5.1a2.33 2.33 0 0 1-3.13-1 2.27 2.27 0 0 1-.23-1.47l1.81-10.77a2.32 2.32 0 0 0-.66-2.05l-7.83-7.66a2.31 2.31 0 0 1 1.29-3.94l10.83-1.57a2.31 2.31 0 0 0 1.72-1.27l4.85-9.82a2.31 2.31 0 0 1 3.09-1.05 2.39 2.39 0 0 1 1.06 1.08z" fill="#ffbb20"></path><image class="I At" width="615" height="254" transform="translate(377 24.67)"></image><rect x="420.76" y="55.3" width="539.36" height="179.19" rx="26.88" class="An"></rect><g class="Av"><path d="M655.76 126.52l4.85 9.82a2.28 2.28 0 0 0 1.74 1.26l10.83 1.58a2.31 2.31 0 0 1 1.29 3.94l-7.86 7.64a2.3 2.3 0 0 0-.67 2.05l1.82 10.78a2.31 2.31 0 0 1-1.91 2.66 2.26 2.26 0 0 1-1.42-.22l-9.67-5.09a2.33 2.33 0 0 0-2.15 0l-9.68 5.09a2.3 2.3 0 0 1-3.35-2.44l1.81-10.77a2.28 2.28 0 0 0-.67-2l-7.82-7.66a2.31 2.31 0 0 1 1.28-3.94l10.84-1.58a2.29 2.29 0 0 0 1.72-1.26l4.85-9.82a2.3 2.3 0 0 1 3.09-1.05 2.23 2.23 0 0 1 1.08 1.01zm52 0l4.84 9.82a2.3 2.3 0 0 0 1.74 1.26l10.84 1.58a2.3 2.3 0 0 1 2 2.62 2.33 2.33 0 0 1-.67 1.32l-7.94 7.64a2.32 2.32 0 0 0-.66 2.05l1.85 10.78a2.31 2.31 0 0 1-3.33 2.44l-9.67-5.09a2.33 2.33 0 0 0-2.15 0l-9.68 5.09a2.31 2.31 0 0 1-3.13-1 2.36 2.36 0 0 1-.23-1.48l1.81-10.77a2.31 2.31 0 0 0-.66-2l-7.83-7.66a2.31 2.31 0 0 1 1.29-3.94l10.83-1.58a2.31 2.31 0 0 0 1.73-1.26l4.84-9.82a2.31 2.31 0 0 1 4.15 0zm51.92 0l4.85 9.82a2.28 2.28 0 0 0 1.74 1.26l10.83 1.58a2.31 2.31 0 0 1 1.29 3.94l-7.85 7.64a2.3 2.3 0 0 0-.67 2.05l1.89 10.78a2.31 2.31 0 0 1-1.91 2.66 2.26 2.26 0 0 1-1.42-.22l-9.67-5.09a2.33 2.33 0 0 0-2.15 0l-9.68 5.09a2.3 2.3 0 0 1-3.35-2.44l1.81-10.77a2.28 2.28 0 0 0-.67-2l-7.82-7.66a2.31 2.31 0 0 1 1.28-3.94l10.84-1.58a2.29 2.29 0 0 0 1.72-1.26l4.85-9.82a2.3 2.3 0 0 1 3.09-1.05 2.23 2.23 0 0 1 1 1.01zm51.97 0l4.84 9.82a2.3 2.3 0 0 0 1.74 1.26l10.84 1.58a2.3 2.3 0 0 1 2 2.62 2.33 2.33 0 0 1-.67 1.32l-7.9 7.64a2.32 2.32 0 0 0-.66 2.05l1.84 10.78a2.31 2.31 0 0 1-3.33 2.44l-9.67-5.09a2.33 2.33 0 0 0-2.15 0l-9.68 5.09a2.31 2.31 0 0 1-3.13-1 2.36 2.36 0 0 1-.23-1.48l1.81-10.77a2.31 2.31 0 0 0-.66-2l-7.83-7.66a2.31 2.31 0 0 1 1.29-3.94l10.83-1.58a2.31 2.31 0 0 0 1.73-1.26l4.84-9.82a2.31 2.31 0 0 1 4.15 0z"></path></g><path d="M863.61 126.52l4.85 9.82a2.28 2.28 0 0 0 1.74 1.26l10.83 1.58a2.31 2.31 0 0 1 1.29 3.94l-7.85 7.64a2.3 2.3 0 0 0-.67 2.05l1.85 10.78a2.31 2.31 0 0 1-1.91 2.66 2.26 2.26 0 0 1-1.42-.22l-9.68-5.09a2.33 2.33 0 0 0-2.15 0l-9.68 5.09a2.3 2.3 0 0 1-3.35-2.44l1.81-10.77a2.28 2.28 0 0 0-.67-2l-7.84-7.7a2.31 2.31 0 0 1 1.28-3.94l10.84-1.58a2.29 2.29 0 0 0 1.72-1.26l4.85-9.82a2.3 2.3 0 0 1 3.09-1.05 2.23 2.23 0 0 1 1.07 1.05z" class="Az"></path><g clip-path="url(#Z)"><circle cx="526.48" cy="146.69" r="51.97" class="Au"></circle><path d="M496.65 289.91s-6.83 30.91-12.27 31.3a2.66 2.66 0 0 1-3.16-2 2.78 2.78 0 0 1-.06-.64c-.17-3.22-7-39.72-4.41-40.86s13.36-1 13.36-1z" class="Aq"></path><g class="Ak"><path d="M500.9 273.66s-11.32 2.68-13.88 3.88-2 16.11 1.95 14.28 6.51 3 6.51 3 1.3-3.92 2.51-5 4.5-1.29 4.5-1.29zm77.41 86.17s-8.68-3.79-9.09-7.29-.31-9.42-.31-9.42l-16.24.15.39 13.77-.29 8.34 21.79-.19z"></path></g><path d="M572.98 356.1s-6.09 3.41-7 6.51-13.1-6-13.1-6-3.93 8.44-.37 10.72 28.25 13.43 34.79 13.68 8.3-9.72-1.87-16.91-12.45-8-12.45-8z" class="Aq"></path><path d="M542.28 286.87c-.07-.39-.69-.64-1.73-.84-20.47 3.16-38.18 4.56-38.18 4.56l-2.88-20 6.61-1.61c-9.12-16.51-.2-33.55-.2-33.55l25.58-5.85-.1-.24.66.12 6.59-1.51.42 2.83 23.46 4.41s40.51 7.19 39.22 27.44c-.45 7.14-12.93 12.73-28.9 17 3.8 14-.19 66.93-.19 66.93l-23.11-.8-7.25-58.89zm9.47-29l2.48-.6-7.47-4.22 5 4.87z" fill="#955454"></path><g class="Aj Al Ao BF"><path d="M506.1 286.52l-2.41-17.37 44.79-10.31a140.52 140.52 0 0 0 18.74-6.24m-5.56 1.64l3.88-6m-16.7 92.85l23.82.43m-24.59-55.93l-5.94 1.06 7.13 5.71m-9.19-49.81l6.43 10.55s1.27-1.54-.13-5.24a51.62 51.62 0 0 0-5.24-9m7.8 12.49a15.89 15.89 0 0 1 5.23-9.6"></path><path d="M502.32 290.67s24.69-2.08 36.79-3.78 34.1-6.21 34.1-6.21 30.44-7.6 28.4-20.76"></path></g><path d="M524.05 246.2s7.86 1 8.88 3.14a7.87 7.87 0 0 1 .51 4.52z" class="Am"></path><path d="M521.11 245.47a23.39 23.39 0 0 1 7.52 2.67c2.72 1.85 16.82 13.52 13.89 14.45-.91.29-3.07-1.14-6.81-4-1-.78-3.28-2.24-3.28-2.24s9.45 8.78 9.18 10.09-1.94.74-1.94.74a1.55 1.55 0 0 1-1.82 1.23h-.09c-1.5-.39-9.36-6.28-9.36-6.28q1.13 1.56 2.4 3c1.83 1.81 3.42 2.39 2.42 3.12-.77.56-8.94-5.23-10.13-6.31s-6.94-5.93-6.87-8l-2.46-2.68 6.44-6.5z" class="Ak"></path><g class="Aj Al Ap BF"><path d="M539.83 266.92l-9.49-8.28m-5.68-12.42a44.77 44.77 0 0 1 9 5.82"></path><path d="M532.87 256.29s5.36 3.54 5.95 4.48"></path></g><path d="M491.4 164.62c-8.22 15.42-14.77 53.4-11.18 61.85s29.94 29.2 29.94 29.2l12.31-12.44-5.11-6.09a129.25 129.25 0 0 1 25.4-1.72c13.7.48 17-.79 17-.79l-1.17-24.64s19.92 6.45 28-6-24.73-47.26-35-49.58c-12.54-2.83-51.97-5.22-60.19 10.21z" fill="#659cff"></path><g class="Aj Al Ao BF"><path d="M558.95 209.53l-18.09-7.07 1.9-14.89s7.49 2.76 10.52 2.73c8.68-.1 16.21-3.26 24.67-.08"></path><path d="M557.2 189.91l-.71-14.7m-44.73 79.11l10.55-10.68-5.07-6.12s-14-15.71-15.75-18.72 8.14-34.84 8.14-34.84"></path></g><path d="M542.22 189.48s-5.89-.53-6.94-1.43-3.27-3.93-2.11-9c0 0 .39-1.51-.69-1.42s-3.4.92-3.62 4.38.43 3.38-1.08 3.53-8.14-1.43-8.74.25a3.36 3.36 0 0 0-.06 2.64 3.76 3.76 0 0 0-.73 3.81 4 4 0 0 0-.41 3.38c.74 1.5-.11 2.12.74 3.07s11.91 3.07 14 2.11c0 0 1-.35 1.12-.78l7 1.64z" class="Ak"></path><path d="M531.06 185.86l-6.78-.72c-2.13-.14-4.71 0-4.71 0a2.39 2.39 0 0 0-.62 3 2.92 2.92 0 0 0-.74 3.59 3.3 3.3 0 0 0-.17 4.06 2.35 2.35 0 0 0 1.25 3.08 2.25 2.25 0 0 0 .44.14" stroke-width=".64" class="Aj Al Ap"></path><path d="M511.01 132.76l-1.66-7a21.76 21.76 0 0 1 .32-6.59c0 0-3.53-4.9-2.44-7.93 3-8.24 10.86-7.82 25.31-1.33a4.61 4.61 0 0 1 2.9 5.31 7.11 7.11 0 0 1 5.44 5.06c1.4 4.51-1.83 13.79-3.61 17a38.3 38.3 0 0 1-4.53 6.14z" fill="#4c2603"></path><path d="M511.08 120.62a1.23 1.23 0 0 0-.21.66l-.46 13c1 9.28 4.8 13.75 10 13.47l-.31 3.73a14.32 14.32 0 0 0-.25 2.44c.12 1.41.69 2.7.81 4.3.26 3.72 5 6.54 8 5.83 7.09-1.71 6.74-11.5 6.74-11.5s-1.14-.7-1.19-4.81.41-13.62.41-13.62 1.57-.49 2-3.65-.73-3.7-2-3.69-2.63 2.73-2.94 4.89c-2 1-1.24-1.39-1.26-4.23s-3.22-2.86-3.77-4.65a13.73 13.73 0 0 1-.33-4.61 18.85 18.85 0 0 1-13-.82z" class="Ak"></path><path d="M520.03 152.08s2.47 6.77 6.42 10.67 8.51-10.91 8.51-10.91h0a3.88 3.88 0 0 1 3.12 3.27l.58 4.25c.05 3.36-.72 10.17-.72 10.17s-3.67-7.75-6.57-6c-1.88 1.11-3.07 6.46-3.07 6.46a31.1 31.1 0 0 0-1.75-5.05 3.21 3.21 0 0 0-3.61-1.57c-1.53.17-3 2.88-4 5.77a26.18 26.18 0 0 1-1.6-8.72l.77-5.55a3.66 3.66 0 0 1 1.85-2.7z" class="An"></path></g><image class="I At" width="615" height="254" transform="translate(377 227.67)"></image><rect x="420.76" y="258.9" width="539.36" height="179.19" rx="26.88" class="An"></rect><g clip-path="url(#a)"><circle cx="526.48" cy="350.28" r="51.97" class="Au"></circle><path d="M518.41 351.81s-11.25 1.95-14.43-7.05 6.33-15.58 6.33-15.58-5.09-9.46 2.95-13.64c0 0 3.94-8.51 14.9-5.82s7.92 13.13 13.13 14.64 11.64 1.9 10.92 9.72c0 0 9 5.15 7.18 17.67s-22.59 10.45-22-.25c0 0-6.39 3.05-8.45-.92s-10.53 1.23-10.53 1.23z" class="Ay"></path><path d="M528.63 338.27a12.14 12.14 0 0 1 .1-5.43c4-.78 3.36-4.74 1.89-5s-2.29 1.89-2.29 1.89c-.14-3.94-3.49-.25-6.37-6.2s-7.86-2.38-8.42-.62-4.44 20 6.63 20.06c0 0 .43 3.52 0 4.9-.08.24-.06.54-.14.79-.29 1 0 2.13-.34 3.05-1.25 3.28-5.63 11.36.23 14.1s14.42-6.88 12.64-12.85-3.3-11.67-3.93-14.69z" class="Ak"></path><g clip-path="url(#b)" class="Am"><path d="M519.61 342.97s4.77.46 7.11-6c0 0 .53 11.38-6.11 12.8s-1-6.8-1-6.8z"></path></g><path d="M481.49 423.58s-.94 2.21-5.49 3-11.61 4.17-15.89 3.69a2.22 2.22 0 0 0 2.26 2.18h.19l8.52-.3s-.69 2 2.12 2 5.13-1.26 7.73-1.26 4.81-.33 5.45-2.56 4.08-4.57 4.08-4.57l-8.32-3z" class="Ak"></path><g clip-path="url(#c)" class="Am"><path d="M481.02 421.51l7.39 2.32 2.65 3.13-11.85-2.2z"></path></g><path d="M471.04 432.53s-.36-1 3.51-1.35 5.35-1.87 5.35-1.87" class="Aj Al Ap BD"></path><path d="M570.84 423.58s.95 2.21 5.49 3 11.62 4.17 15.9 3.69a2.23 2.23 0 0 1-2.26 2.18h-.19c-2.45 0-8.52-.3-8.52-.3s.68 2-2.12 2-5.13-1.26-7.73-1.26-4.82-.33-5.46-2.56-4.07-4.57-4.07-4.57l8.32-2.92z" class="Ak"></path><g clip-path="url(#d)" class="Am"><path d="M571.19 422.52l-7.58 6.79-1.87-5z"></path></g><path d="M581.29 432.53s.36-1-3.5-1.35-5.36-1.87-5.36-1.87" class="Aj Al Ap BD"></path><path d="M548.86 388.25a41.41 41.41 0 0 1-1.92 6.06 15.66 15.66 0 0 0-2 6.72c-.82 4.27 4 10 5.78 18.1s-1.09 6.42-1.09 6.42h-23.39l-27.94 1.86a90.64 90.64 0 0 1 5.28-13c2.8-5.24 3.87-6.93 3.87-13.36a37.7 37.7 0 0 0-1.95-8.45 25.6 25.6 0 0 1-1-6.21c-.93 18.82-12.94 41-12.94 41l-9.72-4.27c1.64-4.33 6.38-20 10.24-47.24 1.2-8.47 2.28-16.94 7.73-21.53s11.84-4.59 20.61-5c.69 0 4.11 4.81 4.11 4.81l1.5-4.19v-.68h3.73s16.4.25 21.65 5.06c5 4.58 7.55 12.66 8.81 21.53 3.87 27.28 8.6 42.91 10.24 47.24l-9.7 4.29s-10.52-19.27-11.9-39.16z" class="BB"></path><g clip-path="url(#e)" fill="#4bc5a9"><path d="M525.96 431.5h-10.25l-16.05-7.1s4.37-24.3 4.37-32.32a79.21 79.21 0 0 1 .72-8.83c.11-.68-.1-3.84.24-3.91 1-.21 0 8.05 5.29 10.35 10.29 4.48 15-6 15.84-7.27.88 1.28 5 11.2 16.18 7.93 4.24-1.24 5.57-10 5.57-10l1.52 15.55c.77 8.37 3.51 15 3.55 21.11a9.83 9.83 0 0 0 .86-2 9.34 9.34 0 0 1 .87-2c0 3.22-4.26 10.59-4.26 10.59l-13.79 7.94zm-27.63-75.69s-3.52 19.71-4.52 30.63-6.39 31.58-10.81 44.48-12-7.27-12-7.27l20.48-68.79z"></path><path d="M547.02 367.68s5.9 44.61 19 58.45l-9.11 7.19L547 395.4l.91-12.37-.66-11.2z"></path></g><path d="M519.97 347.86s-1.08.85-.91 3.24 4.61 3.76 4.61 3.76h4l4.38-4.67s0-2.3-.73-3.12a12.93 12.93 0 0 1-1.4-2.84c0 0-6.3 4.82-8.49 4.82s-1.46-1.19-1.46-1.19z" class="Ak"></path><path d="M520.32 347.3s-7.89 9.92-7.22 11.91 10.73-4.07 10.73-4.07 8 5.87 9.82 5.87c1.16 0 0-4.35-1-11.43a11.37 11.37 0 0 0-1-2.07c0 0-3.08 5.06-4.66 6.12a3.93 3.93 0 0 1-6.05-1.45 7.42 7.42 0 0 1-.62-4.88z" class="An"></path><g class="Aj Al Ao BD"><path d="M505.01 368.44s1.63 31-13.52 59m55.53-59.89s2 41.32 13.69 59.85"></path></g><path d="M493.7 431.2s3.06-20.7 21.41-11.74c0 0 10 7.5 19.41-.13s23.7-3.08 23.7 12.31c0 0-.36 4.7-6.49 4.47-9.78-.36-12.25-5.79-16.39-5.79-3 0-8.41 23.89-10.95 23.89-2.79 0-2.65-23.89-4.88-23.89-5.42 0-10.94 3.83-20.53 5.35-5.43.86-5.28-4.47-5.28-4.47z" fill="#dc5f58"></path><path d="M525.93 491.83s-3.33 2.92-4.1 6.6-.93 10.1-1.8 15.17.3 12.74 7.1 13.59 7.65-11.32 5.07-20a82.6 82.6 0 0 0-6.27-15.36z" class="Aq"></path><path d="M531.86 481.61v17.59c0 3.7 1 16.42-2.53 17.55s-8.24-.58-6.54-11.58 2.4-25.9 2.4-25.9z" class="Ak"></path><g clip-path="url(#f)" class="Am"><path d="M533.54 488.63s-6.88 3.28-6.88 5.7-.45 21.55 5.33 17.57-1.89 10.75-1.89 10.75l-7.67-7.9 1-23.24 1.84-5z"></path></g><path d="M514.6 502.68s-2.14 21.36 1.87 27.69 10.59 4.84 11.61-2-3.69-28.61-3.69-28.61l-9.79 1z" class="Aq"></path><path d="M513.65 494.06s1.76 10 1.76 13-1.76 15 5.89 14.43 1.69-30 1.69-30z" class="Ak"></path><g clip-path="url(#g)" class="Am"><path d="M523.21 492.67s-7.51 2.33-7.51 3.91 1.53 10.31 1.53 13.32-.6 12 8 7.72l-1.47 6.41-13.22-2.54.53-25.28 1.44-4.38z"></path></g><g fill="#ff6f66"><path d="M523.95 449.95s7.86-34 17.13-34.95 17.54 6.16 12.34 20.55l-19.08 54.31h-10.39l-1.4-39z"></path><path d="M504.47 415.96s-10.28 5-6.85 23.18 13.5 55.78 13.5 55.78l13.95-2.37s1.32-63.08-5.84-70.66-14.76-5.93-14.76-5.93z"></path></g><path d="M511.12 494.92l13.95-2.37s1-56.85-3.2-65.59" class="Aj Al Ao BD"></path></g><g class="Av"><path d="M655.76 330.11l4.85 9.82a2.29 2.29 0 0 0 1.74 1.27l10.82 1.56a2.32 2.32 0 0 1 2 2.62 2.36 2.36 0 0 1-.67 1.33l-7.85 7.64a2.28 2.28 0 0 0-.67 2l1.78 10.84a2.31 2.31 0 0 1-3.33 2.44l-9.67-5.09a2.28 2.28 0 0 0-2.15 0l-9.68 5.09a2.3 2.3 0 0 1-3.35-2.44l1.81-10.77a2.31 2.31 0 0 0-.67-2.05l-7.8-7.61a2.32 2.32 0 0 1 1.28-3.95l10.84-1.57a2.33 2.33 0 0 0 1.72-1.27l4.85-9.82a2.31 2.31 0 0 1 4.14 0zm52 0l4.84 9.82a2.31 2.31 0 0 0 1.74 1.27l10.8 1.56a2.31 2.31 0 0 1 2 2.62 2.36 2.36 0 0 1-.67 1.33l-7.85 7.64a2.31 2.31 0 0 0-.66 2l1.8 10.84a2.31 2.31 0 0 1-1.9 2.66 2.35 2.35 0 0 1-1.43-.22l-9.67-5.09a2.28 2.28 0 0 0-2.15 0l-9.68 5.09a2.31 2.31 0 0 1-3.13-1 2.38 2.38 0 0 1-.23-1.48l1.81-10.77a2.33 2.33 0 0 0-.66-2.05l-7.84-7.57a2.32 2.32 0 0 1 1.29-3.95l10.83-1.57a2.34 2.34 0 0 0 1.73-1.27l4.84-9.82a2.32 2.32 0 0 1 3.1-1.05 2.42 2.42 0 0 1 1.09 1.01zm51.92 0l4.85 9.82a2.29 2.29 0 0 0 1.74 1.27l10.83 1.56a2.32 2.32 0 0 1 2 2.62 2.36 2.36 0 0 1-.67 1.33l-7.85 7.64a2.28 2.28 0 0 0-.67 2l1.85 10.84a2.31 2.31 0 0 1-3.33 2.44l-9.67-5.09a2.28 2.28 0 0 0-2.15 0l-9.68 5.09a2.3 2.3 0 0 1-3.35-2.44l1.81-10.77a2.31 2.31 0 0 0-.67-2.05l-7.87-7.61a2.32 2.32 0 0 1 1.28-3.95l10.84-1.57a2.33 2.33 0 0 0 1.72-1.27l4.85-9.82a2.31 2.31 0 0 1 4.14 0z"></path></g><g class="Az"><path d="M811.65 330.11l4.84 9.82a2.31 2.31 0 0 0 1.74 1.27l10.84 1.56a2.31 2.31 0 0 1 2 2.62 2.36 2.36 0 0 1-.67 1.33l-7.85 7.64a2.31 2.31 0 0 0-.66 2l1.84 10.79a2.31 2.31 0 0 1-1.9 2.66 2.35 2.35 0 0 1-1.43-.22l-9.67-5.09a2.28 2.28 0 0 0-2.15 0l-9.68 5.09a2.31 2.31 0 0 1-3.13-1 2.38 2.38 0 0 1-.23-1.48l1.81-10.77a2.33 2.33 0 0 0-.66-2.05l-7.88-7.52a2.32 2.32 0 0 1 1.29-3.95l10.83-1.57a2.34 2.34 0 0 0 1.73-1.27l4.84-9.82a2.32 2.32 0 0 1 3.1-1.05 2.42 2.42 0 0 1 1.05 1.01zm51.96 0l4.85 9.82a2.29 2.29 0 0 0 1.74 1.27l10.83 1.56a2.32 2.32 0 0 1 2 2.62 2.36 2.36 0 0 1-.67 1.33l-7.85 7.64a2.28 2.28 0 0 0-.67 2l1.85 10.79a2.31 2.31 0 0 1-3.33 2.44l-9.68-5.09a2.28 2.28 0 0 0-2.15 0l-9.68 5.09a2.3 2.3 0 0 1-3.35-2.44l1.81-10.77a2.31 2.31 0 0 0-.67-2.05l-7.88-7.56a2.32 2.32 0 0 1 1.3-4l10.84-1.57a2.33 2.33 0 0 0 1.72-1.27l4.85-9.82a2.31 2.31 0 0 1 4.14 0z"></path></g></g><path d="M109.94 452.83l33.64 22.68 92.34-139.4-33.65-22.67-92.33 139.39z" fill="#e1e1e1"></path><path d="M234.54 338.2l-74 38.26 40.36-60.93s17.55 14.57 33.64 22.67z" opacity=".18"></path><ellipse cx="278.33" cy="169.74" rx="157.21" ry="158.6" transform="matrix(.910395 -.41374 .41374 .910395 -20.53 149.13)" fill="#f2f2f2" opacity=".51"></ellipse><path d="M300.61 325.99a210 210 0 0 0 81.52-30.23c23.91-14.92 47.61-35 62.1-59.62a120.24 120.24 0 0 0 13.63-32.7 156.81 156.81 0 0 1-57.1 104.92c-50.8 41.21-119.57 45.19-173.88 15.51 23.97 5.55 49.63 5.59 73.73 2.12z" opacity=".18"></path><path d="M34.07 593.57l14.51 9.77a20.69 20.69 0 0 0 28.86-5.68l94.65-142.9a3.46 3.46 0 0 0-1-4.78l-43.5-29.31a3.4 3.4 0 0 0-4.74.94L28.23 564.5c-6.343 9.654-3.739 22.615 5.84 29.07z" class="BB"></path><path d="M105.5 445.52l49.21 33.16 3.92-5.93-49.2-33.15-3.93 5.92zm-9.11 14.42l49.21 33.15 3.92-5.92-49.2-33.16-3.93 5.93z" fill="#45aa92"></path><path d="M209.76 329.36c77.57 52.27 182.53 31.6 234-46.07s30.2-183.39-47.37-235.66-182.52-31.6-233.97 46.13-30.21 183.34 47.34 235.6zM387.9 60.47c70.5 47.5 89.81 143.58 43.05 214.18s-142.19 89.38-212.67 41.88-89.81-143.59-43-214.18S317.4 12.97 387.9 60.47z" fill="#607385"></path><path d="M231.16 71.76c18.07-14.52 41.79-21.86 64.88-22.13 19.92-.23 42.38 6.33 55.39 22.43 2 2.44.07 7.11-3.45 5.71-16.49-6.53-33-11.34-50.84-10.9-20.4.52-38.15 9.5-55.8 18.69-8.32 4.32-18.01-7.52-10.18-13.8z" opacity=".61" class="An"></path><path d="M368.67 330.7c78-35.47 112.4-128.36 76.62-207.09S316.92 9.7 238.88 45.17s-112.4 128.37-76.62 207.09 128.37 113.91 206.41 78.44zM240.12 47.88c76.55-34.79 167.38-.27 202.48 77s1.38 168.35-75.17 203.15-167.38.27-202.48-77-1.38-168.35 75.17-203.15z" class="BB"></path></g></svg>