<svg xmlns="http://www.w3.org/2000/svg" viewBox="0 0 400 280" fill="none">
  <ellipse cx="200" cy="250" rx="150" ry="18" fill="#446084" opacity="0.1"/>
  <circle cx="200" cy="130" r="90" fill="#e8f4fc" stroke="#a1bedb" stroke-width="2"/>
  <ellipse cx="200" cy="130" rx="90" ry="35" fill="none" stroke="#446084" stroke-width="1.5" opacity="0.4"/>
  <path d="M110 130h180M200 40v180" stroke="#446084" stroke-width="1.5" opacity="0.35"/>
  <path d="M130 80c20 25 40 35 70 35s50-10 70-35M130 180c20-25 40-35 70-35s50 10 70 35" stroke="#446084" stroke-width="1.5" opacity="0.35"/>
  <circle cx="260" cy="95" r="10" fill="#ff6f66"/>
  <circle cx="150" cy="155" r="8" fill="#446084" opacity="0.6"/>
  <circle cx="280" cy="160" r="7" fill="#446084" opacity="0.4"/>
  <rect x="155" y="210" width="90" height="45" rx="8" fill="#fff" stroke="#446084" stroke-width="2"/>
  <rect x="168" y="222" width="64" height="6" rx="3" fill="#446084" opacity="0.2"/>
  <rect x="168" y="235" width="45" height="6" rx="3" fill="#ff6f66" opacity="0.4"/>
</svg>
