<svg xmlns="http://www.w3.org/2000/svg" viewBox="0 0 480 400" fill="none">
  <ellipse cx="240" cy="360" rx="180" ry="24" fill="#446084" opacity="0.12"/>
  <rect x="120" y="200" width="240" height="140" rx="16" fill="#fff" stroke="#a1bedb" stroke-width="2"/>
  <rect x="140" y="220" width="200" height="100" rx="8" fill="#e8f4fc"/>
  <rect x="160" y="240" width="80" height="8" rx="4" fill="#446084" opacity="0.35"/>
  <rect x="160" y="258" width="120" height="8" rx="4" fill="#ff6f66" opacity="0.45"/>
  <rect x="160" y="276" width="100" height="8" rx="4" fill="#446084" opacity="0.25"/>
  <circle cx="340" cy="250" r="28" fill="#ff6f66" opacity="0.15"/>
  <path d="M340 232v36M322 250h36" stroke="#ff6f66" stroke-width="3" stroke-linecap="round"/>
  <path d="M200 80L80 140v120l120 60 120-60V140L200 80z" fill="#446084" opacity="0.2" stroke="#446084" stroke-width="2.5"/>
  <path d="M200 80v180M80 140l120 60 120-60" stroke="#446084" stroke-width="2.5"/>
  <circle cx="320" cy="100" r="36" fill="#ff6f66" opacity="0.9"/>
  <path d="M308 100h24M320 88v24" stroke="#fff" stroke-width="3" stroke-linecap="round"/>
  <circle cx="100" cy="310" r="20" fill="#446084"/>
  <rect x="88" y="330" width="24" height="40" rx="8" fill="#446084"/>
  <circle cx="380" cy="300" r="18" fill="#ff6f66"/>
  <rect x="370" y="318" width="20" height="36" rx="6" fill="#ff6f66"/>
</svg>
