<svg xmlns="http://www.w3.org/2000/svg" viewBox="0 0 520 420" fill="none" role="img" aria-label="Online tutoring marketplace">
  <ellipse cx="260" cy="388" rx="200" ry="22" fill="#2d4a6e" opacity="0.1"/>
  <rect x="48" y="72" width="424" height="268" rx="24" fill="#eef4fa" stroke="#9bb8d9" stroke-width="2"/>
  <rect x="72" y="96" width="376" height="196" rx="16" fill="#fff" stroke="#2d4a6e" stroke-width="2"/>
  <circle cx="108" cy="128" r="7" fill="#e07a5f"/>
  <circle cx="128" cy="128" r="7" fill="#4a6fa5" opacity="0.45"/>
  <circle cx="148" cy="128" r="7" fill="#4a6fa5" opacity="0.45"/>
  <rect x="88" y="152" width="110" height="10" rx="5" fill="#2d4a6e" opacity="0.18"/>
  <rect x="88" y="172" width="160" height="10" rx="5" fill="#2d4a6e" opacity="0.12"/>
  <rect x="88" y="192" width="130" height="10" rx="5" fill="#e07a5f" opacity="0.35"/>
  <rect x="88" y="224" width="92" height="44" rx="10" fill="#eef4fa" stroke="#9bb8d9" stroke-width="1.5"/>
  <circle cx="112" cy="246" r="16" fill="#fff" stroke="#2d4a6e" stroke-width="1.5"/>
  <rect x="128" y="238" width="40" height="8" rx="4" fill="#2d4a6e" opacity="0.22"/>
  <rect x="128" y="252" width="28" height="8" rx="4" fill="#e07a5f" opacity="0.35"/>
  <path d="M300 118l92-46 68 34v112l-68 34-92-46V118z" fill="#2d4a6e" stroke="#1a2332" stroke-width="2"/>
  <path d="M300 118l92 46 76-38M392 164v80" stroke="#1a2332" stroke-width="2"/>
  <circle cx="392" cy="92" r="42" fill="#e07a5f"/>
  <path d="M376 92h32M392 76v32" stroke="#fff" stroke-width="3.5" stroke-linecap="round"/>
  <circle cx="420" cy="286" r="34" fill="#4a6fa5"/>
  <path d="M406 286l10 10 20-22" stroke="#fff" stroke-width="3.5" stroke-linecap="round" stroke-linejoin="round"/>
  <rect x="220" y="248" width="118" height="78" rx="12" fill="#fff" stroke="#9bb8d9" stroke-width="2"/>
  <rect x="236" y="268" width="86" height="10" rx="5" fill="#2d4a6e" opacity="0.2"/>
  <rect x="236" y="288" width="62" height="10" rx="5" fill="#e07a5f" opacity="0.35"/>
  <rect x="236" y="308" width="74" height="10" rx="5" fill="#2d4a6e" opacity="0.15"/>
</svg>
