<svg xmlns="http://www.w3.org/2000/svg" viewBox="0 0 599.28 636.97" xmlns:v="https://vecta.io/nano"><style><![CDATA[.x{fill:none}.y{stroke-miterlimit:10}.z{stroke-width:.5}.AA{fill:#ffd3c8}.AB{fill:#f1b2a2}.AC{stroke:#061537}.AD{fill:#061537}.AE{stroke-linecap:round}.AF{fill:#fff}.AG{stroke:#301913}]]></style><defs><clipPath id="A"><path d="M444.27,547.33H410.7V605.9H441s17.55-2.79,17.65-4.7l-21.57-7.9a5.43,5.43,0,0,1-3.38-6.49Z" class="x"/></clipPath><clipPath id="B"><path d="M328 553l-14.35-14.3-15.56 39.15a27.19 27.19 0 0 1-7.56 10.57l-15.3 13.12s10.22 4.53 18.51 2.37 25.38-15.1 25.38-15.1z" class="x"/></clipPath><clipPath id="C"><path d="M468.63,254.37s11.33,23.95,5.67,83.42S447,564.35,447,564.35H406.92s3-181.24.18-229.85c0,0-17,104.06-73.44,230.22l-41.64.17,68.69-287.38,74.36-41.71Z" class="x"/></clipPath><clipPath id="D"><path d="M486.56 167l-34.72 18.24s-5.48 19.37-2.39 32.42S477 246 472 262c0 0-29.93-10.19-51.52 0s-44.62 31.78-65.41 26.89c0 0 8.82-83 1.62-106.65l-32.54-6.7s13.32-39.54 43.75-48.77a124.47 124.47 0 0 1 38.7-5c62.04-1.11 79.96 45.23 79.96 45.23z" class="x"/></clipPath><clipPath id="E"><path d="M324.16,175.49s-25.19,63.4-25.39,84.17c0,2.84,10.16,1.78,10.45,4.35l36-8.08L358,178.14Z" class="x"/></clipPath><clipPath id="F"><path d="M299.06 264.36c14.2 15.6 58.86-6.44 76.12-20.63 0 0 22.1-7.8 23.08-12.55s-1.43-5.31-1.43-5.31 2.05-3.83.67-6c0 0 1.48-5.22-.19-6.34 0 0 1.36-6.44-8.26-7.15 0 0 1.08 4-1 5.39s-11.79 3.06-11.79.77 6.12-8 3.46-11.8-4.32 5.14-9.21 8.47-9.07 8.12-9.07 18.12c0 0 0 5.7-24.15 7-12.74.67-26 1-32.78 6.87-6 5.12-12.13 15.8-5.45 23.16z" class="x"/></clipPath><clipPath id="G"><path d="M437.8 69.43s16.12 39.41-7.88 42.92c0 0-12.65 6.23-11.45 7.16a144 144 0 0 0 14.53 4.55s-7.38 17.64-27.23 16.55-24.16-17.35-24.16-17.35l6.29-.83c5.31-.61 8.83-1.12 8.83-2.92a51.81 51.81 0 0 0-2.12-19.37 134.71 134.71 0 0 0-8.74-16.44s10.27-12.6 18.4-20.7 23.12-2.68 23.12-2.68a38 38 0 0 1 8.18 3.86 9.27 9.27 0 0 1 2.23 5.25z" class="x"/></clipPath><clipPath id="H"><path d="M543.72 190.76s6.84-16.12 19-16.54 35.28-20.53 36.38-25.58c.74-3.28-1-2.89-2.09-2.58-.62.16-1.09.3-.93-.17a2.51 2.51 0 0 0-1.7-3.12 3 3 0 0 0-.6-.1c-1.69.06-5.48 5.73-5.48 5.73l1.91-10.34c-.01-.64-4.47.16-4.88 5.35a8 8 0 0 1-4.14 6.86c-2.26-1.68-2.68.66-6.81 5s-12.1 4.79-12.13 4.05 8.82-8.87 11.13-11.28.67-8.91-3.9-4.5a131.6 131.6 0 0 1-16.86 11.74c-7.37 1.48-14.93 12.4-19.08 19.38v-.08s-14.82 16.27-23.61 24.35-18 15-18 15l-6.64-46.56-33.45 17.9s5.22 54 24.7 64.86a10 10 0 0 0 6.64 1c21.93-3.52 60.54-60.37 60.54-60.37z" class="x"/></clipPath><clipPath id="I"><path d="M133.7 578.14s3.94 5.41 2.71 23.7H52.07s1.15-9.51 10.26-11.85 36.67-18.32 40.14-15.93 31.23 4.08 31.23 4.08z" class="x"/></clipPath><clipPath id="J"><path d="M134.78 552.61s-2.17 16.17-1.08 25.52-21.94 10.44-21.94 10.44-5.33-9.39-12.21-12.92a20.83 20.83 0 0 0 4-4.86 127.62 127.62 0 0 0 4.87-26.21c1.36-8.05 26.36 8.03 26.36 8.03z" class="x"/></clipPath><clipPath id="K"><path d="M241.89,546s-1.59,29.69-.51,37.52-1.91,10.89-1.91,10.89l-31.1-5,3.78-8.86A49.74,49.74,0,0,0,215.33,566c0-6.23-1.87-29.1-1.87-29.1Z" class="x"/></clipPath><clipPath id="L"><path d="M241.34,587.6a32.67,32.67,0,0,0-28-3.69l-.63-4.32s-9.32,10.24-9.32,16.17,3.21,17,22,17a20.74,20.74,0,0,0,21.34-17l-5.33-13.21Z" class="x"/></clipPath><clipPath id="M"><path d="M142.17 265.45l-45.3 288.46 40.71 3.44s24.78-74.64 33.79-112.25 17.08-100 17.08-100 5.21 41.74 8.45 84.87 7.49 127.36 7.49 127.36H247V340.47s9-53.06-5.13-80.63-99.7 5.61-99.7 5.61z" class="x"/></clipPath><clipPath id="N"><path d="M68.77,155.06s-11.36-22.64-22.28-24.83a132.68,132.68,0,0,1-16.82-11.57c-4.55-4.35-6.17,2-3.87,4.41s11.13,10.39,11.11,11.11-8,.25-12.09-4-4.55-6.55-6.8-4.91a7.94,7.94,0,0,1-4.13-6.74c-.42-5.1-4.85-5.89-4.88-5.27s1.92,10.16,1.92,10.16-3.79-5.58-5.47-5.64a2.46,2.46,0,0,0-2.37,2.54,2.5,2.5,0,0,0,.09.61c.46,1.34-4.14-2.26-3,2.7s24.08,24.75,36.24,25.2,19,16.29,19,16.29Z" class="x"/></clipPath><clipPath id="O"><path d="M176.36,29.46A2.28,2.28,0,0,0,176,30.7V55c2.43,17.27,9.86,25.38,19.48,24.51l-.33,7s-.32,3.09-.68,5.14c-.48,2.7-2.68,4.75-2.36,7.74.51,4.85,9.66,9.63,12.35,10.43a10.63,10.63,0,0,0,4.95-.24c13.12-3.66,14.34-22.07,14.34-22.07s-2.15-1.24-2.52-8.91-.13-25.49-.13-25.49,2.91-1,3.53-7-1.61-6.88-3.9-6.78-4.73,5.27-5.14,9.36c-3.68,2-2.42-2.54-2.65-7.85s-6.19-5.13-7.32-8.43a25.83,25.83,0,0,1-.95-8.61,35.07,35.07,0,0,1-24.23-.68Z" class="x"/></clipPath><clipPath id="P"><path d="M194.59 89.68s-46.15 1.45-58.81 25.75L110 191.58a3.44 3.44 0 0 1-4.36 2.16 3.49 3.49 0 0 1-1.74-1.31l-31.8-46.38-21.69 23.39s37.68 69.41 57.4 71.37S141 218.27 141 218.27l-3.21 53s59.55 29 108.91 0l3.15-87.57 31-59.49s-12.11-20.49-53.63-32.1l-13.53 17.93-20.61-3.04z" class="x"/></clipPath><clipPath id="Q"><path d="M280.88 124.26S315.1 232.12 289 251.14s-85 31.25-85 31.25l-8-26.81 65.69-31.29-11.83-40.54z" class="x"/></clipPath><clipPath id="R"><path d="M198.05,260.48s-8.19,1.61-10.63,0-4.69-4.89-14.49-2.44-13.82,5-16.31,3.71c0,0-.86,3.57,2.06,3.67,0,0-17.26,2.83-17,4.67s15.56,1.09,15.56,1.09-18.49,4.05-17.28,7.29a3.12,3.12,0,0,0,3.39,1.78,5.74,5.74,0,0,0,5.49,3.12h5.6s-.5,3.53,5,3.6,28.69-.11,43.51-8.5Z" class="x"/></clipPath></defs><path d="M444.27,547.33H410.7V605.9H441s17.55-2.79,17.65-4.7l-21.57-7.9a5.43,5.43,0,0,1-3.38-6.49Z" class="AA"/><g clip-path="url(#A)" class="AB"><path d="M442.72,563.68l-34,12.94V556.14Z"/></g><path d="M409.77,595a93.73,93.73,0,0,0,12,5c9.64,2.53,16.39,2.19,20.14,1.14,7.89-2.22,5.33-5.64,10.74-3.63,16.79,6.26,23.3,7.8,21.8,15.26l-62.33-1a3.25,3.25,0,0,1-3.2-3.31.92.92,0,0,1,0-.16Z" class="AD"/><path d="M328 553l-14.35-14.3-15.56 39.15a27.19 27.19 0 0 1-7.56 10.57l-15.3 13.12s10.22 4.53 18.51 2.37 25.38-15.1 25.38-15.1z" class="AA"/><g clip-path="url(#B)" class="AB"><path d="M330.1,563.68l-34,12.94V556.14Z"/></g><path d="M323 576.62s-14.18 14.79-20.77 18.09c-.26.13-6.62 3.65-10.73 3.49a11.46 11.46 0 0 1-7.27-4c-9.13 4.74-17.29 3.58-19.73 18.56h21.2a27.12 27.12 0 0 0 19.3-8.04l3.81-3.85s10.62.27 10.62-3.88a197.58 197.58 0 0 1 3.57-20.37z" class="AD"/><path d="M468.63,254.37s11.33,23.95,5.67,83.42S447,564.35,447,564.35H406.92s3-181.24.18-229.85c0,0-17,104.06-73.44,230.22l-41.64.17,68.69-287.38,74.36-41.71Z" fill="#955454"/><g clip-path="url(#C)"><g fill="#7d4545"><path d="M424.54 259.32s28.87 6.06 28.87 46.14-18.71 266.87-18.71 266.87l34.07-6L500.51 264l-49.63-21.68zm-17.97 73.41a287 287 0 0 1-2.57 44.72c-3.32 24.88-69.14 199.17-69.14 199.17l-21.82-4.29z"/></g><path d="M404.25,290.31s-5.19,27.59-4.06,35a8.23,8.23,0,0,0,7.93,7.41" stroke="#7d4545" class="x y"/></g><path d="M486.56 167l-34.72 18.24s-5.48 19.37-2.39 32.42S477 246 472 262c0 0-29.93-10.19-51.52 0s-44.62 31.78-65.41 26.89c0 0 8.82-83 1.62-106.65l-32.54-6.7s13.32-39.54 43.75-48.77a124.47 124.47 0 0 1 38.7-5c62.04-1.11 79.96 45.23 79.96 45.23z" fill="#ffe39b"/><g clip-path="url(#D)"><path d="M451.84,185.25s-6.95,31.08-26,33.69-25.59-8.5-25.59-8.5-9.16,15.38-23.44,13.72c0,0,1.64,20.45,15,13s27-3.07,22.5,4.47-6.13,23.62-38.82,34.13-47.12-7.15-47.12-7.15l22.89,30.82L479.4,275.72l5.75-39.92Z" fill="#ffbb20"/><g class="x y z AG"><path d="M358 168.51l-3.61 16.4m97.45.34l-1-10.93"/></g></g><path d="M324.16,175.49s-25.19,63.4-25.39,84.17c0,2.84,10.16,1.78,10.45,4.35l36-8.08L358,178.14Z" class="AA"/><g clip-path="url(#E)" class="AB"><path d="M336,176.71s1.61,32.1-6.22,47.31c-2.44,4.73-11.8,6.23-16.69,9a35.51,35.51,0,0,0-14.31,16l45.91-16Z"/></g><path d="M335.99 176.4h53.06v92.19h-53.06z" fill="#230d99"/><path d="M338.65 180.74h47.65v83.51h-47.65z" stroke="#fff" class="x y z"/><path d="M299.06 264.36c14.2 15.6 58.86-6.44 76.12-20.63 0 0 22.1-7.8 23.08-12.55s-1.43-5.31-1.43-5.31 2.05-3.83.67-6c0 0 1.48-5.22-.19-6.34 0 0 1.36-6.44-8.26-7.15 0 0 1.08 4-1 5.39s-11.79 3.06-11.79.77 6.12-8 3.46-11.8-4.32 5.14-9.21 8.47-9.07 8.12-9.07 18.12c0 0 0 5.7-24.15 7-12.74.67-26 1-32.78 6.87-6 5.12-12.13 15.8-5.45 23.16z" class="AA"/><g clip-path="url(#F)" class="AB"><path d="M375.18,243.73S315.25,273.06,295.46,259s6,21.72,6,21.72L381.38,259Z"/></g><path d="M361.29 228.33s-7.86 6.1-23.08 6.1-33.24 2.19-40 14.52m99.1-35.44s-.73 2.32-5.05 3m5.24 3.34a9.78 9.78 0 0 1-5.24 2.65m4.57 3.37a10.78 10.78 0 0 1-5.47 2.68" stroke="#99776c" class="x y z"/><path d="M437.8 69.43s16.12 39.41-7.88 42.92c0 0-12.65 6.23-11.45 7.16a144 144 0 0 0 14.53 4.55s-7.38 17.64-27.23 16.55-24.16-17.35-24.16-17.35l6.29-.83c5.31-.61 8.83-1.12 8.83-2.92a51.81 51.81 0 0 0-2.12-19.37 134.71 134.71 0 0 0-8.74-16.44s10.27-12.6 18.4-20.7 23.12-2.68 23.12-2.68a38 38 0 0 1 8.18 3.86 9.27 9.27 0 0 1 2.23 5.25z" class="AA"/><g clip-path="url(#G)" class="AB"><path d="M416.31 112a24.57 24.57 0 0 1-10.48-6.58s2.75 14.62 12.29 14-1.81-7.42-1.81-7.42z"/></g><path d="M415 81a8.06 8.06 0 0 1 7.82 0m7.93-.28a6.72 6.72 0 0 1 5.4.89" class="x y z AC AE"/><path d="M432.6 65.41s-11.06 19.52-34.17 17.7c0 0-4.84-2.7-5.87.87s.95 5.17 4.64 6.58l-.47 28.94s-3.4 0-9-.12a36 36 0 0 1-9.4-1.34l1.45-7.17-5.78 5.35s-17.18-8.16-19.6-10.35c0 0 14.07-10.74 19.61-24.23s13.19-37.53 33.64-39.5 33.08 8.92 35.77 25.77 5.41 49.6 13.85 51l-22 .48c-1.7.1-3.05-6.28-3.05-6.28l-3.09 6.6-10.88-.23-2-7.56s22 .47 21.21-36.37a17.72 17.72 0 0 1-4.07-5 12 12 0 0 1-.79-5.14z" class="AD"/><path d="M428,84a5.36,5.36,0,0,0,.72,5.38c2,2.68,2,6-3.56,4.83" stroke="#9d3f28" class="x y z AE"/><circle cx="420.45" cy="85.3" r="1.08" class="AD"/><path d="M422,85a3.51,3.51,0,0,0-4.19.12" class="x y z AC"/><path d="M425.68 83.26a7.92 7.92 0 0 1-5.77 6.81 7.92 7.92 0 0 1-5.77-6.81h11.54M427 82h-14.13v.35a9.19 9.19 0 0 0 7 8.94 9.19 9.19 0 0 0 7-8.94zm14.93 1.26a5.85 5.85 0 1 1-11.55 0h11.55m1.26-1.26h-14.07v.35a7.24 7.24 0 1 0 14.07 0z" class="AF"/><circle cx="433.45" cy="85.3" r="1.08" class="AD"/><g class="x y z"><path d="M435,85a3.51,3.51,0,0,0-4.19.19" class="AC"/><g stroke="#fff"><path d="M413.13,82.57,398.19,82" class="AE"/><path d="M426.71,83.75h2.88"/></g></g><path d="M425.87 103.69c-2.89.25-6-3.77-6-3.77a28.24 28.24 0 0 0 6 1.33 12.75 12.75 0 0 0 4.52-1.33s-1.63 3.53-4.52 3.77z" stroke="#9d3f28" class="y z AF"/><path d="M543.72 190.76s6.84-16.12 19-16.54 35.28-20.53 36.38-25.58c.74-3.28-1-2.89-2.09-2.58-.62.16-1.09.3-.93-.17a2.51 2.51 0 0 0-1.7-3.12 3 3 0 0 0-.6-.1c-1.69.06-5.48 5.73-5.48 5.73l1.91-10.34c-.01-.64-4.47.16-4.88 5.35a8 8 0 0 1-4.14 6.86c-2.26-1.68-2.68.66-6.81 5s-12.1 4.79-12.13 4.05 8.82-8.87 11.13-11.28.67-8.91-3.9-4.5a131.6 131.6 0 0 1-16.86 11.74c-7.37 1.48-14.93 12.4-19.08 19.38v-.08s-14.82 16.27-23.61 24.35-18 15-18 15l-6.64-46.56-33.45 17.9s5.22 54 24.7 64.86a10 10 0 0 0 6.64 1c21.93-3.52 60.54-60.37 60.54-60.37z" class="AA"/><g clip-path="url(#H)" class="AB"><path d="M557.26 175.56s-8.64 0-20.09 15.65-37.93 65.92-69.28 52.85 12.11 18.8 12.11 18.8l62.64-28.28zm-72.11 46.93l-9-56.33 13.85-8.92 4.2 54.29z"/></g><g stroke="#99776c" class="x y z"><path d="M548.18 166.48c7.73-5.92 10.05-2.56 18.86-4s9.29-9.33 11.23-11.51 2.56-1 2.56-1 2.66 6.49-9 18.09m24.39-21.87L578 161"/><path d="M589 147.11l-3.8 4.13a44.35 44.35 0 0 1-3.83 3m-47.98 21.32s-32.95 33-41.47 38.33c0 0-10.26 10.17-9.91 17.42"/></g><path d="M133.7 578.14s3.94 5.41 2.71 23.7H52.07s1.15-9.51 10.26-11.85 36.67-18.32 40.14-15.93 31.23 4.08 31.23 4.08z" fill="#2a3756"/><g clip-path="url(#I)"><path d="M139.69,599.28H44.08l3.26,7H143Z" fill="#fff9f9"/></g><path d="M134.78 552.61s-2.17 16.17-1.08 25.52-21.94 10.44-21.94 10.44-5.33-9.39-12.21-12.92a20.83 20.83 0 0 0 4-4.86 127.62 127.62 0 0 0 4.87-26.21c1.36-8.05 26.36 8.03 26.36 8.03z" class="AA"/><g clip-path="url(#J)" class="AB"><path d="M106.16,555.29l29.62,13.28,2-17.26Z"/></g><path d="M241.89,546s-1.59,29.69-.51,37.52-1.91,10.89-1.91,10.89l-31.1-5,3.78-8.86A49.74,49.74,0,0,0,215.33,566c0-6.23-1.87-29.1-1.87-29.1Z" class="AA"/><g clip-path="url(#K)" class="AB"><path d="M211.8,559.59l44.77,22.06-11.42-30.43Z"/></g><path d="M241.34,587.6a32.67,32.67,0,0,0-28-3.69l-.63-4.32s-9.32,10.24-9.32,16.17,3.21,17,22,17a20.74,20.74,0,0,0,21.34-17l-5.33-13.21Z" fill="#2a3756"/><g clip-path="url(#L)"><path d="M246.67,590.71s-4,17.28-18.26,18.35-23.86-4-25.94-20.23-6.77,14.59-6.77,14.59L221.18,637l34.47-24.19Z" fill="#fff9f9"/></g><path d="M142.17 265.45l-45.3 288.46 40.71 3.44s24.78-74.64 33.79-112.25 17.08-100 17.08-100 5.21 41.74 8.45 84.87 7.49 127.36 7.49 127.36H247V340.47s9-53.06-5.13-80.63-99.7 5.61-99.7 5.61z" fill="#955454"/><g clip-path="url(#M)"><path d="M184.35 308.06s-3.44 22.38 4.1 37.06l-6.35 61.4s-7-21-6.63-39.16 8.88-59.3 8.88-59.3z" fill="#7d4545"/><g class="x y z AG"><path d="M184.24 305.46s-5.7 38.45 4.62 38.45c0 0 2.79 10.36 9.61 10.72m-10.02-10.72s-10.1 70.49-19.57 110.37-29 94.19-29 94.19l-40.29-2.83m107.68 2.83h39.4"/></g></g><path d="M68.77,155.06s-11.36-22.64-22.28-24.83a132.68,132.68,0,0,1-16.82-11.57c-4.55-4.35-6.17,2-3.87,4.41s11.13,10.39,11.11,11.11-8,.25-12.09-4-4.55-6.55-6.8-4.91a7.94,7.94,0,0,1-4.13-6.74c-.42-5.1-4.85-5.89-4.88-5.27s1.92,10.16,1.92,10.16-3.79-5.58-5.47-5.64a2.46,2.46,0,0,0-2.37,2.54,2.5,2.5,0,0,0,.09.61c.46,1.34-4.14-2.26-3,2.7s24.08,24.75,36.24,25.2,19,16.29,19,16.29Z" class="AA"/><g clip-path="url(#N)" class="AB"><path d="M41.92 150.15s8.61 0 20 15.42 38 64.82 69.14 52-12 18.44-12 18.44l-62.46-27.9zm71.94 46.25l8.8-55.3-13.75-8.78-4.06 53.3z"/></g><g class="x y z AG"><path d="M50.94 141.27c-7.71-5.84-10-2.54-18.8-4S22.87 128.1 20.92 126s-2.54-1-2.54-1-2.64 6.37 9 17.8M3 121.22l18.18 14.63"/><path d="M10.21 122.14L14 126.2a42 42 0 0 0 3.83 3"/></g><path d="M177,52.13s-2.45-8.4-3.54-13a41.17,41.17,0,0,1,.15-12.34s-6.91-8.93-5.06-14.67c5-15.6,19.76-15.33,47.14-4.15a8.64,8.64,0,0,1,5.77,9.74,13.28,13.28,0,0,1,10.47,9.11c2.91,8.34-2.51,25.89-5.63,31.93a71.09,71.09,0,0,1-8.05,11.78Z" fill="#4c2603"/><path d="M176.36,29.46A2.28,2.28,0,0,0,176,30.7V55c2.43,17.27,9.86,25.38,19.48,24.51l-.33,7s-.32,3.09-.68,5.14c-.48,2.7-2.68,4.75-2.36,7.74.51,4.85,9.66,9.63,12.35,10.43a10.63,10.63,0,0,0,4.95-.24c13.12-3.66,14.34-22.07,14.34-22.07s-2.15-1.24-2.52-8.91-.13-25.49-.13-25.49,2.91-1,3.53-7-1.61-6.88-3.9-6.78-4.73,5.27-5.14,9.36c-3.68,2-2.42-2.54-2.65-7.85s-6.19-5.13-7.32-8.43a25.83,25.83,0,0,1-.95-8.61,35.07,35.07,0,0,1-24.23-.68Z" class="AA"/><g clip-path="url(#O)" class="AB"><path d="M194,79.69s14.25-1.86,17.82-12.34c0,0-4,19-15.78,22.87S194,79.69,194,79.69Z"/></g><path d="M197.37 38.28a8.5 8.5 0 0 0-8 0M181 39.53a7.22 7.22 0 0 0-5.74-1.29" class="x y AC AE"/><circle cx="191.66" cy="45.13" r="1.14" class="AD"/><path d="M190.45,45.37a3.77,3.77,0,0,1,4.5.13" class="x y z AC"/><circle cx="177.97" cy="45.13" r="1.14" class="AD"/><g class="x y z AC"><path d="M176.5,45.33a3.77,3.77,0,0,1,4.49.21"/><path d="M185.31,42.84a21.07,21.07,0,0,1-1.38,7.5c-3.16,6.22-5.47,14.1,6.59,9.31" class="AE"/></g><path d="M186.31 69.11c3.15.29 6.49-4.56 6.49-4.56a28.42 28.42 0 0 1-6.49 1.61 12.92 12.92 0 0 1-4.91-1.61s1.77 4.26 4.91 4.56z" class="y z AC AF"/><g class="x z AC"><ellipse cx="175.69" cy="46.27" rx="6.84" ry="6.86"/><ellipse cx="192.8" cy="46.27" rx="6.84" ry="6.86"/><path d="M199.65 44l17.11-2.29m-34.22 2.68l4.56.33" class="y AE"/></g><path d="M194.59 89.68s-46.15 1.45-58.81 25.75L110 191.58a3.44 3.44 0 0 1-4.36 2.16 3.49 3.49 0 0 1-1.74-1.31l-31.8-46.38-21.69 23.39s37.68 69.41 57.4 71.37S141 218.27 141 218.27l-3.21 53s59.55 29 108.91 0l3.15-87.57 31-59.49s-12.11-20.49-53.63-32.1l-13.53 17.93-20.61-3.04z" fill="#659cff"/><g clip-path="url(#P)"><path d="M49.34 171l24.75-27.4 6.51 6.61-29.11 30.64z" class="AF"/><g fill="#4c7fff"><path d="M149.61 135.47s-12.78 88.1-50.48 100.58S132.51 253 132.51 253l8.49-29.86zm98.55 0s-14.08 23.41-12.3 64.57-102.44 15.44-100.29 72 112.59 48.58 112.59 48.58l8.26-33.62-6.62-87v-15.23s-5.08-16.39-5.38-25.51 3.74-23.79 3.74-23.79z"/></g></g><path d="M194.89 88.92s-1.27 13 6.77 18a23.59 23.59 0 0 0 21.59-20.33 20.93 20.93 0 0 1 4.56 9.21c.5 4.48-5.83 22.86-13.18 31.45 0 0-4.84-13.34-13.94-17.71 0 0-12.29 0-14.6 14.17 0 0-3-13 0-20.26a89 89 0 0 1 8.8-14.53z" class="AF"/><path d="M280.88 124.26S315.1 232.12 289 251.14s-85 31.25-85 31.25l-8-26.81 65.69-31.29-11.83-40.54z" fill="#659cff"/><g clip-path="url(#Q)"><path d="M202.91,278.3s85.2-19.5,91-42.25-2.62-77-2.62-77l-3.16-28.34,33.8,105.31-53.55,72Z" fill="#4c7fff"/><path d="M196.9,255.89l7,26.5,10.23-2.14-7-29.29Z" class="AF"/></g><g class="x y z AG"><path d="M248.16 271.21L204 282.39l-7-26.49 64.82-31.61s16.84-2.85 27.71 5.48m-27.71-6.2l-11.93-39.82s-10-24.4-1.73-48.28m1.63 49.31a26.59 26.59 0 0 1-12.15-13.64M141 218.27l8.57-82.8m-99.16 33.97l21.72-23.39 32.82 48s8.92 10 4.21 21.58M105 194.06a16.27 16.27 0 0 1 15.28 6"/><path d="M261.81,223.57s2.92-5.74,13.09-5.74"/></g><path d="M198.05,260.48s-8.19,1.61-10.63,0-4.69-4.89-14.49-2.44-13.82,5-16.31,3.71c0,0-.86,3.57,2.06,3.67,0,0-17.26,2.83-17,4.67s15.56,1.09,15.56,1.09-18.49,4.05-17.28,7.29a3.12,3.12,0,0,0,3.39,1.78,5.74,5.74,0,0,0,5.49,3.12h5.6s-.5,3.53,5,3.6,28.69-.11,43.51-8.5Z" class="AA"/><g clip-path="url(#R)" class="AB"><path d="M198.48,258.53l-1.58,23.85,9.69-3.56Z"/></g><path d="M158.29 265.45l15.41-3m-17.51 8.84l8.9-1m-21.78 9.95l22.69-3.9m-11.6 7.03l12.78-2.29" class="x y z AG"/></svg>