<svg xmlns="http://www.w3.org/2000/svg" xmlns:xlink="http://www.w3.org/1999/xlink" viewBox="0 0 539.79 611.04" xmlns:v="https://vecta.io/nano"><style><![CDATA[.e{fill:none}.f{stroke-miterlimit:10}.g{fill:#ffd3c8}.h{fill:#f1b2a2}.i{fill:#607385}.j{fill:#061537}]]></style><defs><clipPath id="A"><path d="M59.92 561.14l-9.88 24.23 19.15 11.05 12.18-37.14-21.45 1.86z" class="e"/></clipPath><clipPath id="B"><path d="M136.77,573.74s-3.85,16.22-1.1,17.51,15,2.56,20.64,6.09S124,602.45,124,602.45l-8.73-4.09,2.44-27.6Z" class="e"/></clipPath><clipPath id="C"><path d="M61.15 346.37S54 376.58 87.89 408.2c0 0 19.82 73.86 19.82 87.15s4.72 80.09 4.72 80.09h26.17S160.37 444 145 339.25c0 0-15.55-10.84-21-9.73-19.37 3.93-62.85 16.85-62.85 16.85z" class="e"/></clipPath><clipPath id="D"><path d="M144.74 228.45s-16.26-16.5-29-19.29l-28.55 3.54a27.45 27.45 0 0 0-24.06 27.22v67.64s-6 32.25-6.74 44.83c0 0 6.75 11.95 38.62 4.51 16.08-3.75 20.83-13.41 32.77-17.32 7-2.29 19.5 1.49 19.5 1.49s-8.67-18.65-9.83-33.19c-.72-8.89-1.59-33.7 8.18-68.28 2.14-7.6-.89-11.15-.89-11.15z" fill="#ff9378"/></clipPath><clipPath id="E"><path d="M146.41,233.48s-3.53,20-22.32,38.75c0,0,18.35,59.66,40,48.77S170,255.16,170,255.16s3.94-5.26,3.94-7.83a5.24,5.24,0,0,0-1.5-3.86s.2-3.74-1.36-3.89c0,0-.12-4.35-2.78-4.38,0,0-1.33-4.36-4.17-2.82s-12.56,10.71-9,15.93,1.61,30.08,1.61,30.08Z" class="e"/></clipPath><path id="F" d="M144.74 228.45s-16.26-16.5-29-19.29l-28.55 3.54a27.45 27.45 0 0 0-24.06 27.22v67.64s-6 32.25-6.74 44.83c0 0 6.75 11.95 38.62 4.51 16.08-3.75 20.83-13.41 32.77-17.32 7-2.29 19.5 1.49 19.5 1.49s-8.67-18.65-9.83-33.19c-.72-8.89-1.59-33.7 8.18-68.28 2.14-7.6-.89-11.15-.89-11.15z"/></defs><path d="M456.67 484.5L133 443.34 189.37 0l331.71 42.18a6.64 6.64 0 0 1 5.74 7.41l-53.69 422.17a14.72 14.72 0 0 1-16.46 12.74z" class="i"/><path d="M498.658 139.492l2.826-21.523 40.046 5.259-2.826 21.523z" fill="#ff4f5b"/><path d="M498.658 139.492l2.826-21.523 40.046 5.259-2.826 21.523z" fill="#4bc5a9"/><path d="M201.809 13.75l313.017 39.821-53.632 421.582-313.017-39.821z" fill="#e1e1e1"/><path d="M188.499 6.826l313.017 39.821-53.632 421.582-313.017-39.821z" fill="#fafafa"/><path d="M193.25 48.55l311.92 39.67M192.56 69.76l311.92 39.67m-314.59-18.7l311.92 39.66m-314.58-18.7l311.91 39.67m-314.58-18.71l311.92 39.67m-314.59-18.7l311.92 39.66m-314.58-18.7l311.92 39.67m-314.59-18.71l311.92 39.67m-314.58-18.7l311.91 39.66m-314.58-18.7l311.92 39.67m-314.58-18.71l311.91 39.67M165.9 279.39l311.92 39.67m-314.59-18.7l311.92 39.66m-314.58-18.7l311.92 39.67M157.9 342.28l311.92 39.67m-314.58-18.7l311.91 39.66m-314.58-18.7l311.92 39.67M149.9 405.17l311.92 39.67" stroke="#e1e1e1" class="e f"/><path d="M238.15 15.39l-53.43 420.13" fill="#659cff"/><path d="M215.75 32.83a6.42 6.42 0 1 1-5.55-7.17 6.41 6.41 0 0 1 5.55 7.17zm-5.95 46.78a6.41 6.41 0 1 1-5.55-7.17 6.41 6.41 0 0 1 5.55 7.17zm-5.94 46.78a6.42 6.42 0 1 1-5.56-7.17 6.42 6.42 0 0 1 5.56 7.17zm-5.95 46.78a6.42 6.42 0 1 1-5.56-7.18 6.42 6.42 0 0 1 5.56 7.18zM192 219.94a6.42 6.42 0 1 1-5.56-7.17 6.42 6.42 0 0 1 5.56 7.17zm-6 46.78a6.42 6.42 0 1 1-5.55-7.17 6.41 6.41 0 0 1 5.55 7.17zm-5.94 46.78a6.42 6.42 0 1 1-5.55-7.18 6.41 6.41 0 0 1 5.55 7.18zm-5.95 46.77a6.42 6.42 0 1 1-5.55-7.17 6.41 6.41 0 0 1 5.55 7.17zm-5.95 46.78a6.41 6.41 0 1 1-5.55-7.17 6.41 6.41 0 0 1 5.55 7.17z" fill="#375a64"/><path d="M184 51.4q0 .12-.72 0a11.15 11.15 0 0 1-1.92-.52 14.1 14.1 0 0 1-2.84-1.47 13.71 13.71 0 0 1-3.14-2.9 15.71 15.71 0 0 1-2.46-4.6 19.43 19.43 0 0 1-1-5.89 14.29 14.29 0 0 1 1.34-6.6 14.71 14.71 0 0 1 4.85-5.36 16.82 16.82 0 0 1 6.65-2.65 20.57 20.57 0 0 1 6.6 0 26.88 26.88 0 0 1 10.15 4 36.84 36.84 0 0 1 5.7 4.59c1.22 1.19 1.81 1.94 1.7 2.06s-.9-.4-2.28-1.36a63.57 63.57 0 0 0-5.94-3.8 28 28 0 0 0-9.62-3.32 19.15 19.15 0 0 0-5.89.12 15 15 0 0 0-5.74 2.3 12.7 12.7 0 0 0-4.13 4.49A12.56 12.56 0 0 0 174.1 36a18.31 18.31 0 0 0 .66 5.29 14.93 14.93 0 0 0 1.94 4.2 13.83 13.83 0 0 0 2.6 2.83 16.19 16.19 0 0 0 2.43 1.69c.71.43 1.32.66 1.69.9s.58.42.58.49zm-6 46.78c0 .08-.27.07-.71 0a12 12 0 0 1-1.93-.51 13.91 13.91 0 0 1-6-4.38 15.34 15.34 0 0 1-2.45-4.6 18.72 18.72 0 0 1-1-5.88 14.15 14.15 0 0 1 1.33-6.6 14.72 14.72 0 0 1 4.85-5.36 17 17 0 0 1 6.65-2.66 20.56 20.56 0 0 1 6.6 0 26.71 26.71 0 0 1 10.15 4 36.3 36.3 0 0 1 5.68 4.51c1.22 1.2 1.81 2 1.7 2.07s-.9-.4-2.28-1.36a61.56 61.56 0 0 0-5.94-3.8 27.51 27.51 0 0 0-9.62-3.32 19.15 19.15 0 0 0-5.89.12 15 15 0 0 0-5.74 2.34 12.85 12.85 0 0 0-4.13 4.48 12.59 12.59 0 0 0-1.21 5.55 17.92 17.92 0 0 0 .67 5.29 14.71 14.71 0 0 0 1.93 4.21 13.83 13.83 0 0 0 2.6 2.83 17.54 17.54 0 0 0 2.43 1.69c.71.43 1.32.66 1.7.9s.67.4.61.48zM172.09 145c0 .08-.26.07-.71 0a11.21 11.21 0 0 1-1.93-.52 12.86 12.86 0 0 1-2.83-1.47 13.52 13.52 0 0 1-3.15-2.9 15.47 15.47 0 0 1-2.45-4.6 18.72 18.72 0 0 1-1-5.88 14.14 14.14 0 0 1 1.34-6.6 14.69 14.69 0 0 1 4.84-5.36 17 17 0 0 1 6.65-2.66 20.28 20.28 0 0 1 6.6 0 26.87 26.87 0 0 1 10.15 4 37 37 0 0 1 5.69 4.52c1.21 1.2 1.8 1.94 1.7 2.06s-.9-.39-2.28-1.36a65.66 65.66 0 0 0-6-3.79 27.51 27.51 0 0 0-9.62-3.32 19.15 19.15 0 0 0-5.89.12 15.17 15.17 0 0 0-5.74 2.33 12.88 12.88 0 0 0-4.13 4.49 12.56 12.56 0 0 0-1.21 5.55 17.92 17.92 0 0 0 .67 5.29 14.65 14.65 0 0 0 1.93 4.2 13.65 13.65 0 0 0 2.6 2.84 17.54 17.54 0 0 0 2.43 1.69c.71.42 1.32.65 1.7.89s.66.36.64.48zm-5.95 46.74c0 .07-.26.07-.71 0a11.21 11.21 0 0 1-1.93-.52 14.05 14.05 0 0 1-2.83-1.47 13.52 13.52 0 0 1-3.15-2.9 15.47 15.47 0 0 1-2.45-4.6 19.08 19.08 0 0 1-1-5.89 14.1 14.1 0 0 1 1.34-6.59 14.61 14.61 0 0 1 4.84-5.36 16.75 16.75 0 0 1 6.65-2.66 20.57 20.57 0 0 1 6.6 0 26.88 26.88 0 0 1 10.15 4 37 37 0 0 1 5.69 4.52c1.22 1.19 1.8 1.94 1.7 2.06s-.9-.39-2.28-1.36a65.36 65.36 0 0 0-5.95-3.8 27.71 27.71 0 0 0-9.62-3.31 18.84 18.84 0 0 0-5.89.11 15.26 15.26 0 0 0-5.74 2.34 12.67 12.67 0 0 0-4.12 4.49 12.43 12.43 0 0 0-1.22 5.55 18.31 18.31 0 0 0 .67 5.29 14.92 14.92 0 0 0 1.93 4.2 13.65 13.65 0 0 0 2.6 2.84 17.86 17.86 0 0 0 2.44 1.69c.7.42 1.31.65 1.69.89s.61.4.59.48zm-5.95 46.77c0 .08-.26.08-.71 0a12 12 0 0 1-1.93-.51 14.06 14.06 0 0 1-6-4.38 15.34 15.34 0 0 1-2.45-4.6 19.31 19.31 0 0 1-1-5.88 14.16 14.16 0 0 1 1.34-6.6 14.69 14.69 0 0 1 4.84-5.36 16.88 16.88 0 0 1 6.65-2.65 20.29 20.29 0 0 1 6.6 0 26.81 26.81 0 0 1 10.15 4 35.83 35.83 0 0 1 5.69 4.52c1.22 1.19 1.8 1.94 1.7 2.06s-.9-.4-2.28-1.36a65.36 65.36 0 0 0-6-3.8 27.64 27.64 0 0 0-9.62-3.32 19.15 19.15 0 0 0-5.89.12 15.1 15.1 0 0 0-5.74 2.34 12.73 12.73 0 0 0-4.12 4.48 12.49 12.49 0 0 0-1.22 5.55 18.22 18.22 0 0 0 .67 5.29 14.72 14.72 0 0 0 1.94 4.21 13.81 13.81 0 0 0 2.59 2.83 16.23 16.23 0 0 0 2.44 1.69c.7.43 1.31.66 1.69.9s.69.4.66.47zm-5.95 46.78c0 .08-.26.07-.71 0a11.21 11.21 0 0 1-1.93-.52 13.45 13.45 0 0 1-2.83-1.46 14 14 0 0 1-3.15-2.91 15.47 15.47 0 0 1-2.45-4.6 19.31 19.31 0 0 1-1-5.88 14.16 14.16 0 0 1 1.34-6.6 14.69 14.69 0 0 1 4.84-5.36 17 17 0 0 1 6.66-2.66 20.22 20.22 0 0 1 6.59 0 26.77 26.77 0 0 1 10.16 4 36.78 36.78 0 0 1 5.68 4.51c1.22 1.2 1.8 2 1.7 2.06s-.9-.39-2.28-1.36a65.66 65.66 0 0 0-5.95-3.79 27.44 27.44 0 0 0-9.62-3.32 19.09 19.09 0 0 0-5.88.12 15.11 15.11 0 0 0-5.74 2.33 12.7 12.7 0 0 0-4.13 4.49 12.46 12.46 0 0 0-1.22 5.55 18.26 18.26 0 0 0 .67 5.29 14.53 14.53 0 0 0 1.94 4.2 13.62 13.62 0 0 0 2.59 2.84 17.58 17.58 0 0 0 2.44 1.69c.7.42 1.31.65 1.69.89s.62.41.59.49zm-5.94 46.78c0 .07-.27.07-.72 0a11.21 11.21 0 0 1-1.93-.52 14.05 14.05 0 0 1-2.83-1.47 13.49 13.49 0 0 1-3.14-2.9 15.48 15.48 0 0 1-2.46-4.6 19.33 19.33 0 0 1-1-5.89 14.25 14.25 0 0 1 1.34-6.59 14.55 14.55 0 0 1 4.85-5.36 16.69 16.69 0 0 1 6.65-2.66 20.22 20.22 0 0 1 6.59 0 26.76 26.76 0 0 1 10.16 4 37.35 37.35 0 0 1 5.68 4.52c1.22 1.2 1.81 1.94 1.7 2.06s-.9-.39-2.28-1.36a62.63 62.63 0 0 0-5.95-3.8 27.64 27.64 0 0 0-9.62-3.31 18.78 18.78 0 0 0-5.88.11 15.13 15.13 0 0 0-5.74 2.34 12.7 12.7 0 0 0-4.13 4.49 12.42 12.42 0 0 0-1.21 5.55 18 18 0 0 0 .66 5.29 14.66 14.66 0 0 0 1.94 4.2 13.9 13.9 0 0 0 2.62 2.83 18.49 18.49 0 0 0 2.44 1.69l1.69.89c.38.24.59.42.57.49zm-5.95 46.77q0 .12-.72 0a11.89 11.89 0 0 1-1.92-.52 13.91 13.91 0 0 1-6-4.38 15.53 15.53 0 0 1-2.46-4.59 19.43 19.43 0 0 1-1-5.89 14.29 14.29 0 0 1 1.34-6.6 14.71 14.71 0 0 1 4.85-5.36 16.82 16.82 0 0 1 6.65-2.65 20.29 20.29 0 0 1 6.6 0 26.94 26.94 0 0 1 10.15 4 36.14 36.14 0 0 1 5.68 4.52c1.22 1.19 1.81 1.94 1.7 2.06s-.9-.4-2.28-1.36a62.63 62.63 0 0 0-6-3.8 27.84 27.84 0 0 0-9.62-3.32 19.09 19.09 0 0 0-5.88.12 15 15 0 0 0-5.74 2.34 12.7 12.7 0 0 0-4.13 4.49 12.56 12.56 0 0 0-1.21 5.55 18.31 18.31 0 0 0 .66 5.29 14.79 14.79 0 0 0 1.94 4.2 14.09 14.09 0 0 0 2.59 2.83 16.75 16.75 0 0 0 2.44 1.69c.71.43 1.31.66 1.69.9s.69.41.67.48zm-5.95 46.78c0 .08-.27.07-.71 0a11 11 0 0 1-1.93-.52 13.5 13.5 0 0 1-2.84-1.46 13.77 13.77 0 0 1-3.14-2.91 15.34 15.34 0 0 1-2.45-4.6 19 19 0 0 1-1-5.88 14.29 14.29 0 0 1 1.34-6.6 14.72 14.72 0 0 1 4.85-5.36 17 17 0 0 1 6.65-2.66 20.28 20.28 0 0 1 6.6 0 26.71 26.71 0 0 1 10.15 4 36.3 36.3 0 0 1 5.68 4.51c1.22 1.2 1.81 1.95 1.7 2.06s-.9-.39-2.28-1.35a61.56 61.56 0 0 0-5.94-3.8 27.58 27.58 0 0 0-9.62-3.32 19.15 19.15 0 0 0-5.89.12 15 15 0 0 0-5.74 2.34 12.77 12.77 0 0 0-4.13 4.48 12.59 12.59 0 0 0-1.21 5.55 18.27 18.27 0 0 0 .66 5.29 14.8 14.8 0 0 0 1.94 4.2 13.65 13.65 0 0 0 2.6 2.84 17 17 0 0 0 2.43 1.69l1.7.9c.38.24.6.4.58.48z" fill="#955454"/><path d="M499.036 121.652l2.744-21.566 36.109 4.594-2.744 21.566z" fill="#56d4b7"/><path d="M467.15 135.63a3 3 0 0 1-.6 0l-1.74-.2-6.71-.81-24.66-3.15-81.32-10.66L329 117.7l-21.59-2.84a75.65 75.65 0 0 0-19.56-.21c-6.06.85-11.8 2.15-17.12 1.51a20.05 20.05 0 0 1-7.19-2.23c-2.12-1.1-4-2.38-5.72-3.48a30.34 30.34 0 0 0-5.1-2.68 14.21 14.21 0 0 0-4.72-.88 9.06 9.06 0 0 0-6.21 2 9.71 9.71 0 0 0-1.5 1.78 2.9 2.9 0 0 1 .28-.53 3 3 0 0 1 .42-.61 4.36 4.36 0 0 1 .7-.76 9.13 9.13 0 0 1 6.31-2.19 14.42 14.42 0 0 1 4.85.83 29.8 29.8 0 0 1 5.2 2.66c1.78 1.09 3.63 2.34 5.71 3.41a20 20 0 0 0 7 2.13c5.19.58 10.86-.72 17-1.61a76 76 0 0 1 19.74.13l21.6 2.8 23.13 3.07 81.28 10.9 24.63 3.39 6.69 1 1.73.27a3.4 3.4 0 0 1 .59.07zm-6.32 21.77a3.92 3.92 0 0 1-.56 0l-1.63-.17-6.28-.72-23.06-2.81-76.05-9.56-76-9.78-23-3.05-6.26-.87-1.62-.25a3 3 0 0 1-.55-.11 3.92 3.92 0 0 1 .56 0l1.63.17 6.27.72 23.06 2.81 76.06 9.56 76 9.78 23 3.06 6.26.86 1.62.25a3.36 3.36 0 0 1 .55.11zm-19.3 106.31a1.77 1.77 0 0 1-.53 0l-1.56-.15-6-.69-21.92-2.66-72.29-9.08L267 241.8l-21.89-2.91-6-.83-1.54-.24a3.65 3.65 0 0 1-.52-.1 1.93 1.93 0 0 1 .53 0l1.55.16 6 .69 21.92 2.66 72.29 9.08 72.26 9.3 21.89 2.91 5.94.83 1.55.24a2.88 2.88 0 0 1 .55.12zm-5.41 42.5a2.35 2.35 0 0 1-.53 0L434 306l-6-.69-21.92-2.66-72.28-9.08-72.27-9.31-21.89-2.9-5.94-.83-1.55-.24a2.33 2.33 0 0 1-.52-.11 3.52 3.52 0 0 1 .53 0l1.56.16 6 .69 21.92 2.66 72.3 9.08 72.25 9.3 21.92 2.93 5.95.83 1.54.23a2.73 2.73 0 0 1 .52.15zm-1.5-22.21a2.55 2.55 0 0 1-.52 0l-1.52-.16-5.84-.67-21.47-2.6-70.77-8.89-70.77-9.11-21.43-2.85-5.82-.82-1.51-.23-.51-.1a1.86 1.86 0 0 1 .52 0l1.52.16 5.84.67 21.46 2.6 70.79 8.89 70.75 9.11 21.44 2.85 5.82.81 1.51.24a2.61 2.61 0 0 1 .51.1zm-113.53 26.84a5.12 5.12 0 0 1-.94 0l-2.68-.27-9.86-1.13-32.46-4-32.45-4.25-9.82-1.37-2.67-.41a4.63 4.63 0 0 1-.92-.2 4.18 4.18 0 0 1 .94 0l2.69.27 9.85 1.13 32.47 4 32.44 4.24 9.82 1.38 2.67.41a3.55 3.55 0 0 1 .92.2zM421.51 408a2.35 2.35 0 0 1-.53 0l-1.56-.15-6-.69-21.92-2.66-72.29-9.08-72.21-9.3-21.89-2.9-5.95-.83-1.54-.24a2 2 0 0 1-.52-.11 3.52 3.52 0 0 1 .53 0l1.55.16 6 .69 21.92 2.66 72.29 9.08 72.26 9.3 21.89 2.91 5.94.83 1.55.23a3.37 3.37 0 0 1 .48.1zM420 385.82a2.55 2.55 0 0 1-.52 0l-1.53-.16-5.84-.67-9.26-1.11c-31.12-2.2-62.12-8.2-93.2-11.68l-9.93-1.3-50.61-6.51-21.43-2.85-5.82-.82-1.52-.23-.51-.1a1.86 1.86 0 0 1 .52 0l1.53.16 5.84.67 21.46 2.6 50.63 6.36 9.93 1.26q46.49 6.33 93.16 12l9.25 1.22 5.82.81 1.52.24a2.61 2.61 0 0 1 .51.11zm-113.52 26.85a5.12 5.12 0 0 1-.94 0l-2.69-.27-9.85-1.17-32.47-4-32.45-4.23-9.82-1.37-2.66-.41a4.18 4.18 0 0 1-.92-.2 4.17 4.17 0 0 1 .94 0l2.68.27 9.85 1.13 32.48 4 32.44 4.24 9.82 1.38 2.66.41a3.89 3.89 0 0 1 .93.22zm-29.3-257.6c0 .22-7.73-.59-17.2-1.79s-17.12-2.36-17.09-2.57 7.72.59 17.19 1.8 17.12 2.35 17.1 2.56zm167.3 85.41a3.27 3.27 0 0 1-.51 0l-1.5-.15-5.77-.56-9.14-.66-12.12-.61-31.6-1.38c-5.94-.36-12.18-.81-18.61-1.64s-13-1.93-19.84-2.94l-69.53-10.64-21.06-3.32-5.72-.94-1.48-.27a2.44 2.44 0 0 1-.5-.11 2 2 0 0 1 .51 0l1.5.18 5.74.8 21.09 3.08 69.57 10.41 19.82 2.95c6.41.88 12.67 1.32 18.56 1.7l31.57 1.54 12.13.72 9.14.8c2.5.27 4.45.51 5.76.71l1.49.22a1.79 1.79 0 0 1 .5.11z" stroke="#b3b3b3" class="e f"/><path d="M427 95.47A57.88 57.88 0 0 0 416.84 97q-2.83 3.2-6.29 7.72l-1.68 2.23-1.35 1.72c-.6.72-1.31 1.28-1.91 1.2a1 1 0 0 1-.78-.49 1 1 0 0 1-.24-.79c.06-.49.88-1.77 2.46-3.87q1.29-1.7 3.87-4.79 1-1.19 1.59-2a21.91 21.91 0 0 0-3 .65 2.81 2.81 0 0 1-1.07.15.91.91 0 0 1-.74-.57 1.17 1.17 0 0 1-.12-.7 1.32 1.32 0 0 1 .78-1.16 17.21 17.21 0 0 1 3.8-1 28.8 28.8 0 0 0 3.22-.75Q416 94 418.75 91q1.17-1.31 6.44-6a95.23 95.23 0 0 1 7.75-6.34c1.52-1.14 2.65-1.66 3.38-1.57a1.56 1.56 0 0 1 1.09.69 1.68 1.68 0 0 1 .28 1.14 8.51 8.51 0 0 1-1.05 2.44l-3.25 6.5-1.94 4.75.63.05c.5 0 .91.09 1.24.13 1 .13 1.45.57 1.36 1.33a1.84 1.84 0 0 1-.45.93 1.36 1.36 0 0 1-.81.49 4.06 4.06 0 0 1-.86-.06 9.58 9.58 0 0 0-2.22-.1 89.32 89.32 0 0 0-3.16 9.14 59 59 0 0 0-1.46 6.07c-.16 1.24-.61 1.81-1.35 1.72a1.54 1.54 0 0 1-1.25-1.08 3.36 3.36 0 0 1-.15-1.73 49.78 49.78 0 0 1 2.49-9.46q1.04-2.98 1.54-4.57zm1.08-2.7l1.7-3.85q.34-.83 1.62-3.24 1.28-2.41 2.06-4a19.74 19.74 0 0 0-3.79 2.52 72.8 72.8 0 0 0-10 9.63l4.26-.64 4.16-.42zm13.16-6.17l1.73-2.67c.5-.67 1-1 1.52-1 .22 0 .31.17.28.41a6.77 6.77 0 0 1-.9 1.69l-1.1 1.75 1.7.26a3.09 3.09 0 0 1 1.3.35.55.55 0 0 1 .2.59c-.06.5-.31.73-.74.67a4.62 4.62 0 0 1-.54-.11q-.29-.09-2.19-.33l-.54-.08-1.29 2.36a8.28 8.28 0 0 1-.89 1.51.89.89 0 0 1-.77.4.53.53 0 0 1-.36-.19.51.51 0 0 1-.15-.43 19.77 19.77 0 0 1 1.9-3.78 15.14 15.14 0 0 0-1.74-.08 4.56 4.56 0 0 1-.66 0 .71.71 0 0 1-.56-.41.75.75 0 0 1-.06-.42c.05-.45.35-.7.89-.74a24.55 24.55 0 0 1 2.56.2zm15.59-24.12a79.37 79.37 0 0 0-56.64 13c-12.94 8.84-33.4 29-23.65 46.22 9.57 17 35.09 17.82 51.22 11.93 9.58-3.49 17.52-9.88 24.86-16.81a79.43 79.43 0 0 0 17.95-24.07c4.3-9.26 7.93-21 1.61-30.28-4.41-6.5-16.11-10.2-23.42-7.51-.59.21-.34 1.16.26.94 8.3-3 20.78 2.18 24 10.37 3.85 9.88-.21 20.46-4.93 29.32-7.64 14.34-21.6 28.5-36.42 35.38-15.91 7.39-40.21 8-52.27-6.94-13.56-16.78 7.95-38.57 21.33-47.7a78.42 78.42 0 0 1 55.88-12.91c.62.09.89-.85.26-1z" fill="#ff6f66"/><path d="M194.58 243.92a12.55 12.55 0 0 0 5.53-1.93c1.79-1.51 1.82 4.39-2.78 5.59s-2.75-3.66-2.75-3.66zm-.35 13.53s2.49 2.59-7.2 1.25c-2.82-.39-4.14-2.86-6.39-4.2-5.74-3.4 4.59-13.24 12-9.45z" class="h"/><path d="M59.92,561.14,50,585.37l19.15,11,12.18-37.14Z" class="g"/><g clip-path="url(#A)" class="h"><path d="M80.42,569.13l-34.12,5,12.84-18.29Z"/></g><path d="M52.08,577.85s3.82,14.51,20.29,8.75c2.89-1,6.4,10.43,11.82,11,14.48,1.6,14.48,7,14.48,12.14l-24.57.42a9.42,9.42,0,0,1-5-1.35L44.39,594a3.77,3.77,0,0,1-1.29-5.19,2.83,2.83,0,0,1,.32-.45Z" class="j"/><path d="M136.77,573.74s-3.85,16.22-1.1,17.51,15,2.56,20.64,6.09S124,602.45,124,602.45l-8.73-4.09,2.44-27.6Z" class="g"/><g clip-path="url(#B)" class="h"><path d="M140,574.19,112.38,586.6l5.3-16.49Z"/></g><path d="M113.75,594.16s25.25,4.16,30.15,0,43.16,9.13,34.74,13L117.77,611a3.8,3.8,0,0,1-4-3.53V594.16Z" class="j"/><path d="M68.08 375.91l12.34 91.63L54 561.75l26.41 7.38 20.59-43.9s24.95-63.11 19.9-76.29-52.82-73.03-52.82-73.03z" fill="#683535"/><path d="M61.15 346.37S54 376.58 87.89 408.2c0 0 19.82 73.86 19.82 87.15s4.72 80.09 4.72 80.09h26.17S160.37 444 145 339.25c0 0-15.55-10.84-21-9.73-19.37 3.93-62.85 16.85-62.85 16.85z" fill="#955454"/><g clip-path="url(#C)"><path d="M138,338.87s-27.95,14.47-25,24.95,13,17.62,3.17,43c-4,10.37,4.53,37.2,7.31,66.88,4,42.93,2.81,107.11,2.81,107.11s-16.64,2.65-20.55-2.43S103.27,551,103.27,551L68.7,402.42,51.09,350.5l79.27-17.33Z" fill="#7d4545"/></g><path d="M2.45,387.5.3,384.74a1.39,1.39,0,0,1,.24-2l9.62-7.52,3,3.86,3,3.85-9.62,7.52a1.4,1.4,0,0,1-2-.24Z" fill="#45aa92"/><path d="M13.17,379.12l-5.44-7L6.79,371a.56.56,0,0,1,0-.63l4.88-8.43a.54.54,0,0,1,.14-.16L71,315.43a.56.56,0,0,1,.78.09l1.87,2.39a.55.55,0,0,1,.11.41L73.35,322a.54.54,0,0,1-.21.37l-2.69,2.11a.56.56,0,0,1-.41.11l-3.61-.44a.55.55,0,0,0-.41.11l-50.1,39.14a.56.56,0,0,0-.09.78l.47.61a.56.56,0,0,0,.78.09l5.17-4a.56.56,0,0,1,.79.1l5.09,6.52,5.1,6.52a.55.55,0,0,1-.1.78l-14.08,11a.57.57,0,0,1-.78-.1Z" fill="#56d4b7"/><path d="M28.13 367.43l-4.81-6.16 192.39-150.32 4.82 6.16 4.81 6.17L32.95 373.59l-4.82-6.16z" fill="#e1e1e1"/><path d="M220.53,217.11,215.71,211l24.81-12.34a.54.54,0,0,1,.67.16l1.07,1.36,1.07,1.37a.54.54,0,0,1,0,.69l-18,21.09Z" class="i"/><path d="M243.11 201.22l2.56-2.01-.37-.47 1.89-1.47-.27-.33 1.13-.88.06-.5-.49-.06-1.13.88-.26-.33-1.88 1.47-.37-.47-2.56 2 1.69 2.17z" fill="#1a2e35"/><path d="M172.74 244.52l9.63 12.33m-2.41-17.97l9.63 12.33m-2.41-17.97l9.63 12.33m-2.41-17.97l9.63 12.33m-2.41-17.97l9.63 12.32" stroke="#1a2e35" stroke-width="1.92" class="e f"/><path d="M246.189 196.076l.954 1.221-1.844 1.441-.954-1.221z" class="i"/><g fill="#ff9378"><use xlink:href="#F"/><use xlink:href="#F"/></g><g clip-path="url(#D)"><path d="M124.08,272.23l-12.56-24.65s21,88.27-57.48,104.09,42.66,11,42.66,11l89-12.2Z" fill="#df775d"/><path d="M63.14,307.56s-19.41-85.4,24.18-95.95S79.09,203,79.09,203L30.41,223.8Z" fill="#ffbb20"/></g><path d="M131.13 159.32s2.08 13.4 1.76 18.35c-.87 13.08-6.89 17.82-16.19 14 0 0-3.46 15.12 4.06 19 0 0-21.6 10.09-33.44 1l21.79-27.19c2.65-3.39 9.55-6.58 16.47-14.28 2.32-2.65 5.55-10.88 5.55-10.88z" class="g"/><path d="M132.09 165.54s4.3-13.11 0-18.85-46.46-17.53-49.6 19.79c0 0-1.46 20.26-3.31 25.39a116.41 116.41 0 0 1-7.75 14.7l8.44.24 4.73-7.74v7.74l41.27.79v-5.66l4.69 5.66h10s-3.84-4.7-9.26-17 .79-25.06.79-25.06z" class="j"/><path d="M146.41,233.48s-3.53,20-22.32,38.75c0,0,18.35,59.66,40,48.77S170,255.16,170,255.16s3.94-5.26,3.94-7.83a5.24,5.24,0,0,0-1.5-3.86s.2-3.74-1.36-3.89c0,0-.12-4.35-2.78-4.38,0,0-1.33-4.36-4.17-2.82s-12.56,10.71-9,15.93,1.61,30.08,1.61,30.08Z" class="g"/><g clip-path="url(#E)" class="h"><path d="M155.27 298.7l-19.5-55.33L148 232l8.24 40.54zm12.32-42.28s9.94 41.05 2.65 63.69 18.12-27 18.12-27l-13-36.72-5.08-1.6z"/></g><path d="M157.28 254.82l-2 43.88m-.01-56.51s5-8 8.51-9.56 4.3 2.44 4.3 2.44a4.29 4.29 0 0 1 2.92 4.33 4.07 4.07 0 0 1 1.35 4s2.39 3.39 1.46 5.17-3.81 7.88-6.47 7.88" stroke="#99776c" stroke-width=".48" class="e f"/><path d="M196 245.56a18.42 18.42 0 0 0-5.91-1.66c-2.57-.08-1 2.35 1 3.34 0 0-2.63-.65-3.19.46s1.87 2.2 1.71 2.51c0 0-.08.31-.15.3-1.52-.21-2.54-.23-2.95.6-.64 1.28 1.92 2.56 1.35 2.62a2.41 2.41 0 0 0 .26 2.35 6.57 6.57 0 0 0 3.93 2.39c1.44.3 3.27.43 3.55-1.57a3.31 3.31 0 0 0 1.89-2.71 3.6 3.6 0 0 0 1.49-2.84s2.17-1 1.38-2.34a17.07 17.07 0 0 0-4.36-3.45z" class="g"/><path d="M190.9 246.81l8.37 4.16m-9.97-.97l8.21 4.09m-9.64-.36l7.32 3.65" stroke="#99776c" stroke-width=".48" class="e f"/></svg>