<svg xmlns="http://www.w3.org/2000/svg" viewBox="0 0 280 72" fill="none" role="img" aria-label="Nuha Tutors">
  <path d="M32 34c-2 0-4 1.5-4.5 4l-3 18c-.5 3 2 5.5 7.5 5.5s8-2.5 7.5-5.5l-3-18c-.5-2.5-2.5-4-4.5-4z" fill="#2d4a6e"/>
  <path d="M32 30V38M24 36c-4-2-8 0-10 4M40 36c4-2 8 0 10 4" stroke="#2d4a6e" stroke-width="2.5" stroke-linecap="round"/>
  <path d="M28 48h8v6c0 2-4 4-4 4s-4-2-4-4v-6z" fill="#fff" stroke="#e07a5f" stroke-width="1"/>
  <g fill="#e07a5f">
    <path d="M14 18l6-4 6 4v10l-6 4-6-4V18z"/>
    <path d="M38 14l6-3 6 3v9l-6 3-6-3V14z"/>
    <path d="M26 8l5-3 5 3v8l-5 3-5-3V8z"/>
    <path d="M46 24l5-2 5 2v7l-5 2-5-2v-7z"/>
  </g>
  <path d="M20 10l1.2 2.4 2.6.4-1.9 1.8.4 2.6-2.3-1.2-2.3 1.2.4-2.6-1.9-1.8 2.6-.4L20 10z" fill="#2d4a6e"/>
  <path d="M52 12l1 2 2.2.3-1.6 1.5.3 2.2-1.9-1-1.9 1 .3-2.2-1.6-1.5 2.2-.3L52 12z" fill="#2d4a6e"/>
  <text x="76" y="46" font-family="Poppins, Arial, sans-serif" font-size="28" font-weight="700" fill="#2d4a6e">Nuha</text>
  <text x="156" y="46" font-family="Poppins, Arial, sans-serif" font-size="28" font-weight="700" fill="#e07a5f">Tutors</text>
</svg>
