<svg xmlns="http://www.w3.org/2000/svg" viewBox="0 0 64 72" fill="none" role="img" aria-hidden="true">
  <defs>
    <linearGradient id="trunkGrad" x1="32" y1="28" x2="32" y2="72" gradientUnits="userSpaceOnUse">
      <stop stop-color="#2d4a6e"/>
      <stop offset="1" stop-color="#1a2b4a"/>
    </linearGradient>
  </defs>
  <!-- trunk -->
  <path d="M32 34c-2 0-4 1.5-4.5 4l-3 18c-.5 3 2 5.5 7.5 5.5s8-2.5 7.5-5.5l-3-18c-.5-2.5-2.5-4-4.5-4z" fill="url(#trunkGrad)"/>
  <path d="M32 30V38M24 36c-4-2-8 0-10 4M40 36c4-2 8 0 10 4" stroke="#2d4a6e" stroke-width="2.5" stroke-linecap="round"/>
  <!-- shield on trunk -->
  <path d="M28 48h8v6c0 2-4 4-4 4s-4-2-4-4v-6z" fill="#fff" stroke="#e07a5f" stroke-width="1"/>
  <path d="M32 48v10" stroke="#e07a5f" stroke-width="1"/>
  <!-- books -->
  <g fill="#e07a5f">
    <path d="M14 18l6-4 6 4v10l-6 4-6-4V18z"/>
    <path d="M38 14l6-3 6 3v9l-6 3-6-3V14z"/>
    <path d="M26 8l5-3 5 3v8l-5 3-5-3V8z"/>
    <path d="M46 24l5-2 5 2v7l-5 2-5-2v-7z"/>
    <path d="M8 28l4-2 4 2v6l-4 2-4-2v-6z"/>
  </g>
  <g fill="#fff" opacity="0.85">
    <rect x="17" y="20" width="6" height="1.5" rx=".5"/>
    <rect x="41" y="16" width="5" height="1.5" rx=".5"/>
    <rect x="29" y="11" width="4" height="1.5" rx=".5"/>
  </g>
  <!-- stars -->
  <path d="M20 10l1.2 2.4 2.6.4-1.9 1.8.4 2.6-2.3-1.2-2.3 1.2.4-2.6-1.9-1.8 2.6-.4L20 10z" fill="#2d4a6e"/>
  <path d="M52 12l1 2 2.2.3-1.6 1.5.3 2.2-1.9-1-1.9 1 .3-2.2-1.6-1.5 2.2-.3L52 12z" fill="#2d4a6e"/>
  <path d="M10 22l.8 1.6 1.7.3-1.2 1.2.3 1.7-1.5-.8-1.5.8.3-1.7-1.2-1.2 1.7-.3L10 22z" fill="#4a6fa5"/>
  <!-- leaves -->
  <ellipse cx="18" cy="32" rx="4" ry="6" fill="#fff" stroke="#2d4a6e" stroke-width="1" transform="rotate(-25 18 32)"/>
  <ellipse cx="48" cy="30" rx="3.5" ry="5.5" fill="#fff" stroke="#2d4a6e" stroke-width="1" transform="rotate(20 48 30)"/>
</svg>
